<?xml version="1.0" encoding="utf-8"?>
<!-- Generator: Adobe Illustrator 19.0.0, SVG Export Plug-In . SVG Version: 6.00 Build 0)  -->
<svg version="1.1" id="Layer_1" xmlns="http://www.w3.org/2000/svg" xmlns:xlink="http://www.w3.org/1999/xlink" x="0px" y="0px"
	 viewBox="0 0 2000 600" style="enable-background:new 0 0 2000 600;" xml:space="preserve">
<style type="text/css">
	.st0{fill:#012AA9;fill-opacity:0.4;}
	.st1{fill:none;stroke:#FFD44A;stroke-width:2;stroke-miterlimit:10;}
	.st2{fill:none;stroke:#FF498A;stroke-width:2;stroke-miterlimit:10;}
	.st3{fill:none;stroke:#4D5AFF;stroke-width:2;stroke-miterlimit:10;}
</style>
<path id="XMLID_4_" class="st0" d="M2028,205.9l-1.6-0.7l-128,259.8l0,0L2028,205.9L2028,205.9z M1968.7,497.3L1968.7,497.3
	l-1.7-0.8 M1838,758.2l0.8,2.3 M1982.1,504l-1.4-0.7 M1844.8,778.5l0.8,2.3 M1995.7,510.9L1995.7,510.9l-1.7-0.8 M1851.7,798.8
	l0.8,2.3 M2009.1,517.6l-1.4-0.7 M1858.5,819.1l0.8,2.3 M2022.7,524.4L2022.7,524.4l-1.5-0.9 M1865.4,839.6l0.7,2.2"/>
<path id="XMLID_6_" class="st0" d="M2035.6,220.7l-1.6-0.7l-128,259.8l0,0L2035.6,220.7L2035.6,220.7z M1976.3,512.1L1976.3,512.1
	l-1.7-0.8 M1845.6,773l0.8,2.3 M1989.7,518.8l-1.4-0.7 M1852.4,793.3l0.8,2.3 M2003.3,525.7L2003.3,525.7l-1.7-0.8 M1859.3,813.6
	l0.8,2.3 M2016.7,532.4l-1.4-0.7 M1866.1,833.9l0.8,2.3 M2030.3,539.2L2030.3,539.2l-1.5-0.9 M1873,854.4l0.7,2.2"/>
<path id="XMLID_8_" class="st0" d="M2048.5,234.8l-1.6-0.7l-128,259.8l0,0L2048.5,234.8L2048.5,234.8z M1989.2,526.2L1989.2,526.2
	l-1.7-0.8 M1858.5,787.1l0.8,2.3 M2002.6,532.9l-1.4-0.7 M1865.3,807.4l0.8,2.3 M2016.2,539.8L2016.2,539.8l-1.7-0.8 M1872.2,827.7
	l0.8,2.3 M2029.6,546.5l-1.4-0.7 M1879,848l0.8,2.3 M2043.2,553.3L2043.2,553.3l-1.5-0.9 M1885.9,868.5l0.7,2.2"/>
<path id="XMLID_10_" class="st0" d="M2058.2,254.2l-1.6-0.7l-128,259.8l0,0L2058.2,254.2L2058.2,254.2z M1998.9,545.6L1998.9,545.6
	l-1.7-0.8 M1868.2,806.5l0.8,2.3 M2012.3,552.3l-1.4-0.7 M1875,826.8l0.8,2.3 M2025.9,559.2L2025.9,559.2l-1.7-0.8 M1881.9,847.1
	l0.8,2.3 M2039.3,565.9l-1.4-0.7 M1888.7,867.4l0.8,2.3 M2052.9,572.7L2052.9,572.7l-1.5-0.9 M1895.6,887.9l0.7,2.2"/>
<circle id="XMLID_1_" class="st1" cx="51.6" cy="351.5" r="80.2"/>
<circle id="XMLID_5_" class="st2" cx="36.6" cy="365.5" r="80.2"/>
<circle id="XMLID_2_" class="st3" cx="17.3" cy="384.8" r="80.2"/>
</svg>
