<svg version="1.1" id="OBJECTS" xmlns="http://www.w3.org/2000/svg" xmlns:xlink="http://www.w3.org/1999/xlink" x="0" y="0" viewBox="0 0 750 500" style="enable-background:new 0 0 750 500" xml:space="preserve"><style>.st0{fill:#b2ccfc}.st1{fill:#0d3885}.st2{enable-background:new}.st3{fill:#5a94fd}.st4{fill:#1869f8}.st5{fill:#fff}.st6{fill:#c7dafc}.st7{fill:#548ff9}.st8{fill:#0050f0}.st10{font-family:&apos;BebasNeue&apos;}.st12{fill:#f8bea1}.st13{fill:#ff498a}</style><path class="st0" d="M507.8 72.9c-2.5-1.5-4.6-.3-4.6 2.6l-.4 133.3c0 2.9 2.1 6.5 4.6 8l148 85.4c2.5 1.5 4.6.3 4.6-2.6l.4-133.3c0-2.9-2-6.5-4.6-8l-148-85.4z"/><path class="st1" d="M507 72.6c-.1 0-.2-.1-.3-.1-.1 0-.1 0-.2-.1h-1.3c-.1 0-.2 0-.3.1h-.1c-.1 0-.2.1-.3.1l8.8-5.1c.1 0 .2-.1.2-.1H515.3c.1 0 .2.1.3.1h.2l.6.3 148 85.4.9.6c.1.1.2.2.3.2.1.1.3.2.4.4l.2.2.2.2.2.2c.1.1.3.3.4.5 0 .1.1.1.1.2 0 0 0 .1.1.1 0 .1.1.1.1.2.1.1.2.3.3.4.1.1.2.3.2.4.1.1.1.2.2.3.1.1.1.3.2.4.1.1.1.2.2.4.1.1.1.3.2.4.1.1.1.3.2.4 0 .1 0 .1.1.2V159.2c0 .2.1.4.1.5 0 .1 0 .2.1.3v.4c0 .3.1.6.1.9l-.4 133.3c0 1.5-.5 2.5-1.3 3l-8.8 5.1c.8-.5 1.3-1.5 1.3-3l.4-133.3c0-.3 0-.7-.1-1.1v-.2c-.1-.3-.1-.7-.2-1v-.1c-.1-.4-.2-.7-.4-1.1-.2-.4-.3-.7-.5-1.1-.2-.3-.4-.7-.6-1 0 0 0-.1-.1-.1-.2-.3-.4-.6-.7-.8l-.2-.2c-.2-.2-.4-.4-.6-.5-.1-.1-.2-.2-.3-.2l-.9-.6-148-85.4-.6-.3c-.1-.1-.1-.1-.2-.1z"/><g class="st2"><path class="st3" d="M507.6 65.6c-2.5-1.5-4.6-.3-4.6 2.6v9.2l157.2 90.8V159c0-2.9-2-6.5-4.6-8l-148-85.4z"/><path class="st4" d="M668.9 152.9v-.4c0-.1 0-.2-.1-.3 0-.2-.1-.4-.1-.5V151.4c0-.1 0-.1-.1-.2 0-.1-.1-.3-.2-.4-.1-.1-.1-.3-.2-.4-.1-.1-.1-.2-.2-.4-.1-.1-.1-.3-.2-.4-.1-.1-.1-.2-.2-.3-.1-.1-.2-.3-.2-.4-.1-.1-.2-.3-.3-.4 0-.1-.1-.1-.1-.2 0 0 0-.1-.1-.1 0-.1-.1-.1-.1-.2-.1-.2-.2-.3-.4-.5l-.2-.2-.2-.2-.2-.2c-.1-.1-.3-.2-.4-.4-.1-.1-.2-.2-.3-.2l-.9-.6-148-85.4-.6-.3c-.1 0-.1 0-.2-.1-.1 0-.1 0-.2-.1-.1 0-.1 0-.2-.1-.1 0-.3-.1-.4-.1h-1.3c-.1 0-.2.1-.2.1-.1 0-.2.1-.2.1l-8.8 5.1c.2-.1.4-.2.7-.3.2 0 .5-.1.7 0h.1c.2 0 .5.1.8.2.1 0 .1 0 .2.1.3.1.6.2.9.4l148 85.4.9.6c.1.1.2.2.3.2.2.2.4.3.6.5l.2.2c.2.3.5.5.7.8 0 0 0 .1.1.1.2.3.4.6.6 1 .2.4.4.7.5 1.1.2.4.3.7.4 1.1v.1c.1.3.2.7.2 1v.2c.1.4.1.7.1 1.1v9.2l8.8-5.1v-9.2c.1-.1.1-.4 0-.7z"/></g><path class="st5" d="M628.6 139.8c-1.6-.9-2.9-.2-2.9 1.7 0 1.8 1.3 4.1 2.9 5 1.6.9 2.9.2 2.9-1.7s-1.3-4.1-2.9-5zM638.6 145.5c-1.6-.9-2.9-.2-2.9 1.6s1.3 4.1 2.9 5c1.6.9 2.9.2 2.9-1.7-.1-1.7-1.4-4-2.9-4.9zM648.5 151.2c-1.6-.9-2.9-.2-2.9 1.7 0 1.8 1.3 4.1 2.9 5 1.6.9 2.9.2 2.9-1.6s-1.3-4.1-2.9-5.1zM532.8 126v3.9l-11.6-6.8v-3.9z"/><g class="st2"><path class="st5" d="m603 241.9.1 4-41.4-24.3v-4zM615.3 221.1v4l-53.7-31.6v-3.9zM639.2 225.9l.1 3.9-77.7-45.6v-4zM615.9 240.2v3.9l-75.5-44.4v-4zM569.5 203.6v3.9l-29.1-17.1-.1-4zM639.2 207.2v4l-77.6-45.7v-3.9zM554.7 185.5v3.9l-14.4-8.4v-3.9zM634.9 195.3v4l-73.4-43.1v-4zM626.9 209.3l.1 4-86.7-51v-3.9zM554.6 157.5v3.9l-14.3-8.4v-4zM554.6 148.1v4l-14.3-8.4-.1-4zM626.9 181.3v4l-86.7-51v-3.9zM609.5 160.3v4l-88.3-52v-3.9z"/></g><path class="st5" d="M645 181.2v3.9l-5.3-3v-4zM532.9 154v4l-11.6-6.9v-3.9zM554.6 176.1v4l-14.3-8.4v-4zM554.7 213.5v4l-14.3-8.5v-3.9z"/><g><path class="st4" d="M395.5 419.4c2.3 1.3 2.3 3.5 0 4.8l-9.3 5.4-114.4-66 9.3-5.4c2.3-1.3 6-1.3 8.3 0l106.1 61.2z"/><path class="st0" d="m271.8 363.6 114.4 66-61.1 35.5c-2.3 1.3-6 1.3-8.3 0l-106-61.2c-2.3-1.3-2.3-3.5 0-4.8l61-35.5zm30.1 40c3.7-1.6 7.2-2 10.4-1.2l2.4-2.5c-6.2-1.9-11.9-1.8-17.1.3l-5.4 2.4c-3.3 1.5-6.3 1.5-9 .1l-4.6 2.2c1.6 1.1 1.6 2.1.2 3.1-.5.3-1 .6-1.6.9l-4.8 2.1c-2.6 1.2-4.2 2.6-4.8 4.2-.6 1.6-.1 3.2 1.3 4.9l4.6-1.2c-.9-1.4-.2-2.6 2.1-3.9l1.3-.6 5.5-2.4c1.5-.7 2.5-1.5 3.1-2.4.6-.9.8-1.8.6-2.7 3.9.7 7.4.5 10.5-.8l5.3-2.5m12.6 21.8 4.6-2.2c-1.6-1.1-1.6-2.1-.2-3.1.4-.3 1-.6 1.7-.9l4.8-2.1c2.5-1.2 4.1-2.6 4.8-4.1.6-1.5.2-3.2-1.3-4.9l-4.6 1.1c.9 1.3.1 2.6-2.2 3.9l-1.3.6-5.5 2.4c-1.5.7-2.5 1.5-3.2 2.4-.6.9-.8 1.8-.5 2.8-3.9-.8-7.4-.5-10.6.7l-5.4 2.4c-3.7 1.6-7.2 2-10.4 1.2l-2.5 2.6c6.4 2 12.4 1.8 17.9-.6l4.6-2.1c3.6-1.4 6.6-1.4 9.3-.1"/><path class="st5" d="M328.8 408.1c1.5 1.7 1.9 3.3 1.3 4.9-.6 1.5-2.2 2.9-4.8 4.1l-4.8 2.1c-.6.3-1.2.6-1.7.9-1.4 1-1.4 2 .2 3.1l-4.6 2.2c-2.7-1.4-5.7-1.4-9 .1l-4.6 2.1c-5.5 2.4-11.5 2.6-17.9.6l2.5-2.6c3.2.8 6.7.4 10.4-1.2l5.4-2.4c3.1-1.3 6.6-1.5 10.6-.7-.3-1-.2-1.9.5-2.8.6-.9 1.7-1.7 3.2-2.4l5.5-2.4 1.3-.6c2.3-1.2 3-2.5 2.2-3.9l4.3-1.1zM314.7 399.8l-2.4 2.5c-3.2-.8-6.7-.4-10.4 1.2l-5.4 2.3c-3.1 1.3-6.6 1.5-10.5.8.2.9.1 1.9-.6 2.7-.6.9-1.7 1.7-3.1 2.4l-5.5 2.4-1.3.6c-2.3 1.2-3 2.5-2.1 3.9l-4.6 1.2c-1.5-1.7-1.9-3.3-1.3-4.9.6-1.6 2.2-3 4.8-4.2l4.8-2.1c.6-.3 1.2-.6 1.6-.9 1.4-1 1.3-2-.2-3.1l4.6-2.2c2.7 1.4 5.6 1.4 9-.1l5.4-2.4c5.3-1.9 11-2 17.2-.1z"/></g><g><path class="st6" d="m348.5 228.7 158.3 91.2c3.4 1.9 3.4 6.8 0 8.8l-115.3 67.1c-1.6.9-3.6.9-5.2 0L227.2 300c-3.4-2-3.2-6.9.2-8.8l116.2-62.6c1.5-.8 3.4-.8 4.9.1z"/><path class="st0" d="M491.3 305c3.8 2.2 3.8 5.8 0 8l-99.9 58c-3.8 2.2-10 2.2-13.8 0l-153-88.3c-3.8-2.2-3.9-5.8-.1-8l99.9-58c3.8-2.2 10-2.2 13.8 0L491.3 305z"/><path class="st6" d="m277 254.9 48-27.5c2.6-1.5 5.9-1.5 8.6 0l139.1 80.3c1.4.8 1.4 2.9 0 3.7l-48 27.5c-2.6 1.5-5.9 1.5-8.6 0L277 258.6c-1.4-.8-1.4-2.9 0-3.7zM287.4 302.3l20.8-11.7c2-1.1 4.5-1.1 6.5 0l40.5 23.3c1.2.7 1.2 2.4 0 3.1l-20.8 11.7c-2 1.1-4.5 1.1-6.5 0l-40.5-23.3c-1.2-.7-1.2-2.4 0-3.1z"/><path class="st1" d="M494.2 309.1c0 .2 0 .4-.1.6 0 .2-.1.4-.2.6l-.3.6c-.1.2-.2.4-.4.6-.2.2-.4.4-.6.7l-1.2.9s-.1 0-.1.1l-99.9 58c-.6.4-1.4.7-2.1.9-.6.2-1.2.3-1.8.5-.4.1-.8.1-1.2.2-.4 0-.7.1-1.1.1h-1c-.3 0-.6 0-1-.1-.3 0-.6-.1-1-.1-.3 0-.7-.1-1-.2-.3-.1-.7-.2-1-.3-.4-.1-.8-.3-1.2-.4-.5-.2-1-.4-1.4-.7l-153-88.3c-1.9-1.1-2.9-2.6-2.9-4v7.7c0 1.5 1 2.9 2.9 4l153 88.3c.4.3.9.5 1.4.7.4.2.8.3 1.2.4.3.1.7.2 1 .3.3.1.6.1 1 .2.3 0 .6.1 1 .1.3 0 .6 0 1 .1h1c.4 0 .7 0 1.1-.1.4 0 .8-.1 1.2-.2.6-.1 1.3-.3 1.8-.5.8-.2 1.5-.6 2.1-.9l99.9-58s.1 0 .1-.1c.5-.3.9-.6 1.2-.9.2-.2.4-.4.6-.7.2-.2.3-.4.4-.6l.3-.6c.1-.2.1-.4.2-.6 0-.2.1-.4.1-.6V309.1z"/><path class="st4" d="M528.9 183.2V182.1s0-.1-.1-.1c0 0 0-.1-.1-.1 0 0 0-.1-.1-.1 0 0 0-.1-.1-.1 0 0 0-.1-.1-.1 0-.1-.1-.1-.1-.2s-.1-.2-.1-.3c-.1-.1-.1-.2-.2-.3-.1-.1-.1-.2-.2-.3 0-.1-.1-.1-.1-.2l-.1-.1-.1-.1-.1-.1-.1-.1-.1-.1-.1-.1-.1-.1-.1-.1-.1-.1-.1-.1-.1-.1s-.1 0-.1-.1L361 83.2h-.1s-.1 0-.1-.1c0 0-.1 0-.1-.1H359.6c-.1 0-.1 0-.2.1-.1 0-.2.1-.2.1l-4.1 2.4c.1 0 .1-.1.2-.1s.1 0 .2-.1H356.6s.1 0 .1.1c0 0 .1 0 .1.1h.1L522.1 181s.1 0 .1.1c0 0 .1 0 .1.1l.1.1.1.1.1.1.1.1.1.1.1.1.1.1.1.1.1.1.1.1c0 .1.1.1.1.2.1.1.1.2.2.3.1.1.1.2.2.3.1.1.1.2.1.3 0 .1.1.1.1.2 0 0 0 .1.1.1 0 0 0 .1.1.1 0 0 0 .1.1.1 0 0 0 .1.1.1 0 0 0 .1.1.1V185.6l-23.6 122.7V308.6c0 .1 0 .1-.1.2 0 .1-.1.1-.1.2-.1.2-.3.3-.5.5l4.1-2.4c.2-.1.3-.3.5-.5 0-.1.1-.1.1-.2 0 0 0-.1.1-.2V305.9l23.6-122.7v-.4l.3.4z"/><path class="st0" d="M522.1 181c1.7 1 3 3.5 2.7 5.3L501.2 309c-.2 1.3-1.4 1.7-2.7 1l-165.1-95.3c-1.7-1-3-3.5-2.7-5.3l23.6-122.7c.2-1.3 1.4-1.7 2.7-1L522.1 181z"/><path class="st5" d="M338 210.1c-.1-.1-.2-.3-.3-.5l22.2-115.1 157.5 91c.1.1.2.3.3.5l-22.2 115.1-157.5-91z"/><path class="st7" d="m323 234.9 5.4 3.1c.1 0 .1.1.2.1s.1 0 .2.1h.8c.1 0 .2 0 .3-.1.1 0 .2-.1.3-.1l3.1-1.8c.1 0 .1-.1.2-.1l.1-.1s0-.1.1-.1v-2.5V233.7s0 .1-.1.1l-.1.1s-.1.1-.2.1l-3.1 1.8c-.1.1-.2.1-.3.1-.1 0-.2 0-.3.1H328.8c-.1 0-.1 0-.2-.1-.1 0-.1-.1-.2-.1l-5.4-3.1c-.3-.2-.4-.4-.4-.6v2.2c0 .3.1.5.4.6zM332.2 237.7v2.2c0 .2.1.4.4.6l5.4 3.1c.1 0 .1.1.2.1s.1 0 .2.1h.8c.1 0 .2 0 .3-.1.1 0 .2-.1.3-.1l3.1-1.8c.1 0 .1-.1.2-.1l.1-.1s0-.1.1-.1V239 239.3s0 .1-.1.1l-.1.1s-.1.1-.2.1l-3.1 1.8c-.1.1-.2.1-.3.1-.1 0-.2 0-.3.1H338.4c-.1 0-.1 0-.2-.1-.1 0-.1-.1-.2-.1l-5.4-3.1c-.3-.1-.4-.3-.4-.6zM341.8 243.3v2.2c0 .2.1.4.4.6l5.4 3.1c.1 0 .1.1.2.1s.1 0 .2.1h.8c.1 0 .2 0 .3-.1.1 0 .2-.1.3-.1l3.1-1.8c.1 0 .1-.1.2-.1l.1-.1s0-.1.1-.1v-2.5V244.9s0 .1-.1.1l-.1.1s-.1.1-.2.1l-3.1 1.8c-.1.1-.2.1-.3.1-.1 0-.2 0-.3.1H348c-.1 0-.1 0-.2-.1-.1 0-.1-.1-.2-.1l-5.4-3.1c-.3-.2-.4-.4-.4-.6zM351.4 248.8v2.2c0 .2.1.4.4.6l5.4 3.1c.1 0 .1.1.2.1s.1 0 .2.1h.8c.1 0 .2 0 .3-.1.1 0 .2-.1.3-.1l3.1-1.8c.1 0 .1-.1.2-.1l.1-.1s0-.1.1-.1v-2.5V250.4s0 .1-.1.1l-.1.1s-.1.1-.2.1l-3.1 1.8c-.1.1-.2.1-.3.1-.1 0-.2 0-.3.1H357.6c-.1 0-.1 0-.2-.1-.1 0-.1-.1-.2-.1l-5.4-3.1c-.3-.2-.4-.4-.4-.6zM360.9 254.3v2.2c0 .2.1.4.4.6l5.4 3.1c.1 0 .1.1.2.1s.1 0 .2.1h.8c.1 0 .2 0 .3-.1.1 0 .2-.1.3-.1l3.1-1.8c.1 0 .1-.1.2-.1l.1-.1s0-.1.1-.1v-2.5V255.9s0 .1-.1.1l-.1.1s-.1.1-.2.1l-3.1 1.8c-.1.1-.2.1-.3.1-.1 0-.2 0-.3.1H367.1c-.1 0-.1 0-.2-.1-.1 0-.1-.1-.2-.1l-5.4-3.1c-.2-.1-.4-.3-.4-.6zM370.5 259.9v2.2c0 .2.1.4.4.6l5.4 3.1c.1 0 .1.1.2.1s.1 0 .2.1h.8c.1 0 .2 0 .3-.1.1 0 .2-.1.3-.1l3.1-1.8c.1 0 .1-.1.2-.1l.1-.1s0-.1.1-.1v-2.5V261.5s0 .1-.1.1l-.1.1s-.1.1-.2.1l-3.1 1.8c-.1.1-.2.1-.3.1-.1 0-.2 0-.3.1H376.7c-.1 0-.1 0-.2-.1-.1 0-.1-.1-.2-.1l-5.4-3.1c-.2-.2-.4-.4-.4-.6zM380.1 265.4v2.2c0 .2.1.4.4.6l5.4 3.1c.1 0 .1.1.2.1s.1 0 .2.1h.8c.1 0 .2 0 .3-.1.1 0 .2-.1.3-.1l3.1-1.8c.1 0 .1-.1.2-.1l.1-.1s0-.1.1-.1v-2.5V267s0 .1-.1.1l-.1.1s-.1.1-.2.1l-3.1 1.8c-.1.1-.2.1-.3.1-.1 0-.2 0-.3.1H386.3c-.1 0-.1 0-.2-.1-.1 0-.1-.1-.2-.1l-5.4-3.1c-.2-.2-.4-.4-.4-.6zM389.7 271v2.2c0 .2.1.4.4.5l5.4 3.1c.1 0 .1.1.2.1s.1 0 .2.1h.8c.1 0 .2 0 .3-.1.1 0 .2-.1.3-.1l3.1-1.8c.1 0 .1-.1.2-.1l.1-.1s0-.1.1-.1v-2.5V272.5s0 .1-.1.1l-.1.1s-.1.1-.2.1l-3.1 1.8c-.1.1-.2.1-.3.1-.1 0-.2 0-.3.1H395.9c-.1 0-.1 0-.2-.1-.1 0-.1-.1-.2-.1l-5.4-3.1c-.3-.1-.4-.3-.4-.5zM399.3 276.5v2.2c0 .2.1.4.4.6l5.4 3.1c.1 0 .1.1.2.1s.1 0 .2.1H405.8v-2.2H405.5c-.1 0-.1 0-.2-.1-.1 0-.1-.1-.2-.1l-5.4-3.1c-.3-.2-.4-.4-.4-.6zM406 282.6h.4c.1 0 .2 0 .3-.1.1 0 .2-.1.3-.1l3.1-1.8c.1 0 .1-.1.2-.1l.1-.1s0-.1.1-.1v-2.5V278.1s0 .1-.1.1l-.1.1s-.1.1-.2.1l-3.1 1.8c-.1.1-.2.1-.3.1-.1 0-.2 0-.3.1h-.5v2.2h.1zM405.9 280.4zM408.9 282v2.2c0 .2.1.4.4.5l5.4 3.1c.1 0 .1.1.2.1s.1 0 .2.1h.8c.1 0 .2 0 .3-.1.1 0 .2-.1.3-.1l3.1-1.8c.1 0 .1-.1.2-.1l.1-.1s0-.1.1-.1v-2.5V283.5s0 .1-.1.1l-.1.1s-.1.1-.2.1l-3.1 1.8c-.1.1-.2.1-.3.1-.1 0-.2 0-.3.1H415.1c-.1 0-.1 0-.2-.1-.1 0-.1-.1-.2-.1l-5.4-3.1c-.3-.1-.4-.3-.4-.5zM418.5 287.6v2.2c0 .2.1.4.4.6l5.4 3.1c.1 0 .1.1.2.1s.1 0 .2.1h.8c.1 0 .2 0 .3-.1.1 0 .2-.1.3-.1l3.1-1.8c.1 0 .1-.1.2-.1l.1-.1s0-.1.1-.1v-2.5V289.2s0 .1-.1.1l-.1.1s-.1.1-.2.1l-3.1 1.8c-.1.1-.2.1-.3.1-.1 0-.2 0-.3.1H424.7c-.1 0-.1 0-.2-.1-.1 0-.1-.1-.2-.1l-5.4-3.1c-.3-.2-.4-.4-.4-.6zM428.1 293.1v2.2c0 .2.1.4.4.5l5.4 3.1c.1 0 .1.1.2.1s.1 0 .2.1h.8c.1 0 .2 0 .3-.1.1 0 .2-.1.3-.1l3.1-1.8c.1 0 .1-.1.2-.1l.1-.1s0-.1.1-.1v-2.5V294.6s0 .1-.1.1l-.1.1s-.1.1-.2.1l-3.1 1.8c-.1.1-.2.1-.3.1-.1 0-.2 0-.3.1H434.3c-.1 0-.1 0-.2-.1-.1 0-.1-.1-.2-.1l-5.4-3.1c-.3-.1-.4-.3-.4-.5zM438 299.2c-.3-.2-.4-.4-.4-.6v2.2c0 .2.1.4.4.6l7.6 4.4c.1 0 .1.1.2.1v-2.2c-.1 0-.1-.1-.2-.1l-7.6-4.4zM446 305.9h.8c.1 0 .2 0 .3-.1.1 0 .2-.1.3-.1l3.1-1.8c.1 0 .1-.1.2-.1l.1-.1s0-.1.1-.1v-2.5V301.4s0 .1-.1.1l-.1.1s-.1.1-.2.1l-3.1 1.8c-.1.1-.2.1-.3.1-.1 0-.2 0-.3.1H446c-.1 0-.1 0-.2-.1v2.2c.1.1.2.1.2.1zM445.9 303.7zM462.9 308.1V308.4s0 .1-.1.1l-.1.1s-.1.1-.2.1l-3.1 1.8c-.1.1-.2.1-.3.1-.1 0-.2 0-.3.1H458c-.1 0-.1 0-.2-.1-.1 0-.1-.1-.2-.1l-7.7-4.4c-.3-.1-.4-.3-.4-.5v2.2c0 .2.1.4.4.5l7.7 4.4c.1 0 .1.1.2.1s.1 0 .2.1h.8c.1 0 .2 0 .3-.1.1 0 .2-.1.3-.1l3.1-1.8c.1 0 .1-.1.2-.1l.1-.1s0-.1.1-.1v-2.5zM313.7 240.4l5.4 3.1c.1 0 .1.1.2.1s.1 0 .2.1h.8c.1 0 .2 0 .3-.1.1 0 .2-.1.3-.1l5.4-3.1c.1 0 .1-.1.2-.1l.1-.1s0-.1.1-.1v-2.5V237.9s0 .1-.1.1l-.1.1s-.1.1-.2.1l-5.4 3.1c-.1.1-.2.1-.3.1-.1 0-.2 0-.3.1H319.5c-.1 0-.1 0-.2-.1-.1 0-.1-.1-.2-.1l-5.4-3.1c-.3-.2-.4-.4-.4-.6v2.2c0 .2.1.4.4.6zM329 249.2h.8c.1 0 .2 0 .3-.1.1 0 .2-.1.3-.1l5.4-3.1c.1 0 .1-.1.2-.1l.1-.1s0-.1.1-.1v-2.5V243.4s0 .1-.1.1l-.1.1s-.1.1-.2.1l-5.4 3.1c-.1.1-.2.1-.3.1-.1 0-.2 0-.3.1H329c-.1 0-.1 0-.2-.1v2.2c.1.1.2.1.2.1z"/><path class="st7" d="m328.7 246.9-5.4-3.1c-.3-.2-.4-.4-.4-.6v2.2c0 .2.1.4.4.6l5.4 3.1c.1 0 .1.1.2.1V247c-.1-.1-.1-.1-.2-.1zM328.9 247zM304.3 245.8l10.1 5.8c.1 0 .1.1.2.1s.1 0 .2.1h.8c.1 0 .2 0 .3-.1.1 0 .2-.1.3-.1l5.4-3.1c.1 0 .1-.1.2-.1l.1-.1s0-.1.1-.1v-2.5V246s0 .1-.1.1l-.1.1s-.1.1-.2.1l-5.4 3.1c-.1.1-.2.1-.3.1-.1 0-.2 0-.3.1H314.8c-.1 0-.1 0-.2-.1-.1 0-.1-.1-.2-.1l-10.1-5.8c-.3-.2-.4-.4-.4-.6v2.2c0 .2.2.4.4.6zM346 248.8c0 .1 0 .1-.1.2 0 0 0 .1-.1.1l-.1.1s-.1.1-.2.1l-5.4 3.1c-.1.1-.2.1-.3.1-.1 0-.2 0-.3.1H338.7c-.1 0-.1 0-.2-.1-.1 0-.1-.1-.2-.1l-5.4-3.1c-.3-.2-.4-.4-.4-.6v2.2c0 .2.1.4.4.6l5.4 3.1c.1 0 .1.1.2.1s.1 0 .2.1h.8c.1 0 .2 0 .3-.1.1 0 .2-.1.3-.1l5.4-3.1c.1 0 .1-.1.2-.1l.1-.1s0-.1.1-.1V250.9l.1-2.1c0-.1 0-.1 0 0 0-.1 0 0 0 0zM318.4 251.4v2.2c0 .2.1.4.4.6l10.1 5.8c.1 0 .1.1.2.1s.1 0 .2.1h.8c.1 0 .2 0 .3-.1.1 0 .2-.1.3-.1l5.4-3.1c.1 0 .1-.1.2-.1l.1-.1s0-.1.1-.1v-2.5V254.4s0 .1-.1.1l-.1.1s-.1.1-.2.1l-5.4 3.1c-.1.1-.2.1-.3.1-.1 0-.2 0-.3.1H329.3c-.1 0-.1 0-.2-.1-.1 0-.1-.1-.2-.1l-10.1-5.8c-.2-.2-.4-.4-.4-.6zM295 251.2l15 8.7c.1 0 .1.1.2.1v-2.2c-.1 0-.1-.1-.2-.1l-15-8.7c-.3-.2-.4-.4-.4-.6v2.2c0 .3.1.5.4.6zM310.4 260h.8c.1 0 .2 0 .3-.1.1 0 .2-.1.3-.1l5.4-3.1c.1 0 .1-.1.2-.1l.1-.1s0-.1.1-.1v-2.5V254.2s0 .1-.1.1l-.1.1s-.1.1-.2.1l-5.4 3.1c-.1.1-.2.1-.3.1-.1 0-.2 0-.3.1H310.4c-.1 0-.1 0-.2-.1v2.2c.1.1.1.1.2.1zM310.2 257.8zM298.4 256.6c.1 0 .1-.1.2-.1l.1-.1s0-.1.1-.1v-2.5V254.1s0 .1-.1.1l-.1.1s-.1.1-.2.1l-7.7 4.5c-.1.1-.2.1-.3.1-.1 0-.2 0-.3.1H289.3c-.1 0-.1 0-.2-.1-.1 0-.1-.1-.2-.1l-5.4-3.1c-.3-.2-.4-.4-.4-.6v2.2c0 .2.1.4.4.6l5.4 3.1c.1 0 .1.1.2.1s.1 0 .2.1h.8c.1 0 .2 0 .3-.1.1 0 .2-.1.3-.1l7.7-4.5zM308 262.2c.1 0 .1-.1.2-.1l.1-.1s0-.1.1-.1v-2.5V259.7s0 .1-.1.1l-.1.1s-.1.1-.2.1l-7.7 4.5c-.1.1-.2.1-.3.1-.1 0-.2 0-.3.1H298.9c-.1 0-.1 0-.2-.1-.1 0-.1-.1-.2-.1l-5.4-3.1c-.3-.2-.4-.4-.4-.6v2.2c0 .2.1.4.4.6l5.4 3.1c.1 0 .1.1.2.1s.1 0 .2.1h.8c.1 0 .2 0 .3-.1.1 0 .2-.1.3-.1l7.7-4.5zM313.8 259.6v2.2c0 .2.1.4.4.6l5.4 3.1c.1 0 .1.1.2.1s.1 0 .2.1h.8c.1 0 .2 0 .3-.1.1 0 .2-.1.3-.1l5.4-3.1c.1 0 .1-.1.2-.1l.1-.1s0-.1.1-.1v-2.5V259.9s0 .1-.1.1l-.1.1s-.1.1-.2.1l-5.4 3.1c-.1.1-.2.1-.3.1-.1 0-.2 0-.3.1H320c-.1 0-.1 0-.2-.1-.1 0-.1-.1-.2-.1l-5.4-3.1c-.3-.2-.4-.4-.4-.6zM317.6 267.7c.1 0 .1-.1.2-.1l.1-.1s0-.1.1-.1v-2.5V265.2s0 .1-.1.1l-.1.1s-.1.1-.2.1l-7.7 4.5c-.1.1-.2.1-.3.1-.1 0-.2 0-.3.1H308.5c-.1 0-.1 0-.2-.1-.1 0-.1-.1-.2-.1l-5.4-3.1c-.3-.2-.4-.4-.4-.6v2.2c0 .2.1.4.4.6l5.4 3.1c.1 0 .1.1.2.1s.1 0 .2.1h.8c.1 0 .2 0 .3-.1.1 0 .2-.1.3-.1l7.7-4.5zM355.6 254.3c0 .1-.1.1 0 0 0 .1 0 .1-.1.2 0 0 0 .1-.1.1l-.1.1s-.1.1-.2.1l-5.4 3.1c-.1.1-.2.1-.3.1-.1 0-.2 0-.3.1H348.3c-.1 0-.1 0-.2-.1-.1 0-.1-.1-.2-.1l-5.4-3.1c-.3-.2-.4-.4-.4-.6v2.2c0 .2.1.4.4.6l5.4 3.1c.1 0 .1.1.2.1s.1 0 .2.1h.8c.1 0 .2 0 .3-.1.1 0 .2-.1.3-.1l5.4-3.1c.1 0 .1-.1.2-.1l.1-.1s0-.1.1-.1V256.4l.1-2.1zM345.8 262.4c.1 0 .1-.1.2-.1l.1-.1s0-.1.1-.1v-2.5V259.9s0 .1-.1.1l-.1.1s-.1.1-.2.1l-5.4 3.1c-.1.1-.2.1-.3.1-.1 0-.2 0-.3.1H339c-.1 0-.1 0-.2-.1-.1 0-.1-.1-.2-.1l-5.4-3.1c-.3-.2-.4-.4-.4-.6v2.2c0 .2.1.4.4.6l5.4 3.1c.1 0 .1.1.2.1s.1 0 .2.1h.8c.1 0 .2 0 .3-.1.1 0 .2-.1.3-.1l5.4-3.1zM323.8 267.8l5.4 3.1c.1 0 .1.1.2.1s.1 0 .2.1h.8c.1 0 .2 0 .3-.1.1 0 .2-.1.3-.1l5.4-3.1c.1 0 .1-.1.2-.1l.1-.1s0-.1.1-.1V265 265.3s0 .1-.1.1l-.1.1s-.1.1-.2.1l-5.4 3.1c-.1.1-.2.1-.3.1-.1 0-.2 0-.3.1H329.6c-.1 0-.1 0-.2-.1-.1 0-.1-.1-.2-.1l-5.4-3.1c-.3-.2-.4-.4-.4-.6v2.2c0 .3.1.5.4.6zM327.2 273.2c.1 0 .1-.1.2-.1l.1-.1s0-.1.1-.1v-2.5V270.7s0 .1-.1.1l-.1.1s-.1.1-.2.1l-7.7 4.5c-.1.1-.2.1-.3.1-.1 0-.2 0-.3.1H318.1c-.1 0-.1 0-.2-.1-.1 0-.1-.1-.2-.1l-5.4-3.1c-.3-.2-.4-.4-.4-.6v2.2c0 .2.1.4.4.6l5.4 3.1c.1 0 .1.1.2.1s.1 0 .2.1h.8c.1 0 .2 0 .3-.1.1 0 .2-.1.3-.1l7.7-4.5zM365.1 259.9c0 .1 0 .1-.1.2 0 0 0 .1-.1.1l-.1.1s-.1.1-.2.1l-5.4 3.1c-.1.1-.2.1-.3.1-.1 0-.2 0-.3.1H357.8c-.1 0-.1 0-.2-.1-.1 0-.1-.1-.2-.1l-5.4-3.1c-.3-.2-.4-.4-.4-.6v2.2c0 .2.1.4.4.6l5.4 3.1c.1 0 .1.1.2.1s.1 0 .2.1h.8c.1 0 .2 0 .3-.1.1 0 .2-.1.3-.1l5.4-3.1c.1 0 .1-.1.2-.1l.1-.1s0-.1.1-.1V262l.1-2.1c0-.1 0-.1 0 0 0-.1 0-.1 0 0zM374.7 265.4s0 .1 0 0c0 .1 0 .1-.1.2 0 0 0 .1-.1.1l-.1.1s-.1.1-.2.1L369 269c-.1.1-.2.1-.3.1-.1 0-.2 0-.3.1H367.6c-.1 0-.1 0-.2-.1-.1 0-.1-.1-.2-.1l-5.4-3.1c-.3-.2-.4-.4-.4-.6v2.2c0 .2.1.4.4.6l5.4 3.1c.1 0 .1.1.2.1s.1 0 .2.1h.8c.1 0 .2 0 .3-.1.1 0 .2-.1.3-.1l5.4-3.1c.1 0 .1-.1.2-.1l.1-.1s0-.1.1-.1V267.5l-.1-2.1c0-.1 0-.1 0 0zM342.7 267.9l5.4 3.1c.1 0 .1.1.2.1s.1 0 .2.1h.8c.1 0 .2 0 .3-.1.1 0 .2-.1.3-.1l5.4-3.1c.1 0 .1-.1.2-.1l.1-.1s0-.1.1-.1v-2.5V265.4s0 .1-.1.1l-.1.1s-.1.1-.2.1l-5.4 3.1c-.1.1-.2.1-.3.1-.1 0-.2 0-.3.1H348.5c-.1 0-.1 0-.2-.1-.1 0-.1-.1-.2-.1l-5.4-3.1c-.3-.2-.4-.4-.4-.6v2.2c0 .3.1.5.4.6zM352.3 273.5l5.4 3.1c.1 0 .1.1.2.1s.1 0 .2.1h.8c.1 0 .2 0 .3-.1.1 0 .2-.1.3-.1l5.4-3.1c.1 0 .1-.1.2-.1l.1-.1s0-.1.1-.1v-2.5V271s0 .1-.1.1l-.1.1s-.1.1-.2.1l-5.4 3.1c-.1.1-.2.1-.3.1-.1 0-.2 0-.3.1H358.1c-.1 0-.1 0-.2-.1-.1 0-.1-.1-.2-.1l-5.4-3.1c-.3-.2-.4-.4-.4-.6v2.2c0 .2.1.4.4.6zM384.3 270.9c0 .1 0 .1 0 0 0 .1 0 .1-.1.2 0 0 0 .1-.1.1l-.1.1s-.1.1-.2.1l-5.4 3.1c-.1.1-.2.1-.3.1-.1 0-.2 0-.3.1H377c-.1 0-.1 0-.2-.1-.1 0-.1-.1-.2-.1l-5.4-3.1c-.3-.2-.4-.4-.4-.6v2.2c0 .2.1.4.4.6l5.4 3.1c.1 0 .1.1.2.1s.1 0 .2.1h.8c.1 0 .2 0 .3-.1.1 0 .2-.1.3-.1l5.4-3.1c.1 0 .1-.1.2-.1l.1-.1s0-.1.1-.1V273l.1-2.1zM361.8 279l5.4 3.1c.1 0 .1.1.2.1s.1 0 .2.1h.8c.1 0 .2 0 .3-.1.1 0 .2-.1.3-.1l5.4-3.1c.1 0 .1-.1.2-.1l.1-.1s0-.1.1-.1v-2.5V276.5s0 .1-.1.1l-.1.1s-.1.1-.2.1l-5.4 3.1c-.1.1-.2.1-.3.1-.1 0-.2 0-.3.1H367.6c-.1 0-.1 0-.2-.1-.1 0-.1-.1-.2-.1l-5.4-3.1c-.3-.2-.4-.4-.4-.6v2.2c0 .2.2.4.4.6zM333.3 273.3l5.4 3.1c.1 0 .1.1.2.1s.1 0 .2.1h.8c.1 0 .2 0 .3-.1.1 0 .2-.1.3-.1l5.4-3.1c.1 0 .1-.1.2-.1l.1-.1s0-.1.1-.1v-2.5V270.8s0 .1-.1.1l-.1.1s-.1.1-.2.1l-5.4 3.1c-.1.1-.2.1-.3.1-.1 0-.2 0-.3.1H339.1c-.1 0-.1 0-.2-.1-.1 0-.1-.1-.2-.1l-5.4-3.1c-.3-.2-.4-.4-.4-.6v2.2c0 .3.2.5.4.6zM342.9 278.9l5.4 3.1c.1 0 .1.1.2.1s.1 0 .2.1h.8c.1 0 .2 0 .3-.1.1 0 .2-.1.3-.1l5.4-3.1c.1 0 .1-.1.2-.1l.1-.1s0-.1.1-.1v-2.5V276.4s0 .1-.1.1l-.1.1s-.1.1-.2.1l-5.4 3.1c-.1.1-.2.1-.3.1-.1 0-.2 0-.3.1H348.7c-.1 0-.1 0-.2-.1-.1 0-.1-.1-.2-.1l-5.4-3.1c-.3-.2-.4-.4-.4-.6v2.2c0 .2.2.4.4.6zM352.5 284.4l5.4 3.1c.1 0 .1.1.2.1s.1 0 .2.1h.8c.1 0 .2 0 .3-.1.1 0 .2-.1.3-.1l5.4-3.1c.1 0 .1-.1.2-.1l.1-.1s0-.1.1-.1v-2.5V281.9s0 .1-.1.1l-.1.1s-.1.1-.2.1l-5.4 3.1c-.1.1-.2.1-.3.1-.1 0-.2 0-.3.1H358.3c-.1 0-.1 0-.2-.1-.1 0-.1-.1-.2-.1l-5.4-3.1c-.3-.2-.4-.4-.4-.6v2.2c0 .3.1.5.4.6zM393.9 276.5c0 .1 0 .1-.1.2 0 0 0 .1-.1.1l-.1.1s-.1.1-.2.1l-5.4 3.1c-.1.1-.2.1-.3.1-.1 0-.2 0-.3.1H386.6c-.1 0-.1 0-.2-.1-.1 0-.1-.1-.2-.1l-5.4-3.1c-.3-.1-.4-.3-.4-.5v2.2c0 .2.1.4.4.5l5.4 3.1c.1 0 .1.1.2.1s.1 0 .2.1h.8c.1 0 .2 0 .3-.1.1 0 .2-.1.3-.1l5.4-3.1c.1 0 .1-.1.2-.1l.1-.1s0-.1.1-.1V278.6l.1-2.1c0-.1 0-.1 0 0 0-.1 0 0 0 0zM371.4 284.5l5.4 3.1c.1 0 .1.1.2.1v-2.2c-.1 0-.1-.1-.2-.1l-5.4-3.1c-.3-.1-.4-.3-.4-.5v2.2c0 .2.2.4.4.5zM377.2 287.8h.8c.1 0 .2 0 .3-.1.1 0 .2-.1.3-.1l5.4-3.1c.1 0 .1-.1.2-.1l.1-.1s0-.1.1-.1v-2.5V282s0 .1-.1.1l-.1.1s-.1.1-.2.1l-5.4 3.1c-.1.1-.2.1-.3.1-.1 0-.2 0-.3.1H377.2c-.1 0-.1 0-.2-.1v2.2c.1.1.2.1.2.1zM377.1 285.6zM362.1 289.9l5.4 3.1c.1 0 .1.1.2.1s.1 0 .2.1h.8c.1 0 .2 0 .3-.1.1 0 .2-.1.3-.1l5.4-3.1c.1 0 .1-.1.2-.1l.1-.1s0-.1.1-.1v-2.5V287.4s0 .1-.1.1l-.1.1s-.1.1-.2.1l-5.4 3.1c-.1.1-.2.1-.3.1-.1 0-.2 0-.3.1H367.9c-.1 0-.1 0-.2-.1-.1 0-.1-.1-.2-.1l-5.4-3.1c-.3-.1-.4-.3-.4-.5v2.2c0 .2.1.4.4.5zM365.5 295.4c.1 0 .1-.1.2-.1l.1-.1s0-.1.1-.1v-2.5V292.9s0 .1-.1.1l-.1.1s-.1.1-.2.1l-7.7 4.5c-.1.1-.2.1-.3.1-.1 0-.2 0-.3.1H356.4c-.1 0-.1 0-.2-.1-.1 0-.1-.1-.2-.1L321.8 278c-.3-.2-.4-.4-.4-.6v2.2c0 .2.1.4.4.6l34.2 19.7c.1 0 .1.1.2.1s.1 0 .2.1h.8c.1 0 .2 0 .3-.1.1 0 .2-.1.3-.1l7.7-4.5zM396.4 288H397c.1 0 .2 0 .3-.1.1 0 .2-.1.3-.1l5.4-3.1c.1 0 .1-.1.2-.1l.1-.1s0-.1.1-.1v-2.5V282.2s0 .1-.1.1l-.1.1s-.1.1-.2.1l-5.4 3.1c-.1.1-.2.1-.3.1-.1 0-.2 0-.3.1h-.7v2.2h.1zM396.3 285.8z"/><path class="st7" d="M396.2 285.8c-.1 0-.1 0-.2-.1-.1 0-.1-.1-.2-.1l-5.4-3.1c-.3-.2-.4-.4-.4-.6v2.2c0 .2.1.4.4.6l5.4 3.1c.1 0 .1.1.2.1s.1 0 .2.1h.1v-2.2h-.1zM381 290.1l5.4 3.1c.1 0 .1.1.2.1s.1 0 .2.1h.2v-2.2h-.2c-.1 0-.1 0-.2-.1-.1 0-.1-.1-.2-.1l-5.4-3.1c-.3-.2-.4-.4-.4-.6v2.2c0 .2.1.4.4.6zM387.2 293.4h.5c.1 0 .2 0 .3-.1.1 0 .2-.1.3-.1l5.4-3.1c.1 0 .1-.1.2-.1l.1-.1s0-.1.1-.1v-2.5V287.6s0 .1-.1.1l-.1.1s-.1.1-.2.1l-5.4 3.1c-.1.1-.2.1-.3.1-.1 0-.2 0-.3.1h-.6v2.2h.1zM387.1 291.2zM371.7 295.5l5.4 3.1c.1 0 .1.1.2.1s.1 0 .2.1h.1v-2.2h-.1c-.1 0-.1 0-.2-.1-.1 0-.1-.1-.2-.1l-5.4-3.1c-.3-.2-.4-.4-.4-.6v2.2c0 .2.1.4.4.6zM377.8 298.8H378.4c.1 0 .2 0 .3-.1.1 0 .2-.1.3-.1l5.4-3.1c.1 0 .1-.1.2-.1l.1-.1s0-.1.1-.1v-2.5V293s0 .1-.1.1l-.1.1s-.1.1-.2.1l-5.4 3.1c-.1.1-.2.1-.3.1-.1 0-.2 0-.3.1h-.7v2.2h.1zM377.6 296.6zM375.1 300.9c.1 0 .1-.1.2-.1l.1-.1s0-.1.1-.1v-2.5V298.4s0 .1-.1.1l-.1.1s-.1.1-.2.1l-7.7 4.5c-.1.1-.2.1-.3.1-.1 0-.2 0-.3.1H366c-.1 0-.1 0-.2-.1-.1 0-.1-.1-.2-.1l-5.4-3.1c-.3-.2-.4-.4-.4-.6v2.2c0 .2.1.4.4.6l5.4 3.1c.1 0 .1.1.2.1s.1 0 .2.1h.8c.1 0 .2 0 .3-.1.1 0 .2-.1.3-.1l7.7-4.5zM413.1 287.5c0 .1 0 .1 0 0 0 .1 0 .1-.1.2 0 0 0 .1-.1.1l-.1.1s-.1.1-.2.1l-5.4 3.1c-.1.1-.2.1-.3.1-.1 0-.2 0-.3.1H405.8c-.1 0-.1 0-.2-.1-.1 0-.1-.1-.2-.1L400 288c-.3-.1-.4-.3-.4-.5v2.2c0 .2.1.4.4.5l5.4 3.1c.1 0 .1.1.2.1s.1 0 .2.1h.8c.1 0 .2 0 .3-.1.1 0 .2-.1.3-.1l5.4-3.1c.1 0 .1-.1.2-.1l.1-.1s0-.1.1-.1V289.6l.1-2.1zM390.6 295.6l5.4 3.1c.1 0 .1.1.2.1s.1 0 .2.1h.8c.1 0 .2 0 .3-.1.1 0 .2-.1.3-.1l5.4-3.1c.1 0 .1-.1.2-.1l.1-.1s0-.1.1-.1v-2.5V293.1s0 .1-.1.1l-.1.1s-.1.1-.2.1l-5.4 3.1c-.1.1-.2.1-.3.1-.1 0-.2 0-.3.1H396.4c-.1 0-.1 0-.2-.1-.1 0-.1-.1-.2-.1l-5.4-3.1c-.3-.1-.4-.3-.4-.5v2.2c0 .1.1.3.4.5zM381.3 301l5.4 3.1c.1 0 .1.1.2.1s.1 0 .2.1h.8c.1 0 .2 0 .3-.1.1 0 .2-.1.3-.1l5.4-3.1c.1 0 .1-.1.2-.1l.1-.1s0-.1.1-.1v-2.5V298.5s0 .1-.1.1l-.1.1s-.1.1-.2.1l-5.4 3.1c-.1.1-.2.1-.3.1-.1 0-.2 0-.3.1H387.1c-.1 0-.1 0-.2-.1-.1 0-.1-.1-.2-.1l-5.4-3.1c-.3-.1-.4-.3-.4-.5v2.2c0 .2.1.4.4.5zM384.7 306.4c.1 0 .1-.1.2-.1l.1-.1s0-.1.1-.1v-2.5V303.9s0 .1-.1.1l-.1.1s-.1.1-.2.1l-7.7 4.5c-.1.1-.2.1-.3.1-.1 0-.2 0-.3.1H375.6c-.1 0-.1 0-.2-.1-.1 0-.1-.1-.2-.1l-5.4-3.1c-.3-.1-.4-.3-.4-.5v2.2c0 .2.1.4.4.5l5.4 3.1c.1 0 .1.1.2.1s.1 0 .2.1h.8c.1 0 .2 0 .3-.1.1 0 .2-.1.3-.1l7.7-4.5zM415.3 299h.8c.1 0 .2 0 .3-.1.1 0 .2-.1.3-.1l5.4-3.1c.1 0 .1-.1.2-.1l.1-.1s0-.1.1-.1v-2.5V293.2s0 .1-.1.1l-.1.1s-.1.1-.2.1l-5.4 3.1c-.1.1-.2.1-.3.1-.1 0-.2 0-.3.1H415.3c-.1 0-.1 0-.2-.1v2.2c.1.1.2.1.2.1zM415.2 296.8z"/><path class="st7" d="m415 296.7-5.4-3.1c-.3-.2-.4-.4-.4-.6v2.2c0 .2.1.4.4.6l5.4 3.1c.1 0 .1.1.2.1v-2.2c-.1-.1-.2-.1-.2-.1zM400.2 301.1l5.4 3.1c.1 0 .1.1.2.1s.1 0 .2.1h.8c.1 0 .2 0 .3-.1.1 0 .2-.1.3-.1l5.4-3.1c.1 0 .1-.1.2-.1l.1-.1s0-.1.1-.1v-2.5V298.6s0 .1-.1.1l-.1.1s-.1.1-.2.1l-5.4 3.1c-.1.1-.2.1-.3.1-.1 0-.2 0-.3.1H406c-.1 0-.1 0-.2-.1-.1 0-.1-.1-.2-.1l-5.4-3.1c-.3-.2-.4-.4-.4-.6v2.2c0 .3.1.5.4.6zM390.9 306.6l5.4 3.1c.1 0 .1.1.2.1v-2.2c-.1 0-.1-.1-.2-.1l-5.4-3.1c-.3-.2-.4-.4-.4-.6v2.2c0 .2.1.4.4.6z"/><path class="st7" d="M396.6 309.8h.8c.1 0 .2 0 .3-.1.1 0 .2-.1.3-.1l5.4-3.1c.1 0 .1-.1.2-.1l.1-.1s0-.1.1-.1v-2.5V304s0 .1-.1.1l-.1.1s-.1.1-.2.1l-5.4 3.1c-.1.1-.2.1-.3.1-.1 0-.2 0-.3.1H396.6c-.1 0-.1 0-.2-.1v2.2c.1.1.2.1.2.1zM396.5 307.6zM394.3 312c.1 0 .1-.1.2-.1l.1-.1s0-.1.1-.1v-2.5V309.5s0 .1-.1.1l-.1.1s-.1.1-.2.1l-7.7 4.5c-.1.1-.2.1-.3.1-.1 0-.2 0-.3.1H385.2c-.1 0-.1 0-.2-.1-.1 0-.1-.1-.2-.1l-5.4-3.1c-.3-.2-.4-.4-.4-.6v2.2c0 .2.1.4.4.6l5.4 3.1c.1 0 .1.1.2.1s.1 0 .2.1h.8c.1 0 .2 0 .3-.1.1 0 .2-.1.3-.1l7.7-4.5zM425.6 304.6H425.9c.1 0 .2 0 .3-.1.1 0 .2-.1.3-.1l5.4-3.1c.1 0 .1-.1.2-.1l.1-.1s0-.1.1-.1v-2.5V298.8s0 .1-.1.1l-.1.1s-.1.1-.2.1l-5.4 3.1c-.1.1-.2.1-.3.1-.1 0-.2 0-.3.1h-.4v2.2h.1zM425.5 302.4zM425.3 302.4H425c-.1 0-.1 0-.2-.1-.1 0-.1-.1-.2-.1l-5.4-3.1c-.3-.1-.4-.3-.4-.5v2.2c0 .2.1.4.4.5l5.4 3.1c.1 0 .1.1.2.1s.1 0 .2.1h.4v-2.2h-.1zM415.4 309.9c.1 0 .1 0 .2.1h.8c.1 0 .2 0 .3-.1.1 0 .2-.1.3-.1l5.4-3.1c.1 0 .1-.1.2-.1l.1-.1s0-.1.1-.1v-2.5V304.2s0 .1-.1.1l-.1.1s-.1.1-.2.1l-5.4 3.1c-.1.1-.2.1-.3.1-.1 0-.2 0-.3.1H415.6c-.1 0-.1 0-.2-.1-.1 0-.1-.1-.2-.1l-5.4-3.1c-.3-.1-.4-.3-.4-.5v2.2c0 .2.1.4.4.5l5.4 3.1c.1 0 .1.1.2.1zM413.2 312.1c.1 0 .1-.1.2-.1l.1-.1s0-.1.1-.1v-2.5V309.6s0 .1-.1.1l-.1.1s-.1.1-.2.1l-5.4 3.1c-.1.1-.2.1-.3.1-.1 0-.2 0-.3.1h-.7v2.2h.7c.1 0 .2 0 .3-.1.1 0 .2-.1.3-.1l5.4-3.1zM406.4 313.3zM406.2 313.2c-.1 0-.1 0-.2-.1-.1 0-.1-.1-.2-.1l-5.4-3.1c-.3-.1-.4-.3-.4-.5v2.2c0 .2.1.4.4.5l5.4 3.1c.1 0 .1.1.2.1s.1 0 .2.1h.1v-2.2h-.1zM400.1 321.6s0-.1 0 0V319.2 319.5s0 .1-.1.1l-.1.1s-.1.1-.2.1l-1.8 1c-.1.1-.2.1-.3.1-.1 0-.2 0-.3.1H396.5c-.1 0-.1 0-.2-.1-.1 0-.1-.1-.2-.1l-6.2-3.6c-.3-.2-.4-.4-.4-.6v2.2c0 .2.1.4.4.6l6.2 3.6c.1 0 .1.1.2.1s.1 0 .2.1h.8c.1 0 .2 0 .3-.1.1 0 .2-.1.3-.1l1.8-1c.1 0 .1-.1.2-.1l.1-.1c0-.1 0-.1.1-.2zM436.5 311.3c.1 0 .1 0 .2.1h.8c.1 0 .2 0 .3-.1.1 0 .2-.1.3-.1l5.4-3.1c.1 0 .1-.1.2-.1l.1-.1s0-.1.1-.1v-2.5V305.6s0 .1-.1.1l-.1.1s-.1.1-.2.1l-5.4 3.1c-.1.1-.2.1-.3.1-.1 0-.2 0-.3.1H436.7c-.1 0-.1 0-.2-.1-.1 0-.1-.1-.2-.1l-7.6-4.4c-.3-.2-.4-.4-.4-.6v2.2c0 .2.1.4.4.6l7.6 4.4c.1 0 .2 0 .2.1zM419.2 312.1l5.4 3.1c.1 0 .1.1.2.1s.1 0 .2.1h.8c.1 0 .2 0 .3-.1.1 0 .2-.1.3-.1l5.4-3.1c.1 0 .1-.1.2-.1l.1-.1s0-.1.1-.1v-2.5V309.6s0 .1-.1.1l-.1.1s-.1.1-.2.1l-5.4 3.1c-.1.1-.2.1-.3.1-.1 0-.2 0-.3.1H425c-.1 0-.1 0-.2-.1-.1 0-.1-.1-.2-.1l-5.4-3.1c-.3-.2-.4-.4-.4-.6v2.2c0 .2.1.4.4.6zM455.9 312.3c0 .1 0 .1-.1.2 0 0 0 .1-.1.1l-.1.1s-.1.1-.2.1l-5.4 3.1c-.1.1-.2.1-.3.1-.1 0-.2 0-.3.1H448.6c-.1 0-.1 0-.2-.1-.1 0-.1-.1-.2-.1l-7.7-4.4c-.3-.1-.4-.3-.4-.5v2.2c0 .2.1.4.4.5l7.7 4.4c.1 0 .1.1.2.1s.1 0 .2.1h.8c.1 0 .2 0 .3-.1.1 0 .2-.1.3-.1l5.4-3.1c.1 0 .1-.1.2-.1l.1-.1s0-.1.1-.1V314.4l.1-2.1c0-.1 0-.1 0 0 0-.1 0-.1 0 0zM446.5 317.7c0 .1 0 .1-.1.2 0 0 0 .1-.1.1l-.1.1s-.1.1-.2.1l-5.4 3.1c-.1.1-.2.1-.3.1-.1 0-.2 0-.3.1H439.2c-.1 0-.1 0-.2-.1-.1 0-.1-.1-.2-.1l-9.9-5.8c-.3-.2-.4-.4-.4-.6v2.2c0 .2.1.4.4.6l9.9 5.8c.1 0 .1.1.2.1s.1 0 .2.1h.8c.1 0 .2 0 .3-.1.1 0 .2-.1.3-.1l5.4-3.1c.1 0 .1-.1.2-.1l.1-.1s0-.1.1-.1V319.8l.1-2.1c0-.1 0-.1 0 0 0-.1 0-.1 0 0zM437.2 323.1s0 .1 0 0c0 .1 0 .1-.1.2 0 0 0 .1-.1.1l-.1.1s-.1.1-.2.1l-5.4 3.1c-.1.1-.2.1-.3.1-.1 0-.2 0-.3.1H429.9c-.1 0-.1 0-.2-.1-.1 0-.1-.1-.2-.1L410 315.5c-.3-.2-.4-.4-.4-.6v2.2c0 .2.1.4.4.6l19.5 11.2c.1 0 .1.1.2.1s.1 0 .2.1h.8c.1 0 .2 0 .3-.1.1 0 .2-.1.3-.1l5.4-3.1c.1 0 .1-.1.2-.1l.1-.1s0-.1.1-.1V325.2l.1-2.1c0-.1 0-.1 0 0 0-.1 0 0 0 0zM405.9 319.4v2.2c0 .2.1.4.4.6l6.2 3.6c.1 0 .1.1.2.1s.1 0 .2.1h.8c.1 0 .2 0 .3-.1.1 0 .2-.1.3-.1l1.8-1c.1 0 .1-.1.2-.1l.1-.1s0-.1.1-.1V322 322.3s0 .1-.1.1l-.1.1s-.1.1-.2.1l-1.8 1c-.1.1-.2.1-.3.1-.1 0-.2 0-.3.1H412.9c-.1 0-.1 0-.2-.1-.1 0-.1-.1-.2-.1l-6.2-3.6c-.3-.2-.4-.4-.4-.6zM410.6 327.7c0-.1 0-.1 0 0V325.3 325.6s0 .1-.1.1l-.1.1s-.1.1-.2.1l-1.8 1c-.1.1-.2.1-.3.1-.1 0-.2 0-.3.1H407c-.1 0-.1 0-.2-.1-.1 0-.1-.1-.2-.1l-6.2-3.6c-.3-.2-.4-.4-.4-.6v2.2c0 .2.1.4.4.6l6.2 3.6c.1 0 .1.1.2.1s.1 0 .2.1h.8c.1 0 .2 0 .3-.1.1 0 .2-.1.3-.1l1.8-1c.1 0 .1-.1.2-.1l.1-.1c0-.1.1-.1.1-.2zM421.2 331.5s0 .1 0 0c0 .1 0 .1-.1.2 0 0 0 .1-.1.1l-.1.1s-.1.1-.2.1l-1.8 1c-.1.1-.2.1-.3.1-.1 0-.2 0-.3.1H417.5c-.1 0-.1 0-.2-.1-.1 0-.1-.1-.2-.1l-6.2-3.6c-.3-.1-.4-.3-.4-.5v2.2c0 .2.1.4.4.5l6.2 3.6c.1 0 .1.1.2.1s.1 0 .2.1h.8c.1 0 .2 0 .3-.1.1 0 .2-.1.3-.1l1.8-1c.1 0 .1-.1.2-.1l.1-.1s0-.1.1-.1V333.6l.1-2.1c0-.1 0-.1 0 0z"/><g><path class="st5" d="M333.5 233c.5.3.5.8 0 1.1l-3.1 1.8c-.5.3-1.4.3-1.9 0l-5.4-3.1c-.5-.3-.5-.8 0-1.1l3.1-1.8c.5-.3 1.4-.3 1.9 0l5.4 3.1z"/></g><g><path class="st5" d="M343 238.5c.5.3.5.8 0 1.1l-3.1 1.8c-.5.3-1.4.3-1.9 0l-5.4-3.1c-.5-.3-.5-.8 0-1.1l3.1-1.8c.5-.3 1.4-.3 1.9 0l5.4 3.1z"/></g><g><path class="st5" d="M352.6 244.1c.5.3.5.8 0 1.1l-3.1 1.8c-.5.3-1.4.3-1.9 0l-5.4-3.1c-.5-.3-.5-.8 0-1.1l3.1-1.8c.5-.3 1.4-.3 1.9 0l5.4 3.1z"/></g><g><path class="st5" d="M362.2 249.6c.5.3.5.8 0 1.1l-3.1 1.8c-.5.3-1.4.3-1.9 0l-5.4-3.1c-.5-.3-.5-.8 0-1.1l3.1-1.8c.5-.3 1.4-.3 1.9 0l5.4 3.1z"/></g><g><path class="st5" d="M371.8 255.1c.5.3.5.8 0 1.1l-3.1 1.8c-.5.3-1.4.3-1.9 0l-5.4-3.1c-.5-.3-.5-.8 0-1.1l3.1-1.8c.5-.3 1.4-.3 1.9 0l5.4 3.1z"/></g><g><path class="st5" d="M381.4 260.7c.5.3.5.8 0 1.1l-3.1 1.8c-.5.3-1.4.3-1.9 0l-5.4-3.1c-.5-.3-.5-.8 0-1.1l3.1-1.8c.5-.3 1.4-.3 1.9 0l5.4 3.1z"/></g><g><path class="st5" d="M391 266.2c.5.3.5.8 0 1.1l-3.1 1.8c-.5.3-1.4.3-1.9 0l-5.4-3.1c-.5-.3-.5-.8 0-1.1l3.1-1.8c.5-.3 1.4-.3 1.9 0l5.4 3.1z"/></g><g><path class="st5" d="M400.6 271.7c.5.3.5.8 0 1.1l-3.1 1.8c-.5.3-1.4.3-1.9 0l-5.4-3.1c-.5-.3-.5-.8 0-1.1l3.1-1.8c.5-.3 1.4-.3 1.9 0l5.4 3.1z"/></g><g><path class="st5" d="M410.1 277.3c.5.3.5.8 0 1.1l-3.1 1.8c-.5.3-1.4.3-1.9 0l-5.4-3.1c-.5-.3-.5-.8 0-1.1l3.1-1.8c.5-.3 1.4-.3 1.9 0l5.4 3.1z"/></g><g><path class="st5" d="M419.7 282.8c.5.3.5.8 0 1.1l-3.1 1.8c-.5.3-1.4.3-1.9 0l-5.4-3.1c-.5-.3-.5-.8 0-1.1l3.1-1.8c.5-.3 1.4-.3 1.9 0l5.4 3.1z"/></g><g><path class="st5" d="M429.3 288.3c.5.3.5.8 0 1.1l-3.1 1.8c-.5.3-1.4.3-1.9 0l-5.4-3.1c-.5-.3-.5-.8 0-1.1l3.1-1.8c.5-.3 1.4-.3 1.9 0l5.4 3.1z"/></g><g><path class="st5" d="M438.9 293.9c.5.3.5.8 0 1.1l-3.1 1.8c-.5.3-1.4.3-1.9 0l-5.4-3.1c-.5-.3-.5-.8 0-1.1l3.1-1.8c.5-.3 1.4-.3 1.9 0l5.4 3.1z"/></g><g><path class="st5" d="M450.7 300.7c.5.3.5.8 0 1.1l-3.1 1.8c-.5.3-1.4.3-1.9 0l-7.6-4.4c-.5-.3-.5-.8 0-1.1l3.1-1.8c.5-.3 1.4-.3 1.9 0l7.6 4.4z"/></g><g><path class="st5" d="M462.5 307.5c.5.3.5.8 0 1.1l-3.1 1.8c-.5.3-1.4.3-1.9 0l-7.7-4.4c-.5-.3-.5-.8 0-1.1l3.1-1.8c.5-.3 1.4-.3 1.9 0l7.7 4.4z"/></g><g><path class="st5" d="M326.4 237.1c.5.3.5.8 0 1.1l-5.4 3.1c-.5.3-1.4.3-1.9 0l-5.4-3.1c-.5-.3-.5-.8 0-1.1l5.4-3.1c.5-.3 1.4-.3 1.9 0l5.4 3.1z"/></g><g><path class="st5" d="M336 242.6c.5.3.5.8 0 1.1l-5.4 3.1c-.5.3-1.4.3-1.9 0l-5.4-3.1c-.5-.3-.5-.8 0-1.1l5.4-3.1c.5-.3 1.4-.3 1.9 0l5.4 3.1z"/></g><g><path class="st5" d="m311.6 239.4 10.1 5.8c.5.3.5.8 0 1.1l-5.4 3.1c-.5.3-1.4.3-1.9 0l-10.1-5.8c-.5-.3-.5-.8 0-1.1l5.4-3.1c.5-.3 1.4-.3 1.9 0z"/></g><g><path class="st5" d="M345.6 248.2c.5.3.5.8 0 1.1l-5.4 3.1c-.5.3-1.4.3-1.9 0l-5.4-3.1c-.5-.3-.5-.8 0-1.1l5.4-3.1c.5-.3 1.4-.3 1.9 0l5.4 3.1z"/></g><g><path class="st5" d="M336.3 253.6c.5.3.5.8 0 1.1l-5.4 3.1c-.5.3-1.4.3-1.9 0l-10.1-5.8c-.5-.3-.5-.8 0-1.1l5.4-3.1c.5-.3 1.4-.3 1.9 0l10.1 5.8z"/></g><g><path class="st5" d="M317.3 253.5c.5.3.5.8 0 1.1l-5.4 3.1c-.5.3-1.4.3-1.9 0l-15-8.7c-.5-.3-.5-.8 0-1.1l5.4-3.1c.5-.3 1.4-.3 1.9 0l15 8.7z"/></g><g><path class="st5" d="M298.4 253.4c.5.3.5.8 0 1.1l-7.7 4.5c-.5.3-1.4.3-1.9 0l-5.4-3.1c-.5-.3-.5-.8 0-1.1l7.7-4.5c.5-.3 1.4-.3 1.9 0l5.4 3.1z"/></g><g><path class="st5" d="M308 258.9c.5.3.5.8 0 1.1l-7.7 4.5c-.5.3-1.4.3-1.9 0l-5.4-3.1c-.5-.3-.5-.8 0-1.1l7.7-4.5c.5-.3 1.4-.3 1.9 0l5.4 3.1z"/></g><g><path class="st5" d="M326.9 259c.5.3.5.8 0 1.1l-5.4 3.1c-.5.3-1.4.3-1.9 0l-5.4-3.1c-.5-.3-.5-.8 0-1.1l5.4-3.1c.5-.3 1.4-.3 1.9 0l5.4 3.1z"/></g><g><path class="st5" d="M317.6 264.4c.5.3.5.8 0 1.1l-7.7 4.5c-.5.3-1.4.3-1.9 0l-5.4-3.1c-.5-.3-.5-.8 0-1.1l7.7-4.5c.5-.3 1.4-.3 1.9 0l5.4 3.1z"/></g><g><path class="st5" d="M355.2 253.7c.5.3.5.8 0 1.1l-5.4 3.1c-.5.3-1.4.3-1.9 0l-5.4-3.1c-.5-.3-.5-.8 0-1.1l5.4-3.1c.5-.3 1.4-.3 1.9 0l5.4 3.1z"/></g><g><path class="st5" d="M345.8 259.1c.5.3.5.8 0 1.1l-5.4 3.1c-.5.3-1.4.3-1.9 0l-5.4-3.1c-.5-.3-.5-.8 0-1.1l5.4-3.1c.5-.3 1.4-.3 1.9 0l5.4 3.1z"/></g><g><path class="st5" d="M336.5 264.5c.5.3.5.8 0 1.1l-5.4 3.1c-.5.3-1.4.3-1.9 0l-5.4-3.1c-.5-.3-.5-.8 0-1.1l5.4-3.1c.5-.3 1.4-.3 1.9 0l5.4 3.1z"/></g><g><path class="st5" d="M327.2 270c.5.3.5.8 0 1.1l-7.7 4.5c-.5.3-1.4.3-1.9 0l-5.4-3.1c-.5-.3-.5-.8 0-1.1l7.7-4.5c.5-.3 1.4-.3 1.9 0l5.4 3.1z"/></g><g><path class="st5" d="M364.8 259.2c.5.3.5.8 0 1.1l-5.4 3.1c-.5.3-1.4.3-1.9 0l-5.4-3.1c-.5-.3-.5-.8 0-1.1l5.4-3.1c.5-.3 1.4-.3 1.9 0l5.4 3.1z"/></g><g><path class="st5" d="M374.3 264.8c.5.3.5.8 0 1.1L369 269c-.5.3-1.4.3-1.9 0l-5.4-3.1c-.5-.3-.5-.8 0-1.1l5.4-3.1c.5-.3 1.4-.3 1.9 0l5.3 3.1z"/></g><g><path class="st5" d="M355.4 264.7c.5.3.5.8 0 1.1l-5.4 3.1c-.5.3-1.4.3-1.9 0l-5.4-3.1c-.5-.3-.5-.8 0-1.1l5.4-3.1c.5-.3 1.4-.3 1.9 0l5.4 3.1z"/></g><g><path class="st5" d="M365 270.2c.5.3.5.8 0 1.1l-5.4 3.1c-.5.3-1.4.3-1.9 0l-5.4-3.1c-.5-.3-.5-.8 0-1.1l5.4-3.1c.5-.3 1.4-.3 1.9 0l5.4 3.1z"/></g><g><path class="st5" d="M383.9 270.3c.5.3.5.8 0 1.1l-5.4 3.1c-.5.3-1.4.3-1.9 0l-5.4-3.1c-.5-.3-.5-.8 0-1.1l5.4-3.1c.5-.3 1.4-.3 1.9 0l5.4 3.1z"/></g><g><path class="st5" d="M374.6 275.7c.5.3.5.8 0 1.1l-5.4 3.1c-.5.3-1.4.3-1.9 0l-5.4-3.1c-.5-.3-.5-.8 0-1.1l5.4-3.1c.5-.3 1.4-.3 1.9 0l5.4 3.1z"/></g><g><path class="st5" d="M346.1 270.1c.5.3.5.8 0 1.1l-5.4 3.1c-.5.3-1.4.3-1.9 0l-5.4-3.1c-.5-.3-.5-.8 0-1.1l5.4-3.1c.5-.3 1.4-.3 1.9 0l5.4 3.1z"/></g><g><path class="st5" d="M355.7 275.6c.5.3.5.8 0 1.1l-5.4 3.1c-.5.3-1.4.3-1.9 0l-5.4-3.1c-.5-.3-.5-.8 0-1.1l5.4-3.1c.5-.3 1.4-.3 1.9 0l5.4 3.1z"/></g><g><path class="st5" d="M365.2 281.1c.5.3.5.8 0 1.1l-5.4 3.1c-.5.3-1.4.3-1.9 0l-5.4-3.1c-.5-.3-.5-.8 0-1.1l5.4-3.1c.5-.3 1.4-.3 1.9 0l5.4 3.1z"/></g><g><path class="st5" d="M393.5 275.8c.5.3.5.8 0 1.1l-5.4 3.1c-.5.3-1.4.3-1.9 0l-5.4-3.1c-.5-.3-.5-.8 0-1.1l5.4-3.1c.5-.3 1.4-.3 1.9 0l5.4 3.1z"/></g><g><path class="st5" d="M384.2 281.3c.5.3.5.8 0 1.1l-5.4 3.1c-.5.3-1.4.3-1.9 0l-5.4-3.1c-.5-.3-.5-.8 0-1.1l5.4-3.1c.5-.3 1.4-.3 1.9 0l5.4 3.1z"/></g><g><path class="st5" d="M374.8 286.7c.5.3.5.8 0 1.1l-5.4 3.1c-.5.3-1.4.3-1.9 0l-5.4-3.1c-.5-.3-.5-.8 0-1.1l5.4-3.1c.5-.3 1.4-.3 1.9 0l5.4 3.1z"/></g><g><path class="st5" d="M365.5 292.1c.5.3.5.8 0 1.1l-7.7 4.5c-.5.3-1.4.3-1.9 0L321.7 278c-.5-.3-.5-.8 0-1.1l7.7-4.5c.5-.3 1.4-.3 1.9 0l34.2 19.7z"/></g><g><path class="st5" d="M403.1 281.4c.5.3.5.8 0 1.1l-5.4 3.1c-.5.3-1.4.3-1.9 0l-5.4-3.1c-.5-.3-.5-.8 0-1.1l5.4-3.1c.5-.3 1.4-.3 1.9 0l5.4 3.1z"/></g><g><path class="st5" d="M393.8 286.8c.5.3.5.8 0 1.1l-5.4 3.1c-.5.3-1.4.3-1.9 0l-5.4-3.1c-.5-.3-.5-.8 0-1.1l5.4-3.1c.5-.3 1.4-.3 1.9 0l5.4 3.1z"/></g><g><path class="st5" d="M384.4 292.2c.5.3.5.8 0 1.1l-5.4 3.1c-.5.3-1.4.3-1.9 0l-5.4-3.1c-.5-.3-.5-.8 0-1.1l5.4-3.1c.5-.3 1.4-.3 1.9 0l5.4 3.1z"/></g><g><path class="st5" d="M375.1 297.6c.5.3.5.8 0 1.1l-7.7 4.5c-.5.3-1.4.3-1.9 0l-5.4-3.1c-.5-.3-.5-.8 0-1.1l7.7-4.5c.5-.3 1.4-.3 1.9 0l5.4 3.1z"/></g><g><path class="st5" d="M412.7 286.9c.5.3.5.8 0 1.1l-5.4 3.1c-.5.3-1.4.3-1.9 0L400 288c-.5-.3-.5-.8 0-1.1l5.4-3.1c.5-.3 1.4-.3 1.9 0l5.4 3.1z"/></g><g><path class="st5" d="M403.4 292.3c.5.3.5.8 0 1.1l-5.4 3.1c-.5.3-1.4.3-1.9 0l-5.4-3.1c-.5-.3-.5-.8 0-1.1l5.4-3.1c.5-.3 1.4-.3 1.9 0l5.4 3.1z"/></g><g><path class="st5" d="M394 297.8c.5.3.5.8 0 1.1l-5.4 3.1c-.5.3-1.4.3-1.9 0l-5.4-3.1c-.5-.3-.5-.8 0-1.1l5.4-3.1c.5-.3 1.4-.3 1.9 0l5.4 3.1z"/></g><g><path class="st5" d="M384.7 303.2c.5.3.5.8 0 1.1l-7.7 4.5c-.5.3-1.4.3-1.9 0l-5.4-3.1c-.5-.3-.5-.8 0-1.1l7.7-4.5c.5-.3 1.4-.3 1.9 0l5.4 3.1z"/></g><g><path class="st5" d="M422.3 292.4c.5.3.5.8 0 1.1l-5.4 3.1c-.5.3-1.4.3-1.9 0l-5.4-3.1c-.5-.3-.5-.8 0-1.1l5.4-3.1c.5-.3 1.4-.3 1.9 0l5.4 3.1z"/></g><g><path class="st5" d="M412.9 297.9c.5.3.5.8 0 1.1l-5.4 3.1c-.5.3-1.4.3-1.9 0l-5.4-3.1c-.5-.3-.5-.8 0-1.1l5.4-3.1c.5-.3 1.4-.3 1.9 0l5.4 3.1z"/></g><g><path class="st5" d="M403.6 303.3c.5.3.5.8 0 1.1l-5.4 3.1c-.5.3-1.4.3-1.9 0l-5.4-3.1c-.5-.3-.5-.8 0-1.1l5.4-3.1c.5-.3 1.4-.3 1.9 0l5.4 3.1z"/></g><g><path class="st5" d="M394.3 308.7c.5.3.5.8 0 1.1l-7.7 4.5c-.5.3-1.4.3-1.9 0l-5.4-3.1c-.5-.3-.5-.8 0-1.1l7.7-4.5c.5-.3 1.4-.3 1.9 0l5.4 3.1z"/></g><g><path class="st5" d="M431.9 298c.5.3.5.8 0 1.1l-5.4 3.1c-.5.3-1.4.3-1.9 0l-5.4-3.1c-.5-.3-.5-.8 0-1.1l5.4-3.1c.5-.3 1.4-.3 1.9 0l5.4 3.1z"/></g><g><path class="st5" d="M422.5 303.4c.5.3.5.8 0 1.1l-5.4 3.1c-.5.3-1.4.3-1.9 0l-5.4-3.1c-.5-.3-.5-.8 0-1.1l5.4-3.1c.5-.3 1.4-.3 1.9 0l5.4 3.1z"/></g><g><path class="st5" d="M413.2 308.8c.5.3.5.8 0 1.1l-5.4 3.1c-.5.3-1.4.3-1.9 0l-5.4-3.1c-.5-.3-.5-.8 0-1.1l5.4-3.1c.5-.3 1.4-.3 1.9 0l5.4 3.1z"/></g><g><path class="st5" d="M399.7 318.7c.5.3.5.8 0 1.1l-1.8 1c-.5.3-1.4.3-1.9 0l-6.2-3.6c-.5-.3-.5-.8 0-1.1l1.8-1c.5-.3 1.4-.3 1.9 0l6.2 3.6z"/></g><g><path class="st5" d="M443.6 304.8c.5.3.5.8 0 1.1l-5.4 3.1c-.5.3-1.4.3-1.9 0l-7.6-4.4c-.5-.3-.5-.8 0-1.1l5.4-3.1c.5-.3 1.4-.3 1.9 0l7.6 4.4z"/></g><g><path class="st5" d="M431.9 308.8c.5.3.5.8 0 1.1l-5.4 3.1c-.5.3-1.4.3-1.9 0l-5.4-3.1c-.5-.3-.5-.8 0-1.1l5.4-3.1c.5-.3 1.4-.3 1.9 0l5.4 3.1z"/></g><g><path class="st5" d="M455.5 311.6c.5.3.5.8 0 1.1l-5.4 3.1c-.5.3-1.4.3-1.9 0l-7.7-4.4c-.5-.3-.5-.8 0-1.1l5.4-3.1c.5-.3 1.4-.3 1.9 0l7.7 4.4z"/></g><g><path class="st5" d="m436.2 311.3 9.9 5.8c.5.3.5.8 0 1.1l-5.4 3.1c-.5.3-1.4.3-1.9 0l-9.9-5.8c-.5-.3-.5-.8 0-1.1l5.4-3.1c.5-.3 1.4-.3 1.9 0z"/></g><g><path class="st5" d="M436.8 322.5c.5.3.5.8 0 1.1l-5.4 3.1c-.5.3-1.4.3-1.9 0L410 315.5c-.5-.3-.5-.8 0-1.1l5.4-3.1c.5-.3 1.4-.3 1.9 0l19.5 11.2z"/></g><g><path class="st5" d="M416.2 321.4c.5.3.5.8 0 1.1l-1.8 1c-.5.3-1.4.3-1.9 0l-6.2-3.6c-.5-.3-.5-.8 0-1.1l1.8-1c.5-.3 1.4-.3 1.9 0l6.2 3.6z"/></g><g><path class="st5" d="M410.3 324.8c.5.3.5.8 0 1.1l-1.8 1c-.5.3-1.4.3-1.9 0l-6.2-3.6c-.5-.3-.5-.8 0-1.1l1.8-1c.5-.3 1.4-.3 1.9 0l6.2 3.6z"/></g><g><path class="st5" d="M420.8 330.9c.5.3.5.8 0 1.1l-1.8 1c-.5.3-1.4.3-1.9 0l-6.2-3.6c-.5-.3-.5-.8 0-1.1l1.8-1c.5-.3 1.4-.3 1.9 0l6.2 3.6z"/></g><g><path class="st6" d="m405.3 196.1-44.2-26.8-.9 4.9 44.2 26.8zM359.4 156.7l-3-1.9-.9 4.9 3 1.9z"/><path class="st4" d="m361.4 146.3-3-1.8-1 4.9 3.1 1.8z"/><path class="st6" d="m363.3 135.9-3-1.8-.9 4.9 3 1.8z"/><path class="st4" d="m402.2 182.7-39.1-23.8-.9 4.9 39.1 23.8zM417.1 180.2 365 148.5l-.9 4.9 52.1 31.7z"/><path class="st6" d="M415.4 167.6 367 138.1l-1 4.9 48.5 29.5z"/><path class="st0" d="M401.9 144.1 368.8 124l-.8 4.3 33 20.1z"/><path class="st6" d="m373.6 188.7-13.8-8.8-.7 3.4 13.8 8.8z"/></g></g><g><path class="st3" d="m222.7 163 72.3-41.8.3 94.4-72.3 41.8-.3-94.4z"/><path class="st5" d="M269.3 157.4c3.9-2.3 7.2-.4 7.2 4.1s-3.2 10.1-7.1 12.3c-4 2.3-7.2.4-7.2-4.1s3.2-10 7.1-12.3zM248.9 184l20.3 7.8 9.5-14.1 10.3 8v4.7l-59.5 34.4v-5.7z"/><path class="st0" d="m229.3 167.5 59.5-34.4.1 52.6-10.3-8-9.5 14.2-20.3-7.8-19.4 35.1-.1-51.7zm40.1 6.3c3.9-2.3 7.1-7.8 7.1-12.3 0-4.5-3.2-6.4-7.2-4.1-4 2.3-7.1 7.8-7.1 12.4 0 4.5 3.2 6.3 7.2 4"/><g><path class="st4" d="m222.7 163-14.4-8.3 72.3-41.8 14.4 8.4z"/></g><g><path class="st1" d="m222.9 257.5-14.4-8.4-.2-94.4 14.4 8.3z"/></g></g><g><g class="st2"><path class="st8" d="m160.4 336.1 14.1-8.3 3.3-1.8-14.2 8.2z"/><path class="st1" d="m187.8 359.7 14.2-8.3-.1 5.3-14.1 8.3zM156.9 311.5l14.2-8.2 4.6 2.6-14.2 8.2z"/><g class="st2"><path class="st1" d="m173.4 317.2 14.2-8.2c-.9.5-1.6 1.2-2.2 2.2l-14.2 8.2c.5-1 1.3-1.7 2.2-2.2"/><path class="st1" d="m171.2 319.4 14.2-8.2c-.2.3-.3.6-.5.9l-14.2 8.2c.1-.4.3-.7.5-.9"/><path class="st1" d="m170.7 320.2 14.2-8.2c-.1.2-.2.5-.3.7l-14.2 8.2c.1-.2.2-.4.3-.7M170.4 321l14.2-8.2c-.1.2-.2.4-.2.7l-14.2 8.2c0-.3.1-.5.2-.7"/><path class="st1" d="m170.1 321.6 14.2-8.2c-.1.2-.1.4-.2.6l-14.2 8.2c.1-.1.2-.3.2-.6M170 322.3l14.2-8.2c0 .2-.1.4-.1.6l-14.2 8.2c0-.2 0-.4.1-.6"/><path class="st1" d="m169.9 322.9 14.2-8.2c0 .2-.1.4-.1.6l-14.2 8.2c0-.2 0-.4.1-.6"/><path class="st1" d="m169.8 323.5 14.2-8.2c0 .2 0 .4-.1.6l-14.2 8.2c0-.2 0-.4.1-.6"/><path class="st1" d="m169.7 324.1 14.2-8.2v.6l-14.2 8.2v-.6"/><path class="st1" d="m169.7 324.7 14.2-8.2v.6l-14.2 8.2v-.6"/><path class="st1" d="m169.7 325.3 14.2-8.2v.6l-14.2 8.2v-.6"/><path class="st1" d="m169.7 325.9 14.2-8.2v.6l-14.2 8.2v-.6"/><path class="st1" d="m169.7 326.5 14.2-8.2v.6l-14.2 8.2v-.6M169.7 327.1l14.2-8.2c0 .2 0 .4.1.6l-14.2 8.2c0-.2 0-.4-.1-.6"/><path class="st1" d="m169.8 327.7 14.2-8.2c0 .2.1.4.1.6l-14.2 8.2c0-.1-.1-.3-.1-.6M169.9 328.4l14.2-8.2c0 .2.1.4.1.6L170 329c0-.2-.1-.4-.1-.6M170 329l14.2-8.2c0 .2.1.4.1.7l-14.2 8.2c0-.2 0-.4-.1-.7M170.1 329.7l14.2-8.2c0 .2.1.4.2.7l-14.2 8.2c-.1-.3-.1-.5-.2-.7M170.3 330.4l14.2-8.2c.1.2.1.5.2.7l-14.2 8.2c-.1-.3-.1-.5-.2-.7"/><path class="st1" d="m170.5 331 14.2-8.2c.1.2.1.5.2.7l-14.2 8.2c-.1-.2-.2-.4-.2-.7"/><path class="st1" d="m170.7 331.7 14.2-8.2c.1.2.1.4.2.7l-14.2 8.2c-.1-.2-.2-.5-.2-.7M170.9 332.4l14.2-8.2c.1.2.1.4.2.6l-14.2 8.2c-.1-.2-.1-.4-.2-.6M171.1 333l14.2-8.2c.1.2.2.4.2.6l-14.2 8.2c0-.2-.1-.4-.2-.6M171.4 333.7l14.2-8.2c.1.2.2.4.2.6l-14.2 8.2c-.1-.2-.2-.4-.2-.6M171.6 334.3l14.2-8.2.3.6-14.2 8.2-.3-.6"/><path class="st1" d="m171.9 334.9 14.2-8.2.3.6-14.2 8.2c-.2-.2-.3-.4-.3-.6"/><path class="st1" d="m172.1 335.5 14.2-8.2.3.6-14.2 8.2-.3-.6"/><path class="st1" d="m172.4 336.1 14.2-8.2c.1.2.3.5.4.7l-14.2 8.2c-.1-.2-.2-.4-.4-.7M172.8 336.9l14.2-8.2c.2.3.3.6.5.9l.1.1-14.2 8.2-.1-.1c-.1-.3-.3-.6-.5-.9"/><path class="st1" d="m173.4 337.9 14.2-8.2c.4.6.7 1.2 1.1 1.8l-14.2 8.2c-.4-.6-.7-1.2-1.1-1.8"/><path class="st1" d="m174.5 339.7 14.2-8.2c.2.3.5.7.7 1l-14.2 8.2c-.2-.3-.4-.7-.7-1M175.3 340.7l14.2-8.2c.2.2.3.5.5.7l-14.2 8.2c-.2-.2-.4-.5-.5-.7"/><path class="st1" d="m175.8 341.4 14.2-8.2c.2.2.3.4.5.6l-14.2 8.2c-.2-.2-.4-.4-.5-.6"/><path class="st1" d="m176.3 342 14.2-8.2c.2.2.3.4.5.6l-14.2 8.2c-.2-.2-.4-.4-.5-.6"/><path class="st1" d="m176.7 342.6 14.2-8.2c.2.2.3.4.5.6l-14.2 8.2c-.1-.3-.3-.5-.5-.6"/><path class="st1" d="m177.2 343.1 14.2-8.2c.2.2.3.4.5.5l-14.2 8.2-.5-.5M177.8 343.7l14.2-8.2.5.5-14.2 8.2-.5-.5"/><path class="st1" d="m178.3 344.2 14.2-8.2c.2.2.4.4.6.5l-14.2 8.2c-.2-.2-.4-.3-.6-.5"/><path class="st1" d="m178.9 344.7 14.2-8.2c.2.2.4.3.6.5l-14.2 8.2c-.3-.2-.5-.3-.6-.5"/><path class="st1" d="m179.4 345.2 14.2-8.2c.2.2.4.3.6.5l-14.2 8.2c-.2-.2-.4-.3-.6-.5"/><path class="st1" d="m180 345.7 14.2-8.2c.2.1.4.3.6.4l-14.2 8.2c-.2-.1-.4-.3-.6-.4M180.6 346.1l14.2-8.2c.2.1.4.3.5.4l-14.2 8.2c-.2-.1-.4-.3-.5-.4"/><path class="st1" d="m181.1 346.5 14.2-8.2c.2.1.4.2.5.4l-14.2 8.2c-.1-.2-.3-.3-.5-.4"/><path class="st1" d="m181.6 346.8 14.2-8.2c.2.1.3.2.5.3l-14.2 8.2c-.1 0-.3-.2-.5-.3M182.2 347.2l14.2-8.2s.1 0 .1.1c.1.1.3.2.4.2l-14.2 8.2c-.1-.1-.3-.1-.4-.2l-.1-.1"/><path class="st1" d="m182.7 347.5 14.2-8.2c.2.1.3.2.5.3l-14.2 8.2c-.2-.2-.3-.3-.5-.3"/><path class="st1" d="m183.2 347.7 14.2-8.2c.2.1.3.2.5.2l-14.2 8.2c-.2 0-.3-.1-.5-.2M183.7 348l14.2-8.2c.2.1.3.1.5.2l-14.2 8.2c-.2-.1-.3-.2-.5-.2"/><path class="st1" d="m184.2 348.2 14.2-8.2c.2.1.3.1.5.2l-14.2 8.2c-.2-.1-.3-.2-.5-.2"/><path class="st1" d="m184.7 348.4 14.2-8.2c.2.1.3.1.5.2l-14.2 8.2c-.1-.1-.3-.2-.5-.2"/><path class="st1" d="m185.2 348.5 14.2-8.2c.2.1.3.1.5.1l-14.2 8.2c-.1 0-.3 0-.5-.1M185.7 348.7l14.2-8.2c.2 0 .4.1.5.1l-14.2 8.2c-.1 0-.3-.1-.5-.1M186.3 348.8l14.2-8.2c.2 0 .4.1.5.1l-14.2 8.2c-.2 0-.3-.1-.5-.1"/><path class="st1" d="m186.8 348.9 14.2-8.2c.2 0 .4 0 .6.1l-14.2 8.2c-.2-.1-.4-.1-.6-.1"/><path class="st1" d="m187.4 348.9 14.2-8.2h.6L188 349c-.2 0-.4 0-.6-.1M188 349l14.2-8.2h.7l-14.2 8.2h-.7"/><path class="st1" d="m188.6 348.9 14.2-8.2c.2 0 .5-.1.7-.1l-14.2 8.2c-.2.1-.4.1-.7.1M189.4 348.8l14.2-8.2c.3-.1.6-.1.9-.2l-14.2 8.2c-.3.1-.6.2-.9.2"/><path class="st1" d="m190.3 348.6 14.2-8.2c.3-.1.7-.3 1-.5l-14.2 8.2c-.4.2-.7.4-1 .5"/></g><path class="st1" d="m200.9 355.7 14.2-8.2 3.2 5.6-14.1 8.2zM168.3 299.3l14.2-8.3 3.2 5.6-14.1 8.3z"/><path class="st8" d="m160.5 303.7 14.1-8.2 7.9-4.5-14.2 8.3z"/><g class="st2"><path class="st8" d="m203.1 350.9 14.2-8.2c0 .1-.1.2-.1.4l-14.2 8.2c.1-.1.1-.3.1-.4M203 351.3l14.2-8.2c-.1.4-.2.8-.4 1.2l-14.2 8.2c.2-.4.3-.8.4-1.2"/><path class="st8" d="m202.6 352.4 14.2-8.2c-.2.4-.3.8-.5 1.2l-14.2 8.2c.2-.3.4-.7.5-1.2M202.1 353.7l14.2-8.2c-.2.5-.5 1-.8 1.4l-14.2 8.2c.3-.4.6-.9.8-1.4M201.3 355.1l14.2-8.2c-.1.2-.3.4-.4.6l-14.2 8.2c.2-.2.3-.4.4-.6"/></g><g class="st2"><path class="st8" d="m171.6 304.9 14.1-8.3-14.1 8.3M171.6 304.9l14.2-8.2h1.1l-14.2 8.2c-.4-.1-.8-.1-1.1 0"/><path class="st8" d="m172.7 304.8 14.2-8.2h1l-14.2 8.2h-1M173.7 304.9l14.2-8.2c.3 0 .6.1 1 .1l-14.2 8.2c-.4-.1-.7-.1-1-.1"/><path class="st8" d="m174.6 305 14.2-8.2c.3 0 .6.1.9.2l-14.2 8.2c-.2-.1-.6-.2-.9-.2"/><path class="st8" d="m175.6 305.1 14.2-8.2c.3.1.6.1.9.2l-14.2 8.2c-.3-.1-.6-.1-.9-.2"/><path class="st8" d="m176.5 305.3 14.2-8.2c.1 0 .2.1.4.1l-14.2 8.2c-.2 0-.3-.1-.4-.1"/></g><g class="st2"><path class="st8" d="m201 330.9 14.2-8.2v.1l-14.2 8.1"/><path class="st8" d="m201 330.9 14.2-8.2c.1.3.3.7.4 1l-14.2 8.2c-.1-.3-.2-.6-.4-1M201.4 332l14.2-8.2c.1.4.3.7.4 1.1l-14.2 8.2c-.1-.4-.3-.8-.4-1.1"/><path class="st8" d="m201.8 333 14.2-8.2c.1.4.2.7.4 1.1l-14.2 8.2c-.2-.3-.3-.7-.4-1.1"/><path class="st8" d="m202.1 334.1 14.2-8.2c.1.4.2.8.3 1.1l-14.2 8.2c0-.3-.2-.7-.3-1.1M202.5 335.3l14.2-8.2.3 1.2-14.2 8.2c-.1-.5-.2-.9-.3-1.2"/><path class="st8" d="m202.8 336.4 14.2-8.2.3 1.2-14.2 8.2-.3-1.2"/><path class="st8" d="m203 337.6 14.2-8.2c0 .2.1.4.1.6l-14.2 8.2c0-.2 0-.4-.1-.6"/></g><g class="st2"><path class="st8" d="m187.9 311.8 14.2-8.2c.1.1.2.2.3.2l-14.2 8.2c-.1 0-.2-.1-.3-.2M188.2 312.1l14.2-8.2c.3.3.7.6 1 .9l-14.2 8.2c-.3-.3-.7-.7-1-.9"/><path class="st8" d="m189.2 313 14.2-8.2.9.9-14.2 8.2-.9-.9"/><path class="st8" d="m190.1 313.9 14.2-8.2.9.9-14.2 8.2-.9-.9M191 314.8l14.2-8.2c.3.3.6.6.8.9l-14.2 8.2c-.3-.3-.5-.6-.8-.9"/><path class="st8" d="m191.8 315.7 14.2-8.2c.3.3.5.6.8.9l-14.2 8.2c-.3-.3-.5-.6-.8-.9M192.6 316.6l14.2-8.2c.2.2.4.5.6.7l-14.2 8.2c-.2-.2-.4-.4-.6-.7"/></g><path class="st8" d="m207.8 340.8 14.1-8.2v12.8l-14.2 8.2z"/><path class="st1" d="m203.2 338.2 14.1-8.2 4.6 2.6-14.1 8.2z"/><path class="st8" d="m176.9 300.1 14.1-8.2 11.1 6.4-14.1 8.2z"/><path class="st1" d="m188 306.5 14.1-8.2v5.3l-14.2 8.2z"/><path class="st8" d="m196.5 315.5 14.1-8.2 7.8 13.5-14.1 8.2zM193.2 317.4l14.2-8.3 3.2-1.8-14.1 8.2z"/><path class="st3" d="m207.7 353.6-4.6-2.7c-.5 1.8-1.2 3.4-2.2 4.8l3.2 5.6-7.9 4.5-3.2-5.6c-1.6.1-3.4 0-5.3-.5v5.3l-11.1-6.4v-5.3c-1.8-1.6-3.6-3.5-5.3-5.5l-3.3 1.9-7.8-13.5 3.3-1.9c-.9-2.5-1.7-4.9-2.2-7.3l-4.6-2.7v-12.7l4.6 2.7c.5-1.8 1.2-3.4 2.2-4.8l-3.2-5.6 7.9-4.5 3.2 5.6c1.7-.1 3.4 0 5.3.5v-5.3l11.1 6.4v5.3c1.8 1.6 3.6 3.5 5.3 5.5l3.3-1.9 7.8 13.5-3.3 1.9c1 2.4 1.7 4.9 2.2 7.3l4.6 2.7v12.7zm-16.4-5.5c2.4-1.4 3.7-4.3 3.7-8.2 0-3.9-1.3-8.3-3.7-12.4-2.4-4.1-5.6-7.5-9-9.5-3.4-1.9-6.6-2.3-9-.9-2.4 1.4-3.7 4.3-3.7 8.2 0 3.9 1.3 8.3 3.7 12.4 2.4 4.1 5.6 7.5 8.9 9.4 3.4 2.1 6.7 2.4 9.1 1"/></g><g class="st2"><path class="st8" d="m154.1 268.1 8.4-4.9 1.9-1.1-8.4 4.9z"/><path class="st1" d="m170.3 282.1 8.4-4.9v3.1l-8.4 4.9zM152 253.6l8.4-4.9 2.7 1.6-8.3 4.8z"/><g class="st2"><path class="st1" d="m161.8 257 8.4-4.9c-.5.3-1 .7-1.3 1.3l-8.4 4.9c.3-.6.7-1 1.3-1.3"/><path class="st1" d="m160.5 258.2 8.4-4.9c-.1.2-.2.3-.3.5l-8.4 4.9c.1-.1.2-.3.3-.5"/><path class="st1" d="m160.2 258.7 8.4-4.9c-.1.1-.1.3-.2.4l-8.4 4.9c0-.1.1-.2.2-.4M160 259.2l8.4-4.9c0 .1-.1.3-.1.4l-8.4 4.9c0-.2 0-.3.1-.4M159.9 259.6l8.4-4.9c0 .1-.1.2-.1.4l-8.4 4.9c0-.2 0-.3.1-.4"/><path class="st1" d="m159.8 260 8.4-4.9c0 .1-.1.2-.1.4l-8.4 4.9c0-.2 0-.3.1-.4"/><path class="st1" d="m159.7 260.3 8.4-4.9c0 .1 0 .2-.1.4l-8.4 4.9c0-.1.1-.3.1-.4"/><path class="st1" d="m159.6 260.7 8.4-4.9v.4l-8.4 4.9v-.4"/><path class="st1" d="m159.6 261 8.4-4.9v.4l-8.4 4.9v-.4"/><path class="st1" d="m159.6 261.4 8.4-4.9v.4l-8.4 4.9v-.4"/><path class="st1" d="m159.6 261.7 8.4-4.9v.3l-8.4 4.9v-.3c0 .1 0 .1 0 0M159.6 262.1l8.4-4.9v.4l-8.4 4.9v-.4"/><path class="st1" d="m159.6 262.5 8.4-4.9v.4l-8.4 4.9v-.4"/><path class="st1" d="m159.6 262.8 8.4-4.9v.4l-8.4 4.9v-.4M159.7 263.2l8.4-4.9c0 .1 0 .2.1.4l-8.4 4.9c-.1-.2-.1-.3-.1-.4"/><path class="st1" d="m159.7 263.6 8.4-4.9c0 .1 0 .3.1.4l-8.4 4.9c0-.2-.1-.3-.1-.4"/><path class="st1" d="m159.8 263.9 8.4-4.9c0 .1.1.3.1.4l-8.4 4.9c-.1-.1-.1-.2-.1-.4M159.9 264.3l8.4-4.9c0 .1.1.3.1.4l-8.4 4.9c-.1-.1-.1-.2-.1-.4"/><path class="st1" d="m159.9 264.7 8.4-4.9c0 .1.1.3.1.4l-8.4 4.9c0-.1 0-.2-.1-.4M160.1 265.1l8.4-4.9c0 .1.1.3.1.4l-8.4 4.9c-.1-.1-.1-.2-.1-.4"/><path class="st1" d="m160.2 265.5 8.4-4.9c0 .1.1.3.1.4l-8.4 4.9c0-.1-.1-.2-.1-.4M160.3 265.9l8.4-4.9c0 .1.1.3.1.4l-8.4 4.9c0-.1-.1-.2-.1-.4M160.4 266.3l8.4-4.9c0 .1.1.2.1.4l-8.4 4.9c0-.1 0-.3-.1-.4M160.6 266.7l8.4-4.9c0 .1.1.2.1.4l-8.4 4.9c0-.2-.1-.3-.1-.4"/><path class="st1" d="m160.7 267 8.4-4.9c0 .1.1.2.2.4l-8.4 4.9c-.1-.1-.1-.2-.2-.4M160.9 267.4l8.4-4.9c.1.1.1.2.2.4l-8.4 4.9c-.1-.2-.2-.3-.2-.4"/><path class="st1" d="m161 267.8 8.4-4.9c.1.1.1.3.2.4l-8.4 4.9c0-.2-.1-.3-.2-.4"/><path class="st1" d="m161.2 268.1 8.4-4.9c.1.1.1.3.2.4l-8.4 4.9c0-.1-.1-.2-.2-.4M161.4 268.6l8.4-4.9c.1.2.2.4.3.5v.1l-8.4 4.9v-.1c-.1-.2-.2-.3-.3-.5M161.8 269.2l8.4-4.9c.2.4.4.7.7 1l-8.4 4.9c-.3-.3-.5-.6-.7-1"/><path class="st1" d="m162.4 270.2 8.4-4.9c.1.2.3.4.4.6l-8.4 4.9c-.1-.1-.2-.4-.4-.6M162.9 270.8l8.4-4.9c.1.1.2.3.3.4l-8.4 4.9c-.1-.1-.2-.2-.3-.4M163.2 271.3l8.4-4.9c.1.1.2.2.3.4l-8.4 4.9c-.1-.2-.2-.3-.3-.4"/><path class="st1" d="m163.5 271.6 8.4-4.9.3.3-8.4 4.9-.3-.3"/><path class="st1" d="m163.8 271.9 8.4-4.9.3.3-8.4 4.9c-.1 0-.2-.1-.3-.3M164.1 272.3l8.4-4.9.3.3-8.4 4.9-.3-.3"/><path class="st1" d="m164.4 272.6 8.4-4.9.3.3-8.4 4.9-.3-.3"/><path class="st1" d="m164.7 272.9 8.4-4.9.3.3-8.4 4.9-.3-.3"/><path class="st1" d="m165 273.2 8.4-4.9.3.3-8.4 4.9-.3-.3"/><path class="st1" d="m165.3 273.5 8.4-4.9.3.3-8.4 4.9c0-.1-.1-.2-.3-.3M165.7 273.8l8.4-4.9.3.3-8.4 4.8c-.1-.1-.2-.1-.3-.2"/><path class="st1" d="m166 274 8.4-4.9c.1.1.2.2.3.2l-8.4 4.9c-.1 0-.2-.1-.3-.2M166.3 274.3l8.4-4.9c.1.1.2.1.3.2l-8.4 4.9c-.1-.1-.2-.2-.3-.2"/><path class="st1" d="m166.6 274.5 8.4-4.9c.1.1.2.1.3.2l-8.4 4.9c0-.1-.2-.2-.3-.2M167 274.7l8.4-4.9h.1c.1 0 .2.1.2.1l-8.4 4.9c-.1 0-.2-.1-.3-.1M167.3 274.8l8.4-4.9c.1.1.2.1.3.2l-8.4 4.9c-.1-.1-.2-.1-.3-.2"/><path class="st1" d="m167.6 275 8.4-4.9c.1 0 .2.1.3.1l-8.4 4.9c-.1 0-.2-.1-.3-.1"/><path class="st1" d="m167.9 275.1 8.4-4.9c.1 0 .2.1.3.1l-8.4 4.9c-.1 0-.2 0-.3-.1M168.2 275.3l8.4-4.9c.1 0 .2.1.3.1l-8.4 4.9c-.1-.1-.2-.1-.3-.1"/><path class="st1" d="m168.5 275.4 8.4-4.9c.1 0 .2.1.3.1l-8.4 4.9c-.1-.1-.2-.1-.3-.1"/><path class="st1" d="m168.8 275.5 8.4-4.9c.1 0 .2.1.3.1l-8.4 4.9c-.1-.1-.2-.1-.3-.1"/><path class="st1" d="m169.1 275.6 8.4-4.9c.1 0 .2 0 .3.1l-8.4 4.9c-.1-.1-.2-.1-.3-.1"/><path class="st1" d="m169.4 275.6 8.4-4.9c.1 0 .2 0 .3.1l-8.4 4.9c-.1 0-.2-.1-.3-.1"/><path class="st1" d="m169.7 275.7 8.4-4.9h.3l-8.4 4.9h-.3M170.1 275.7l8.4-4.9h.4l-8.4 4.9h-.4"/><path class="st1" d="m170.4 275.7 8.4-4.9h.4l-8.4 4.9h-.4"/><path class="st1" d="m170.8 275.7 8.4-4.9c.1 0 .3 0 .4-.1l-8.4 4.9c-.1.1-.3.1-.4.1"/><path class="st1" d="m171.2 275.6 8.4-4.9c.2 0 .4-.1.5-.1l-8.4 4.9c-.1.1-.3.1-.5.1"/><path class="st1" d="m171.7 275.5 8.4-4.9.6-.3-8.4 4.9-.6.3"/></g><path class="st1" d="m178 279.7 8.4-4.8 1.9 3.3-8.3 4.8zM158.8 246.3l8.4-4.8 1.9 3.3-8.4 4.9z"/><path class="st8" d="m154.1 249 8.4-4.9 4.7-2.6-8.4 4.8z"/><g class="st2"><path class="st8" d="m179.3 276.9 8.4-4.9c0 .1 0 .1-.1.2l-8.4 4.9c.1-.1.1-.1.1-.2M179.3 277.1l8.4-4.9c-.1.2-.1.5-.2.7l-8.4 4.9c0-.2.1-.5.2-.7"/><path class="st8" d="m179.1 277.8 8.4-4.9c-.1.3-.2.5-.3.7l-8.4 4.9c.1-.2.2-.5.3-.7M178.8 278.5l8.4-4.9c-.1.3-.3.6-.5.9l-8.4 4.9c.2-.3.3-.6.5-.9"/><path class="st8" d="m178.3 279.4 8.4-4.9c-.1.1-.2.2-.2.3l-8.4 4.9c0-.1.1-.2.2-.3"/></g><g class="st2"><path class="st8" d="m160.7 249.7 8.4-4.9-8.4 4.9M160.7 249.7l8.4-4.9h.6l-8.4 4.9c-.2-.1-.4 0-.6 0"/><path class="st8" d="m161.3 249.6 8.4-4.9h.6l-8.4 4.9h-.6M161.9 249.7l8.4-4.9c.2 0 .4 0 .6.1l-8.4 4.9c-.2-.1-.4-.1-.6-.1"/><path class="st8" d="m162.5 249.7 8.4-4.9c.2 0 .4.1.5.1l-8.4 4.9c-.1 0-.3-.1-.5-.1M163.1 249.8l8.4-4.9c.2 0 .4.1.5.1l-8.4 4.9c-.2 0-.4-.1-.5-.1"/><path class="st8" d="m163.6 249.9 8.4-4.9c.1 0 .1 0 .2.1l-8.4 4.9c-.1 0-.1-.1-.2-.1"/></g><g class="st2"><path class="st8" d="m178.1 265 8.4-4.9-8.4 4.9c0 .1 0 .1 0 0M178.1 265.1l8.4-4.9c.1.2.2.4.2.6l-8.4 4.9c0-.2-.1-.4-.2-.6"/><path class="st8" d="m178.3 265.7 8.4-4.9c.1.2.1.4.2.6l-8.4 4.9c0-.2-.1-.4-.2-.6M178.5 266.3l8.4-4.9c.1.2.1.4.2.7l-8.4 4.9c0-.3-.1-.5-.2-.7M178.8 267l8.4-4.9c.1.2.1.4.2.7l-8.4 4.9c-.1-.3-.2-.5-.2-.7"/><path class="st8" d="m179 267.6 8.4-4.9c.1.2.1.5.2.7l-8.4 4.9c-.1-.2-.2-.4-.2-.7"/><path class="st8" d="m179.1 268.3 8.4-4.9c.1.2.1.5.2.7l-8.4 4.9c-.1-.2-.1-.5-.2-.7M179.3 269l8.4-4.9c0 .1.1.2.1.4l-8.4 4.9c-.1-.2-.1-.3-.1-.4"/></g><g class="st2"><path class="st8" d="m170.4 253.8 8.4-4.9c.1 0 .1.1.2.1l-8.4 4.9c-.1 0-.2-.1-.2-.1"/><path class="st8" d="m170.5 253.9 8.4-4.9c.2.2.4.4.6.5l-8.4 4.9c-.2-.1-.4-.3-.6-.5M171.1 254.5l8.4-4.9c.2.2.4.4.6.5l-8.4 4.9c-.2-.2-.4-.4-.6-.5"/><path class="st8" d="m171.7 255 8.4-4.9c.2.2.3.4.5.5l-8.4 4.9c-.2-.1-.4-.3-.5-.5"/><path class="st8" d="m172.2 255.5 8.4-4.9c.2.2.3.4.5.5l-8.4 4.9c-.2-.1-.4-.3-.5-.5M172.7 256.1l8.4-4.9c.2.2.3.4.5.5l-8.4 4.9c-.2-.2-.4-.3-.5-.5"/><path class="st8" d="m173.1 256.6 8.4-4.9c.1.1.2.3.3.4l-8.4 4.9c0-.1-.2-.2-.3-.4"/></g><path class="st8" d="m182.1 270.9 8.4-4.8-.1 7.5-8.3 4.9z"/><path class="st1" d="m179.4 269.4 8.3-4.9 2.8 1.6-8.4 4.8z"/><path class="st8" d="m163.8 246.9 8.4-4.9 6.5 3.8-8.3 4.8z"/><path class="st1" d="m170.4 250.6 8.3-4.8v3.1l-8.3 4.9z"/><path class="st8" d="m175.4 255.9 8.4-4.8 4.6 8-8.4 4.8z"/><path class="st8" d="m173.5 257 8.3-4.8 2-1.1-8.4 4.8z"/><path class="st3" d="m182.1 278.5-2.7-1.6c-.3 1.1-.7 2-1.3 2.8l1.9 3.3-4.7 2.6-1.9-3.3c-1 .1-2 0-3.1-.3v3.1l-6.6-3.8v-3.1c-1.1-1-2.1-2.1-3.1-3.3l-1.9 1.1-4.6-8 1.9-1.1c-.6-1.4-1-2.9-1.3-4.3L152 261v-7.5l2.7 1.6c.3-1.1.7-2 1.3-2.8l-1.9-3.3 4.6-2.7 1.9 3.3c1-.1 2 0 3.1.3v-3.1l6.6 3.8v3.1c1.1 1 2.1 2.1 3.1 3.3l1.9-1.1 4.6 8-1.9 1.1c.6 1.4 1 2.9 1.3 4.3l2.7 1.6.1 7.6zm-9.8-3.3c1.4-.8 2.2-2.5 2.2-4.8s-.8-4.9-2.2-7.3c-1.4-2.4-3.3-4.4-5.3-5.6-2-1.1-3.9-1.3-5.3-.5s-2.2 2.5-2.2 4.8.8 4.9 2.2 7.3c1.4 2.4 3.3 4.4 5.3 5.6 2 1.1 3.9 1.3 5.3.5"/></g></g><g><g class="st2"><path class="st8" d="m463.1 337.8-16.5-9.6-11.2 6.6 16.4 9.5 16.5 9.5 11.3-6.5z"/><defs><path id="SVGID_1_" d="m468.3 353.8 11.2-6.5c7.1 18.2 15.9 24.7 16.4 25.1l-11.2 6.5c-.4-.4-9.3-6.9-16.4-25.1z"/></defs><use xlink:href="#SVGID_1_" style="overflow:visible;fill:#0d3885"/><clipPath id="SVGID_2_"><use xlink:href="#SVGID_1_" style="overflow:visible"/></clipPath><path d="M495.7 372.1c-.1-.1-.3-.2-.5-.4-.2-.1-.4-.3-.6-.5-.2-.2-.4-.4-.7-.6l-.7-.7-.8-.8c-.3-.3-.5-.6-.8-.9-.3-.3-.5-.6-.8-1-.3-.3-.6-.7-.9-1.1-.3-.4-.7-.8-1-1.3-.5-.6-1-1.3-1.5-2.1-.7-1.1-1.5-2.3-2.3-3.6-.5-.8-1-1.7-1.5-2.6-.3-.6-.7-1.3-1-1.9-.3-.6-.6-1.1-.8-1.7-.3-.6-.5-1.2-.8-1.8-.3-.6-.5-1.2-.8-1.9-.3-.6-.5-1.3-.8-2l-11.2 6.5c.3.7.5 1.3.8 2 .3.6.5 1.2.8 1.9.3.6.5 1.2.8 1.8.3.6.6 1.2.8 1.7.3.7.7 1.3 1 1.9.5.9 1 1.8 1.5 2.6.8 1.3 1.5 2.5 2.3 3.6l1.5 2.1c.3.5.7.9 1 1.3.3.4.6.7.9 1.1.3.3.5.7.8 1 .3.3.5.6.8.9.3.3.5.6.8.8l.7.7c.2.2.5.4.7.6.2.2.4.4.6.5.2.2.3.3.5.4.2.1.3.2.3.2l11.2-6.5c-.1 0-.2-.1-.3-.2z" style="clip-path:url(#SVGID_2_);fill:#0d3885"/><g><path class="st3" d="M484.7 378.9c6.5 44.6-17.6 53.5-33.1 54.1-15.5-18.5-39.5-55.3-32.7-92.2.5.2 9.3 3.9 16.5-6.1l16.5 9.5 16.5 9.5c7 18.3 15.9 24.8 16.3 25.2z"/></g><g><path class="st8" d="M439.7 334.1c-.2.1-.5.2-.7.3-.2.1-.4.1-.6.2-.1 0-.2.1-.3.1-.3.1-.6.2-.9.2-.4.1-.8.1-1.2.2h-2.2c-.3 0-.5 0-.8-.1h-.2c-.2 0-.3-.1-.5-.1h-.2c-.1 0-.3-.1-.4-.1-.1 0-.1 0-.2-.1-.1 0-.2-.1-.3-.1-.1 0-.1 0-.2-.1-.1 0-.2-.1-.3-.1h-.1c-.1 0-.2-.1-.3-.1h-.1l-11.2 6.5h.1c.1 0 .2.1.3.1h.1c.1 0 .2.1.3.1h.2c.1 0 .2.1.3.1h.2c.1 0 .3.1.4.1H421.2c.2 0 .3.1.5.1h.2c.3 0 .5.1.8.1H424.8c.4 0 .8-.1 1.2-.2.3-.1.6-.1.9-.2.1 0 .2-.1.3-.1.2-.1.3-.1.5-.2h.1c.2-.1.5-.2.7-.3.1-.1.2-.1.4-.2.4-.2.7-.4 1.1-.6l11.2-6.5c-.4.2-.7.4-1.1.6-.2.3-.3.3-.4.4zM497.1 386.9v-3.5c0-.6-.1-1.2-.1-1.8V380.7c-.1-.8-.1-1.5-.2-2.3v-.6l-.3-3v-.2c-.1-.7-.2-1.4-.3-2.2l-11.2 6.5.3 2.4.3 3v.6c.1.8.1 1.5.2 2.3 0 .3 0 .6.1.9 0 .6.1 1.2.1 1.8V393.3c0 .8 0 1.7-.1 2.5v.3c0 .7-.1 1.4-.1 2.1 0 .3 0 .5-.1.7 0 .6-.1 1.1-.2 1.6 0 .2-.1.5-.1.7-.1.8-.2 1.5-.3 2.2v.1c-.1.8-.3 1.5-.5 2.3 0 .2-.1.4-.1.5l-.6 2.4c-.3.9-.6 1.7-.9 2.6 0 .1-.1.2-.1.3-.4 1-.8 1.9-1.2 2.8 0 0 0 .1-.1.1-.3.6-.6 1.1-.9 1.7-.1.1-.2.3-.2.4-.2.4-.5.8-.8 1.3-.1.1-.1.2-.2.3-.3.5-.6 1-1 1.4-.1.1-.1.2-.2.3-.3.4-.6.7-.8 1.1-.1.1-.2.2-.3.4-.3.4-.7.8-1 1.2-.4.4-.7.8-1.1 1.1l-.3.3c-.3.3-.6.6-.9.8-.1.1-.2.2-.3.2l-1.2.9c-.1.1-.2.1-.3.2-.3.2-.7.5-1 .7-.1.1-.2.2-.4.2-.4.3-.8.5-1.3.8l11.2-6.5c.4-.2.8-.5 1.3-.8.1-.1.2-.2.3-.2.3-.2.7-.5 1-.7.1-.1.2-.1.3-.2l1.2-.9c.1-.1.2-.2.3-.2.3-.3.6-.5.9-.8l.3-.3c.4-.4.8-.7 1.1-1.1.4-.4.7-.8 1-1.2.1-.1.2-.2.3-.4.3-.3.6-.7.8-1.1.1-.1.1-.2.2-.3.3-.5.7-.9 1-1.4 0 0 0-.1.1-.1 0-.1.1-.2.1-.2.3-.4.5-.8.7-1.3.1-.1.2-.3.2-.4.3-.5.6-1.1.9-1.7v-.1c.4-.9.8-1.9 1.2-2.8v-.1c0-.1 0-.1.1-.2.3-.8.6-1.7.9-2.6l.6-2.4c0-.1.1-.2.1-.3 0-.1 0-.2.1-.3.2-.7.3-1.5.5-2.2v-.1c.1-.7.2-1.5.3-2.2v-.7c.1-.5.1-1.1.2-1.6v-.8c.1-.7.1-1.4.1-2.1v-.2c.3-.7.4-1.6.4-2.4z"/></g><path class="st5" d="M460.2 381.6v-5.7c0-4-2.8-9-6.4-11l-4.1-2.4c-3.5-2-6.4-.4-6.4 3.6v5.7l-2.1-1.2v12.1c0 6.7 4.7 14.8 10.5 18.2 5.8 3.4 10.6.7 10.6-6v-12.1l-2.1-1.2zm-15-14.4c0-2.8 2-4 4.5-2.6l4.1 2.4c2.5 1.4 4.5 4.9 4.5 7.8v5.7l-13.1-7.6v-5.7zm7.6 20.9v3.8c0 .7-.5.9-1.1.6-.6-.3-1.1-1.2-1.1-1.9v-3.8c-1-1.1-1.7-2.6-1.7-3.9 0-1.7 1.2-2.4 2.8-1.6 1.5.9 2.7 3 2.7 4.7.1 1.5-.6 2.2-1.6 2.1z"/></g></g><g><path class="st1" d="m302 115.7 9.2-5.2 6-6.5-9.2 5.3z"/><path class="st8" d="M349.1 79.4V78.2c0-.1 0-.3-.1-.4 0-.1 0-.3-.1-.4 0-.1-.1-.3-.1-.4 0-.1-.1-.3-.1-.4 0-.1-.1-.3-.1-.4 0-.1-.1-.3-.1-.4 0-.1-.1-.3-.1-.4 0-.1-.1-.3-.1-.4 0-.1-.1-.3-.2-.4-.1-.1-.1-.3-.2-.4-.1-.1-.1-.3-.2-.4-.1-.1-.1-.3-.2-.4-.1-.1-.1-.3-.2-.4-.1-.2-.2-.3-.3-.5-.1-.2-.3-.5-.4-.7-.2-.3-.4-.7-.6-1-.2-.3-.3-.5-.5-.7-.1-.2-.2-.3-.4-.5-.1-.1-.2-.3-.3-.4-.1-.1-.2-.2-.3-.4-.1-.1-.2-.2-.3-.4-.1-.1-.2-.2-.3-.4-.1-.1-.2-.2-.4-.3-.1-.1-.2-.2-.4-.3-.1-.1-.2-.2-.4-.3-.1-.1-.2-.2-.4-.3-.1-.1-.2-.2-.4-.3-.1-.1-.2-.2-.4-.3-.1-.1-.2-.2-.4-.2-.1-.1-.2-.1-.4-.2h-.1L281.9 33c-.1-.1-.2-.1-.3-.1-.1-.1-.2-.1-.3-.2-.1-.1-.2-.1-.3-.2-.1 0-.2-.1-.3-.1-.1 0-.2-.1-.3-.1-.1 0-.2-.1-.3-.1-.1 0-.2-.1-.3-.1-.1 0-.2-.1-.3-.1-.1 0-.2 0-.4-.1H277.9c-.2 0-.3 0-.5.1-.2 0-.4.1-.6.2-.2.1-.5.2-.7.3l-9.2 5.2c.2-.1.4-.2.7-.3.2-.1.4-.1.6-.2.2 0 .3-.1.5-.1H269.9c.1 0 .2 0 .4.1.1 0 .2 0 .3.1.1 0 .2.1.3.1.1 0 .2.1.3.1.1 0 .2.1.3.1.1 0 .2.1.3.1.1 0 .2.1.3.2.1.1.2.1.3.2.1 0 .2.1.3.1l58.9 32.6h.1c.1.1.2.1.4.2.1.1.2.2.4.2.1.1.2.2.4.3.1.1.2.2.4.3.1.1.2.2.4.3.1.1.2.2.4.3.1.1.2.2.4.3.1.1.2.2.4.3.1.1.2.2.3.4.1.1.2.2.3.4.1.1.2.2.3.4.1.1.2.3.3.4.1.2.3.3.4.5.2.2.4.5.5.7.2.3.4.6.6 1 .1.2.3.5.4.7.1.2.2.3.3.5.1.1.1.3.2.4.1.1.1.3.2.4.1.1.1.3.2.4.1.1.1.3.2.4.1.1.1.3.2.4.1.1.1.3.1.4 0 .1.1.3.1.4 0 .1.1.3.1.4 0 .1.1.3.1.4 0 .1.1.3.1.4 0 .1.1.3.1.4 0 .1.1.3.1.4 0 .1 0 .3.1.4v1.6l-.1 32.4V118.4c0 .1 0 .3-.1.4 0 .1-.1.3-.1.4 0 .1-.1.3-.1.4 0 .1-.1.3-.1.4-.1.2-.1.3-.2.5l-.3.6c-.4.6-.9 1.1-1.5 1.4l9.2-5.2c.6-.3 1.1-.8 1.5-1.4l.3-.6c.1-.1.1-.3.2-.5.1-.1.1-.3.1-.4 0-.1.1-.3.1-.4 0-.1.1-.3.1-.4 0-.1 0-.3.1-.4V112l.1-32.4c-.1 0-.2-.1-.2-.2z"/><path class="st3" d="M331.6 70.8c4.6 2.6 8.4 9 8.4 14.2l-.1 32.4c0 5.2-3.8 7.3-8.4 4.7L308 109.3l-6 6.4-6.1-13.2-23.3-13c-4.6-2.6-8.4-9-8.4-14.2l.1-32.4c0-5.2 3.8-7.3 8.4-4.7l58.9 32.6z"/><text transform="matrix(1.0247 .5633 0 1 271.838 67.16)" class="st5 st10" style="font-size:19.8223px">shopify</text></g><g><path class="st0" d="M530.5 268.1c-1.6-.9-2.9-.2-2.9 1.7l-.2 83.8c0 1.8 1.3 4.1 2.9 5l93 53.7c1.6.9 2.9.2 2.9-1.7l.2-83.8c0-1.8-1.3-4.1-2.9-5l-93-53.7z"/><path class="st1" d="M530 267.8c-.1 0-.1-.1-.2-.1h-1.2c-.1 0-.1.1-.2.1l5.6-3.2.1-.1h1.2c.1 0 .1 0 .2.1h.1c.1.1.2.1.4.2l93 53.7c.2.1.4.2.5.4.1 0 .1.1.2.1.1.1.2.1.3.2l.1.1.1.1.1.1c.1.1.2.2.2.3l.1.1v.1l.1.1c.1.1.1.2.2.3.1.1.1.2.1.2 0 .1.1.1.1.2s.1.2.1.2c0 .1.1.2.1.2 0 .1.1.2.1.3 0 .1.1.2.1.3V322.1c0 .1.1.2.1.3v1l-.2 83.8c0 .9-.3 1.6-.8 1.9l-5.6 3.2c.5-.3.8-.9.8-1.9l.2-83.8c0-.2 0-.4-.1-.7v-.1c0-.2-.1-.4-.1-.6v-.1c-.1-.2-.2-.5-.3-.7-.1-.2-.2-.5-.3-.7-.1-.2-.3-.4-.4-.6v-.1c-.1-.2-.3-.3-.4-.5l-.1-.1c-.1-.1-.2-.2-.4-.3-.1 0-.1-.1-.2-.1-.2-.1-.4-.3-.5-.4l-93-53.7c-.1-.1-.2-.1-.4-.2.3.2.3.2.2.1z"/><g class="st2"><path class="st3" d="M530.4 263.4c-1.6-.9-2.9-.2-2.9 1.7v5.8l98.8 57v-5.8c0-1.8-1.3-4.1-2.9-5l-93-53.7z"/><path class="st4" d="M631.8 318.4c0-.1 0-.1 0 0v-.4c0-.1-.1-.2-.1-.3V317.4c0-.1-.1-.2-.1-.3 0-.1-.1-.2-.1-.3 0-.1-.1-.2-.1-.2 0-.1-.1-.2-.1-.2 0-.1-.1-.1-.1-.2s-.1-.2-.1-.2c-.1-.1-.1-.2-.2-.3l-.1-.1v-.1l-.1-.1c-.1-.1-.2-.2-.2-.3l-.1-.1-.1-.1-.1-.1c-.1-.1-.2-.2-.3-.2-.1 0-.1-.1-.2-.1-.2-.1-.4-.3-.5-.4l-93-53.7c-.1-.1-.3-.1-.4-.2H535.5c-.1 0-.2 0-.3-.1H534.5c-.1 0-.1 0-.2.1-.1 0-.1 0-.1.1l-5.6 3.2c.1-.1.3-.1.4-.2h.5c.2 0 .3.1.5.1h.1c.2.1.4.1.5.2l93 53.7c.2.1.4.2.5.4.1 0 .1.1.2.1.1.1.2.2.4.3l.1.1c.1.2.3.3.4.5v.1c.1.2.3.4.4.6.1.2.2.4.3.7.1.2.2.5.3.7v.1c.1.2.1.4.1.6v.1c0 .2.1.4.1.7v5.8l5.6-3.2v-5.8c-.1-.4-.2-.6-.2-.7z"/></g><path class="st5" d="M606.5 310.1c-1-.6-1.8-.1-1.8 1 0 1.2.8 2.6 1.8 3.1 1 .6 1.8.1 1.8-1s-.8-2.5-1.8-3.1zM612.7 313.7c-1-.6-1.8-.1-1.8 1s.8 2.6 1.8 3.1c1 .6 1.8.1 1.8-1s-.8-2.5-1.8-3.1zM619 317.3c-1-.6-1.8-.1-1.8 1 0 1.2.8 2.6 1.8 3.1 1 .6 1.8.1 1.8-1s-.8-2.5-1.8-3.1z"/><g><path class="st5" d="M592 348.5c0 10.9-8.9 15.7-19.8 10.7s-19.8-17.9-19.8-28.8c0-10.9 8.9-15.7 19.8-10.7 10.9 4.9 19.8 17.8 19.8 28.8z"/><path class="st3" d="M568.1 330.6v15.1l13.1-1.6z"/></g></g><g><path class="st12" d="M423.5 207c.3-.9 1.8-2.5 2.2-2.9.4-.4 1.5-1.7 1.5-2.1 0-.5.2-1.2-.1-1.3-.3-.1-1.1.7-1.1.7s-.8-2-.5-3.1c.2-1.1 1.1-3 .6-3.1-.5-.1-1.9.5-2.4.8s-2 1.6-2.3 2.2c-.3.7-.5 3.5-.5 4.4 0 1-.8 3.8-.8 3.8l3.4.6z"/><path class="st13" d="M420 231.9c-.9 3.9-4.9 9.9-7.7 8.2-.6-.4-1.8-4.9-1.9-5.8-.7-5.2 2.2-11.4 2.9-13.9.9-3.2 6.3-15.2 6.3-15.2s3.1.8 3.9 1.9c0 0-3.3 11.6-4 14.2-.7 2.4.5 10.6.5 10.6z"/><path class="st8" d="M457.9 190.6V189c0-.1 0-.1-.1-.2 0-.1 0-.1-.1-.2 0-.1 0-.1-.1-.2 0-.1 0-.1-.1-.2 0-.1 0-.1-.1-.2 0-.1 0-.1-.1-.2 0-.1-.1-.1-.1-.2s-.1-.1-.1-.2-.1-.1-.1-.2c-.1-.1-.1-.2-.2-.3-.1-.1-.2-.3-.3-.4-.1-.1-.1-.2-.2-.3l-.2-.2c0-.1-.1-.1-.1-.2s-.1-.1-.1-.2-.1-.1-.1-.2-.1-.1-.1-.2-.1-.1-.1-.1c-.1 0-.1-.1-.2-.1s-.1-.1-.2-.1-.1-.1-.2-.1-.1-.1-.2-.1-.1-.1-.2-.1l-.1-.1-.1-.1-24.8-14s-.1 0-.1-.1l-.1-.1s-.1 0-.1-.1c0 0-.1 0-.1-.1 0 0-.1 0-.1-.1H427.8c-.1 0-.2 0-.2.1-.1 0-.2.1-.3.1l-3.9 2.3c.1-.1.2-.1.3-.1.1 0 .2-.1.2-.1H425.2s.1 0 .1.1c0 0 .1 0 .1.1 0 0 .1 0 .1.1 0 0 .1 0 .1.1 0 0 .1 0 .1.1l24.8 14c.1 0 .1.1.1.1.1 0 .1.1.1.1.1 0 .1.1.2.1s.1.1.2.1.1.1.2.1.1.1.2.1.1.1.2.1.1.1.1.1.1.1.1.2.1.1.1.2.1.1.1.2.1.1.1.2l.2.2c.1.1.2.2.2.3.1.1.2.3.3.4.1.1.1.2.2.3 0 .1.1.1.1.2s.1.1.1.2.1.1.1.2 0 .1.1.2c0 .1 0 .1.1.2 0 .1 0 .1.1.2 0 .1 0 .1.1.2 0 .1 0 .1.1.2 0 .1 0 .1.1.2V220.4c0 .1 0 .1-.1.2 0 .1-.1.1-.1.2s-.1.2-.1.2c-.2.3-.4.5-.6.6l3.9-2.3c.2-.1.4-.3.6-.6 0-.1.1-.2.1-.2 0-.1.1-.1.1-.2s0-.1.1-.2v-27.5z"/><path class="st3" d="M450.5 186.9c2 1.1 3.5 3.9 3.5 6.1v26.1c0 2.2-1.6 3.1-3.5 2l-24.8-14c-2-1.1-3.5-3.9-3.5-6.1v-26.1c0-2.2 1.6-3.2 3.5-2l24.8 14z"/><text transform="matrix(1 .5633 0 1 426.487 198.252)" class="st5 st10" style="font-size:19.3406px">&lt;/&gt;</text><path class="st12" d="M449 214.1c.6-.7 1.1-2.9 1.3-3.4.2-.6.6-2.2.9-2.4.4-.3.9-.8 1.1-.7.2.2.1 1.3.1 1.3s2.1-.5 2.9-1.3c.8-.8 1.9-2.6 2.2-2.2.3.3.7 1.9.7 2.5 0 .6-.2 2.6-.6 3.2-.4.6-2.6 2.3-3.4 2.9-.8.6-2.7 2.7-2.7 2.7l-2.5-2.6z"/><path class="st1" d="M424.6 319.4v3.3c0 .8.2 1.8.5 1.9 1.5.7 2.6.4 2.9.3.3-.1 3.1-.9 4.3-2.4 1.2-1.6.2-2.2-1.2-2.2-1.3 0-3.3-1.7-3.3-1.7l-3.2.8zM414.9 313.5v4c0 .8.2 1.8.5 1.9 1.3.6 2.6.4 2.9.3.3-.1 1.8-1.8 3-3.4 1.2-1.6.4-2.4-1-2.4-1.3 0-2.2-.5-2.2-.5l-3.2.1z"/><path class="st12" d="M426.2 215.7c.4.1 1.1 3 1.4 4.5.3 1.4.5 3.4.6 3.9.2.5-.2 1.5-.2 1.9 0 .4.3 2.2-.8 2.7-1.2.5-2.3.2-2.3.5-.1.3-.7 4.1-.7 4.1l-5.7-.9s0-1.9-.2-3.1c-.3-1.3-1.3-5.3-1.3-5.3l9.2-8.3z"/><path d="M415.5 217s.5-2.1 3.3-3.1c2.7-1 8-.3 8.8 0 .8.4.6 3.2-.7 4.7-1.2 1.4-1.5 3.3-1.4 4.1l.1.8h-.8s-.3-1.2-.8-1.8c-.8-.8-2.2-.2-2 .7.2.9.6 1.2 1.1 1.5.4.3.9.4.9.4s-1.5 2.2-1.7 2.6c-.2.5-.5 2.2-.5 2.2l-3.3.5s-1.4-3.2-2.6-4.6c-1.2-1.4-2-3.8-1.9-5.5 0-1.3 1.5-2.5 1.5-2.5z" style="fill:#732a24"/><path class="st8" d="M420.5 264.7c-3.1 3.1-3.5 9-.8 15 1.8 4.1 2.7 5.5 3 13.9.3 8.4 1.8 17.4 1.7 26.3 0 1 3.2 1.4 5.2-.1 0 0 .9-20.1 1.4-25.4.5-5.3 1.4-12.1 1.4-17.7 0-6.6-1.7-13-1.7-13l-10.2 1z"/><path class="st8" d="M413.8 262.3c-3.1 3.1-1.9 9.1-1.2 15.3.7 6.2 1.1 14 1.4 18.7.2 4 .4 9.4.9 17.3.1 1 2.9 2.3 4.9.8 0 0 1.2-17.2 1.8-22.4.5-5.3 2.2-15.5 3.3-20.5 1.1-5 1.6-6.8 1.6-6.8l-12.7-2.4z"/><path class="st13" d="M416.3 228.9c-1.4-.2-2.3 1.1-3.9 2.5s-1.4 7.3-.6 11.2c.8 3.9.9 6.5.5 11s-1.2 10.8-1 15.5c0 0 1.5 2.9 7.8 3.8 6.8.9 13.4-1.9 13.4-1.9s-1.1-12.3-1.4-15.5c-.5-4.7 1.1-11.1 1.7-14.1.9-4.4-2.7-10.8-2.7-10.8s-3.4 1-7.5.1c-3.9-.8-6.3-1.8-6.3-1.8z"/><path class="st13" d="M430.2 230.7c-2.7 2.9-2.2 12.4.8 13.8.6.3 2-3.7 2.5-4.4 2.9-4.3 8.3-8.1 10-10.1 2.2-2.5 9.2-13.7 9.2-13.7s-2.3-2.2-3.7-2.2c0 0-7.8 9.2-9.6 11.2-1.8 1.9-9.2 5.4-9.2 5.4z"/><path class="st12" d="M421.5 203.2c.3 0 .8-.2 1.3-.3 1.1-.2 1.2.2 2.4-.9.7-.6 1.2-.5.9.5-.1.4-.7 1-1 1.4-.5.6-.9 1.6-1.3 2-.8.6-2.3-2.7-2.3-2.7z"/></g><g><g class="st2"><g class="st2"><path class="st4" d="m181 154.7-10.1-5.8h.1l10 5.8c.1 0 .1 0 0 0"/><path class="st4" d="m181.1 154.7-10.1-5.8c.4-.2.9-.3 1.3-.4l10.1 5.8c-.4 0-.8.2-1.3.4M182.4 154.2l-10.1-5.8c.3-.1.7-.2 1-.2l10.1 5.8c-.3.1-.6.1-1 .2"/><path class="st4" d="m183.4 154-10.1-5.8c.3 0 .6-.1.8-.1l10.1 5.8c-.2 0-.5.1-.8.1M184.3 153.9l-10.1-5.8h.7l10.1 5.8h-.7"/><path class="st4" d="m185 153.9-10.1-5.8c.2 0 .5 0 .7.1l10.1 5.8c-.2 0-.5 0-.7-.1"/><path class="st4" d="m185.7 154-10.1-5.8c.2 0 .4.1.6.1l10.1 5.8c-.2 0-.4 0-.6-.1"/><path class="st4" d="m186.3 154.2-10.1-5.8c.2.1.4.1.6.2l10.1 5.8c-.2-.1-.4-.2-.6-.2"/><path class="st4" d="m186.9 154.4-10.1-5.8.6.3 10.1 5.8c-.2-.2-.4-.2-.6-.3"/><path class="st4" d="m187.5 154.7-10.1-5.8h.1l10 5.8"/></g><g class="st2"><path class="st4" d="m167.9 145.6-10.1-5.8c.5-.2 1.1-.4 1.6-.5l10.1 5.8c-.6.1-1.1.3-1.6.5"/><path class="st4" d="m169.5 145.1-10.1-5.8c.5-.1.9-.2 1.4-.3l10.1 5.8c-.5.1-1 .2-1.4.3"/><path class="st4" d="m170.8 144.8-10.1-5.8c.4-.1.8-.1 1.2-.1l10.1 5.8c-.4 0-.8 0-1.2.1M172 144.7l-10.1-5.8h1l10.1 5.8h-1M173.1 144.7l-10.1-5.8c.3 0 .6.1.9.1l10.1 5.8c-.3-.1-.6-.1-.9-.1"/><path class="st4" d="m174 144.8-10.1-5.8c.3.1.6.1.9.2l10.1 5.8c-.3-.1-.6-.2-.9-.2"/><path class="st4" d="m174.9 145-10.1-5.8c.3.1.6.2.8.3l10.1 5.8c-.3-.1-.6-.2-.8-.3"/><path class="st4" d="m175.7 145.3-10.1-5.8c.3.1.5.2.8.4l10.1 5.8c-.3-.2-.6-.3-.8-.4"/><path class="st4" d="m176.5 145.7-10.1-5.8h.1l10 5.8"/></g><g class="st2"><path class="st4" d="m146.1 136.4-10.1-5.8c1.1-.6 2.1-1.1 3.1-1.5l10.1 5.8c-1 .4-2.1.9-3.1 1.5"/><path class="st4" d="m149.2 134.9-10.1-5.8c.9-.4 1.7-.6 2.5-.9l10.1 5.8c-.8.2-1.6.5-2.5.9"/><path class="st4" d="m151.7 134-10.1-5.8c.7-.2 1.3-.3 1.9-.4l10.1 5.8c-.5.1-1.2.2-1.9.4M153.7 133.6l-10.1-5.8c.6-.1 1.1-.1 1.6-.2l10.1 5.8c-.5 0-1.1.1-1.6.2M155.3 133.4l-10.1-5.8h1.4l10.1 5.8h-1.4M156.8 133.4l-10.1-5.8c.4 0 .9.1 1.3.2l10.1 5.8c-.4-.1-.9-.1-1.3-.2M158.1 133.6l-10.1-5.8 1.2.3 10.1 5.8-1.2-.3M159.3 133.9l-10.1-5.8c.4.1.8.3 1.2.4l10.1 5.8c-.4-.2-.8-.3-1.2-.4"/><path class="st4" d="m160.5 134.3-10.1-5.8c.4.2.7.3 1.1.5l10.1 5.8c-.4-.2-.7-.4-1.1-.5"/><path class="st4" d="m161.6 134.8-10.1-5.8s.1 0 .1.1l10.1 5.8-.1-.1"/></g><g class="st2"><path class="st4" d="m125.4 165.5-10.1-5.8c.1-.3.2-.7.3-1l10.1 5.8c-.1.3-.2.6-.3 1M125.6 164.4l-10.1-5.8c.2-.7.4-1.5.7-2.2l10.1 5.8c-.2.7-.4 1.5-.7 2.2M126.3 162.2l-10.1-5.8c.2-.7.5-1.4.7-2.1l10.1 5.8c-.2.7-.4 1.4-.7 2.1M127.1 160.1l-10.1-5.8c.3-.7.5-1.3.8-2l10.1 5.8c-.3.7-.6 1.4-.8 2"/><path class="st4" d="m127.9 158.2-10.1-5.8c.3-.6.6-1.3.9-1.9l10.1 5.8c-.4.6-.6 1.2-.9 1.9"/><path class="st4" d="m128.8 156.3-10.1-5.8c.3-.6.6-1.2.9-1.9l10.1 5.8c-.3.6-.6 1.2-.9 1.9"/><path class="st4" d="m129.7 154.4-10.1-5.8c.3-.6.7-1.2 1-1.9l10.1 5.8c-.3.7-.7 1.3-1 1.9"/><path class="st4" d="m130.7 152.5-10.1-5.8c.4-.6.7-1.2 1.1-1.9l10.1 5.8c-.3.7-.7 1.3-1.1 1.9"/><path class="st4" d="m131.9 150.7-10.1-5.8c.4-.6.8-1.3 1.3-1.9l10.1 5.8c-.5.6-.9 1.2-1.3 1.9"/><path class="st4" d="M133.1 148.8 123 143c.5-.7 1-1.3 1.5-2l10.1 5.8c-.5.7-1 1.3-1.5 2"/><path class="st4" d="m134.6 146.8-10.1-5.8c.6-.7 1.2-1.5 1.8-2.1l10.1 5.8-1.8 2.1M136.4 144.7l-10.1-5.8c.8-.9 1.6-1.7 2.4-2.6l10.1 5.8c-.9.8-1.7 1.7-2.4 2.6"/><path class="st4" d="m138.8 142.1-10.1-5.8c2.3-2.3 4.8-4.2 7.3-5.7l10.1 5.8c-2.6 1.5-5.1 3.4-7.3 5.7"/></g><path class="st1" d="m97.7 202.7-10.1-5.8 1.5-.9 10.1 5.8z"/><g class="st2"><path class="st1" d="m89.8 229.3-10.1-5.8c-2-1.2-3.3-3.7-3.3-7.2 0-.7 0-1.5.1-2.2l10.1 5.8c-.1.7-.1 1.5-.1 2.2 0 3.5 1.3 6 3.3 7.2M86.6 219.9l-10-5.9c.1-.5.2-1 .3-1.6l10.1 5.8c-.2.7-.3 1.2-.4 1.7"/><path class="st1" d="m86.9 218.3-10.1-5.8c.1-.4.2-.9.3-1.3l10.1 5.8c-.1.5-.2.9-.3 1.3"/><path class="st1" d="m87.2 217.1-10.1-5.8c.1-.4.2-.8.3-1.1l10.1 5.8c-.1.3-.2.7-.3 1.1M87.6 215.9l-10.1-5.8c.1-.4.2-.7.4-1.1l10.1 5.8c-.2.4-.3.8-.4 1.1"/><path class="st1" d="m87.9 214.8-10-5.8c.1-.3.3-.7.4-1l10.1 5.8c-.2.4-.3.7-.5 1"/><path class="st1" d="M88.4 213.8 78.3 208c.1-.3.3-.7.4-1l10.1 5.8c-.2.4-.3.7-.4 1"/><path class="st1" d="M88.8 212.9 78.7 207c.2-.3.3-.6.5-1l10.1 5.8c-.2.4-.3.7-.5 1.1"/><path class="st1" d="m89.3 211.9-10.1-5.8c.2-.3.3-.6.5-.9l10.1 5.8c-.2.3-.3.6-.5.9"/><path class="st1" d="m89.8 211-10.1-5.8.6-.9 10.1 5.8c-.2.2-.4.5-.6.9M90.4 210l-10.1-5.8c.2-.3.4-.7.6-1L91 209c-.2.4-.4.7-.6 1"/><path class="st1" d="m91 209.1-10-5.9c.2-.3.5-.7.7-1l10.1 5.8c-.3.4-.5.7-.8 1.1"/><path class="st1" d="m91.8 208-10.1-5.8c.3-.4.6-.8.9-1.1l10.1 5.8c-.3.4-.6.8-.9 1.1"/><path class="st1" d="m92.7 206.9-10.1-5.8c.4-.5.8-.9 1.2-1.3l10.1 5.8c-.4.4-.8.9-1.2 1.3"/><path class="st1" d="m93.9 205.6-10.1-5.8c1.2-1.2 2.4-2.1 3.7-2.9l10.1 5.8c-1.2.8-2.5 1.8-3.7 2.9"/></g><g class="st2"><path class="st1" d="M99.2 201.8 89.1 196c-.1-.7-.1-1.4-.1-2.1 0-1.2.1-2.4.2-3.6l10.1 5.8c-.2 1.2-.2 2.4-.2 3.6 0 .8 0 1.5.1 2.1M99.3 196.1l-10.1-5.8c.1-.8.3-1.7.4-2.5l10.1 5.8c-.1.8-.2 1.7-.4 2.5M99.8 193.6l-10.1-5.8c.1-.7.3-1.4.5-2.1l10.1 5.8c-.2.7-.4 1.4-.5 2.1"/><path class="st1" d="m100.3 191.5-10.1-5.8c.2-.6.4-1.2.6-1.9l10.1 5.8c-.2.6-.4 1.2-.6 1.9M100.9 189.6l-10.1-5.8c.2-.6.4-1.2.6-1.7l10.1 5.8c-.2.5-.4 1.1-.6 1.7M101.5 187.9 91.4 182c.2-.6.4-1.1.7-1.6l10.1 5.8c-.3.6-.5 1.1-.7 1.7M102.2 186.2l-10.1-5.8c.2-.5.5-1.1.7-1.6l10.1 5.8c-.3.5-.5 1.1-.7 1.6"/><path class="st1" d="m102.9 184.6-10.1-5.8c.3-.5.5-1 .8-1.6l10.1 5.8c-.3.6-.5 1.1-.8 1.6"/><path class="st1" d="m103.7 183.1-10.1-5.8.9-1.5 10.1 5.8c-.3.4-.6.9-.9 1.5M104.6 181.5l-10.1-5.8c.3-.5.6-1 .9-1.6l10.1 5.8c-.3.6-.6 1.1-.9 1.6"/><path class="st1" d="m105.5 180-10.1-5.8c.3-.5.7-1.1 1.1-1.6l10.1 5.8c-.4.5-.8 1-1.1 1.6"/><path class="st1" d="m106.6 178.4-10.1-5.8c.4-.6.8-1.1 1.2-1.7l10.1 5.8c-.4.5-.8 1.1-1.2 1.7M107.8 176.7l-10.1-5.8 1.5-1.8 10.1 5.8-1.5 1.8"/><path class="st1" d="M109.3 174.9 99.2 169c.6-.7 1.3-1.5 2-2.1l10.1 5.8c-.7.7-1.4 1.4-2 2.2M111.3 172.7l-10.1-5.8c1.9-1.9 4-3.5 6.1-4.8.9-.5 1.8-.9 2.6-1.3l10.1 5.8c-.9.4-1.7.8-2.6 1.3-2.1 1.3-4.2 3-6.1 4.8"/><path class="st1" d="m120 166.7-10.1-5.8c.7-.3 1.4-.5 2.1-.7l10.1 5.8c-.6.1-1.3.4-2.1.7M122.2 166l-10.1-5.8c.5-.1 1.1-.3 1.6-.3l10.1 5.8c-.5 0-1.1.1-1.6.3M123.8 165.6l-10.1-5.8c.5-.1.9-.1 1.4-.1l10.1 5.8c-.5 0-.9 0-1.4.1"/><path class="st1" d="m125.1 165.5-10.1-5.8h.2l10.1 5.8h-.2"/></g><path class="st6" d="M146.1 136.4c11.1-6.4 20.3-2.2 21.8 9.2 5.3-2.1 10-.7 12.1 4.2.6 1.5 1 3.1 1.1 4.9 5.5-2.3 9.7.6 9.8 7.1 0 7.1-5 15.8-11.2 19.4l-81.9 47.3c-6.2 3.6-11.2.7-11.3-6.4 0-7.1 5-15.8 11.2-19.4l1.5-.9c-.1-.7-.1-1.4-.1-2.1 0-11.7 8.2-25.9 18.3-31.7 2.8-1.6 5.5-2.5 7.9-2.5 3-11.7 11.2-23.5 20.8-29.1z"/></g><path class="st5" d="m147.7 152.9 13.2 12.9c.3.3.2.8-.1 1l-6.1 3.5c-.2.1-.3.3-.3.5v17.5l-14.5 8.4v-16.8c0-.5-.5-.8-.9-.5l-4.5 2.6c-.5.3-1.1-.2-.9-.8l13.1-28.1c.2-.4.7-.5 1-.2z"/></g></svg>