<?xml version="1.0" encoding="utf-8"?>
<!-- Generator: Adobe Illustrator 19.0.0, SVG Export Plug-In . SVG Version: 6.00 Build 0)  -->
<svg version="1.1" id="Ñëîé_1" xmlns="http://www.w3.org/2000/svg" xmlns:xlink="http://www.w3.org/1999/xlink" x="0px" y="0px"
	 viewBox="0 0 600 350" style="enable-background:new 0 0 600 350;" xml:space="preserve">
<style type="text/css">
	.st0{fill:#42E8E0;}
	.st1{fill:url(#SVGID_1_);}
	.st2{fill:#24126A;}
	.st3{fill:#FFFFFF;}
	.st4{opacity:0.51;fill:#453C9E;}
	.st5{opacity:0.8;fill:url(#SVGID_2_);}
	.st6{opacity:0.3;}
	.st7{clip-path:url(#SVGID_5_);fill:#42E8E0;}
	.st8{clip-path:url(#SVGID_5_);fill:#9FFFF8;}
	.st9{opacity:0.4;fill:#24126A;}
	.st10{fill:#9FFFF8;}
	.st11{opacity:0.4;fill:#42E8E0;}
	.st12{fill:url(#SVGID_6_);}
	.st13{opacity:0.3;fill:#0F054C;}
	.st14{fill:url(#SVGID_7_);}
	.st15{fill:#0F054C;}
	.st16{fill:url(#SVGID_8_);}
	.st17{fill:url(#SVGID_9_);}
	.st18{fill:url(#SVGID_10_);}
	.st19{fill:url(#SVGID_11_);}
	.st20{fill:url(#SVGID_12_);}
	.st21{fill:url(#SVGID_13_);}
	.st22{fill:#5351AF;}
	.st23{fill:url(#SVGID_14_);}
	.st24{fill:url(#SVGID_15_);}
	.st25{fill:url(#SVGID_16_);}
	.st26{fill:url(#SVGID_17_);}
	.st27{fill:url(#SVGID_18_);}
	.st28{opacity:0.8;fill:url(#SVGID_19_);}
	.st29{clip-path:url(#SVGID_22_);fill:#42E8E0;}
	.st30{clip-path:url(#SVGID_22_);fill:#9FFFF8;}
	.st31{fill:url(#SVGID_23_);}
	.st32{fill:url(#SVGID_24_);}
	.st33{fill:url(#SVGID_25_);}
	.st34{fill:url(#SVGID_26_);}
	.st35{fill:url(#SVGID_27_);}
	.st36{fill:url(#SVGID_28_);}
	.st37{fill:url(#SVGID_29_);}
	.st38{fill:url(#SVGID_30_);}
	.st39{fill:url(#SVGID_31_);}
	.st40{fill:url(#SVGID_32_);}
	.st41{fill:url(#SVGID_33_);}
	.st42{fill:url(#SVGID_34_);}
</style>
<g>
	<path class="st0" d="M233.3,271.9c-2.6,0-5.2-0.5-7-1.6l-92.1-53.2c-1.8-1.1-2.9-2.5-2.9-4.2c0-2,1.5-3.9,4-5.4L311,106.2
		c4.8-2.8,12-3.1,16.2-0.7l92.1,53.2c1.8,1.1,2.9,2.5,2.9,4.2c0,2-1.5,3.9-4,5.4L242.5,269.6C239.8,271.1,236.5,271.9,233.3,271.9z
		 M226.5,269.9c4,2.3,11.1,2,15.8-0.7l175.6-101.4c2.4-1.4,3.8-3.2,3.8-5c0-1.5-0.9-2.8-2.7-3.8l-92.1-53.2c-4-2.3-11.1-2-15.8,0.7
		L135.6,207.9c-2.4,1.4-3.8,3.2-3.8,5c0,1.5,0.9,2.8,2.7,3.8L226.5,269.9z"/>
</g>
<g>
	<linearGradient id="SVGID_1_" gradientUnits="userSpaceOnUse" x1="131.5614" y1="173.6041" x2="421.8505" y2="173.6041">
		<stop  offset="0" style="stop-color:#BCBEFF"/>
		<stop  offset="0.151" style="stop-color:#A3A7F5"/>
		<stop  offset="0.3866" style="stop-color:#8289E8"/>
		<stop  offset="0.6124" style="stop-color:#6A73DF"/>
		<stop  offset="0.8221" style="stop-color:#5C66D9"/>
		<stop  offset="1" style="stop-color:#5761D7"/>
	</linearGradient>
	<path class="st1" d="M421.9,138.3l-13.2,2.3L327,93.5c-4.1-2.4-11.2-2.1-16,0.7l-156.1,90.1l-23.4,4l0,8.3l0,0c0,1.5,0.9,3,2.8,4
		l92.1,53.2c4.1,2.4,11.2,2.1,16-0.7l175.6-101.4c2.5-1.5,3.9-3.3,3.9-5.1l0,0V138.3z"/>
	<path class="st2" d="M226.4,245.4l-92.1-53.2c-4.1-2.4-3.6-6.5,1.1-9.2L311.1,81.7c4.7-2.7,11.9-3,16-0.7l92.1,53.2
		c4.1,2.4,3.6,6.5-1.1,9.2L242.4,244.7C237.6,247.5,230.5,247.8,226.4,245.4z"/>
	<path class="st3" d="M417.9,143.4L242.4,244.7c-4.7,2.7-11.9,3-16,0.7l-92.1-53.2c-1.6-0.9-2.5-2.2-2.7-3.5
		c-0.3,1.7,0.6,3.4,2.7,4.6l92.1,53.2c4.1,2.4,11.2,2.1,16-0.7l175.6-101.4c2.8-1.6,4.1-3.8,3.9-5.7
		C421.6,140.4,420.3,142,417.9,143.4z"/>
	<path class="st4" d="M226.6,243.3l-88.8-51.3c-4-2.3-3.5-6.3,1.1-8.9l172.3-99.5c4.6-2.6,11.5-2.9,15.5-0.6l88.8,51.3
		c4,2.3,3.5,6.3-1.1,8.9L242,242.7C237.4,245.3,230.5,245.6,226.6,243.3z"/>
</g>
<g>
	<linearGradient id="SVGID_2_" gradientUnits="userSpaceOnUse" x1="317.1389" y1="214.6726" x2="236.1067" y2="107.1391">
		<stop  offset="0" style="stop-color:#42E8E0"/>
		<stop  offset="0.1055" style="stop-color:#37B6BF"/>
		<stop  offset="0.2197" style="stop-color:#2C87A1"/>
		<stop  offset="0.338" style="stop-color:#235F87"/>
		<stop  offset="0.4587" style="stop-color:#1C3F72"/>
		<stop  offset="0.5824" style="stop-color:#162561"/>
		<stop  offset="0.7105" style="stop-color:#121355"/>
		<stop  offset="0.8458" style="stop-color:#10084E"/>
		<stop  offset="1" style="stop-color:#0F054C"/>
	</linearGradient>
	<path class="st5" d="M233.3,242.9c-2.6,0-5-0.5-6.9-1.6L137.6,190c-1.8-1-2.8-2.5-2.8-4.1c0-1.9,1.4-3.9,3.9-5.3l172.3-99.5
		c4.6-2.7,11.7-3,15.7-0.6l88.8,51.3c1.8,1,2.8,2.5,2.8,4.1c0,1.9-1.4,3.9-3.9,5.3l-172.3,99.5C239.6,242.1,236.4,242.9,233.3,242.9
		z M226.7,240.8c3.9,2.2,10.7,2,15.2-0.6l172.3-99.5c2.3-1.3,3.6-3.1,3.6-4.8c0-1.4-0.9-2.7-2.5-3.6L326.5,81
		c-3.9-2.2-10.7-2-15.2,0.6L139,181.1c-2.3,1.3-3.6,3.1-3.6,4.8c0,1.4,0.9,2.7,2.5,3.6L226.7,240.8z"/>
</g>
<g class="st6">
	<defs>
		<path id="SVGID_3_" class="st6" d="M226.6,241.1l-88.8-51.3c-4-2.3-3.5-6.3,1.1-8.9l172.3-99.5c4.6-2.6,11.5-2.9,15.5-0.6
			l88.8,51.3c4,2.3,3.5,6.3-1.1,8.9L242,240.4C237.4,243.1,230.5,243.3,226.6,241.1z"/>
	</defs>
	<radialGradient id="SVGID_4_" cx="234.1683" cy="177.6516" r="227.2109" gradientUnits="userSpaceOnUse">
		<stop  offset="0" style="stop-color:#42E8E0"/>
		<stop  offset="0.1055" style="stop-color:#37B6BF"/>
		<stop  offset="0.2197" style="stop-color:#2C87A1"/>
		<stop  offset="0.338" style="stop-color:#235F87"/>
		<stop  offset="0.4587" style="stop-color:#1C3F72"/>
		<stop  offset="0.5824" style="stop-color:#162561"/>
		<stop  offset="0.7105" style="stop-color:#121355"/>
		<stop  offset="0.8458" style="stop-color:#10084E"/>
		<stop  offset="1" style="stop-color:#0F054C"/>
	</radialGradient>
	<use xlink:href="#SVGID_3_"  style="overflow:visible;opacity:0.5;fill:url(#SVGID_4_);"/>
	<clipPath id="SVGID_5_">
		<use xlink:href="#SVGID_3_"  style="overflow:visible;opacity:0.5;"/>
	</clipPath>
	<path class="st7" d="M172.3,185.7v64.9l0,0c0,1.4,0.9,2.7,2.6,3.8l53.9,31.1c3.9,2.2,10.7,2,15.1-0.6l0,0c2.5-1.5,3.8-3.3,3.7-5.1
		l0,0v-64.9L172.3,185.7z"/>
	<path class="st8" d="M228.8,220.6l-53.9-31.1c-3.9-2.2-3.4-6.2,1.1-8.7l0,0c4.5-2.6,11.3-2.9,15.1-0.6l53.9,31.1
		c3.9,2.2,3.4,6.2-1.1,8.7v0C239.5,222.6,232.7,222.9,228.8,220.6z"/>
</g>
<path class="st9" d="M228.8,220.6l-53.9-31.1c-3.9-2.2-3.4-6.2,1.1-8.7l0,0c4.5-2.6,11.3-2.9,15.1-0.6l53.9,31.1
	c3.9,2.2,3.4,6.2-1.1,8.7v0C239.5,222.6,232.7,222.9,228.8,220.6z"/>
<g>
	<path class="st0" d="M172.3,109v64.9l0,0c0,1.4,0.9,2.7,2.6,3.8l53.9,31.1c3.9,2.2,10.7,2,15.1-0.6l0,0c2.5-1.5,3.8-3.3,3.7-5.1
		l0,0v-64.9L172.3,109z"/>
	<path class="st10" d="M228.8,143.9l-53.9-31.1c-3.9-2.2-3.4-6.2,1.1-8.7l0,0c4.5-2.6,11.3-2.9,15.1-0.6l53.9,31.1
		c3.9,2.2,3.4,6.2-1.1,8.7l0,0C239.5,145.8,232.7,146.1,228.8,143.9z"/>
	<g>
		<path class="st0" d="M234.2,139.7c-2.6,0-4.7-2.1-4.7-4.7v-28.8c0-9.8-7.2-22.3-15.7-27.2l-12.4-7.1c-3.3-1.9-6.2-2.3-8.1-1.3
			c-1.9,1.1-3,3.9-3,7.6v28.8c0,2.6-2.1,4.7-4.7,4.7c-2.6,0-4.7-2.1-4.7-4.7V78.2c0-7.3,2.7-12.9,7.6-15.7
			c4.9-2.8,11.1-2.4,17.4,1.3l12.4,7.1c11.4,6.6,20.4,22.1,20.4,35.3V135C238.9,137.6,236.8,139.7,234.2,139.7z"/>
	</g>
</g>
<g>
	<path class="st9" d="M316.2,176.5L254.7,141c-4.2-2.4-3.7-6.6,1.2-9.4l0,0c4.8-2.8,12.1-3.1,16.3-0.7l61.5,35.5
		c4.2,2.4,3.7,6.6-1.2,9.4h0C327.7,178.6,320.4,178.9,316.2,176.5z"/>
	<path class="st11" d="M316.2,172.1l-61.5-35.5c-4.2-2.4-3.7-6.6,1.2-9.4l0,0c4.8-2.8,12.1-3.1,16.3-0.7l61.5,35.5
		c4.2,2.4,3.7,6.6-1.2,9.4h0C327.7,174.2,320.4,174.5,316.2,172.1z"/>
	<path class="st0" d="M323.3,173.9c-2.7,0-5.3-0.5-7.2-1.7l-61.5-35.5c-1.9-1.1-2.9-2.6-2.9-4.3c0-2,1.5-4,4.1-5.5
		c4.9-2.8,12.3-3.1,16.5-0.7l61.5,35.5c1.9,1.1,2.9,2.6,2.9,4.3c0,2-1.5,4-4.1,5.5C330,173.1,326.6,173.9,323.3,173.9z M316.3,171.9
		c4.1,2.4,11.4,2.1,16.1-0.7c2.5-1.4,3.9-3.3,3.9-5.2c0-1.5-1-2.9-2.7-3.9l-61.5-35.5c-4.1-2.4-11.4-2.1-16.1,0.7
		c-2.5,1.4-3.9,3.3-3.9,5.2c0,1.5,1,2.9,2.7,3.9L316.3,171.9z"/>
	<g>
		<path class="st11" d="M327.4,168.7c-1.4,0.8-3.8,0.8-5.2,0c-1.4-0.8-1.4-2.2,0-3c1.4-0.8,3.8-0.8,5.2,0
			C328.8,166.5,328.8,167.9,327.4,168.7z"/>
		<path class="st0" d="M324.8,169.5c-1,0-1.9-0.2-2.7-0.6c-0.7-0.4-1.1-1-1.1-1.6c0-0.6,0.4-1.2,1.1-1.6c1.5-0.8,3.9-0.8,5.3,0
			c0.7,0.4,1.1,1,1.1,1.6c0,0.6-0.4,1.2-1.1,1.6C326.7,169.3,325.8,169.5,324.8,169.5z M324.8,165.2c-0.9,0-1.8,0.2-2.5,0.6
			c-0.6,0.4-1,0.9-1,1.4c0,0.5,0.4,1,1,1.4c1.4,0.8,3.7,0.8,5.1,0c0.6-0.4,1-0.9,1-1.4c0-0.5-0.4-1-1-1.4
			C326.6,165.4,325.7,165.2,324.8,165.2z"/>
		<path class="st11" d="M318.8,163.7c-1.4,0.8-3.8,0.8-5.2,0c-1.4-0.8-1.4-2.2,0-3c1.4-0.8,3.8-0.8,5.2,0
			C320.2,161.5,320.2,162.9,318.8,163.7z"/>
		<path class="st0" d="M316.2,162.8c-1,0-1.9-0.2-2.7-0.6c-0.7-0.4-1.1-1-1.1-1.6c0-0.6,0.4-1.2,1.1-1.6c1.5-0.8,3.9-0.8,5.3,0
			c0.7,0.4,1.1,1,1.1,1.6c0,0.6-0.4,1.2-1.1,1.6l0,0C318.1,162.6,317.1,162.8,316.2,162.8z M316.2,158.6c-0.9,0-1.8,0.2-2.5,0.6
			c-0.6,0.4-1,0.9-1,1.4c0,0.5,0.4,1,1,1.4c1.4,0.8,3.7,0.8,5.1,0l0,0c0.6-0.4,1-0.9,1-1.4c0-0.5-0.4-1-1-1.4
			C318,158.8,317.1,158.6,316.2,158.6z"/>
		<path class="st0" d="M293.7,144.6c-1,0-1.9-0.2-2.7-0.6c-0.7-0.4-1.1-1-1.1-1.6c0-0.6,0.4-1.2,1.1-1.6c1.5-0.8,3.9-0.8,5.3,0
			c0.7,0.4,1.1,1,1.1,1.6c0,0.6-0.4,1.2-1.1,1.6l0,0C295.6,144.4,294.7,144.6,293.7,144.6z M293.7,140.4c-0.9,0-1.8,0.2-2.5,0.6
			c-0.6,0.4-1,0.9-1,1.4s0.4,1,1,1.4c1.4,0.8,3.7,0.8,5.1,0l0,0c0.6-0.4,1-0.9,1-1.4s-0.4-1-1-1.4
			C295.5,140.6,294.6,140.4,293.7,140.4z"/>
		<path class="st11" d="M296.3,151.1c-1.4,0.8-3.8,0.8-5.2,0c-1.4-0.8-1.4-2.2,0-3c1.4-0.8,3.8-0.8,5.2,0
			C297.7,149,297.7,150.3,296.3,151.1z"/>
		<path class="st0" d="M285,135.3c-1,0-1.9-0.2-2.7-0.6c-0.7-0.4-1.1-1-1.1-1.6c0-0.6,0.4-1.2,1.1-1.6c1.5-0.8,3.9-0.8,5.3,0
			c0.7,0.4,1.1,1,1.1,1.6c0,0.6-0.4,1.2-1.1,1.6C287,135.1,286,135.3,285,135.3z M285,131.1c-0.9,0-1.8,0.2-2.5,0.6
			c-0.6,0.4-1,0.9-1,1.4c0,0.5,0.4,1,1,1.4c1.4,0.8,3.7,0.8,5.1,0l0,0c0.6-0.4,1-0.9,1-1.4c0-0.5-0.4-1-1-1.4
			C286.9,131.3,286,131.1,285,131.1z"/>
		<path class="st11" d="M287.6,146.5c-1.4,0.8-3.8,0.8-5.2,0c-1.4-0.8-1.4-2.2,0-3c1.4-0.8,3.8-0.8,5.2,0
			C289.1,144.3,289.1,145.7,287.6,146.5z"/>
		<path class="st0" d="M276.4,124c-1,0-1.9-0.2-2.7-0.6c-0.7-0.4-1.1-1-1.1-1.6c0-0.6,0.4-1.2,1.1-1.6c1.5-0.8,3.9-0.8,5.3,0
			c0.7,0.4,1.1,1,1.1,1.6c0,0.6-0.4,1.2-1.1,1.6l0,0C278.3,123.8,277.4,124,276.4,124z M276.4,119.8c-0.9,0-1.8,0.2-2.5,0.6
			c-0.6,0.4-1,0.9-1,1.4c0,0.5,0.4,1,1,1.4c1.4,0.8,3.7,0.8,5.1,0l0,0c0.6-0.4,1-0.9,1-1.4c0-0.5-0.4-1-1-1.4
			C278.2,120,277.3,119.8,276.4,119.8z"/>
		<path class="st11" d="M278.9,141.7c-1.4,0.8-3.8,0.8-5.2,0c-1.4-0.8-1.4-2.2,0-3c1.4-0.8,3.8-0.8,5.2,0
			C280.3,139.6,280.3,140.9,278.9,141.7z"/>
		<path class="st11" d="M303.6,152.2l7.5,4.3c1.2,0.7,1.1,2-0.3,2.8l0,0c-1.4,0.8-3.6,0.9-4.8,0.2l-7.5-4.3c-1.2-0.7-1.1-2,0.3-2.8
			l0,0C300.2,151.6,302.4,151.5,303.6,152.2z"/>
		<path class="st0" d="M308.1,156.7c-0.8,0-1.6-0.2-2.2-0.5l-7.5-4.3c-0.6-0.3-0.9-0.8-0.9-1.3c0-0.6,0.5-1.2,1.3-1.7
			c1.5-0.8,3.7-0.9,5-0.2l7.5,4.3c0.6,0.3,0.9,0.8,0.9,1.3c0,0.6-0.5,1.2-1.3,1.7C310.1,156.5,309,156.7,308.1,156.7z M301.5,148.4
			c-0.9,0-1.9,0.2-2.7,0.7c-0.7,0.4-1.1,0.9-1.1,1.5c0,0.4,0.3,0.8,0.8,1.1l7.5,4.3c1.2,0.7,3.3,0.6,4.7-0.2
			c0.7-0.4,1.1-0.9,1.1-1.5c0-0.4-0.3-0.8-0.8-1.1l-7.5-4.3C303,148.5,302.3,148.4,301.5,148.4z"/>
	</g>
</g>
<path class="st9" d="M396.5,140.5c-1.4,0.8-3.6,0.8-4.9,0c-1.4-0.8-1.4-2.1,0-2.8c1.4-0.8,3.6-0.8,4.9,0
	C397.9,138.5,397.9,139.8,396.5,140.5z"/>
<path class="st9" d="M377.8,126.9l9.6,5.5c1.2,0.7,1,1.9-0.3,2.6l0,0c-1.4,0.8-3.4,0.9-4.6,0.2l-9.6-5.5c-1.2-0.7-1-1.9,0.3-2.6l0,0
	C374.5,126.3,376.6,126.2,377.8,126.9z"/>
<path class="st9" d="M323.8,95.1l9.6,5.5c1.2,0.7,1,1.9-0.3,2.6v0c-1.4,0.8-3.4,0.9-4.6,0.2l-9.6-5.5c-1.2-0.7-1-1.9,0.3-2.6l0,0
	C320.6,94.5,322.6,94.4,323.8,95.1z"/>
<path class="st0" d="M396.5,137.1c-1.4,0.8-3.6,0.8-4.9,0c-1.4-0.8-1.4-2.1,0-2.8c1.4-0.8,3.6-0.8,4.9,0
	C397.9,135,397.9,136.3,396.5,137.1z"/>
<path class="st0" d="M377.8,123.4l9.6,5.5c1.2,0.7,1,1.9-0.3,2.6l0,0c-1.4,0.8-3.4,0.9-4.6,0.2l-9.6-5.5c-1.2-0.7-1-1.9,0.3-2.6l0,0
	C374.5,122.9,376.6,122.8,377.8,123.4z"/>
<path class="st0" d="M323.8,91.6l9.6,5.5c1.2,0.7,1,1.9-0.3,2.6l0,0c-1.4,0.8-3.4,0.9-4.6,0.2l-9.6-5.5c-1.2-0.7-1-1.9,0.3-2.6h0
	C320.6,91,322.6,90.9,323.8,91.6z"/>
<g class="st6">
	<linearGradient id="SVGID_6_" gradientUnits="userSpaceOnUse" x1="404.0139" y1="244.79" x2="444.8236" y2="268.3515">
		<stop  offset="0" style="stop-color:#BCBEFF"/>
		<stop  offset="0.2271" style="stop-color:#AAADF8"/>
		<stop  offset="0.6802" style="stop-color:#7C83E5"/>
		<stop  offset="1" style="stop-color:#5761D7"/>
	</linearGradient>
	<path class="st12" d="M450.3,258.2v-4.5l-1.2-0.7c-0.3,2.1-2.8,3.5-4.9,3.8l-14.2,8.3l-6.2,2.2l-19.7-10.2l0.5-0.3
		c-1.7-0.8-2.6-2.6-3.5-4.2l-1.3,0.8l-0.8,0.2v4.6l0,0c0,0.9,0.6,1.8,1.7,2.4l19.8,11.4c2.3,1.3,6.1,1.3,8.4,0l19.8-11.4
		c1.1-0.7,1.7-1.5,1.7-2.4C450.3,258.3,450.3,258.2,450.3,258.2L450.3,258.2z"/>
	<path class="st13" d="M444.2,256.8l-14.2,8.3l-5.4,1.9v6.1c1.5,0,3-0.3,4.2-1l19.8-11.4c1.1-0.7,1.7-1.5,1.7-2.4c0,0,0-0.1,0-0.1
		l0,0v-4.5l-1.1-0.6h-0.1C448.7,255.1,446.2,256.5,444.2,256.8z"/>
	<g>
		<linearGradient id="SVGID_7_" gradientUnits="userSpaceOnUse" x1="398.8967" y1="253.6962" x2="450.3324" y2="253.6962">
			<stop  offset="0" style="stop-color:#E9E9FD"/>
			<stop  offset="0.3601" style="stop-color:#D3D2F9"/>
			<stop  offset="0.7062" style="stop-color:#C5C4F7"/>
			<stop  offset="1" style="stop-color:#C0BFF6"/>
		</linearGradient>
		<path class="st14" d="M420.4,267.5l-19.8-11.4c-2.3-1.3-2.3-3.5,0-4.9l19.8-11.4c2.3-1.3,6.1-1.3,8.4,0l19.8,11.4
			c2.3,1.3,2.3,3.5,0,4.8l-19.8,11.4C426.5,268.9,422.7,268.9,420.4,267.5z"/>
	</g>
	<g class="st6">
		<path class="st15" d="M420.4,267.5l-19.8-11.4c-2.3-1.3-2.3-3.5,0-4.9l19.8-11.4c2.3-1.3,6.1-1.3,8.4,0l19.8,11.4
			c2.3,1.3,2.3,3.5,0,4.8l-19.8,11.4C426.5,268.9,422.7,268.9,420.4,267.5z"/>
	</g>
</g>
<g>
	<g>
		<path class="st0" d="M424.6,253.1c-1.4,0-2.7-0.3-3.7-0.9l-19.8-11.4c-1-0.6-1.6-1.4-1.6-2.3s0.6-1.7,1.6-2.3l19.8-11.4
			c2.1-1.2,5.4-1.2,7.5,0l19.8,11.4c1,0.6,1.6,1.4,1.6,2.3c0,0.9-0.6,1.7-1.6,2.3l-19.8,11.4C427.3,252.8,426,253.1,424.6,253.1z
			 M424.6,224.3c-1.3,0-2.6,0.3-3.6,0.8l-19.8,11.4c-0.9,0.5-1.4,1.2-1.4,2s0.5,1.4,1.4,2l19.8,11.4c2,1.1,5.1,1.1,7.1,0l19.8-11.4
			c0.9-0.5,1.4-1.2,1.4-2c0-0.7-0.5-1.4-1.4-2l-19.8-11.4C427.2,224.6,425.9,224.3,424.6,224.3z"/>
		<g>
			<path class="st11" d="M450.3,234.2v-6.8l-1.2-0.7c-0.3,2.1-2.8,3.5-4.9,3.8l-14.2,8.3l-6.2,2.2l-19.7-10.2l0.5-0.3
				c-1.7-0.8-2.6-2.6-3.5-4.2l-1.3,0.8l-0.8,0.2v6.9l0,0c0,0.9,0.6,1.8,1.7,2.4l19.8,11.4c2.3,1.3,6.1,1.3,8.4,0l19.8-11.4
				c1.1-0.7,1.7-1.5,1.7-2.4C450.3,234.2,450.3,234.2,450.3,234.2L450.3,234.2z"/>
			<g>
				<g>
					<linearGradient id="SVGID_8_" gradientUnits="userSpaceOnUse" x1="404.0139" y1="214.7518" x2="444.8236" y2="238.3133">
						<stop  offset="0" style="stop-color:#BCBEFF"/>
						<stop  offset="0.2271" style="stop-color:#AAADF8"/>
						<stop  offset="0.6802" style="stop-color:#7C83E5"/>
						<stop  offset="1" style="stop-color:#5761D7"/>
					</linearGradient>
					<path class="st16" d="M450.3,228.1v-4.5l-1.2-0.7c-0.3,2.1-2.8,3.5-4.9,3.8l-14.2,8.3l-6.2,2.2l-19.7-10.2l0.5-0.3
						c-1.7-0.8-2.6-2.6-3.5-4.2l-1.3,0.8l-0.8,0.2v4.6l0,0c0,0.9,0.6,1.8,1.7,2.4l19.8,11.4c2.3,1.3,6.1,1.3,8.4,0l19.8-11.4
						c1.1-0.7,1.7-1.5,1.7-2.4C450.3,228.2,450.3,228.2,450.3,228.1L450.3,228.1z"/>
					<path class="st13" d="M444.2,226.8l-14.2,8.3l-5.4,1.9v6.1c1.5,0,3-0.3,4.2-1l19.8-11.4c1.1-0.7,1.7-1.5,1.7-2.4
						c0,0,0-0.1,0-0.1l0,0v-4.5l-1.1-0.6h-0.1C448.7,225.1,446.2,226.5,444.2,226.8z"/>
					<g>
						<linearGradient id="SVGID_9_" gradientUnits="userSpaceOnUse" x1="398.8967" y1="223.6579" x2="450.3324" y2="223.6579">
							<stop  offset="0" style="stop-color:#E9E9FD"/>
							<stop  offset="0.3601" style="stop-color:#D3D2F9"/>
							<stop  offset="0.7062" style="stop-color:#C5C4F7"/>
							<stop  offset="1" style="stop-color:#C0BFF6"/>
						</linearGradient>
						<path class="st17" d="M420.4,237.5l-19.8-11.4c-2.3-1.3-2.3-3.5,0-4.9l19.8-11.4c2.3-1.3,6.1-1.3,8.4,0l19.8,11.4
							c2.3,1.3,2.3,3.5,0,4.9l-19.8,11.4C426.5,238.8,422.7,238.8,420.4,237.5z"/>
					</g>
					<g>
						<path class="st3" d="M448.6,226.1l-19.8,11.4c-2.3,1.3-6.1,1.3-8.4,0l-19.8-11.4c-1-0.6-1.6-1.4-1.7-2.1c-0.1,1,0.4,2,1.7,2.7
							l19.8,11.4c2.3,1.3,6.1,1.3,8.4,0l19.8-11.4c1.3-0.7,1.9-1.7,1.7-2.7C450.2,224.7,449.6,225.5,448.6,226.1z"/>
					</g>
				</g>
			</g>
		</g>
	</g>
</g>
<g class="st6">
	<linearGradient id="SVGID_10_" gradientUnits="userSpaceOnUse" x1="315.945" y1="271.4421" x2="356.7547" y2="295.0036">
		<stop  offset="0" style="stop-color:#BCBEFF"/>
		<stop  offset="0.2271" style="stop-color:#AAADF8"/>
		<stop  offset="0.6802" style="stop-color:#7C83E5"/>
		<stop  offset="1" style="stop-color:#5761D7"/>
	</linearGradient>
	<path class="st18" d="M362.3,284.8v-4.5l-1.2-0.7c-0.4,2.1-2.8,3.5-4.9,3.8l-14.2,8.3l-6.2,2.2L316,283.8l0.5-0.3
		c-1.7-0.8-2.6-2.6-3.5-4.2l-1.3,0.8l-0.8,0.2v4.6l0,0c0,0.9,0.6,1.8,1.7,2.4l19.8,11.4c2.3,1.3,6.1,1.3,8.4,0l19.8-11.4
		c1.1-0.7,1.7-1.5,1.7-2.4C362.3,284.9,362.3,284.9,362.3,284.8L362.3,284.8z"/>
	<path class="st13" d="M356.1,283.5l-14.2,8.3l-5.4,1.9v6.1c1.5,0,3-0.3,4.2-1l19.8-11.4c1.1-0.7,1.7-1.5,1.7-2.4c0,0,0-0.1,0-0.1
		l0,0v-4.5l-1.1-0.6H361C360.6,281.8,358.2,283.2,356.1,283.5z"/>
	<g>
		<linearGradient id="SVGID_11_" gradientUnits="userSpaceOnUse" x1="310.8278" y1="280.3483" x2="362.2635" y2="280.3483">
			<stop  offset="0" style="stop-color:#E9E9FD"/>
			<stop  offset="0.3601" style="stop-color:#D3D2F9"/>
			<stop  offset="0.7062" style="stop-color:#C5C4F7"/>
			<stop  offset="1" style="stop-color:#C0BFF6"/>
		</linearGradient>
		<path class="st19" d="M332.3,294.2l-19.8-11.4c-2.3-1.3-2.3-3.5,0-4.9l19.8-11.4c2.3-1.3,6.1-1.3,8.4,0l19.8,11.4
			c2.3,1.3,2.3,3.5,0,4.9l-19.8,11.4C338.4,295.5,334.7,295.5,332.3,294.2z"/>
	</g>
	<g class="st6">
		<path class="st15" d="M332.3,294.2l-19.8-11.4c-2.3-1.3-2.3-3.5,0-4.9l19.8-11.4c2.3-1.3,6.1-1.3,8.4,0l19.8,11.4
			c2.3,1.3,2.3,3.5,0,4.9l-19.8,11.4C338.4,295.5,334.7,295.5,332.3,294.2z"/>
	</g>
</g>
<g>
	<g>
		<path class="st0" d="M336.5,277.6c-1.4,0-2.7-0.3-3.7-0.9L313,265.3c-1-0.6-1.6-1.4-1.6-2.3c0-0.9,0.6-1.7,1.6-2.3l19.8-11.4
			c2.1-1.2,5.4-1.2,7.5,0l19.8,11.4c1,0.6,1.6,1.4,1.6,2.3c0,0.9-0.6,1.7-1.6,2.3l-19.8,11.4C339.2,277.3,337.9,277.6,336.5,277.6z
			 M333,276.4c2,1.1,5.1,1.1,7.1,0l19.8-11.4c0.9-0.5,1.4-1.2,1.4-2c0-0.7-0.5-1.4-1.4-2l-19.8-11.4c-2-1.1-5.1-1.1-7.1,0
			l-19.8,11.4c-0.9,0.5-1.4,1.2-1.4,2c0,0.7,0.5,1.4,1.4,2L333,276.4z"/>
		<g>
			<path class="st11" d="M362.3,258.6v-6.8l-1.2-0.7c-0.4,2.1-2.8,3.5-4.9,3.8l-14.2,8.3l-6.2,2.2L316,255.3l0.5-0.3
				c-1.7-0.8-2.6-2.6-3.5-4.2l-1.3,0.8l-0.8,0.2v6.9l0,0c0,0.9,0.6,1.8,1.7,2.4l19.8,11.4c2.3,1.3,6.1,1.3,8.4,0l19.8-11.4
				c1.1-0.7,1.7-1.5,1.7-2.4C362.3,258.7,362.3,258.7,362.3,258.6L362.3,258.6z"/>
			<g>
				<g>
					<linearGradient id="SVGID_12_" gradientUnits="userSpaceOnUse" x1="315.945" y1="239.2239" x2="356.7547" y2="262.7854">
						<stop  offset="0" style="stop-color:#BCBEFF"/>
						<stop  offset="0.2271" style="stop-color:#AAADF8"/>
						<stop  offset="0.6802" style="stop-color:#7C83E5"/>
						<stop  offset="1" style="stop-color:#5761D7"/>
					</linearGradient>
					<path class="st20" d="M362.3,252.6v-4.5l-1.2-0.7c-0.4,2.1-2.8,3.5-4.9,3.8l-14.2,8.3l-6.2,2.2L316,251.6l0.5-0.3
						c-1.7-0.8-2.6-2.6-3.5-4.2l-1.3,0.8l-0.8,0.2v4.6l0,0c0,0.9,0.6,1.8,1.7,2.4l19.8,11.4c2.3,1.3,6.1,1.3,8.4,0l19.8-11.4
						c1.1-0.7,1.7-1.5,1.7-2.4C362.3,252.7,362.3,252.6,362.3,252.6L362.3,252.6z"/>
					<path class="st13" d="M356.1,251.2l-14.2,8.3l-5.4,1.9v6.1c1.5,0,3-0.3,4.2-1l19.8-11.4c1.1-0.7,1.7-1.5,1.7-2.4
						c0,0,0-0.1,0-0.1l0,0v-4.5l-1.1-0.6H361C360.6,249.6,358.2,251,356.1,251.2z"/>
					<g>
						<linearGradient id="SVGID_13_" gradientUnits="userSpaceOnUse" x1="310.8278" y1="248.1301" x2="362.2635" y2="248.1301">
							<stop  offset="0" style="stop-color:#E9E9FD"/>
							<stop  offset="0.3601" style="stop-color:#D3D2F9"/>
							<stop  offset="0.7062" style="stop-color:#C5C4F7"/>
							<stop  offset="1" style="stop-color:#C0BFF6"/>
						</linearGradient>
						<path class="st21" d="M332.3,262l-19.8-11.4c-2.3-1.3-2.3-3.5,0-4.9l19.8-11.4c2.3-1.3,6.1-1.3,8.4,0l19.8,11.4
							c2.3,1.3,2.3,3.5,0,4.8L340.7,262C338.4,263.3,334.7,263.3,332.3,262z"/>
					</g>
					<g>
						<path class="st22" d="M336.5,259.9c-1.2,0-2.4-0.3-3.4-0.8l-15.5-8.9c-0.9-0.5-1.4-1.3-1.4-2c0-0.8,0.5-1.5,1.4-2l15.5-8.9
							c1.9-1.1,4.9-1.1,6.7,0l15.5,8.9c0.9,0.5,1.4,1.3,1.4,2c0,0.8-0.5,1.5-1.4,2l-15.5,8.9C339,259.6,337.8,259.9,336.5,259.9z
							 M336.5,236.7c-1.2,0-2.3,0.3-3.2,0.8l-15.5,8.9c-0.8,0.5-1.3,1.1-1.3,1.7c0,0.7,0.5,1.3,1.3,1.7l15.5,8.9c1.8,1,4.6,1,6.4,0
							l15.5-8.9c0.8-0.5,1.3-1.1,1.3-1.7c0-0.7-0.5-1.3-1.3-1.7l-15.5-8.9C338.9,237,337.7,236.7,336.5,236.7z"/>
					</g>
					<g>
						<path class="st3" d="M360.5,250.6L340.7,262c-2.3,1.3-6.1,1.3-8.4,0l-19.8-11.4c-1-0.6-1.6-1.4-1.7-2.1c-0.1,1,0.4,2,1.7,2.7
							l19.8,11.4c2.3,1.3,6.1,1.3,8.4,0l19.8-11.4c1.3-0.7,1.9-1.7,1.7-2.7C362.1,249.2,361.6,250,360.5,250.6z"/>
					</g>
				</g>
			</g>
		</g>
	</g>
</g>
<g class="st6">
	<linearGradient id="SVGID_14_" gradientUnits="userSpaceOnUse" x1="118.2121" y1="87.3571" x2="159.0218" y2="110.9186">
		<stop  offset="0" style="stop-color:#BCBEFF"/>
		<stop  offset="0.2271" style="stop-color:#AAADF8"/>
		<stop  offset="0.6802" style="stop-color:#7C83E5"/>
		<stop  offset="1" style="stop-color:#5761D7"/>
	</linearGradient>
	<path class="st23" d="M164.5,100.7v-4.5l-1.2-0.7c-0.3,2.1-2.8,3.5-4.9,3.8l-14.2,8.3l-6.2,2.2l-19.7-10.2l0.5-0.3
		c-1.7-0.8-2.6-2.6-3.5-4.2l-1.3,0.8l-0.8,0.2v4.6l0,0c0,0.9,0.6,1.8,1.7,2.4l19.8,11.4c2.3,1.3,6.1,1.3,8.4,0l19.8-11.4
		c1.1-0.7,1.7-1.5,1.7-2.4C164.5,100.8,164.5,100.8,164.5,100.7L164.5,100.7z"/>
	<path class="st13" d="M158.4,99.4l-14.2,8.3l-5.4,1.9v6.1c1.5,0,3-0.3,4.2-1l19.8-11.4c1.1-0.7,1.7-1.5,1.7-2.4c0,0,0-0.1,0-0.1
		l0,0v-4.5l-1.1-0.6h-0.1C162.9,97.7,160.4,99.1,158.4,99.4z"/>
	<g>
		<linearGradient id="SVGID_15_" gradientUnits="userSpaceOnUse" x1="113.095" y1="96.2632" x2="164.5306" y2="96.2632">
			<stop  offset="0" style="stop-color:#E9E9FD"/>
			<stop  offset="0.3601" style="stop-color:#D3D2F9"/>
			<stop  offset="0.7062" style="stop-color:#C5C4F7"/>
			<stop  offset="1" style="stop-color:#C0BFF6"/>
		</linearGradient>
		<path class="st24" d="M134.6,110.1l-19.8-11.4c-2.3-1.3-2.3-3.5,0-4.9l19.8-11.4c2.3-1.3,6.1-1.3,8.4,0l19.8,11.4
			c2.3,1.3,2.3,3.5,0,4.8L143,110.1C140.7,111.4,136.9,111.4,134.6,110.1z"/>
	</g>
	<g class="st6">
		<path class="st15" d="M134.6,110.1l-19.8-11.4c-2.3-1.3-2.3-3.5,0-4.9l19.8-11.4c2.3-1.3,6.1-1.3,8.4,0l19.8,11.4
			c2.3,1.3,2.3,3.5,0,4.8L143,110.1C140.7,111.4,136.9,111.4,134.6,110.1z"/>
	</g>
</g>
<g>
	<g>
		<path class="st0" d="M138.8,95.7c-1.4,0-2.7-0.3-3.7-0.9l-19.8-11.4c-1-0.6-1.6-1.4-1.6-2.3c0-0.9,0.6-1.7,1.6-2.3l19.8-11.4
			c2.1-1.2,5.4-1.2,7.5,0l19.8,11.4c1,0.6,1.6,1.4,1.6,2.3c0,0.9-0.6,1.7-1.6,2.3l-19.8,11.4C141.5,95.4,140.2,95.7,138.8,95.7z
			 M138.8,66.9c-1.3,0-2.6,0.3-3.6,0.8l-19.8,11.4c-0.9,0.5-1.4,1.2-1.4,2c0,0.7,0.5,1.4,1.4,2l19.8,11.4c2,1.1,5.1,1.1,7.1,0
			l19.8-11.4c0.9-0.5,1.4-1.2,1.4-2c0-0.7-0.5-1.4-1.4-2l-19.8-11.4C141.4,67.2,140.1,66.9,138.8,66.9z"/>
		<g>
			<path class="st11" d="M164.5,76.8V70l-1.2-0.7c-0.3,2.1-2.8,3.5-4.9,3.8l-14.2,8.3l-6.2,2.2l-19.7-10.2l0.5-0.3
				c-1.7-0.8-2.6-2.6-3.5-4.2l-1.3,0.8l-0.8,0.2v6.9l0,0c0,0.9,0.6,1.8,1.7,2.4l19.8,11.4c2.3,1.3,6.1,1.3,8.4,0l19.8-11.4
				c1.1-0.7,1.7-1.5,1.7-2.4C164.5,76.8,164.5,76.8,164.5,76.8L164.5,76.8z"/>
			<g>
				<g>
					<linearGradient id="SVGID_16_" gradientUnits="userSpaceOnUse" x1="118.2121" y1="57.3571" x2="159.0218" y2="80.9186">
						<stop  offset="0" style="stop-color:#BCBEFF"/>
						<stop  offset="0.2271" style="stop-color:#AAADF8"/>
						<stop  offset="0.6802" style="stop-color:#7C83E5"/>
						<stop  offset="1" style="stop-color:#5761D7"/>
					</linearGradient>
					<path class="st25" d="M164.5,70.7v-4.5l-1.2-0.7c-0.3,2.1-2.8,3.5-4.9,3.8l-14.2,8.3l-6.2,2.2l-19.7-10.2l0.5-0.3
						c-1.7-0.8-2.6-2.6-3.5-4.2l-1.3,0.8l-0.8,0.2v4.6l0,0c0,0.9,0.6,1.8,1.7,2.4l19.8,11.4c2.3,1.3,6.1,1.3,8.4,0l19.8-11.4
						c1.1-0.7,1.7-1.5,1.7-2.4C164.5,70.8,164.5,70.8,164.5,70.7L164.5,70.7z"/>
					<path class="st13" d="M158.4,69.4l-14.2,8.3l-5.4,1.9v6.1c1.5,0,3-0.3,4.2-1l19.8-11.4c1.1-0.7,1.7-1.5,1.7-2.4
						c0,0,0-0.1,0-0.1l0,0v-4.5l-1.1-0.6h-0.1C162.9,67.7,160.4,69.1,158.4,69.4z"/>
					<g>
						<linearGradient id="SVGID_17_" gradientUnits="userSpaceOnUse" x1="113.095" y1="66.2632" x2="164.5306" y2="66.2632">
							<stop  offset="0" style="stop-color:#E9E9FD"/>
							<stop  offset="0.3601" style="stop-color:#D3D2F9"/>
							<stop  offset="0.7062" style="stop-color:#C5C4F7"/>
							<stop  offset="1" style="stop-color:#C0BFF6"/>
						</linearGradient>
						<path class="st26" d="M134.6,80.1l-19.8-11.4c-2.3-1.3-2.3-3.5,0-4.9l19.8-11.4c2.3-1.3,6.1-1.3,8.4,0l19.8,11.4
							c2.3,1.3,2.3,3.5,0,4.8L143,80.1C140.7,81.4,136.9,81.4,134.6,80.1z"/>
					</g>
					<g>
						<path class="st22" d="M138.8,78c-1.2,0-2.4-0.3-3.4-0.8h0L120,68.3c-0.9-0.5-1.4-1.3-1.4-2c0-0.8,0.5-1.5,1.4-2l15.5-8.9
							c1.9-1.1,4.9-1.1,6.7,0l15.5,8.9c0.9,0.5,1.4,1.3,1.4,2c0,0.8-0.5,1.5-1.4,2l-15.5,8.9C141.3,77.8,140,78,138.8,78z
							 M138.8,54.8c-1.2,0-2.3,0.3-3.2,0.8l-15.5,8.9c-0.8,0.5-1.3,1.1-1.3,1.7c0,0.7,0.5,1.3,1.3,1.7l15.5,8.9c1.8,1,4.6,1,6.4,0
							l15.5-8.9c0.8-0.5,1.3-1.1,1.3-1.7c0-0.7-0.5-1.3-1.3-1.7L142,55.6C141.1,55.1,140,54.8,138.8,54.8z"/>
					</g>
					<g>
						<path class="st3" d="M162.8,68.7L143,80.1c-2.3,1.3-6.1,1.3-8.4,0l-19.8-11.4c-1-0.6-1.6-1.4-1.7-2.1c-0.1,1,0.4,2,1.7,2.7
							l19.8,11.4c2.3,1.3,6.1,1.3,8.4,0l19.8-11.4c1.3-0.7,1.9-1.7,1.7-2.7C164.4,67.3,163.8,68.1,162.8,68.7z"/>
					</g>
				</g>
			</g>
		</g>
	</g>
</g>
<g>
	<path class="st0" d="M256.4,263.5c-2.6,0-5.2-0.5-7-1.6l-92.1-53.2c-1.8-1.1-2.9-2.5-2.9-4.2c0-2,1.5-3.9,4-5.4L334,97.8
		c4.8-2.8,12-3.1,16.2-0.7l92.1,53.2c1.8,1.1,2.9,2.5,2.9,4.2c0,2-1.5,3.9-4,5.4L265.5,261.2C262.9,262.8,259.6,263.5,256.4,263.5z
		 M249.6,261.6c4,2.3,11.1,2,15.8-0.7l175.6-101.4c2.4-1.4,3.8-3.2,3.8-5c0-1.5-0.9-2.8-2.7-3.8L350,97.5c-4-2.3-11.1-2-15.8,0.7
		L158.6,199.5c-2.4,1.4-3.8,3.2-3.8,5c0,1.5,0.9,2.8,2.7,3.8L249.6,261.6z"/>
</g>
<g>
	<linearGradient id="SVGID_18_" gradientUnits="userSpaceOnUse" x1="154.6339" y1="165.2428" x2="444.923" y2="165.2428">
		<stop  offset="0" style="stop-color:#BCBEFF"/>
		<stop  offset="0.151" style="stop-color:#A3A7F5"/>
		<stop  offset="0.3866" style="stop-color:#8289E8"/>
		<stop  offset="0.6124" style="stop-color:#6A73DF"/>
		<stop  offset="0.8221" style="stop-color:#5C66D9"/>
		<stop  offset="1" style="stop-color:#5761D7"/>
	</linearGradient>
	<path class="st27" d="M444.9,129.9l-13.2,2.3l-81.6-47.1c-4.1-2.4-11.2-2.1-16,0.7L178,175.9l-23.4,4l0,8.3l0,0c0,1.5,0.9,3,2.8,4
		l92.1,53.2c4.1,2.4,11.2,2.1,16-0.7L441,143.4c2.5-1.5,3.9-3.3,3.9-5.1l0,0V129.9z"/>
	<path class="st2" d="M249.5,237l-92.1-53.2c-4.1-2.4-3.6-6.5,1.1-9.2L334.1,73.3c4.7-2.7,11.9-3,16-0.7l92.1,53.2
		c4.1,2.4,3.6,6.5-1.1,9.2L265.4,236.4C260.7,239.1,253.6,239.4,249.5,237z"/>
	<path class="st3" d="M441,135L265.4,236.4c-4.7,2.7-11.9,3-16,0.7l-92.1-53.2c-1.6-0.9-2.5-2.2-2.7-3.5c-0.3,1.7,0.6,3.4,2.7,4.6
		l92.1,53.2c4.1,2.4,11.2,2.1,16-0.7L441,136.1c2.8-1.6,4.1-3.8,3.9-5.7C444.6,132,443.3,133.7,441,135z"/>
	<path class="st4" d="M249.6,235l-88.8-51.3c-4-2.3-3.5-6.3,1.1-8.9l172.3-99.5c4.6-2.6,11.5-2.9,15.5-0.6l88.8,51.3
		c4,2.3,3.5,6.3-1.1,8.9l-172.3,99.5C260.5,237,253.6,237.3,249.6,235z"/>
</g>
<g>
	<linearGradient id="SVGID_19_" gradientUnits="userSpaceOnUse" x1="340.2115" y1="206.3113" x2="259.1793" y2="98.7779">
		<stop  offset="0" style="stop-color:#42E8E0"/>
		<stop  offset="0.1055" style="stop-color:#37B6BF"/>
		<stop  offset="0.2197" style="stop-color:#2C87A1"/>
		<stop  offset="0.338" style="stop-color:#235F87"/>
		<stop  offset="0.4587" style="stop-color:#1C3F72"/>
		<stop  offset="0.5824" style="stop-color:#162561"/>
		<stop  offset="0.7105" style="stop-color:#121355"/>
		<stop  offset="0.8458" style="stop-color:#10084E"/>
		<stop  offset="1" style="stop-color:#0F054C"/>
	</linearGradient>
	<path class="st28" d="M256.4,234.5c-2.6,0-5-0.5-6.9-1.6l-88.8-51.3c-1.8-1-2.8-2.5-2.8-4.1c0-1.9,1.4-3.9,3.9-5.3l172.3-99.5
		c4.6-2.7,11.7-3,15.7-0.6l88.8,51.3c1.8,1,2.8,2.5,2.8,4.1c0,1.9-1.4,3.9-3.9,5.3l-172.3,99.5C262.7,233.8,259.4,234.5,256.4,234.5
		z M249.8,232.4c3.9,2.2,10.7,2,15.2-0.6l172.3-99.5c2.3-1.3,3.6-3.1,3.6-4.8c0-1.4-0.9-2.7-2.5-3.6l-88.8-51.3
		c-3.9-2.2-10.7-2-15.2,0.6l-172.3,99.5c-2.3,1.3-3.6,3.1-3.6,4.8c0,1.4,0.9,2.7,2.5,3.6L249.8,232.4z"/>
</g>
<g class="st6">
	<defs>
		<path id="SVGID_20_" class="st6" d="M249.6,232.7l-88.8-51.3c-4-2.3-3.5-6.3,1.1-8.9L334.3,73c4.6-2.6,11.5-2.9,15.5-0.6
			l88.8,51.3c4,2.3,3.5,6.3-1.1,8.9l-172.3,99.5C260.5,234.7,253.6,235,249.6,232.7z"/>
	</defs>
	<radialGradient id="SVGID_21_" cx="257.2408" cy="169.2904" r="227.2109" gradientUnits="userSpaceOnUse">
		<stop  offset="0" style="stop-color:#42E8E0"/>
		<stop  offset="0.1055" style="stop-color:#37B6BF"/>
		<stop  offset="0.2197" style="stop-color:#2C87A1"/>
		<stop  offset="0.338" style="stop-color:#235F87"/>
		<stop  offset="0.4587" style="stop-color:#1C3F72"/>
		<stop  offset="0.5824" style="stop-color:#162561"/>
		<stop  offset="0.7105" style="stop-color:#121355"/>
		<stop  offset="0.8458" style="stop-color:#10084E"/>
		<stop  offset="1" style="stop-color:#0F054C"/>
	</radialGradient>
	<use xlink:href="#SVGID_20_"  style="overflow:visible;opacity:0.5;fill:url(#SVGID_21_);"/>
	<clipPath id="SVGID_22_">
		<use xlink:href="#SVGID_20_"  style="overflow:visible;opacity:0.5;"/>
	</clipPath>
	<path class="st29" d="M195.4,177.4v64.9l0,0c0,1.4,0.9,2.7,2.6,3.8l53.9,31.1c3.9,2.2,10.7,2,15.1-0.6l0,0c2.5-1.5,3.8-3.3,3.7-5.1
		l0,0v-64.9L195.4,177.4z"/>
	<path class="st30" d="M251.9,212.3L198,181.1c-3.9-2.2-3.4-6.2,1.1-8.7l0,0c4.5-2.6,11.3-2.9,15.1-0.6l53.9,31.1
		c3.9,2.2,3.4,6.2-1.1,8.7v0C262.6,214.2,255.8,214.5,251.9,212.3z"/>
</g>
<path class="st9" d="M251.9,212.3L198,181.1c-3.9-2.2-3.4-6.2,1.1-8.7l0,0c4.5-2.6,11.3-2.9,15.1-0.6l53.9,31.1
	c3.9,2.2,3.4,6.2-1.1,8.7v0C262.6,214.2,255.8,214.5,251.9,212.3z"/>
<g>
	<path class="st0" d="M195.4,100.6v64.9l0,0c0,1.4,0.9,2.7,2.6,3.8l53.9,31.1c3.9,2.2,10.7,2,15.1-0.6l0,0c2.5-1.5,3.8-3.3,3.7-5.1
		l0,0v-64.9L195.4,100.6z"/>
	<path class="st10" d="M251.9,135.5L198,104.4c-3.9-2.2-3.4-6.2,1.1-8.7l0,0c4.5-2.6,11.3-2.9,15.1-0.6l53.9,31.1
		c3.9,2.2,3.4,6.2-1.1,8.7l0,0C262.6,137.5,255.8,137.7,251.9,135.5z"/>
	<g>
		<path class="st0" d="M257.3,131.3c-2.6,0-4.7-2.1-4.7-4.7V97.8c0-9.8-7.2-22.3-15.7-27.2l-12.4-7.1c-3.3-1.9-6.2-2.3-8.1-1.3
			c-1.9,1.1-3,3.9-3,7.6v28.8c0,2.6-2.1,4.7-4.7,4.7c-2.6,0-4.7-2.1-4.7-4.7V69.9c0-7.3,2.7-12.9,7.6-15.7
			c4.9-2.8,11.1-2.4,17.4,1.3l12.4,7.1c11.4,6.6,20.4,22.1,20.4,35.3v28.8C261.9,129.2,259.9,131.3,257.3,131.3z"/>
	</g>
</g>
<g>
	<path class="st9" d="M339.3,168.1l-61.5-35.5c-4.2-2.4-3.7-6.6,1.2-9.4l0,0c4.8-2.8,12.1-3.1,16.3-0.7l61.5,35.5
		c4.2,2.4,3.7,6.6-1.2,9.4h0C350.8,170.2,343.5,170.5,339.3,168.1z"/>
	<path class="st11" d="M339.3,163.7l-61.5-35.5c-4.2-2.4-3.7-6.6,1.2-9.4l0,0c4.8-2.8,12.1-3.1,16.3-0.7l61.5,35.5
		c4.2,2.4,3.7,6.6-1.2,9.4h0C350.8,165.8,343.5,166.1,339.3,163.7z"/>
	<path class="st0" d="M346.4,165.5c-2.7,0-5.3-0.5-7.2-1.7l-61.5-35.5c-1.9-1.1-2.9-2.6-2.9-4.3c0-2,1.5-4,4.1-5.5
		c4.9-2.8,12.3-3.1,16.5-0.7l61.5,35.5c1.9,1.1,2.9,2.6,2.9,4.3c0,2-1.5,4-4.1,5.5C353.1,164.7,349.6,165.5,346.4,165.5z
		 M339.4,163.5c4.1,2.4,11.4,2.1,16.1-0.7c2.5-1.4,3.9-3.3,3.9-5.2c0-1.5-1-2.9-2.7-3.9l-61.5-35.5c-4.1-2.4-11.4-2.1-16.1,0.7
		c-2.5,1.4-3.9,3.3-3.9,5.2c0,1.5,1,2.9,2.7,3.9L339.4,163.5z"/>
	<g>
		<path class="st11" d="M350.5,160.4c-1.4,0.8-3.8,0.8-5.2,0c-1.4-0.8-1.4-2.2,0-3c1.4-0.8,3.8-0.8,5.2,0
			C351.9,158.2,351.9,159.5,350.5,160.4z"/>
		<path class="st0" d="M347.9,161.1c-1,0-1.9-0.2-2.7-0.6c-0.7-0.4-1.1-1-1.1-1.6c0-0.6,0.4-1.2,1.1-1.6c1.5-0.8,3.9-0.8,5.3,0
			c0.7,0.4,1.1,1,1.1,1.6c0,0.6-0.4,1.2-1.1,1.6C349.8,160.9,348.8,161.1,347.9,161.1z M347.9,156.9c-0.9,0-1.8,0.2-2.5,0.6
			c-0.6,0.4-1,0.9-1,1.4c0,0.5,0.4,1,1,1.4c1.4,0.8,3.7,0.8,5.1,0c0.6-0.4,1-0.9,1-1.4c0-0.5-0.4-1-1-1.4
			C349.7,157.1,348.8,156.9,347.9,156.9z"/>
		<path class="st11" d="M341.8,155.3c-1.4,0.8-3.8,0.8-5.2,0c-1.4-0.8-1.4-2.2,0-3c1.4-0.8,3.8-0.8,5.2,0
			C343.3,153.2,343.3,154.5,341.8,155.3z"/>
		<path class="st0" d="M339.2,154.4c-1,0-1.9-0.2-2.7-0.6c-0.7-0.4-1.1-1-1.1-1.6c0-0.6,0.4-1.2,1.1-1.6c1.5-0.8,3.9-0.8,5.3,0
			c0.7,0.4,1.1,1,1.1,1.6c0,0.6-0.4,1.2-1.1,1.6l0,0C341.2,154.2,340.2,154.4,339.2,154.4z M339.2,150.2c-0.9,0-1.8,0.2-2.5,0.6
			c-0.6,0.4-1,0.9-1,1.4c0,0.5,0.4,1,1,1.4c1.4,0.8,3.7,0.8,5.1,0l0,0c0.6-0.4,1-0.9,1-1.4c0-0.5-0.4-1-1-1.4
			C341.1,150.4,340.1,150.2,339.2,150.2z"/>
		<path class="st0" d="M316.8,136.2c-1,0-1.9-0.2-2.7-0.6c-0.7-0.4-1.1-1-1.1-1.6c0-0.6,0.4-1.2,1.1-1.6c1.5-0.8,3.9-0.8,5.3,0
			c0.7,0.4,1.1,1,1.1,1.6c0,0.6-0.4,1.2-1.1,1.6l0,0C318.7,136,317.7,136.2,316.8,136.2z M316.8,132c-0.9,0-1.8,0.2-2.5,0.6
			c-0.6,0.4-1,0.9-1,1.4c0,0.5,0.4,1,1,1.4c1.4,0.8,3.7,0.8,5.1,0l0,0c0.6-0.4,1-0.9,1-1.4c0-0.5-0.4-1-1-1.4
			C318.6,132.2,317.7,132,316.8,132z"/>
		<path class="st11" d="M319.4,142.8c-1.4,0.8-3.8,0.8-5.2,0c-1.4-0.8-1.4-2.2,0-3c1.4-0.8,3.8-0.8,5.2,0
			C320.8,140.6,320.8,141.9,319.4,142.8z"/>
		<path class="st0" d="M308.1,126.9c-1,0-1.9-0.2-2.7-0.6c-0.7-0.4-1.1-1-1.1-1.6c0-0.6,0.4-1.2,1.1-1.6c1.5-0.8,3.9-0.8,5.3,0
			c0.7,0.4,1.1,1,1.1,1.6c0,0.6-0.4,1.2-1.1,1.6C310.1,126.7,309.1,126.9,308.1,126.9z M308.1,122.7c-0.9,0-1.8,0.2-2.5,0.6
			c-0.6,0.4-1,0.9-1,1.4c0,0.5,0.4,1,1,1.4c1.4,0.8,3.7,0.8,5.1,0l0,0c0.6-0.4,1-0.9,1-1.4c0-0.5-0.4-1-1-1.4
			C310,122.9,309,122.7,308.1,122.7z"/>
		<path class="st11" d="M310.7,138.2c-1.4,0.8-3.8,0.8-5.2,0c-1.4-0.8-1.4-2.2,0-3c1.4-0.8,3.8-0.8,5.2,0
			C312.2,136,312.2,137.3,310.7,138.2z"/>
		<path class="st0" d="M299.5,115.6c-1,0-1.9-0.2-2.7-0.6c-0.7-0.4-1.1-1-1.1-1.6c0-0.6,0.4-1.2,1.1-1.6c1.5-0.8,3.9-0.8,5.3,0
			c0.7,0.4,1.1,1,1.1,1.6c0,0.6-0.4,1.2-1.1,1.6l0,0C301.4,115.4,300.5,115.6,299.5,115.6z M299.5,111.4c-0.9,0-1.8,0.2-2.5,0.6
			c-0.6,0.4-1,0.9-1,1.4c0,0.5,0.4,1,1,1.4c1.4,0.8,3.7,0.8,5.1,0l0,0c0.6-0.4,1-0.9,1-1.4c0-0.5-0.4-1-1-1.4
			C301.3,111.6,300.4,111.4,299.5,111.4z"/>
		<path class="st11" d="M301.9,133.4c-1.4,0.8-3.8,0.8-5.2,0c-1.4-0.8-1.4-2.2,0-3c1.4-0.8,3.8-0.8,5.2,0
			C303.4,131.2,303.4,132.5,301.9,133.4z"/>
		<path class="st11" d="M326.7,143.9l7.5,4.3c1.2,0.7,1.1,2-0.3,2.8l0,0c-1.4,0.8-3.6,0.9-4.8,0.2l-7.5-4.3c-1.2-0.7-1.1-2,0.3-2.8
			l0,0C323.3,143.3,325.5,143.2,326.7,143.9z"/>
		<path class="st0" d="M331.1,148.3c-0.8,0-1.6-0.2-2.2-0.5l-7.5-4.3c-0.6-0.3-0.9-0.8-0.9-1.3c0-0.6,0.5-1.2,1.3-1.7
			c1.5-0.8,3.7-0.9,5-0.2l7.5,4.3c0.6,0.3,0.9,0.8,0.9,1.3c0,0.6-0.5,1.2-1.3,1.7C333.1,148.1,332.1,148.3,331.1,148.3z M324.6,140
			c-0.9,0-1.9,0.2-2.7,0.7c-0.7,0.4-1.1,0.9-1.1,1.5c0,0.4,0.3,0.8,0.8,1.1l7.5,4.3c1.2,0.7,3.3,0.6,4.7-0.2
			c0.7-0.4,1.1-0.9,1.1-1.5c0-0.4-0.3-0.8-0.8-1.1l-7.5-4.3C326.1,140.2,325.4,140,324.6,140z"/>
	</g>
</g>
<path class="st9" d="M419.6,132.2c-1.4,0.8-3.6,0.8-4.9,0c-1.4-0.8-1.4-2.1,0-2.8c1.4-0.8,3.6-0.8,4.9,0
	C420.9,130.1,420.9,131.4,419.6,132.2z"/>
<path class="st9" d="M400.8,118.5l9.6,5.5c1.2,0.7,1,1.9-0.3,2.6l0,0c-1.4,0.8-3.4,0.9-4.6,0.2l-9.6-5.5c-1.2-0.7-1-1.9,0.3-2.6l0,0
	C397.6,117.9,399.7,117.9,400.8,118.5z"/>
<path class="st9" d="M346.9,86.7l9.6,5.5c1.2,0.7,1,1.9-0.3,2.6v0c-1.4,0.8-3.4,0.9-4.6,0.2l-9.6-5.5c-1.2-0.7-1-1.9,0.3-2.6l0,0
	C343.6,86.1,345.7,86,346.9,86.7z"/>
<path class="st0" d="M419.6,128.7c-1.4,0.8-3.6,0.8-4.9,0c-1.4-0.8-1.4-2.1,0-2.8c1.4-0.8,3.6-0.8,4.9,0
	C420.9,126.7,420.9,128,419.6,128.7z"/>
<path class="st0" d="M400.8,115.1l9.6,5.5c1.2,0.7,1,1.9-0.3,2.6l0,0c-1.4,0.8-3.4,0.9-4.6,0.2l-9.6-5.5c-1.2-0.7-1-1.9,0.3-2.6l0,0
	C397.6,114.5,399.7,114.4,400.8,115.1z"/>
<path class="st0" d="M346.9,83.3l9.6,5.5c1.2,0.7,1,1.9-0.3,2.6l0,0c-1.4,0.8-3.4,0.9-4.6,0.2l-9.6-5.5c-1.2-0.7-1-1.9,0.3-2.6h0
	C343.6,82.7,345.7,82.6,346.9,83.3z"/>
<g class="st6">
	<linearGradient id="SVGID_23_" gradientUnits="userSpaceOnUse" x1="427.0865" y1="236.4288" x2="467.8962" y2="259.9903">
		<stop  offset="0" style="stop-color:#BCBEFF"/>
		<stop  offset="0.2271" style="stop-color:#AAADF8"/>
		<stop  offset="0.6802" style="stop-color:#7C83E5"/>
		<stop  offset="1" style="stop-color:#5761D7"/>
	</linearGradient>
	<path class="st31" d="M473.4,249.8v-4.5l-1.2-0.7c-0.4,2.1-2.8,3.5-4.9,3.8l-14.2,8.3l-6.2,2.2l-19.7-10.2l0.5-0.3
		c-1.7-0.8-2.6-2.6-3.5-4.2l-1.3,0.8l-0.8,0.2v4.6l0,0c0,0.9,0.6,1.8,1.7,2.4l19.8,11.4c2.3,1.3,6.1,1.3,8.4,0l19.8-11.4
		c1.1-0.7,1.7-1.5,1.7-2.4C473.4,249.9,473.4,249.9,473.4,249.8L473.4,249.8z"/>
	<path class="st13" d="M467.2,248.4l-14.2,8.3l-5.4,1.9v6.1c1.5,0,3-0.3,4.2-1l19.8-11.4c1.1-0.7,1.7-1.5,1.7-2.4c0,0,0-0.1,0-0.1
		l0,0v-4.5l-1.1-0.6h-0.1C471.8,246.8,469.3,248.2,467.2,248.4z"/>
	<g>
		<linearGradient id="SVGID_24_" gradientUnits="userSpaceOnUse" x1="421.9693" y1="245.3349" x2="473.405" y2="245.3349">
			<stop  offset="0" style="stop-color:#E9E9FD"/>
			<stop  offset="0.3601" style="stop-color:#D3D2F9"/>
			<stop  offset="0.7062" style="stop-color:#C5C4F7"/>
			<stop  offset="1" style="stop-color:#C0BFF6"/>
		</linearGradient>
		<path class="st32" d="M443.5,259.2l-19.8-11.4c-2.3-1.3-2.3-3.5,0-4.9l19.8-11.4c2.3-1.3,6.1-1.3,8.4,0l19.8,11.4
			c2.3,1.3,2.3,3.5,0,4.9l-19.8,11.4C449.6,260.5,445.8,260.5,443.5,259.2z"/>
	</g>
	<g class="st6">
		<path class="st15" d="M443.5,259.2l-19.8-11.4c-2.3-1.3-2.3-3.5,0-4.9l19.8-11.4c2.3-1.3,6.1-1.3,8.4,0l19.8,11.4
			c2.3,1.3,2.3,3.5,0,4.9l-19.8,11.4C449.6,260.5,445.8,260.5,443.5,259.2z"/>
	</g>
</g>
<g>
	<g>
		<path class="st0" d="M447.7,244.7c-1.4,0-2.7-0.3-3.7-0.9l-19.8-11.4c-1-0.6-1.6-1.4-1.6-2.3s0.6-1.7,1.6-2.3l19.8-11.4
			c2.1-1.2,5.4-1.2,7.5,0l19.8,11.4c1,0.6,1.6,1.4,1.6,2.3c0,0.9-0.6,1.7-1.6,2.3l-19.8,11.4C450.4,244.4,449,244.7,447.7,244.7z
			 M447.7,216c-1.3,0-2.6,0.3-3.6,0.8l-19.8,11.4c-0.9,0.5-1.4,1.2-1.4,2s0.5,1.4,1.4,2l19.8,11.4c2,1.1,5.1,1.1,7.1,0l19.8-11.4
			c0.9-0.5,1.4-1.2,1.4-2c0-0.7-0.5-1.4-1.4-2l-19.8-11.4C450.3,216.2,449,216,447.7,216z"/>
		<g>
			<path class="st11" d="M473.4,225.8V219l-1.2-0.7c-0.4,2.1-2.8,3.5-4.9,3.8l-14.2,8.3l-6.2,2.2l-19.7-10.2l0.5-0.3
				c-1.7-0.8-2.6-2.6-3.5-4.2l-1.3,0.8L422,219v6.9l0,0c0,0.9,0.6,1.8,1.7,2.4l19.8,11.4c2.3,1.3,6.1,1.3,8.4,0l19.8-11.4
				c1.1-0.7,1.7-1.5,1.7-2.4C473.4,225.9,473.4,225.8,473.4,225.8L473.4,225.8z"/>
			<g>
				<g>
					<linearGradient id="SVGID_25_" gradientUnits="userSpaceOnUse" x1="427.0864" y1="206.3905" x2="467.8962" y2="229.952">
						<stop  offset="0" style="stop-color:#BCBEFF"/>
						<stop  offset="0.2271" style="stop-color:#AAADF8"/>
						<stop  offset="0.6802" style="stop-color:#7C83E5"/>
						<stop  offset="1" style="stop-color:#5761D7"/>
					</linearGradient>
					<path class="st33" d="M473.4,219.8v-4.5l-1.2-0.7c-0.4,2.1-2.8,3.5-4.9,3.8l-14.2,8.3l-6.2,2.2l-19.7-10.2l0.5-0.3
						c-1.7-0.8-2.6-2.6-3.5-4.2l-1.3,0.8l-0.8,0.2v4.6l0,0c0,0.9,0.6,1.8,1.7,2.4l19.8,11.4c2.3,1.3,6.1,1.3,8.4,0l19.8-11.4
						c1.1-0.7,1.7-1.5,1.7-2.4C473.4,219.9,473.4,219.8,473.4,219.8L473.4,219.8z"/>
					<path class="st13" d="M467.2,218.4l-14.2,8.3l-5.4,1.9v6.1c1.5,0,3-0.3,4.2-1l19.8-11.4c1.1-0.7,1.7-1.5,1.7-2.4
						c0,0,0-0.1,0-0.1l0,0v-4.5l-1.1-0.6h-0.1C471.8,216.7,469.3,218.1,467.2,218.4z"/>
					<g>
						<linearGradient id="SVGID_26_" gradientUnits="userSpaceOnUse" x1="421.9693" y1="215.2967" x2="473.405" y2="215.2967">
							<stop  offset="0" style="stop-color:#E9E9FD"/>
							<stop  offset="0.3601" style="stop-color:#D3D2F9"/>
							<stop  offset="0.7062" style="stop-color:#C5C4F7"/>
							<stop  offset="1" style="stop-color:#C0BFF6"/>
						</linearGradient>
						<path class="st34" d="M443.5,229.1l-19.8-11.4c-2.3-1.3-2.3-3.5,0-4.9l19.8-11.4c2.3-1.3,6.1-1.3,8.4,0l19.8,11.4
							c2.3,1.3,2.3,3.5,0,4.9l-19.8,11.4C449.6,230.5,445.8,230.5,443.5,229.1z"/>
					</g>
					<g>
						<path class="st3" d="M471.7,217.7l-19.8,11.4c-2.3,1.3-6.1,1.3-8.4,0l-19.8-11.4c-1-0.6-1.6-1.4-1.7-2.1c-0.1,1,0.4,2,1.7,2.7
							l19.8,11.4c2.3,1.3,6.1,1.3,8.4,0l19.8-11.4c1.3-0.7,1.9-1.7,1.7-2.7C473.3,216.4,472.7,217.1,471.7,217.7z"/>
					</g>
				</g>
			</g>
		</g>
	</g>
</g>
<g class="st6">
	<linearGradient id="SVGID_27_" gradientUnits="userSpaceOnUse" x1="339.0176" y1="263.0808" x2="379.8273" y2="286.6424">
		<stop  offset="0" style="stop-color:#BCBEFF"/>
		<stop  offset="0.2271" style="stop-color:#AAADF8"/>
		<stop  offset="0.6802" style="stop-color:#7C83E5"/>
		<stop  offset="1" style="stop-color:#5761D7"/>
	</linearGradient>
	<path class="st35" d="M385.3,276.5V272l-1.2-0.7c-0.4,2.1-2.8,3.5-4.9,3.8l-14.2,8.3l-6.2,2.2l-19.7-10.2l0.5-0.3
		c-1.7-0.8-2.6-2.6-3.5-4.2l-1.3,0.8l-0.8,0.2v4.6l0,0c0,0.9,0.6,1.8,1.7,2.4l19.8,11.4c2.3,1.3,6.1,1.3,8.4,0l19.8-11.4
		c1.1-0.7,1.7-1.5,1.7-2.4C385.3,276.5,385.3,276.5,385.3,276.5L385.3,276.5z"/>
	<path class="st13" d="M379.2,275.1l-14.2,8.3l-5.4,1.9v6.1c1.5,0,3-0.3,4.2-1l19.8-11.4c1.1-0.7,1.7-1.5,1.7-2.4c0,0,0-0.1,0-0.1
		l0,0V272l-1.1-0.6h-0.1C383.7,273.4,381.2,274.8,379.2,275.1z"/>
	<g>
		<linearGradient id="SVGID_28_" gradientUnits="userSpaceOnUse" x1="333.9004" y1="271.987" x2="385.336" y2="271.987">
			<stop  offset="0" style="stop-color:#E9E9FD"/>
			<stop  offset="0.3601" style="stop-color:#D3D2F9"/>
			<stop  offset="0.7062" style="stop-color:#C5C4F7"/>
			<stop  offset="1" style="stop-color:#C0BFF6"/>
		</linearGradient>
		<path class="st36" d="M355.4,285.8l-19.8-11.4c-2.3-1.3-2.3-3.5,0-4.9l19.8-11.4c2.3-1.3,6.1-1.3,8.4,0l19.8,11.4
			c2.3,1.3,2.3,3.5,0,4.9l-19.8,11.4C361.5,287.2,357.7,287.2,355.4,285.8z"/>
	</g>
	<g class="st6">
		<path class="st15" d="M355.4,285.8l-19.8-11.4c-2.3-1.3-2.3-3.5,0-4.9l19.8-11.4c2.3-1.3,6.1-1.3,8.4,0l19.8,11.4
			c2.3,1.3,2.3,3.5,0,4.9l-19.8,11.4C361.5,287.2,357.7,287.2,355.4,285.8z"/>
	</g>
</g>
<g>
	<g>
		<path class="st0" d="M359.6,269.2c-1.4,0-2.7-0.3-3.7-0.9l-19.8-11.4c-1-0.6-1.6-1.4-1.6-2.3c0-0.9,0.6-1.7,1.6-2.3l19.8-11.4
			c2.1-1.2,5.4-1.2,7.5,0l19.8,11.4c1,0.6,1.6,1.4,1.6,2.3c0,0.9-0.6,1.7-1.6,2.3l-19.8,11.4C362.3,268.9,361,269.2,359.6,269.2z
			 M356.1,268c2,1.1,5.1,1.1,7.1,0l19.8-11.4c0.9-0.5,1.4-1.2,1.4-2c0-0.7-0.5-1.4-1.4-2l-19.8-11.4c-2-1.1-5.1-1.1-7.1,0
			l-19.8,11.4c-0.9,0.5-1.4,1.2-1.4,2c0,0.7,0.5,1.4,1.4,2L356.1,268z"/>
		<g>
			<path class="st11" d="M385.3,250.3v-6.8l-1.2-0.7c-0.4,2.1-2.8,3.5-4.9,3.8l-14.2,8.3l-6.2,2.2l-19.7-10.2l0.5-0.3
				c-1.7-0.8-2.6-2.6-3.5-4.2l-1.3,0.8l-0.8,0.2v6.9l0,0c0,0.9,0.6,1.8,1.7,2.4l19.8,11.4c2.3,1.3,6.1,1.3,8.4,0l19.8-11.4
				c1.1-0.7,1.7-1.5,1.7-2.4C385.3,250.3,385.3,250.3,385.3,250.3L385.3,250.3z"/>
			<g>
				<g>
					<linearGradient id="SVGID_29_" gradientUnits="userSpaceOnUse" x1="339.0176" y1="230.8627" x2="379.8273" y2="254.4242">
						<stop  offset="0" style="stop-color:#BCBEFF"/>
						<stop  offset="0.2271" style="stop-color:#AAADF8"/>
						<stop  offset="0.6802" style="stop-color:#7C83E5"/>
						<stop  offset="1" style="stop-color:#5761D7"/>
					</linearGradient>
					<path class="st37" d="M385.3,244.3v-4.5l-1.2-0.7c-0.4,2.1-2.8,3.5-4.9,3.8l-14.2,8.3l-6.2,2.2l-19.7-10.2l0.5-0.3
						c-1.7-0.8-2.6-2.6-3.5-4.2l-1.3,0.8l-0.8,0.2v4.6l0,0c0,0.9,0.6,1.8,1.7,2.4l19.8,11.4c2.3,1.3,6.1,1.3,8.4,0l19.8-11.4
						c1.1-0.7,1.7-1.5,1.7-2.4C385.3,244.3,385.3,244.3,385.3,244.3L385.3,244.3z"/>
					<path class="st13" d="M379.2,242.9l-14.2,8.3l-5.4,1.9v6.1c1.5,0,3-0.3,4.2-1l19.8-11.4c1.1-0.7,1.7-1.5,1.7-2.4
						c0,0,0-0.1,0-0.1l0,0v-4.5l-1.1-0.6h-0.1C383.7,241.2,381.2,242.6,379.2,242.9z"/>
					<g>
						<linearGradient id="SVGID_30_" gradientUnits="userSpaceOnUse" x1="333.9004" y1="239.7688" x2="385.3361" y2="239.7688">
							<stop  offset="0" style="stop-color:#E9E9FD"/>
							<stop  offset="0.3601" style="stop-color:#D3D2F9"/>
							<stop  offset="0.7062" style="stop-color:#C5C4F7"/>
							<stop  offset="1" style="stop-color:#C0BFF6"/>
						</linearGradient>
						<path class="st38" d="M355.4,253.6l-19.8-11.4c-2.3-1.3-2.3-3.5,0-4.9l19.8-11.4c2.3-1.3,6.1-1.3,8.4,0l19.8,11.4
							c2.3,1.3,2.3,3.5,0,4.8l-19.8,11.4C361.5,255,357.7,255,355.4,253.6z"/>
					</g>
					<g>
						<path class="st22" d="M359.6,251.5c-1.2,0-2.4-0.3-3.4-0.8l-15.5-8.9c-0.9-0.5-1.4-1.3-1.4-2c0-0.8,0.5-1.5,1.4-2l15.5-8.9
							c1.9-1.1,4.9-1.1,6.7,0l15.5,8.9c0.9,0.5,1.4,1.3,1.4,2c0,0.8-0.5,1.5-1.4,2l-15.5,8.9C362.1,251.3,360.8,251.5,359.6,251.5z
							 M359.6,228.3c-1.2,0-2.3,0.3-3.2,0.8L341,238c-0.8,0.5-1.3,1.1-1.3,1.7c0,0.7,0.5,1.3,1.3,1.7l15.5,8.9c1.8,1,4.6,1,6.4,0
							l15.5-8.9c0.8-0.5,1.3-1.1,1.3-1.7c0-0.7-0.5-1.3-1.3-1.7l-15.5-8.9C361.9,228.6,360.8,228.3,359.6,228.3z"/>
					</g>
					<g>
						<path class="st3" d="M383.6,242.2l-19.8,11.4c-2.3,1.3-6.1,1.3-8.4,0l-19.8-11.4c-1-0.6-1.6-1.4-1.7-2.1c-0.1,1,0.4,2,1.7,2.7
							l19.8,11.4c2.3,1.3,6.1,1.3,8.4,0l19.8-11.4c1.3-0.7,1.9-1.7,1.7-2.7C385.2,240.8,384.6,241.6,383.6,242.2z"/>
					</g>
				</g>
			</g>
		</g>
	</g>
</g>
<g class="st6">
	<linearGradient id="SVGID_31_" gradientUnits="userSpaceOnUse" x1="141.2846" y1="78.9958" x2="182.0944" y2="102.5573">
		<stop  offset="0" style="stop-color:#BCBEFF"/>
		<stop  offset="0.2271" style="stop-color:#AAADF8"/>
		<stop  offset="0.6802" style="stop-color:#7C83E5"/>
		<stop  offset="1" style="stop-color:#5761D7"/>
	</linearGradient>
	<path class="st39" d="M187.6,92.4v-4.5l-1.2-0.7c-0.3,2.1-2.8,3.5-4.9,3.8l-14.2,8.3l-6.2,2.2l-19.7-10.2l0.5-0.3
		c-1.7-0.8-2.6-2.6-3.5-4.2l-1.3,0.8l-0.8,0.2v4.6l0,0c0,0.9,0.6,1.8,1.7,2.4l19.8,11.4c2.3,1.3,6.1,1.3,8.4,0l19.8-11.4
		c1.1-0.7,1.7-1.5,1.7-2.4C187.6,92.5,187.6,92.4,187.6,92.4L187.6,92.4z"/>
	<path class="st13" d="M181.4,91l-14.2,8.3l-5.4,1.9v6.1c1.5,0,3-0.3,4.2-1l19.8-11.4c1.1-0.7,1.7-1.5,1.7-2.4c0,0,0-0.1,0-0.1l0,0
		v-4.5l-1.1-0.6h-0.1C186,89.4,183.5,90.7,181.4,91z"/>
	<g>
		<linearGradient id="SVGID_32_" gradientUnits="userSpaceOnUse" x1="136.1675" y1="87.902" x2="187.6032" y2="87.902">
			<stop  offset="0" style="stop-color:#E9E9FD"/>
			<stop  offset="0.3601" style="stop-color:#D3D2F9"/>
			<stop  offset="0.7062" style="stop-color:#C5C4F7"/>
			<stop  offset="1" style="stop-color:#C0BFF6"/>
		</linearGradient>
		<path class="st40" d="M157.7,101.7l-19.8-11.4c-2.3-1.3-2.3-3.5,0-4.9l19.8-11.4c2.3-1.3,6.1-1.3,8.4,0l19.8,11.4
			c2.3,1.3,2.3,3.5,0,4.8l-19.8,11.4C163.8,103.1,160,103.1,157.7,101.7z"/>
	</g>
	<g class="st6">
		<path class="st15" d="M157.7,101.7l-19.8-11.4c-2.3-1.3-2.3-3.5,0-4.9l19.8-11.4c2.3-1.3,6.1-1.3,8.4,0l19.8,11.4
			c2.3,1.3,2.3,3.5,0,4.8l-19.8,11.4C163.8,103.1,160,103.1,157.7,101.7z"/>
	</g>
</g>
<g>
	<g>
		<path class="st0" d="M161.9,87.4c-1.4,0-2.7-0.3-3.7-0.9L138.4,75c-1-0.6-1.6-1.4-1.6-2.3c0-0.9,0.6-1.7,1.6-2.3l19.8-11.4
			c2.1-1.2,5.4-1.2,7.5,0l19.8,11.4c1,0.6,1.6,1.4,1.6,2.3c0,0.9-0.6,1.7-1.6,2.3l-19.8,11.4C164.6,87.1,163.2,87.4,161.9,87.4z
			 M161.9,58.6c-1.3,0-2.6,0.3-3.6,0.8l-19.8,11.4c-0.9,0.5-1.4,1.2-1.4,2c0,0.7,0.5,1.4,1.4,2l19.8,11.4c2,1.1,5.1,1.1,7.1,0
			l19.8-11.4c0.9-0.5,1.4-1.2,1.4-2c0-0.7-0.5-1.4-1.4-2l-19.8-11.4C164.5,58.8,163.2,58.6,161.9,58.6z"/>
		<g>
			<path class="st11" d="M187.6,68.4v-6.8l-1.2-0.7c-0.3,2.1-2.8,3.5-4.9,3.8L167.3,73l-6.2,2.2l-19.7-10.2l0.5-0.3
				c-1.7-0.8-2.6-2.6-3.5-4.2l-1.3,0.8l-0.8,0.2v6.9l0,0c0,0.9,0.6,1.8,1.7,2.4l19.8,11.4c2.3,1.3,6.1,1.3,8.4,0l19.8-11.4
				c1.1-0.7,1.7-1.5,1.7-2.4C187.6,68.5,187.6,68.4,187.6,68.4L187.6,68.4z"/>
			<g>
				<g>
					<linearGradient id="SVGID_33_" gradientUnits="userSpaceOnUse" x1="141.2846" y1="48.9958" x2="182.0944" y2="72.5573">
						<stop  offset="0" style="stop-color:#BCBEFF"/>
						<stop  offset="0.2271" style="stop-color:#AAADF8"/>
						<stop  offset="0.6802" style="stop-color:#7C83E5"/>
						<stop  offset="1" style="stop-color:#5761D7"/>
					</linearGradient>
					<path class="st41" d="M187.6,62.4v-4.5l-1.2-0.7c-0.3,2.1-2.8,3.5-4.9,3.8l-14.2,8.3l-6.2,2.2l-19.7-10.2l0.5-0.3
						c-1.7-0.8-2.6-2.6-3.5-4.2l-1.3,0.8l-0.8,0.2v4.6l0,0c0,0.9,0.6,1.8,1.7,2.4l19.8,11.4c2.3,1.3,6.1,1.3,8.4,0l19.8-11.4
						c1.1-0.7,1.7-1.5,1.7-2.4C187.6,62.5,187.6,62.4,187.6,62.4L187.6,62.4z"/>
					<path class="st13" d="M181.4,61l-14.2,8.3l-5.4,1.9v6.1c1.5,0,3-0.3,4.2-1l19.8-11.4c1.1-0.7,1.7-1.5,1.7-2.4c0,0,0-0.1,0-0.1
						l0,0v-4.5l-1.1-0.6h-0.1C186,59.4,183.5,60.7,181.4,61z"/>
					<g>
						<linearGradient id="SVGID_34_" gradientUnits="userSpaceOnUse" x1="136.1675" y1="57.902" x2="187.6032" y2="57.902">
							<stop  offset="0" style="stop-color:#E9E9FD"/>
							<stop  offset="0.3601" style="stop-color:#D3D2F9"/>
							<stop  offset="0.7062" style="stop-color:#C5C4F7"/>
							<stop  offset="1" style="stop-color:#C0BFF6"/>
						</linearGradient>
						<path class="st42" d="M157.7,71.7l-19.8-11.4c-2.3-1.3-2.3-3.5,0-4.9l19.8-11.4c2.3-1.3,6.1-1.3,8.4,0l19.8,11.4
							c2.3,1.3,2.3,3.5,0,4.8l-19.8,11.4C163.8,73.1,160,73.1,157.7,71.7z"/>
					</g>
					<g>
						<path class="st22" d="M161.9,69.7c-1.2,0-2.4-0.3-3.4-0.8h0l-15.5-8.9c-0.9-0.5-1.4-1.3-1.4-2c0-0.8,0.5-1.5,1.4-2l15.5-8.9
							c1.9-1.1,4.9-1.1,6.7,0l15.5,8.9c0.9,0.5,1.4,1.3,1.4,2c0,0.8-0.5,1.5-1.4,2l-15.5,8.9C164.3,69.4,163.1,69.7,161.9,69.7z
							 M161.9,46.5c-1.2,0-2.3,0.3-3.2,0.8l-15.5,8.9c-0.8,0.5-1.3,1.1-1.3,1.7c0,0.7,0.5,1.3,1.3,1.7l15.5,8.9c1.8,1,4.6,1,6.4,0
							l15.5-8.9c0.8-0.5,1.3-1.1,1.3-1.7c0-0.7-0.5-1.3-1.3-1.7l-15.5-8.9C164.2,46.7,163,46.5,161.9,46.5z"/>
					</g>
					<g>
						<path class="st3" d="M185.9,60.3l-19.8,11.4c-2.3,1.3-6.1,1.3-8.4,0l-19.8-11.4c-1-0.6-1.6-1.4-1.7-2.1c-0.1,1,0.4,2,1.7,2.7
							l19.8,11.4c2.3,1.3,6.1,1.3,8.4,0l19.8-11.4c1.3-0.7,1.9-1.7,1.7-2.7C187.5,59,186.9,59.7,185.9,60.3z"/>
					</g>
				</g>
			</g>
		</g>
	</g>
</g>
</svg>
