<?xml version="1.0" encoding="utf-8"?>
<!-- Generator: Adobe Illustrator 19.0.0, SVG Export Plug-In . SVG Version: 6.00 Build 0)  -->
<svg version="1.1" id="Ñëîé_1" xmlns="http://www.w3.org/2000/svg" xmlns:xlink="http://www.w3.org/1999/xlink" x="0px" y="0px"
	 viewBox="0 0 600 350" style="enable-background:new 0 0 600 350;" xml:space="preserve">
<style type="text/css">
	.st0{fill:#42E8E0;}
	.st1{fill:url(#SVGID_1_);}
	.st2{fill:#24126A;}
	.st3{fill:#FFFFFF;}
	.st4{opacity:0.51;fill:#453C9E;}
	.st5{opacity:0.8;fill:url(#SVGID_2_);}
	.st6{opacity:0.3;}
	.st7{clip-path:url(#SVGID_5_);fill:#42E8E0;}
	.st8{clip-path:url(#SVGID_5_);fill:#9FFFF8;}
	.st9{opacity:0.4;fill:#24126A;}
	.st10{opacity:0.4;fill:#42E8E0;}
	.st11{fill:url(#SVGID_6_);}
	.st12{opacity:0.3;fill:#0F054C;}
	.st13{fill:url(#SVGID_7_);}
	.st14{fill:#0F054C;}
	.st15{fill:url(#SVGID_8_);}
	.st16{fill:url(#SVGID_9_);}
	.st17{fill:url(#SVGID_10_);}
	.st18{fill:url(#SVGID_11_);}
	.st19{fill:url(#SVGID_12_);}
	.st20{fill:url(#SVGID_13_);}
	.st21{fill:#5351AF;}
	.st22{fill:url(#SVGID_14_);}
	.st23{fill:url(#SVGID_15_);}
	.st24{fill:url(#SVGID_16_);}
	.st25{fill:url(#SVGID_17_);}
	.st26{opacity:0.2;}
	.st27{opacity:0;}
	.st28{fill:url(#SVGID_18_);}
	.st29{fill:url(#SVGID_19_);}
	.st30{fill:url(#SVGID_20_);}
	.st31{fill:#BCBEC0;}
	.st32{fill:url(#SVGID_21_);}
	.st33{fill:url(#SVGID_22_);}
	.st34{fill:url(#SVGID_23_);}
	.st35{fill:#2AF6FF;}
	.st36{opacity:0;fill:#2AF6FF;}
	.st37{opacity:0.3;fill:#2AF6FF;}
	.st38{fill:url(#SVGID_24_);}
	.st39{fill:url(#SVGID_25_);}
	.st40{fill:url(#SVGID_26_);}
	.st41{fill:url(#SVGID_27_);}
	.st42{fill:url(#SVGID_28_);}
	.st43{fill:#0D3885;}
	.st44{fill:#0050F0;}
	.st45{fill:#5A94FD;}
	.st46{font-family:'BebasNeue';}
	.st47{font-size:19.8223px;}
</style>
<g>
	<path class="st0" d="M226.4,275.8c-2.6,0-5.2-0.5-7-1.6L127.3,221c-1.8-1.1-2.9-2.5-2.9-4.2c0-2,1.5-3.9,4-5.4l175.6-101.4
		c4.8-2.8,12-3.1,16.2-0.7l92.1,53.2c1.8,1.1,2.9,2.5,2.9,4.2c0,2-1.5,3.9-4,5.4L235.6,273.5C233,275,229.6,275.8,226.4,275.8z
		 M219.6,273.8c4,2.3,11.1,2,15.8-0.7l175.6-101.4c2.4-1.4,3.8-3.2,3.8-5c0-1.5-0.9-2.8-2.7-3.8L320,109.8c-4-2.3-11.1-2-15.8,0.7
		L128.7,211.8c-2.4,1.4-3.8,3.2-3.8,5c0,1.5,0.9,2.8,2.7,3.8L219.6,273.8z"/>
</g>
<g>
	<linearGradient id="SVGID_1_" gradientUnits="userSpaceOnUse" x1="124.6641" y1="177.5013" x2="414.9532" y2="177.5013">
		<stop  offset="0" style="stop-color:#BCBEFF"/>
		<stop  offset="0.151" style="stop-color:#A3A7F5"/>
		<stop  offset="0.3866" style="stop-color:#8289E8"/>
		<stop  offset="0.6124" style="stop-color:#6A73DF"/>
		<stop  offset="0.8221" style="stop-color:#5C66D9"/>
		<stop  offset="1" style="stop-color:#5761D7"/>
	</linearGradient>
	<path class="st1" d="M415,142.2l-13.2,2.3l-81.6-47.1c-4.1-2.4-11.2-2.1-16,0.7L148,188.1l-23.4,4l0,8.3l0,0c0,1.5,0.9,3,2.8,4
		l92.1,53.2c4.1,2.4,11.2,2.1,16-0.7L411,155.6c2.5-1.5,3.9-3.3,3.9-5.1l0,0V142.2z"/>
	<path class="st2" d="M219.5,249.3l-92.1-53.2c-4.1-2.4-3.6-6.5,1.1-9.2L304.2,85.6c4.7-2.7,11.9-3,16-0.7l92.1,53.2
		c4.1,2.4,3.6,6.5-1.1,9.2L235.5,248.6C230.7,251.4,223.6,251.7,219.5,249.3z"/>
	<path class="st3" d="M411,147.3L235.5,248.6c-4.7,2.7-11.9,3-16,0.7l-92.1-53.2c-1.6-0.9-2.5-2.2-2.7-3.5c-0.3,1.7,0.6,3.4,2.7,4.6
		l92.1,53.2c4.1,2.4,11.2,2.1,16-0.7L411,148.3c2.8-1.6,4.1-3.8,3.9-5.7C414.7,144.3,413.4,145.9,411,147.3z"/>
	<path class="st4" d="M219.7,247.2L130.9,196c-4-2.3-3.5-6.3,1.1-8.9l172.3-99.5c4.6-2.6,11.5-2.9,15.5-0.6l88.8,51.3
		c4,2.3,3.5,6.3-1.1,8.9l-172.3,99.5C230.6,249.2,223.6,249.5,219.7,247.2z"/>
</g>
<g>
	<linearGradient id="SVGID_2_" gradientUnits="userSpaceOnUse" x1="310.2417" y1="218.5698" x2="229.2095" y2="111.0364">
		<stop  offset="0" style="stop-color:#42E8E0"/>
		<stop  offset="0.1055" style="stop-color:#37B6BF"/>
		<stop  offset="0.2197" style="stop-color:#2C87A1"/>
		<stop  offset="0.338" style="stop-color:#235F87"/>
		<stop  offset="0.4587" style="stop-color:#1C3F72"/>
		<stop  offset="0.5824" style="stop-color:#162561"/>
		<stop  offset="0.7105" style="stop-color:#121355"/>
		<stop  offset="0.8458" style="stop-color:#10084E"/>
		<stop  offset="1" style="stop-color:#0F054C"/>
	</linearGradient>
	<path class="st5" d="M226.4,246.8c-2.6,0-5-0.5-6.9-1.6l-88.8-51.3c-1.8-1-2.8-2.5-2.8-4.1c0-1.9,1.4-3.9,3.9-5.3L304.2,85
		c4.6-2.7,11.7-3,15.7-0.6l88.8,51.3c1.8,1,2.8,2.5,2.8,4.1c0,1.9-1.4,3.9-3.9,5.3l-172.3,99.5C232.7,246,229.5,246.8,226.4,246.8z
		 M219.8,244.7c3.9,2.2,10.7,2,15.2-0.6l172.3-99.5c2.3-1.3,3.6-3.1,3.6-4.8c0-1.4-0.9-2.7-2.5-3.6l-88.8-51.3
		c-3.9-2.2-10.7-2-15.2,0.6L132.1,185c-2.3,1.3-3.6,3.1-3.6,4.8c0,1.4,0.9,2.7,2.5,3.6L219.8,244.7z"/>
</g>
<g class="st6">
	<defs>
		<path id="SVGID_3_" class="st6" d="M219.7,245l-88.8-51.3c-4-2.3-3.5-6.3,1.1-8.9l172.3-99.5c4.6-2.6,11.5-2.9,15.5-0.6l88.8,51.3
			c4,2.3,3.5,6.3-1.1,8.9l-172.3,99.5C230.6,247,223.6,247.2,219.7,245z"/>
	</defs>
	<radialGradient id="SVGID_4_" cx="227.271" cy="181.5489" r="227.2109" gradientUnits="userSpaceOnUse">
		<stop  offset="0" style="stop-color:#42E8E0"/>
		<stop  offset="0.1055" style="stop-color:#37B6BF"/>
		<stop  offset="0.2197" style="stop-color:#2C87A1"/>
		<stop  offset="0.338" style="stop-color:#235F87"/>
		<stop  offset="0.4587" style="stop-color:#1C3F72"/>
		<stop  offset="0.5824" style="stop-color:#162561"/>
		<stop  offset="0.7105" style="stop-color:#121355"/>
		<stop  offset="0.8458" style="stop-color:#10084E"/>
		<stop  offset="1" style="stop-color:#0F054C"/>
	</radialGradient>
	<use xlink:href="#SVGID_3_"  style="overflow:visible;opacity:0.5;fill:url(#SVGID_4_);"/>
	<clipPath id="SVGID_5_">
		<use xlink:href="#SVGID_3_"  style="overflow:visible;opacity:0.5;"/>
	</clipPath>
	<path class="st7" d="M165.4,189.6v64.9l0,0c0,1.4,0.9,2.7,2.6,3.8l53.9,31.1c3.9,2.2,10.7,2,15.1-0.6l0,0c2.5-1.5,3.8-3.3,3.7-5.1
		l0,0v-64.9L165.4,189.6z"/>
	<path class="st8" d="M221.9,224.5L168,193.4c-3.9-2.2-3.4-6.2,1.1-8.7l0,0c4.5-2.6,11.3-2.9,15.1-0.6l53.9,31.1
		c3.9,2.2,3.4,6.2-1.1,8.7v0C232.6,226.5,225.8,226.8,221.9,224.5z"/>
</g>
<path class="st9" d="M221.9,224.5L168,193.4c-3.9-2.2-3.4-6.2,1.1-8.7l0,0c4.5-2.6,11.3-2.9,15.1-0.6l53.9,31.1
	c3.9,2.2,3.4,6.2-1.1,8.7v0C232.6,226.5,225.8,226.8,221.9,224.5z"/>
<g>
	<path class="st9" d="M309.3,180.4l-61.5-35.5c-4.2-2.4-3.7-6.6,1.2-9.4l0,0c4.8-2.8,12.1-3.1,16.3-0.7l61.5,35.5
		c4.2,2.4,3.7,6.6-1.2,9.4h0C320.8,182.5,313.5,182.8,309.3,180.4z"/>
	<path class="st10" d="M309.3,176l-61.5-35.5c-4.2-2.4-3.7-6.6,1.2-9.4l0,0c4.8-2.8,12.1-3.1,16.3-0.7l61.5,35.5
		c4.2,2.4,3.7,6.6-1.2,9.4h0C320.8,178.1,313.5,178.4,309.3,176z"/>
	<path class="st0" d="M316.4,177.8c-2.7,0-5.3-0.5-7.2-1.7l-61.5-35.5c-1.9-1.1-2.9-2.6-2.9-4.3c0-2,1.5-4,4.1-5.5
		c4.9-2.8,12.3-3.1,16.5-0.7l61.5,35.5c1.9,1.1,2.9,2.6,2.9,4.3c0,2-1.5,4-4.1,5.5C323.1,177,319.7,177.8,316.4,177.8z M309.4,175.8
		c4.1,2.4,11.4,2.1,16.1-0.7c2.5-1.4,3.9-3.3,3.9-5.2c0-1.5-1-2.9-2.7-3.9l-61.5-35.5c-4.1-2.4-11.4-2.1-16.1,0.7
		c-2.5,1.4-3.9,3.3-3.9,5.2c0,1.5,1,2.9,2.7,3.9L309.4,175.8z"/>
	<g>
		<path class="st10" d="M320.5,172.6c-1.4,0.8-3.8,0.8-5.2,0c-1.4-0.8-1.4-2.2,0-3c1.4-0.8,3.8-0.8,5.2,0
			C321.9,170.4,321.9,171.8,320.5,172.6z"/>
		<path class="st0" d="M317.9,173.4c-1,0-1.9-0.2-2.7-0.6c-0.7-0.4-1.1-1-1.1-1.6c0-0.6,0.4-1.2,1.1-1.6c1.5-0.8,3.9-0.8,5.3,0
			c0.7,0.4,1.1,1,1.1,1.6c0,0.6-0.4,1.2-1.1,1.6C319.8,173.2,318.9,173.4,317.9,173.4z M317.9,169.1c-0.9,0-1.8,0.2-2.5,0.6
			c-0.6,0.4-1,0.9-1,1.4c0,0.5,0.4,1,1,1.4c1.4,0.8,3.7,0.8,5.1,0c0.6-0.4,1-0.9,1-1.4c0-0.5-0.4-1-1-1.4
			C319.7,169.3,318.8,169.1,317.9,169.1z"/>
		<path class="st10" d="M311.9,167.6c-1.4,0.8-3.8,0.8-5.2,0c-1.4-0.8-1.4-2.2,0-3c1.4-0.8,3.8-0.8,5.2,0
			C313.3,165.4,313.3,166.8,311.9,167.6z"/>
		<path class="st0" d="M309.3,166.7c-1,0-1.9-0.2-2.7-0.6c-0.7-0.4-1.1-1-1.1-1.6c0-0.6,0.4-1.2,1.1-1.6c1.5-0.8,3.9-0.8,5.3,0
			c0.7,0.4,1.1,1,1.1,1.6c0,0.6-0.4,1.2-1.1,1.6l0,0C311.2,166.5,310.2,166.7,309.3,166.7z M309.3,162.5c-0.9,0-1.8,0.2-2.5,0.6
			c-0.6,0.4-1,0.9-1,1.4c0,0.5,0.4,1,1,1.4c1.4,0.8,3.7,0.8,5.1,0l0,0c0.6-0.4,1-0.9,1-1.4c0-0.5-0.4-1-1-1.4
			C311.1,162.7,310.2,162.5,309.3,162.5z"/>
		<path class="st0" d="M286.8,148.5c-1,0-1.9-0.2-2.7-0.6c-0.7-0.4-1.1-1-1.1-1.6c0-0.6,0.4-1.2,1.1-1.6c1.5-0.8,3.9-0.8,5.3,0
			c0.7,0.4,1.1,1,1.1,1.6c0,0.6-0.4,1.2-1.1,1.6l0,0C288.7,148.3,287.8,148.5,286.8,148.5z M286.8,144.3c-0.9,0-1.8,0.2-2.5,0.6
			c-0.6,0.4-1,0.9-1,1.4s0.4,1,1,1.4c1.4,0.8,3.7,0.8,5.1,0l0,0c0.6-0.4,1-0.9,1-1.4s-0.4-1-1-1.4
			C288.6,144.5,287.7,144.3,286.8,144.3z"/>
		<path class="st10" d="M289.4,155c-1.4,0.8-3.8,0.8-5.2,0c-1.4-0.8-1.4-2.2,0-3c1.4-0.8,3.8-0.8,5.2,0
			C290.8,152.9,290.8,154.2,289.4,155z"/>
		<path class="st0" d="M278.2,139.2c-1,0-1.9-0.2-2.7-0.6c-0.7-0.4-1.1-1-1.1-1.6c0-0.6,0.4-1.2,1.1-1.6c1.5-0.8,3.9-0.8,5.3,0
			c0.7,0.4,1.1,1,1.1,1.6c0,0.6-0.4,1.2-1.1,1.6C280.1,139,279.1,139.2,278.2,139.2z M278.2,135c-0.9,0-1.8,0.2-2.5,0.6
			c-0.6,0.4-1,0.9-1,1.4c0,0.5,0.4,1,1,1.4c1.4,0.8,3.7,0.8,5.1,0l0,0c0.6-0.4,1-0.9,1-1.4c0-0.5-0.4-1-1-1.4
			C280,135.2,279.1,135,278.2,135z"/>
		<path class="st10" d="M280.8,150.4c-1.4,0.8-3.8,0.8-5.2,0c-1.4-0.8-1.4-2.2,0-3c1.4-0.8,3.8-0.8,5.2,0
			C282.2,148.2,282.2,149.6,280.8,150.4z"/>
		<path class="st0" d="M269.5,127.9c-1,0-1.9-0.2-2.7-0.6c-0.7-0.4-1.1-1-1.1-1.6c0-0.6,0.4-1.2,1.1-1.6c1.5-0.8,3.9-0.8,5.3,0
			c0.7,0.4,1.1,1,1.1,1.6c0,0.6-0.4,1.2-1.1,1.6l0,0C271.4,127.7,270.5,127.9,269.5,127.9z M269.5,123.6c-0.9,0-1.8,0.2-2.5,0.6
			c-0.6,0.4-1,0.9-1,1.4c0,0.5,0.4,1,1,1.4c1.4,0.8,3.7,0.8,5.1,0l0,0c0.6-0.4,1-0.9,1-1.4c0-0.5-0.4-1-1-1.4
			C271.3,123.9,270.4,123.6,269.5,123.6z"/>
		<path class="st10" d="M272,145.6c-1.4,0.8-3.8,0.8-5.2,0c-1.4-0.8-1.4-2.2,0-3c1.4-0.8,3.8-0.8,5.2,0
			C273.4,143.5,273.4,144.8,272,145.6z"/>
		<path class="st10" d="M296.7,156.1l7.5,4.3c1.2,0.7,1.1,2-0.3,2.8l0,0c-1.4,0.8-3.6,0.9-4.8,0.2l-7.5-4.3c-1.2-0.7-1.1-2,0.3-2.8
			l0,0C293.3,155.5,295.5,155.4,296.7,156.1z"/>
		<path class="st0" d="M301.2,160.6c-0.8,0-1.6-0.2-2.2-0.5l-7.5-4.3c-0.6-0.3-0.9-0.8-0.9-1.3c0-0.6,0.5-1.2,1.3-1.7
			c1.5-0.8,3.7-0.9,5-0.2l7.5,4.3c0.6,0.3,0.9,0.8,0.9,1.3c0,0.6-0.5,1.2-1.3,1.7C303.2,160.4,302.1,160.6,301.2,160.6z
			 M294.6,152.3c-0.9,0-1.9,0.2-2.7,0.7c-0.7,0.4-1.1,0.9-1.1,1.5c0,0.4,0.3,0.8,0.8,1.1l7.5,4.3c1.2,0.7,3.3,0.6,4.7-0.2
			c0.7-0.4,1.1-0.9,1.1-1.5c0-0.4-0.3-0.8-0.8-1.1l-7.5-4.3C296.1,152.4,295.4,152.3,294.6,152.3z"/>
	</g>
</g>
<path class="st9" d="M389.6,144.4c-1.4,0.8-3.6,0.8-4.9,0c-1.4-0.8-1.4-2.1,0-2.8c1.4-0.8,3.6-0.8,4.9,0
	C391,142.4,391,143.7,389.6,144.4z"/>
<path class="st9" d="M370.9,130.8l9.6,5.5c1.2,0.7,1,1.9-0.3,2.6l0,0c-1.4,0.8-3.4,0.9-4.6,0.2l-9.6-5.5c-1.2-0.7-1-1.9,0.3-2.6l0,0
	C367.6,130.2,369.7,130.1,370.9,130.8z"/>
<path class="st9" d="M316.9,99l9.6,5.5c1.2,0.7,1,1.9-0.3,2.6v0c-1.4,0.8-3.4,0.9-4.6,0.2l-9.6-5.5c-1.2-0.7-1-1.9,0.3-2.6l0,0
	C313.7,98.4,315.7,98.3,316.9,99z"/>
<path class="st0" d="M389.6,141c-1.4,0.8-3.6,0.8-4.9,0s-1.4-2.1,0-2.8c1.4-0.8,3.6-0.8,4.9,0C391,138.9,391,140.2,389.6,141z"/>
<path class="st0" d="M370.9,127.3l9.6,5.5c1.2,0.7,1,1.9-0.3,2.6l0,0c-1.4,0.8-3.4,0.9-4.6,0.2l-9.6-5.5c-1.2-0.7-1-1.9,0.3-2.6l0,0
	C367.6,126.8,369.7,126.7,370.9,127.3z"/>
<path class="st0" d="M316.9,95.5l9.6,5.5c1.2,0.7,1,1.9-0.3,2.6l0,0c-1.4,0.8-3.4,0.9-4.6,0.2l-9.6-5.5c-1.2-0.7-1-1.9,0.3-2.6h0
	C313.7,94.9,315.7,94.8,316.9,95.5z"/>
<g class="st6">
	<linearGradient id="SVGID_6_" gradientUnits="userSpaceOnUse" x1="397.1167" y1="248.6873" x2="437.9264" y2="272.2488">
		<stop  offset="0" style="stop-color:#BCBEFF"/>
		<stop  offset="0.2271" style="stop-color:#AAADF8"/>
		<stop  offset="0.6802" style="stop-color:#7C83E5"/>
		<stop  offset="1" style="stop-color:#5761D7"/>
	</linearGradient>
	<path class="st11" d="M443.4,262.1v-4.5l-1.2-0.7c-0.3,2.1-2.8,3.5-4.9,3.8l-14.2,8.3l-6.2,2.2L397.2,261l0.5-0.3
		c-1.7-0.8-2.6-2.6-3.5-4.2l-1.3,0.8l-0.8,0.2v4.6l0,0c0,0.9,0.6,1.8,1.7,2.4l19.8,11.4c2.3,1.3,6.1,1.3,8.4,0l19.8-11.4
		c1.1-0.7,1.7-1.5,1.7-2.4C443.4,262.2,443.4,262.1,443.4,262.1L443.4,262.1z"/>
	<path class="st12" d="M437.3,260.7l-14.2,8.3l-5.4,1.9v6.1c1.5,0,3-0.3,4.2-1l19.8-11.4c1.1-0.7,1.7-1.5,1.7-2.4c0,0,0-0.1,0-0.1
		l0,0v-4.5l-1.1-0.6h-0.1C441.8,259,439.3,260.4,437.3,260.7z"/>
	<g>
		<linearGradient id="SVGID_7_" gradientUnits="userSpaceOnUse" x1="391.9995" y1="257.5934" x2="443.4352" y2="257.5934">
			<stop  offset="0" style="stop-color:#E9E9FD"/>
			<stop  offset="0.3601" style="stop-color:#D3D2F9"/>
			<stop  offset="0.7062" style="stop-color:#C5C4F7"/>
			<stop  offset="1" style="stop-color:#C0BFF6"/>
		</linearGradient>
		<path class="st13" d="M413.5,271.4L393.7,260c-2.3-1.3-2.3-3.5,0-4.9l19.8-11.4c2.3-1.3,6.1-1.3,8.4,0l19.8,11.4
			c2.3,1.3,2.3,3.5,0,4.8l-19.8,11.4C419.6,272.8,415.8,272.8,413.5,271.4z"/>
	</g>
	<g class="st6">
		<path class="st14" d="M413.5,271.4L393.7,260c-2.3-1.3-2.3-3.5,0-4.9l19.8-11.4c2.3-1.3,6.1-1.3,8.4,0l19.8,11.4
			c2.3,1.3,2.3,3.5,0,4.8l-19.8,11.4C419.6,272.8,415.8,272.8,413.5,271.4z"/>
	</g>
</g>
<g>
	<g>
		<path class="st0" d="M417.7,257c-1.4,0-2.7-0.3-3.7-0.9l-19.8-11.4c-1-0.6-1.6-1.4-1.6-2.3s0.6-1.7,1.6-2.3l19.8-11.4
			c2.1-1.2,5.4-1.2,7.5,0l19.8,11.4c1,0.6,1.6,1.4,1.6,2.3c0,0.9-0.6,1.7-1.6,2.3l-19.8,11.4C420.4,256.7,419.1,257,417.7,257z
			 M417.7,228.2c-1.3,0-2.6,0.3-3.6,0.8l-19.8,11.4c-0.9,0.5-1.4,1.2-1.4,2s0.5,1.4,1.4,2l19.8,11.4c2,1.1,5.1,1.1,7.1,0l19.8-11.4
			c0.9-0.5,1.4-1.2,1.4-2c0-0.7-0.5-1.4-1.4-2l-19.8-11.4C420.3,228.5,419,228.2,417.7,228.2z"/>
		<g>
			<path class="st10" d="M443.4,238.1v-6.8l-1.2-0.7c-0.3,2.1-2.8,3.5-4.9,3.8l-14.2,8.3l-6.2,2.2l-19.7-10.2l0.5-0.3
				c-1.7-0.8-2.6-2.6-3.5-4.2l-1.3,0.8l-0.8,0.2v6.9l0,0c0,0.9,0.6,1.8,1.7,2.4l19.8,11.4c2.3,1.3,6.1,1.3,8.4,0l19.8-11.4
				c1.1-0.7,1.7-1.5,1.7-2.4C443.4,238.1,443.4,238.1,443.4,238.1L443.4,238.1z"/>
			<g>
				<g>
					<linearGradient id="SVGID_8_" gradientUnits="userSpaceOnUse" x1="397.1166" y1="218.649" x2="437.9264" y2="242.2106">
						<stop  offset="0" style="stop-color:#BCBEFF"/>
						<stop  offset="0.2271" style="stop-color:#AAADF8"/>
						<stop  offset="0.6802" style="stop-color:#7C83E5"/>
						<stop  offset="1" style="stop-color:#5761D7"/>
					</linearGradient>
					<path class="st15" d="M443.4,232v-4.5l-1.2-0.7c-0.3,2.1-2.8,3.5-4.9,3.8l-14.2,8.3l-6.2,2.2L397.2,231l0.5-0.3
						c-1.7-0.8-2.6-2.6-3.5-4.2l-1.3,0.8l-0.8,0.2v4.6l0,0c0,0.9,0.6,1.8,1.7,2.4l19.8,11.4c2.3,1.3,6.1,1.3,8.4,0l19.8-11.4
						c1.1-0.7,1.7-1.5,1.7-2.4C443.4,232.1,443.4,232.1,443.4,232L443.4,232z"/>
					<path class="st12" d="M437.3,230.7l-14.2,8.3l-5.4,1.9v6.1c1.5,0,3-0.3,4.2-1l19.8-11.4c1.1-0.7,1.7-1.5,1.7-2.4
						c0,0,0-0.1,0-0.1l0,0v-4.5l-1.1-0.6h-0.1C441.8,229,439.3,230.4,437.3,230.7z"/>
					<g>
						<linearGradient id="SVGID_9_" gradientUnits="userSpaceOnUse" x1="391.9995" y1="227.5552" x2="443.4352" y2="227.5552">
							<stop  offset="0" style="stop-color:#E9E9FD"/>
							<stop  offset="0.3601" style="stop-color:#D3D2F9"/>
							<stop  offset="0.7062" style="stop-color:#C5C4F7"/>
							<stop  offset="1" style="stop-color:#C0BFF6"/>
						</linearGradient>
						<path class="st16" d="M413.5,241.4L393.7,230c-2.3-1.3-2.3-3.5,0-4.9l19.8-11.4c2.3-1.3,6.1-1.3,8.4,0l19.8,11.4
							c2.3,1.3,2.3,3.5,0,4.9l-19.8,11.4C419.6,242.7,415.8,242.7,413.5,241.4z"/>
					</g>
					<g>
						<path class="st3" d="M441.7,230l-19.8,11.4c-2.3,1.3-6.1,1.3-8.4,0L393.7,230c-1-0.6-1.6-1.4-1.7-2.1c-0.1,1,0.4,2,1.7,2.7
							l19.8,11.4c2.3,1.3,6.1,1.3,8.4,0l19.8-11.4c1.3-0.7,1.9-1.7,1.7-2.7C443.3,228.6,442.7,229.4,441.7,230z"/>
					</g>
				</g>
			</g>
		</g>
	</g>
</g>
<g class="st6">
	<linearGradient id="SVGID_10_" gradientUnits="userSpaceOnUse" x1="309.0478" y1="275.3394" x2="349.8575" y2="298.9009">
		<stop  offset="0" style="stop-color:#BCBEFF"/>
		<stop  offset="0.2271" style="stop-color:#AAADF8"/>
		<stop  offset="0.6802" style="stop-color:#7C83E5"/>
		<stop  offset="1" style="stop-color:#5761D7"/>
	</linearGradient>
	<path class="st17" d="M355.4,288.7v-4.5l-1.2-0.7c-0.4,2.1-2.8,3.5-4.9,3.8l-14.2,8.3l-6.2,2.2l-19.7-10.2l0.5-0.3
		c-1.7-0.8-2.6-2.6-3.5-4.2l-1.3,0.8l-0.8,0.2v4.6l0,0c0,0.9,0.6,1.8,1.7,2.4l19.8,11.4c2.3,1.3,6.1,1.3,8.4,0l19.8-11.4
		c1.1-0.7,1.7-1.5,1.7-2.4C355.4,288.8,355.4,288.8,355.4,288.7L355.4,288.7z"/>
	<path class="st12" d="M349.2,287.4l-14.2,8.3l-5.4,1.9v6.1c1.5,0,3-0.3,4.2-1l19.8-11.4c1.1-0.7,1.7-1.5,1.7-2.4c0,0,0-0.1,0-0.1
		l0,0v-4.5l-1.1-0.6h-0.1C353.7,285.7,351.3,287.1,349.2,287.4z"/>
	<g>
		<linearGradient id="SVGID_11_" gradientUnits="userSpaceOnUse" x1="303.9306" y1="284.2455" x2="355.3662" y2="284.2455">
			<stop  offset="0" style="stop-color:#E9E9FD"/>
			<stop  offset="0.3601" style="stop-color:#D3D2F9"/>
			<stop  offset="0.7062" style="stop-color:#C5C4F7"/>
			<stop  offset="1" style="stop-color:#C0BFF6"/>
		</linearGradient>
		<path class="st18" d="M325.4,298.1l-19.8-11.4c-2.3-1.3-2.3-3.5,0-4.9l19.8-11.4c2.3-1.3,6.1-1.3,8.4,0l19.8,11.4
			c2.3,1.3,2.3,3.5,0,4.9l-19.8,11.4C331.5,299.4,327.8,299.4,325.4,298.1z"/>
	</g>
	<g class="st6">
		<path class="st14" d="M325.4,298.1l-19.8-11.4c-2.3-1.3-2.3-3.5,0-4.9l19.8-11.4c2.3-1.3,6.1-1.3,8.4,0l19.8,11.4
			c2.3,1.3,2.3,3.5,0,4.9l-19.8,11.4C331.5,299.4,327.8,299.4,325.4,298.1z"/>
	</g>
</g>
<g>
	<g>
		<path class="st0" d="M329.6,281.5c-1.4,0-2.7-0.3-3.7-0.9l-19.8-11.4c-1-0.6-1.6-1.4-1.6-2.3c0-0.9,0.6-1.7,1.6-2.3l19.8-11.4
			c2.1-1.2,5.4-1.2,7.5,0l19.8,11.4c1,0.6,1.6,1.4,1.6,2.3c0,0.9-0.6,1.7-1.6,2.3l-19.8,11.4C332.3,281.2,331,281.5,329.6,281.5z
			 M326.1,280.3c2,1.1,5.1,1.1,7.1,0l19.8-11.4c0.9-0.5,1.4-1.2,1.4-2c0-0.7-0.5-1.4-1.4-2l-19.8-11.4c-2-1.1-5.1-1.1-7.1,0
			L306.3,265c-0.9,0.5-1.4,1.2-1.4,2c0,0.7,0.5,1.4,1.4,2L326.1,280.3z"/>
		<g>
			<path class="st10" d="M355.4,262.5v-6.8l-1.2-0.7c-0.4,2.1-2.8,3.5-4.9,3.8l-14.2,8.3l-6.2,2.2l-19.7-10.2l0.5-0.3
				c-1.7-0.8-2.6-2.6-3.5-4.2l-1.3,0.8l-0.8,0.2v6.9l0,0c0,0.9,0.6,1.8,1.7,2.4l19.8,11.4c2.3,1.3,6.1,1.3,8.4,0l19.8-11.4
				c1.1-0.7,1.7-1.5,1.7-2.4C355.4,262.6,355.4,262.6,355.4,262.5L355.4,262.5z"/>
			<g>
				<g>
					<linearGradient id="SVGID_12_" gradientUnits="userSpaceOnUse" x1="309.0478" y1="243.1212" x2="349.8575" y2="266.6827">
						<stop  offset="0" style="stop-color:#BCBEFF"/>
						<stop  offset="0.2271" style="stop-color:#AAADF8"/>
						<stop  offset="0.6802" style="stop-color:#7C83E5"/>
						<stop  offset="1" style="stop-color:#5761D7"/>
					</linearGradient>
					<path class="st19" d="M355.4,256.5V252l-1.2-0.7c-0.4,2.1-2.8,3.5-4.9,3.8l-14.2,8.3l-6.2,2.2l-19.7-10.2l0.5-0.3
						c-1.7-0.8-2.6-2.6-3.5-4.2l-1.3,0.8l-0.8,0.2v4.6l0,0c0,0.9,0.6,1.8,1.7,2.4l19.8,11.4c2.3,1.3,6.1,1.3,8.4,0l19.8-11.4
						c1.1-0.7,1.7-1.5,1.7-2.4C355.4,256.6,355.4,256.5,355.4,256.5L355.4,256.5z"/>
					<path class="st12" d="M349.2,255.1l-14.2,8.3l-5.4,1.9v6.1c1.5,0,3-0.3,4.2-1l19.8-11.4c1.1-0.7,1.7-1.5,1.7-2.4
						c0,0,0-0.1,0-0.1l0,0V252l-1.1-0.6h-0.1C353.7,253.5,351.3,254.8,349.2,255.1z"/>
					<g>
						<linearGradient id="SVGID_13_" gradientUnits="userSpaceOnUse" x1="303.9306" y1="252.0273" x2="355.3663" y2="252.0273">
							<stop  offset="0" style="stop-color:#E9E9FD"/>
							<stop  offset="0.3601" style="stop-color:#D3D2F9"/>
							<stop  offset="0.7062" style="stop-color:#C5C4F7"/>
							<stop  offset="1" style="stop-color:#C0BFF6"/>
						</linearGradient>
						<path class="st20" d="M325.4,265.9l-19.8-11.4c-2.3-1.3-2.3-3.5,0-4.9l19.8-11.4c2.3-1.3,6.1-1.3,8.4,0l19.8,11.4
							c2.3,1.3,2.3,3.5,0,4.8l-19.8,11.4C331.5,267.2,327.8,267.2,325.4,265.9z"/>
					</g>
					<g>
						<path class="st21" d="M329.6,263.8c-1.2,0-2.4-0.3-3.4-0.8l-15.5-8.9c-0.9-0.5-1.4-1.3-1.4-2c0-0.8,0.5-1.5,1.4-2l15.5-8.9
							c1.9-1.1,4.9-1.1,6.7,0l15.5,8.9c0.9,0.5,1.4,1.3,1.4,2c0,0.8-0.5,1.5-1.4,2L333,263C332.1,263.5,330.9,263.8,329.6,263.8z
							 M329.6,240.6c-1.2,0-2.3,0.3-3.2,0.8l-15.5,8.9c-0.8,0.5-1.3,1.1-1.3,1.7c0,0.7,0.5,1.3,1.3,1.7l15.5,8.9c1.8,1,4.6,1,6.4,0
							l15.5-8.9c0.8-0.5,1.3-1.1,1.3-1.7c0-0.7-0.5-1.3-1.3-1.7l-15.5-8.9C332,240.9,330.8,240.6,329.6,240.6z"/>
					</g>
					<g>
						<path class="st3" d="M353.6,254.5l-19.8,11.4c-2.3,1.3-6.1,1.3-8.4,0l-19.8-11.4c-1-0.6-1.6-1.4-1.7-2.1c-0.1,1,0.4,2,1.7,2.7
							l19.8,11.4c2.3,1.3,6.1,1.3,8.4,0l19.8-11.4c1.3-0.7,1.9-1.7,1.7-2.7C355.2,253.1,354.7,253.9,353.6,254.5z"/>
					</g>
				</g>
			</g>
		</g>
	</g>
</g>
<g class="st6">
	<linearGradient id="SVGID_14_" gradientUnits="userSpaceOnUse" x1="119.0679" y1="112.8335" x2="159.8777" y2="136.3951">
		<stop  offset="0" style="stop-color:#BCBEFF"/>
		<stop  offset="0.2271" style="stop-color:#AAADF8"/>
		<stop  offset="0.6802" style="stop-color:#7C83E5"/>
		<stop  offset="1" style="stop-color:#5761D7"/>
	</linearGradient>
	<path class="st22" d="M165.4,126.2v-4.5l-1.2-0.7c-0.4,2.1-2.8,3.5-4.9,3.8l-14.2,8.3l-6.2,2.2l-19.7-10.2l0.5-0.3
		c-1.7-0.8-2.6-2.6-3.5-4.2l-1.3,0.8l-0.8,0.2v4.6l0,0c0,0.9,0.6,1.8,1.7,2.4l19.8,11.4c2.3,1.3,6.1,1.3,8.4,0l19.8-11.4
		c1.1-0.7,1.7-1.5,1.7-2.4C165.4,126.3,165.4,126.3,165.4,126.2L165.4,126.2z"/>
	<path class="st12" d="M159.2,124.8l-14.2,8.3l-5.4,1.9v6.1c1.5,0,3-0.3,4.2-1l19.8-11.4c1.1-0.7,1.7-1.5,1.7-2.4c0,0,0-0.1,0-0.1
		l0,0v-4.5l-1.1-0.6h-0.1C163.7,123.2,161.3,124.6,159.2,124.8z"/>
	<g>
		<linearGradient id="SVGID_15_" gradientUnits="userSpaceOnUse" x1="113.9508" y1="121.7397" x2="165.3864" y2="121.7397">
			<stop  offset="0" style="stop-color:#E9E9FD"/>
			<stop  offset="0.3601" style="stop-color:#D3D2F9"/>
			<stop  offset="0.7062" style="stop-color:#C5C4F7"/>
			<stop  offset="1" style="stop-color:#C0BFF6"/>
		</linearGradient>
		<path class="st23" d="M135.5,135.6l-19.8-11.4c-2.3-1.3-2.3-3.5,0-4.9l19.8-11.4c2.3-1.3,6.1-1.3,8.4,0l19.8,11.4
			c2.3,1.3,2.3,3.5,0,4.8l-19.8,11.4C141.6,136.9,137.8,136.9,135.5,135.6z"/>
	</g>
	<g class="st6">
		<path class="st14" d="M135.5,135.6l-19.8-11.4c-2.3-1.3-2.3-3.5,0-4.9l19.8-11.4c2.3-1.3,6.1-1.3,8.4,0l19.8,11.4
			c2.3,1.3,2.3,3.5,0,4.8l-19.8,11.4C141.6,136.9,137.8,136.9,135.5,135.6z"/>
	</g>
</g>
<g>
	<g>
		<path class="st0" d="M139.7,121.2c-1.4,0-2.7-0.3-3.7-0.9l-19.8-11.4c-1-0.6-1.6-1.4-1.6-2.3c0-0.9,0.6-1.7,1.6-2.3L135.9,93
			c2.1-1.2,5.4-1.2,7.5,0l19.8,11.4c1,0.6,1.6,1.4,1.6,2.3c0,0.9-0.6,1.7-1.6,2.3l-19.8,11.4C142.4,120.9,141,121.2,139.7,121.2z
			 M139.7,92.4c-1.3,0-2.6,0.3-3.6,0.8l-19.8,11.4c-0.9,0.5-1.4,1.2-1.4,2c0,0.7,0.5,1.4,1.4,2l19.8,11.4c2,1.1,5.1,1.1,7.1,0
			l19.8-11.4c0.9-0.5,1.4-1.2,1.4-2c0-0.7-0.5-1.4-1.4-2l-19.8-11.4C142.2,92.7,141,92.4,139.7,92.4z"/>
		<g>
			<path class="st10" d="M165.4,102.2v-6.8l-1.2-0.7c-0.4,2.1-2.8,3.5-4.9,3.8l-14.2,8.3l-6.2,2.2l-19.7-10.2l0.5-0.3
				c-1.7-0.8-2.6-2.6-3.5-4.2l-1.3,0.8l-0.8,0.2v6.9l0,0c0,0.9,0.6,1.8,1.7,2.4l19.8,11.4c2.3,1.3,6.1,1.3,8.4,0l19.8-11.4
				c1.1-0.7,1.7-1.5,1.7-2.4C165.4,102.3,165.4,102.3,165.4,102.2L165.4,102.2z"/>
			<g>
				<g>
					<linearGradient id="SVGID_16_" gradientUnits="userSpaceOnUse" x1="119.0679" y1="82.8335" x2="159.8777" y2="106.3951">
						<stop  offset="0" style="stop-color:#BCBEFF"/>
						<stop  offset="0.2271" style="stop-color:#AAADF8"/>
						<stop  offset="0.6802" style="stop-color:#7C83E5"/>
						<stop  offset="1" style="stop-color:#5761D7"/>
					</linearGradient>
					<path class="st24" d="M165.4,96.2v-4.5l-1.2-0.7c-0.4,2.1-2.8,3.5-4.9,3.8l-14.2,8.3l-6.2,2.2l-19.7-10.2l0.5-0.3
						c-1.7-0.8-2.6-2.6-3.5-4.2l-1.3,0.8l-0.8,0.2v4.6l0,0c0,0.9,0.6,1.8,1.7,2.4l19.8,11.4c2.3,1.3,6.1,1.3,8.4,0l19.8-11.4
						c1.1-0.7,1.7-1.5,1.7-2.4C165.4,96.3,165.4,96.3,165.4,96.2L165.4,96.2z"/>
					<path class="st12" d="M159.2,94.8l-14.2,8.3l-5.4,1.9v6.1c1.5,0,3-0.3,4.2-1l19.8-11.4c1.1-0.7,1.7-1.5,1.7-2.4
						c0,0,0-0.1,0-0.1l0,0v-4.5l-1.1-0.6h-0.1C163.7,93.2,161.3,94.6,159.2,94.8z"/>
					<g>
						<linearGradient id="SVGID_17_" gradientUnits="userSpaceOnUse" x1="113.9508" y1="91.7397" x2="165.3864" y2="91.7397">
							<stop  offset="0" style="stop-color:#E9E9FD"/>
							<stop  offset="0.3601" style="stop-color:#D3D2F9"/>
							<stop  offset="0.7062" style="stop-color:#C5C4F7"/>
							<stop  offset="1" style="stop-color:#C0BFF6"/>
						</linearGradient>
						<path class="st25" d="M135.5,105.6l-19.8-11.4c-2.3-1.3-2.3-3.5,0-4.9l19.8-11.4c2.3-1.3,6.1-1.3,8.4,0l19.8,11.4
							c2.3,1.3,2.3,3.5,0,4.8l-19.8,11.4C141.6,106.9,137.8,106.9,135.5,105.6z"/>
					</g>
					<g>
						<path class="st21" d="M139.7,103.5c-1.2,0-2.4-0.3-3.4-0.8h0l-15.5-8.9c-0.9-0.5-1.4-1.3-1.4-2c0-0.8,0.5-1.5,1.4-2l15.5-8.9
							c1.9-1.1,4.9-1.1,6.7,0l15.5,8.9c0.9,0.5,1.4,1.3,1.4,2c0,0.8-0.5,1.5-1.4,2l-15.5,8.9C142.1,103.2,140.9,103.5,139.7,103.5z
							 M139.7,80.3c-1.2,0-2.3,0.3-3.2,0.8L121,90c-0.8,0.5-1.3,1.1-1.3,1.7c0,0.7,0.5,1.3,1.3,1.7l15.5,8.9c1.8,1,4.6,1,6.4,0
							l15.5-8.9c0.8-0.5,1.3-1.1,1.3-1.7c0-0.7-0.5-1.3-1.3-1.7l-15.5-8.9C142,80.6,140.8,80.3,139.7,80.3z"/>
					</g>
					<g>
						<path class="st3" d="M163.6,94.2l-19.8,11.4c-2.3,1.3-6.1,1.3-8.4,0l-19.8-11.4c-1-0.6-1.6-1.4-1.7-2.1c-0.1,1,0.4,2,1.7,2.7
							l19.8,11.4c2.3,1.3,6.1,1.3,8.4,0l19.8-11.4c1.3-0.7,1.9-1.7,1.7-2.7C165.3,92.8,164.7,93.6,163.6,94.2z"/>
					</g>
				</g>
			</g>
		</g>
	</g>
</g>
<g>
	<g>
		<g>
			<g class="st26">
				<path class="st27" d="M310.5,115.9c1.4-0.8,3.2-1.3,5-1.3c1.6,0,3,0.3,4.1,1l19.2,11.3c1.5,0.9,2.4,2.2,2.4,3.8
					c0,1.7-1,3.2-2.8,4.3"/>
			</g>
			
				<linearGradient id="SVGID_18_" gradientUnits="userSpaceOnUse" x1="1278.0371" y1="123.3431" x2="1279.3773" y2="121.0959" gradientTransform="matrix(1 0 0 1 -953.3189 0)">
				<stop  offset="0" style="stop-color:#FFFFFF"/>
				<stop  offset="1" style="stop-color:#8969C3"/>
			</linearGradient>
			<path class="st28" d="M337.2,130.7c2-1.1,2.2-2.9,0.5-3.9l-19.2-11.3c-1.7-1-4.7-0.9-6.7,0.3"/>
			<path class="st3" d="M337.2,130.7c1.2-0.7,1.7-1.5,1.6-2.4c-0.1,0.7-0.6,1.4-1.6,2"/>
		</g>
		<g>
			<g>
				
					<linearGradient id="SVGID_19_" gradientUnits="userSpaceOnUse" x1="5404.2026" y1="14.202" x2="5264.9604" y2="135.1483" gradientTransform="matrix(-1 0 0 1 5633.6079 0)">
					<stop  offset="0" style="stop-color:#9F79C8"/>
					<stop  offset="0.1409" style="stop-color:#A27DCA"/>
					<stop  offset="0.2725" style="stop-color:#AC88CF"/>
					<stop  offset="0.4" style="stop-color:#BC9BD7"/>
					<stop  offset="0.5202" style="stop-color:#D1B4E3"/>
					<stop  offset="0.6493" style="stop-color:#DBC4E9"/>
					<stop  offset="0.8997" style="stop-color:#F4EDF8"/>
					<stop  offset="1" style="stop-color:#FFFFFF"/>
				</linearGradient>
				<path class="st29" d="M281.9,105.5c-3.6-2.1-6.5-7.6-6.5-12.4V39.4c0-4.8,2.9-7,6.5-4.9L352.1,75c3.6,2.1,6.5,7.6,6.5,12.4v53.7
					c0,4.8-2.9,7-6.5,4.9"/>
				<linearGradient id="SVGID_20_" gradientUnits="userSpaceOnUse" x1="361.4819" y1="146.6329" x2="268.6252" y2="28.7762">
					<stop  offset="3.030300e-002" style="stop-color:#7C1DC9"/>
					<stop  offset="0.2138" style="stop-color:#6E41D2"/>
					<stop  offset="0.6184" style="stop-color:#4C9BE8"/>
					<stop  offset="1" style="stop-color:#2AF6FF"/>
				</linearGradient>
				<path class="st30" d="M352.9,142.4l-69.3-40c-2.9-1.8-4.7-5.5-4.7-9.3V39c0-0.9,1-1.4,1.7-1c0.1,0.1,0.2,0.1,0.2,0.1l69.3,40.1
					c3.4,2,4.7,5.5,4.7,9.3v53.9c0,1-1,1.6-1.9,1.1C353,142.4,353,142.4,352.9,142.4z"/>
				<path class="st31" d="M350.3,78.2l-69.3-40.1c0,0-0.1-0.1-0.2-0.1c-0.8-0.4-1.7,0.1-1.7,1v54.1c0,3.8,1.8,7.4,4.7,9.3l69.3,40
					c0,0,0.1,0,0.2,0.1c0.8,0.5,1.9-0.1,1.9-1.1V87.5C355,83.7,353.7,80.2,350.3,78.2z M354.2,141.4c0,0.3-0.3,0.5-0.5,0.5
					c-0.1,0-0.2,0-0.3-0.1L284,101.7c-2.6-1.7-4.3-5.1-4.3-8.6V39c0-0.3,0.2-0.4,0.4-0.4c0.1,0,0.1,0,0.2,0.1l69.5,40.2
					c3.6,2.1,4.3,5.8,4.3,8.6V141.4z"/>
			</g>
			
				<linearGradient id="SVGID_21_" gradientUnits="userSpaceOnUse" x1="1329.452" y1="149.1797" x2="1261.0302" y2="39.8509" gradientTransform="matrix(1 0 0 1 -953.3189 0)">
				<stop  offset="5.555560e-002" style="stop-color:#9F79B8"/>
				<stop  offset="0.2575" style="stop-color:#A17BBA"/>
				<stop  offset="0.3569" style="stop-color:#A783BF"/>
				<stop  offset="0.4338" style="stop-color:#B290C9"/>
				<stop  offset="0.4949" style="stop-color:#C1A1D5"/>
				<stop  offset="0.5067" style="stop-color:#C4A5D7"/>
				<stop  offset="0.5196" style="stop-color:#CDB3DD"/>
				<stop  offset="0.5329" style="stop-color:#DBC8E7"/>
				<stop  offset="0.5466" style="stop-color:#EFE7F4"/>
				<stop  offset="0.5556" style="stop-color:#FFFFFF"/>
				<stop  offset="0.5678" style="stop-color:#ECE0F3"/>
				<stop  offset="0.5801" style="stop-color:#DDC8EA"/>
				<stop  offset="0.5915" style="stop-color:#D4B9E5"/>
				<stop  offset="0.601" style="stop-color:#D1B4E3"/>
				<stop  offset="0.658" style="stop-color:#B395D6"/>
				<stop  offset="0.7155" style="stop-color:#9C7DCB"/>
				<stop  offset="0.7687" style="stop-color:#8E6EC5"/>
				<stop  offset="0.8131" style="stop-color:#8969C3"/>
				<stop  offset="1" style="stop-color:#B086CC"/>
			</linearGradient>
			<path class="st32" d="M353.9,74l-70.3-40.6c-1.4-0.8-2.7-1-3.8-0.6c-0.1,0.1-1.9,1-2.1,1.1l0,0c1.1-0.5,2.5-0.4,4,0.4L352.1,75
				c3.6,2.1,6.5,7.6,6.5,12.4v53.7c0,3-1.1,5-2.9,5.5c0.1,0,0.3,0,0.6-0.2c0.1,0,2.1-1.2,2.1-1.2c1.2-0.9,2-2.6,2-5.1V86.5
				C360.4,81.7,357.5,76.1,353.9,74z"/>
			
				<radialGradient id="SVGID_22_" cx="1039.4094" cy="-30.8247" r="12.4788" gradientTransform="matrix(0.9333 0 0 0.9333 -613.1653 110.8509)" gradientUnits="userSpaceOnUse">
				<stop  offset="0" style="stop-color:#FFFFFF"/>
				<stop  offset="1" style="stop-color:#000000"/>
			</radialGradient>
			<path class="st33" d="M352.4,74.9l-70.3-40.6c-1.5-0.9-2.8-1-3.9-0.5c0.9-0.1,2,0.1,3.1,0.7l70.3,40.6c3.6,2.1,6.5,7.6,6.5,12.4
				v53.7c0,2.8-1,4.7-2.6,5.4c2-0.3,3.4-2.4,3.4-5.7V87.3C358.9,82.5,356,76.9,352.4,74.9z"/>
			
				<radialGradient id="SVGID_23_" cx="150.6803" cy="8090.3296" r="5.9346" gradientTransform="matrix(0.3548 0.8633 -0.5731 0.2355 4938.478 -1954.0684)" gradientUnits="userSpaceOnUse">
				<stop  offset="0" style="stop-color:#972A74"/>
				<stop  offset="4.128253e-002" style="stop-color:#8A266A"/>
				<stop  offset="0.1941" style="stop-color:#601B4A"/>
				<stop  offset="0.35" style="stop-color:#3D112F"/>
				<stop  offset="0.5074" style="stop-color:#220A1B"/>
				<stop  offset="0.6667" style="stop-color:#0F040C"/>
				<stop  offset="0.8293" style="stop-color:#040103"/>
				<stop  offset="1" style="stop-color:#000000"/>
			</radialGradient>
			<path class="st34" d="M360.2,86.9c-2.4,1-5.5-1.1-7-4.7c-1.5-3.6-0.7-7.3,1.6-8.2"/>
		</g>
	</g>
	<g>
		<g>
			<g>
				<g>
					<polygon class="st35" points="315.1,63.8 317.8,65.3 317.8,62.2 315.1,60.6 					"/>
					<polygon class="st36" points="310,60.8 312.7,62.4 312.7,59.3 310,57.7 					"/>
					<polygon class="st37" points="304.9,57.9 307.6,59.4 307.6,56.3 304.9,54.7 					"/>
					<polygon class="st36" points="299.8,54.9 302.5,56.5 302.5,53.4 299.8,51.8 					"/>
					<polygon class="st36" points="294.6,52 297.4,53.5 297.4,50.4 294.6,48.8 					"/>
					<polygon class="st37" points="289.5,49 292.3,50.6 292.3,47.5 289.5,45.9 					"/>
					<polygon class="st37" points="284.4,46.1 287.2,47.6 287.2,44.5 284.4,43 					"/>
				</g>
				<g>
					<polygon class="st37" points="315.1,69.3 317.8,70.9 317.8,67.8 315.1,66.2 					"/>
					<polygon class="st36" points="310,66.4 312.7,67.9 312.7,64.8 310,63.2 					"/>
					<polygon class="st35" points="304.9,63.4 307.6,65 307.6,61.9 304.9,60.3 					"/>
					<polygon class="st36" points="299.8,60.5 302.5,62 302.5,58.9 299.8,57.3 					"/>
					<polygon class="st35" points="294.6,57.5 297.4,59.1 297.4,56 294.6,54.4 					"/>
					<polygon class="st35" points="289.5,54.6 292.3,56.1 292.3,53 289.5,51.4 					"/>
					<polygon class="st35" points="284.4,51.6 287.2,53.2 287.2,50.1 284.4,48.5 					"/>
				</g>
			</g>
			<g>
				<g>
					<polygon class="st35" points="315.1,74.8 317.8,76.4 317.8,73.3 315.1,71.7 					"/>
					<polygon class="st37" points="310,71.9 312.7,73.4 312.7,70.3 310,68.7 					"/>
					<polygon class="st37" points="304.9,68.9 307.6,70.5 307.6,67.4 304.9,65.8 					"/>
					<polygon class="st35" points="299.8,66 302.5,67.5 302.5,64.4 299.8,62.8 					"/>
					<polygon class="st35" points="294.6,63 297.4,64.6 297.4,61.5 294.6,59.9 					"/>
					<polygon class="st35" points="289.5,60.1 292.3,61.6 292.3,58.5 289.5,56.9 					"/>
					<polygon class="st35" points="284.4,57.1 287.2,58.7 287.2,55.6 284.4,54 					"/>
				</g>
				<g>
					<polygon class="st36" points="284.4,62.7 287.2,64.2 287.2,61.1 284.4,59.5 					"/>
				</g>
			</g>
			<g>
				<g>
					<polygon class="st37" points="284.4,68.1 287.2,69.7 287.2,66.6 284.4,65 					"/>
				</g>
				<g>
					<polygon class="st35" points="284.4,73.7 287.2,75.2 287.2,72.1 284.4,70.5 					"/>
				</g>
			</g>
			<g>
				<g>
					<polygon class="st37" points="284.4,79.2 287.2,80.7 287.2,77.6 284.4,76 					"/>
				</g>
				<g>
					<polygon class="st35" points="315.1,102.4 317.8,104 317.8,100.8 315.1,99.3 					"/>
					<polygon class="st35" points="310,99.5 312.7,101 312.7,97.9 310,96.3 					"/>
					<polygon class="st36" points="304.9,96.5 307.6,98.1 307.6,95 304.9,93.4 					"/>
					<polygon class="st37" points="299.8,93.6 302.5,95.1 302.5,92 299.8,90.4 					"/>
					<polygon class="st35" points="294.6,90.6 297.4,92.2 297.4,89.1 294.6,87.5 					"/>
					<polygon class="st35" points="289.5,87.7 292.3,89.2 292.3,86.1 289.5,84.5 					"/>
					<polygon class="st35" points="284.4,84.7 287.2,86.3 287.2,83.2 284.4,81.6 					"/>
				</g>
			</g>
			<g>
				<g>
					<polygon class="st37" points="315.1,108 317.8,109.6 317.8,106.5 315.1,104.9 					"/>
					<polygon class="st37" points="310,105.1 312.7,106.7 312.7,103.6 310,102 					"/>
					<polygon class="st37" points="304.9,102.2 307.6,103.7 307.6,100.6 304.9,99 					"/>
					<polygon class="st37" points="299.8,99.2 302.5,100.8 302.5,97.7 299.8,96.1 					"/>
					<polygon class="st37" points="294.6,96.3 297.4,97.8 297.4,94.7 294.6,93.1 					"/>
					<polygon class="st37" points="289.5,93.3 292.3,94.9 292.3,91.8 289.5,90.2 					"/>
					<polygon class="st37" points="284.4,90.4 287.2,91.9 287.2,88.8 284.4,87.2 					"/>
				</g>
				<g>
					<polygon class="st37" points="315.1,113.6 317.8,115.2 317.8,112 315.1,110.5 					"/>
					<polygon class="st37" points="310,110.6 312.7,112.2 312.7,109.1 310,107.5 					"/>
					<polygon class="st36" points="304.9,107.7 307.6,109.3 307.6,106.1 304.9,104.6 					"/>
					<polygon class="st37" points="299.8,104.7 302.5,106.3 302.5,103.2 299.8,101.6 					"/>
					<polygon class="st35" points="294.6,101.8 297.4,103.4 297.4,100.3 294.6,98.7 					"/>
					<polygon class="st37" points="289.5,98.9 292.3,100.4 292.3,97.3 289.5,95.7 					"/>
					<polygon class="st37" points="284.4,95.9 287.2,97.5 287.2,94.4 284.4,92.8 					"/>
				</g>
			</g>
		</g>
		<g>
			<g>
				<g>
					<polygon class="st37" points="350.7,84.5 353.4,86 353.4,82.9 350.7,81.3 					"/>
					<polygon class="st37" points="345.6,81.5 348.3,83.1 348.3,80 345.6,78.4 					"/>
					<polygon class="st37" points="340.5,78.6 343.2,80.1 343.2,77 340.5,75.4 					"/>
					<polygon class="st36" points="335.4,75.6 338.1,77.2 338.1,74.1 335.4,72.5 					"/>
					<polygon class="st36" points="330.3,72.7 333,74.2 333,71.1 330.3,69.5 					"/>
					<polygon class="st35" points="325.2,69.7 327.9,71.3 327.9,68.2 325.2,66.6 					"/>
					<polygon class="st35" points="320.1,66.8 322.8,68.3 322.8,65.2 320.1,63.6 					"/>
				</g>
				<g>
					<polygon class="st35" points="350.7,90 353.4,91.6 353.4,88.5 350.7,86.9 					"/>
					<polygon class="st35" points="345.6,87.1 348.3,88.6 348.3,85.5 345.6,83.9 					"/>
					<polygon class="st37" points="340.5,84.1 343.2,85.7 343.2,82.6 340.5,81 					"/>
					<polygon class="st37" points="335.4,81.2 338.1,82.7 338.1,79.6 335.4,78 					"/>
					<polygon class="st37" points="330.3,78.2 333,79.8 333,76.7 330.3,75.1 					"/>
					<polygon class="st37" points="325.2,75.3 327.9,76.8 327.9,73.7 325.2,72.1 					"/>
					<polygon class="st37" points="320.1,72.3 322.8,73.9 322.8,70.8 320.1,69.2 					"/>
				</g>
			</g>
			<g>
				<g>
					<polygon class="st37" points="350.7,95.5 353.4,97.1 353.4,94 350.7,92.4 					"/>
					<polygon class="st36" points="345.6,92.6 348.3,94.1 348.3,91 345.6,89.4 					"/>
					<polygon class="st35" points="340.5,89.6 343.2,91.2 343.2,88.1 340.5,86.5 					"/>
					<polygon class="st37" points="335.4,86.7 338.1,88.2 338.1,85.1 335.4,83.5 					"/>
					<polygon class="st37" points="330.3,83.7 333,85.3 333,82.2 330.3,80.6 					"/>
					<polygon class="st37" points="325.2,80.8 327.9,82.3 327.9,79.2 325.2,77.6 					"/>
					<polygon class="st35" points="320.1,77.8 322.8,79.4 322.8,76.3 320.1,74.7 					"/>
				</g>
				<g>
					<polygon class="st35" points="350.7,101 353.4,102.6 353.4,99.5 350.7,97.9 					"/>
				</g>
			</g>
			<g>
				<g>
					<polygon class="st37" points="350.7,106.5 353.4,108.1 353.4,105 350.7,103.4 					"/>
				</g>
				<g>
					<polygon class="st35" points="350.7,112.1 353.4,113.6 353.4,110.5 350.7,108.9 					"/>
				</g>
			</g>
			<g>
				<g>
					<polygon class="st37" points="350.7,117.6 353.4,119.1 353.4,116 350.7,114.4 					"/>
				</g>
				<g>
					<polygon class="st35" points="350.7,123.1 353.4,124.7 353.4,121.5 350.7,120 					"/>
					<polygon class="st37" points="345.6,120.1 348.3,121.7 348.3,118.6 345.6,117 					"/>
					<polygon class="st37" points="340.5,117.2 343.2,118.8 343.2,115.6 340.5,114.1 					"/>
					<polygon class="st37" points="335.4,114.3 338.1,115.8 338.1,112.7 335.4,111.1 					"/>
					<polygon class="st35" points="330.3,111.3 333,112.9 333,109.8 330.3,108.2 					"/>
					<polygon class="st36" points="325.2,108.4 327.9,109.9 327.9,106.8 325.2,105.2 					"/>
					<polygon class="st35" points="320.1,105.4 322.8,107 322.8,103.9 320.1,102.3 					"/>
				</g>
			</g>
			<g>
				<g>
					<polygon class="st37" points="350.7,128.7 353.4,130.3 353.4,127.2 350.7,125.6 					"/>
					<polygon class="st36" points="345.6,125.8 348.3,127.4 348.3,124.2 345.6,122.7 					"/>
					<polygon class="st35" points="340.5,122.9 343.2,124.4 343.2,121.3 340.5,119.7 					"/>
					<polygon class="st37" points="335.4,119.9 338.1,121.5 338.1,118.4 335.4,116.8 					"/>
					<polygon class="st37" points="330.3,117 333,118.5 333,115.4 330.3,113.8 					"/>
					<polygon class="st37" points="325.2,114 327.9,115.6 327.9,112.5 325.2,110.9 					"/>
					<polygon class="st35" points="320.1,111.1 322.8,112.6 322.8,109.5 320.1,107.9 					"/>
				</g>
				<g>
					<polygon class="st35" points="350.7,134.3 353.4,135.9 353.4,132.7 350.7,131.2 					"/>
					<polygon class="st36" points="345.6,131.3 348.3,132.9 348.3,129.8 345.6,128.2 					"/>
					<polygon class="st37" points="340.5,128.4 343.2,130 343.2,126.8 340.5,125.3 					"/>
					<polygon class="st37" points="335.4,125.4 338.1,127 338.1,123.9 335.4,122.3 					"/>
					<polygon class="st35" points="330.3,122.5 333,124.1 333,120.9 330.3,119.4 					"/>
					<polygon class="st36" points="325.2,119.5 327.9,121.1 327.9,118 325.2,116.4 					"/>
					<polygon class="st37" points="320.1,116.6 322.8,118.2 322.8,115.1 320.1,113.5 					"/>
				</g>
			</g>
		</g>
	</g>
	<g>
		
			<linearGradient id="SVGID_24_" gradientUnits="userSpaceOnUse" x1="279.2704" y1="108.1592" x2="271.93" y2="42.5547" gradientTransform="matrix(1 0 0 1 19.9447 0)">
			<stop  offset="9.595960e-002" style="stop-color:#45108A"/>
			<stop  offset="1" style="stop-color:#7C1DC9"/>
		</linearGradient>
		<path class="st38" d="M299.3,74.2l-2.8,2.6v0.1l4.4,1.9v2.3l-4.4-3.2V78l2.8,5.7l-1.9,0.1l-1.8-5.7l-0.1,0l-1.9,3.7l-1.7-2.2
			l2.8-2.5v-0.1l-4.3-1.9v-2.3l4.3,3.1v-0.1l-2.8-5.7l1.8-0.1l1.8,5.7l0.1,0l1.8-3.7L299.3,74.2z"/>
		
			<linearGradient id="SVGID_25_" gradientUnits="userSpaceOnUse" x1="290.5375" y1="106.8986" x2="283.1971" y2="41.2941" gradientTransform="matrix(1 0 0 1 19.9447 0)">
			<stop  offset="9.595960e-002" style="stop-color:#45108A"/>
			<stop  offset="1" style="stop-color:#7C1DC9"/>
		</linearGradient>
		<path class="st39" d="M311.5,81.3l-2.8,2.6V84l4.4,1.9v2.3l-4.4-3.2V85l2.8,5.7l-1.9,0.1l-1.8-5.7l-0.1,0l-1.9,3.7l-1.7-2.2
			l2.8-2.5V84l-4.3-1.9v-2.3L307,83v-0.1l-2.8-5.7l1.8-0.1l1.8,5.7l0.1,0l1.8-3.7L311.5,81.3z"/>
		
			<linearGradient id="SVGID_26_" gradientUnits="userSpaceOnUse" x1="301.8053" y1="105.6378" x2="294.4649" y2="40.0333" gradientTransform="matrix(1 0 0 1 19.9447 0)">
			<stop  offset="9.595960e-002" style="stop-color:#45108A"/>
			<stop  offset="1" style="stop-color:#7C1DC9"/>
		</linearGradient>
		<path class="st40" d="M323.7,88.3l-2.8,2.6V91l4.4,1.9v2.3l-4.4-3.2v0.1l2.8,5.7l-1.9,0.1l-1.8-5.7l-0.1,0l-1.9,3.7l-1.7-2.2
			l2.8-2.5V91l-4.3-1.9v-2.3l4.3,3.1v-0.1l-2.8-5.7l1.8-0.1l1.8,5.7l0.1,0l1.8-3.7L323.7,88.3z"/>
		
			<linearGradient id="SVGID_27_" gradientUnits="userSpaceOnUse" x1="313.0724" y1="104.3772" x2="305.732" y2="38.7726" gradientTransform="matrix(1 0 0 1 19.9447 0)">
			<stop  offset="9.595960e-002" style="stop-color:#45108A"/>
			<stop  offset="1" style="stop-color:#7C1DC9"/>
		</linearGradient>
		<path class="st41" d="M335.9,95.4l-2.8,2.6V98l4.4,1.9v2.3l-4.4-3.2v0.1l2.8,5.7l-1.9,0.1l-1.8-5.7l-0.1,0l-1.9,3.7l-1.7-2.2
			l2.8-2.5v-0.1l-4.3-1.9v-2.3l4.3,3.1V97l-2.8-5.7l1.8-0.1l1.8,5.7l0.1,0l1.8-3.7L335.9,95.4z"/>
		
			<linearGradient id="SVGID_28_" gradientUnits="userSpaceOnUse" x1="324.3396" y1="103.1166" x2="316.9991" y2="37.512" gradientTransform="matrix(1 0 0 1 19.9447 0)">
			<stop  offset="9.595960e-002" style="stop-color:#45108A"/>
			<stop  offset="1" style="stop-color:#7C1DC9"/>
		</linearGradient>
		<path class="st42" d="M348.1,102.4l-2.8,2.6v0.1l4.4,1.9v2.3l-4.4-3.2v0.1l2.8,5.7l-1.9,0.1l-1.8-5.7l-0.1,0l-1.9,3.7l-1.7-2.2
			l2.8-2.5v-0.1l-4.3-1.9v-2.3l4.3,3.1V104l-2.8-5.7l1.8-0.1l1.8,5.7l0.1,0l1.8-3.7L348.1,102.4z"/>
	</g>
</g>
<g>
	<polygon class="st43" points="286.1,153.1 295.3,147.9 301.3,141.5 292.1,146.7 	"/>
	<path class="st44" d="M333.3,116.8c0-0.1,0-0.3,0-0.4c0-0.1,0-0.3,0-0.4c0-0.1,0-0.3,0-0.4c0-0.1,0-0.3-0.1-0.4
		c0-0.1,0-0.3-0.1-0.4c0-0.1-0.1-0.3-0.1-0.4c0-0.1-0.1-0.3-0.1-0.4c0-0.1-0.1-0.3-0.1-0.4c0-0.1-0.1-0.3-0.1-0.4
		c0-0.1-0.1-0.3-0.1-0.4c0-0.1-0.1-0.3-0.1-0.4c0-0.1-0.1-0.3-0.2-0.4c-0.1-0.1-0.1-0.3-0.2-0.4c-0.1-0.1-0.1-0.3-0.2-0.4
		c-0.1-0.1-0.1-0.3-0.2-0.4c-0.1-0.1-0.1-0.3-0.2-0.4c-0.1-0.2-0.2-0.3-0.3-0.5c-0.1-0.2-0.3-0.5-0.4-0.7c-0.2-0.3-0.4-0.7-0.6-1
		c-0.2-0.3-0.3-0.5-0.5-0.7c-0.1-0.2-0.2-0.3-0.4-0.5c-0.1-0.1-0.2-0.3-0.3-0.4c-0.1-0.1-0.2-0.2-0.3-0.4c-0.1-0.1-0.2-0.2-0.3-0.4
		c-0.1-0.1-0.2-0.2-0.3-0.4c-0.1-0.1-0.2-0.2-0.4-0.3c-0.1-0.1-0.2-0.2-0.4-0.3c-0.1-0.1-0.2-0.2-0.4-0.3c-0.1-0.1-0.2-0.2-0.4-0.3
		c-0.1-0.1-0.2-0.2-0.4-0.3c-0.1-0.1-0.2-0.2-0.4-0.3c-0.1-0.1-0.2-0.2-0.4-0.2c-0.1-0.1-0.2-0.1-0.4-0.2c0,0-0.1,0-0.1,0
		l-58.9-32.6c-0.1-0.1-0.2-0.1-0.3-0.1c-0.1-0.1-0.2-0.1-0.3-0.2c-0.1-0.1-0.2-0.1-0.3-0.2c-0.1,0-0.2-0.1-0.3-0.1
		c-0.1,0-0.2-0.1-0.3-0.1c-0.1,0-0.2-0.1-0.3-0.1c-0.1,0-0.2-0.1-0.3-0.1c-0.1,0-0.2-0.1-0.3-0.1c-0.1,0-0.2,0-0.4-0.1
		c-0.1,0-0.3,0-0.4,0c-0.1,0-0.3,0-0.4,0c-0.1,0-0.3,0-0.4,0c-0.2,0-0.3,0-0.5,0.1c-0.2,0-0.4,0.1-0.6,0.2c-0.2,0.1-0.5,0.2-0.7,0.3
		l-9.2,5.2c0.2-0.1,0.4-0.2,0.7-0.3c0.2-0.1,0.4-0.1,0.6-0.2c0.2,0,0.3-0.1,0.5-0.1c0.1,0,0.3,0,0.4,0c0.1,0,0.3,0,0.4,0
		c0.1,0,0.2,0,0.4,0c0.1,0,0.2,0,0.4,0.1c0.1,0,0.2,0,0.3,0.1c0.1,0,0.2,0.1,0.3,0.1c0.1,0,0.2,0.1,0.3,0.1c0.1,0,0.2,0.1,0.3,0.1
		c0.1,0,0.2,0.1,0.3,0.1c0.1,0,0.2,0.1,0.3,0.2c0.1,0.1,0.2,0.1,0.3,0.2c0.1,0,0.2,0.1,0.3,0.1l58.9,32.6c0,0,0.1,0,0.1,0
		c0.1,0.1,0.2,0.1,0.4,0.2c0.1,0.1,0.2,0.2,0.4,0.2c0.1,0.1,0.2,0.2,0.4,0.3c0.1,0.1,0.2,0.2,0.4,0.3c0.1,0.1,0.2,0.2,0.4,0.3
		c0.1,0.1,0.2,0.2,0.4,0.3c0.1,0.1,0.2,0.2,0.4,0.3c0.1,0.1,0.2,0.2,0.4,0.3c0.1,0.1,0.2,0.2,0.3,0.4c0.1,0.1,0.2,0.2,0.3,0.4
		c0.1,0.1,0.2,0.2,0.3,0.4c0.1,0.1,0.2,0.3,0.3,0.4c0.1,0.2,0.3,0.3,0.4,0.5c0.2,0.2,0.4,0.5,0.5,0.7c0.2,0.3,0.4,0.6,0.6,1
		c0.1,0.2,0.3,0.5,0.4,0.7c0.1,0.2,0.2,0.3,0.3,0.5c0.1,0.1,0.1,0.3,0.2,0.4c0.1,0.1,0.1,0.3,0.2,0.4c0.1,0.1,0.1,0.3,0.2,0.4
		c0.1,0.1,0.1,0.3,0.2,0.4c0.1,0.1,0.1,0.3,0.2,0.4c0.1,0.1,0.1,0.3,0.1,0.4c0,0.1,0.1,0.3,0.1,0.4c0,0.1,0.1,0.3,0.1,0.4
		c0,0.1,0.1,0.3,0.1,0.4c0,0.1,0.1,0.3,0.1,0.4c0,0.1,0.1,0.3,0.1,0.4c0,0.1,0.1,0.3,0.1,0.4c0,0.1,0,0.3,0.1,0.4c0,0.1,0,0.3,0,0.4
		c0,0.1,0,0.3,0,0.4c0,0.1,0,0.3,0,0.4c0,0.1,0,0.2,0,0.4l-0.1,32.4c0,0,0,0,0,0c0,0.1,0,0.3,0,0.4c0,0.1,0,0.3,0,0.4
		c0,0.1,0,0.3,0,0.4c0,0.1,0,0.3-0.1,0.4c0,0.1-0.1,0.3-0.1,0.4c0,0.1-0.1,0.3-0.1,0.4c0,0.1-0.1,0.3-0.1,0.4
		c-0.1,0.2-0.1,0.3-0.2,0.5c-0.1,0.2-0.2,0.4-0.3,0.6c-0.4,0.6-0.9,1.1-1.5,1.4l9.2-5.2c0.6-0.3,1.1-0.8,1.5-1.4
		c0.1-0.2,0.2-0.4,0.3-0.6c0.1-0.1,0.1-0.3,0.2-0.5c0.1-0.1,0.1-0.3,0.1-0.4c0-0.1,0.1-0.3,0.1-0.4c0-0.1,0.1-0.3,0.1-0.4
		c0-0.1,0-0.3,0.1-0.4c0-0.1,0-0.3,0-0.4c0-0.1,0-0.3,0-0.4c0-0.1,0-0.3,0-0.4c0,0,0,0,0,0l0.1-32.4
		C333.3,117,333.3,116.9,333.3,116.8z"/>
	<g>
		<path class="st45" d="M315.7,108.2c4.6,2.6,8.4,9,8.4,14.2l-0.1,32.4c0,5.2-3.8,7.3-8.4,4.7l-23.5-12.7l-6,6.4l-6.1-13.2l-23.3-13
			c-4.6-2.6-8.4-9-8.4-14.2l0.1-32.4c0-5.2,3.8-7.3,8.4-4.7L315.7,108.2z"/>
	</g>
	<text transform="matrix(1.0247 0.5633 0 1 256.0044 104.5746)" class="st3 st46 st47">shopify</text>
</g>
</svg>
