<?xml version="1.0" encoding="utf-8"?>
<!-- Generator: Adobe Illustrator 19.0.0, SVG Export Plug-In . SVG Version: 6.00 Build 0)  -->
<svg version="1.1" id="Layer_1" xmlns="http://www.w3.org/2000/svg" xmlns:xlink="http://www.w3.org/1999/xlink" x="0px" y="0px"
	 viewBox="0 0 1200 800" style="enable-background:new 0 0 1200 800;" xml:space="preserve">
<style type="text/css">
	.st0{opacity:0.3;}
	.st1{fill:url(#XMLID_430_);}
	.st2{opacity:0.3;fill:#0F054C;}
	.st3{fill:url(#XMLID_432_);}
	.st4{fill:#0F054C;}
	.st5{fill:#42E8E0;}
	.st6{opacity:0.4;fill:#42E8E0;}
	.st7{fill:url(#XMLID_434_);}
	.st8{fill:url(#XMLID_436_);}
	.st9{fill:#FFFFFF;}
	.st10{fill:url(#XMLID_438_);}
	.st11{fill:url(#XMLID_443_);}
	.st12{fill:#5351AF;}
	.st13{fill:url(#XMLID_444_);}
	.st14{fill:url(#XMLID_445_);}
	.st15{fill:url(#XMLID_446_);}
	.st16{fill:url(#XMLID_447_);}
	.st17{fill:url(#XMLID_448_);}
	.st18{fill:url(#XMLID_449_);}
	.st19{fill:url(#XMLID_451_);}
	.st20{fill:url(#XMLID_452_);}
	.st21{opacity:0.2;}
	.st22{opacity:0;}
	.st23{opacity:9.090909e-002;}
	.st24{opacity:0.1818;}
	.st25{opacity:0.2727;}
	.st26{opacity:0.3636;}
	.st27{opacity:0.4545;}
	.st28{opacity:0.5455;}
	.st29{opacity:0.6364;}
	.st30{opacity:0.7273;}
	.st31{opacity:0.8182;}
	.st32{opacity:0.9091;}
	.st33{fill:url(#XMLID_453_);}
	.st34{opacity:0.6;fill:url(#XMLID_454_);}
	.st35{fill:url(#XMLID_455_);}
	.st36{fill:url(#XMLID_456_);}
	.st37{fill:#BCBEC0;}
	.st38{opacity:0.5;fill:url(#XMLID_457_);}
	.st39{fill:url(#XMLID_460_);}
	.st40{fill:url(#XMLID_461_);}
	.st41{fill:url(#XMLID_462_);}
	.st42{fill:url(#XMLID_463_);}
	.st43{fill:url(#XMLID_464_);}
	.st44{fill:url(#XMLID_465_);}
	.st45{opacity:0.3;fill:url(#XMLID_466_);}
	.st46{fill:url(#XMLID_468_);}
	.st47{fill:url(#XMLID_471_);}
	.st48{fill:url(#XMLID_473_);}
	.st49{fill:url(#XMLID_476_);}
	.st50{fill:url(#XMLID_478_);}
	.st51{fill:#2AF6FF;}
	.st52{opacity:0;fill:#2AF6FF;}
	.st53{opacity:0.3;fill:#2AF6FF;}
	.st54{fill:url(#XMLID_479_);}
	.st55{fill:url(#XMLID_480_);}
	.st56{fill:url(#XMLID_481_);}
	.st57{fill:url(#XMLID_482_);}
	.st58{fill:url(#XMLID_483_);}
	.st59{fill:url(#XMLID_484_);}
	.st60{fill:url(#XMLID_487_);}
	.st61{fill:url(#XMLID_488_);}
	.st62{fill:url(#XMLID_489_);}
	.st63{fill:url(#XMLID_490_);}
	.st64{fill:url(#XMLID_491_);}
	.st65{fill:url(#XMLID_492_);}
</style>
<g id="XMLID_988_" class="st0">
	<linearGradient id="XMLID_430_" gradientUnits="userSpaceOnUse" x1="500.5072" y1="526.3429" x2="625.049" y2="598.2472">
		<stop  offset="0" style="stop-color:#BCBEFF"/>
		<stop  offset="0.2271" style="stop-color:#AAADF8"/>
		<stop  offset="0.6802" style="stop-color:#7C83E5"/>
		<stop  offset="1" style="stop-color:#5761D7"/>
	</linearGradient>
	<path id="XMLID_423_" class="st1" d="M641.9,567.2v-13.7l-3.8-2.1c-1.1,6.5-8.7,10.7-15,11.6l-43.3,25.3l-18.9,6.8L500.7,564
		l1.4-0.8c-5.1-2.4-7.9-7.9-10.7-12.9l-4.1,2.4l-2.4,0.7v14l0,0c0,2.7,1.8,5.4,5.3,7.4l60.4,34.9c7.1,4.1,18.6,4.1,25.6,0l60.4-34.9
		c3.5-2,5.2-4.6,5.3-7.3C641.9,567.4,641.9,567.3,641.9,567.2L641.9,567.2z"/>
	<path id="XMLID_422_" class="st2" d="M623.1,563l-43.3,25.3l-16.4,5.9v18.5c4.6,0,9.3-1,12.8-3.1l60.4-34.9c3.5-2,5.2-4.6,5.3-7.3
		c0-0.1,0-0.2,0-0.4l0,0v-13.7l-3.5-1.9H638C636.9,558,629.4,562.1,623.1,563z"/>
	<g id="XMLID_992_">
		<linearGradient id="XMLID_432_" gradientUnits="userSpaceOnUse" x1="484.8907" y1="553.5224" x2="641.8606" y2="553.5224">
			<stop  offset="0" style="stop-color:#E9E9FD"/>
			<stop  offset="0.3601" style="stop-color:#D3D2F9"/>
			<stop  offset="0.7062" style="stop-color:#C5C4F7"/>
			<stop  offset="1" style="stop-color:#C0BFF6"/>
		</linearGradient>
		<path id="XMLID_993_" class="st3" d="M550.6,595.8l-60.4-34.9c-7.1-4.1-7.1-10.7,0-14.8l60.4-34.9c7.1-4.1,18.6-4.1,25.6,0
			l60.4,34.9c7.1,4.1,7.1,10.7,0,14.8l-60.4,34.9C569.1,599.9,557.6,599.9,550.6,595.8z"/>
	</g>
	<g id="XMLID_989_" class="st0">
		<path id="XMLID_990_" class="st4" d="M550.6,595.8l-60.4-34.9c-7.1-4.1-7.1-10.7,0-14.8l60.4-34.9c7.1-4.1,18.6-4.1,25.6,0
			l60.4,34.9c7.1,4.1,7.1,10.7,0,14.8l-60.4,34.9C569.1,599.9,557.6,599.9,550.6,595.8z"/>
	</g>
</g>
<g id="XMLID_972_">
	<g id="XMLID_973_">
		<path id="XMLID_985_" class="st5" d="M563.4,551.7c-4.1,0-8.2-0.9-11.4-2.7l-60.4-34.9c-3.1-1.8-4.9-4.3-4.9-6.9
			c0-2.6,1.7-5.1,4.9-6.9l60.4-34.9c6.3-3.6,16.5-3.6,22.8,0l60.4,34.9c3.1,1.8,4.9,4.3,4.9,6.9c0,2.6-1.7,5.1-4.9,6.9L574.8,549
			C571.6,550.8,567.5,551.7,563.4,551.7z M563.4,463.9c-3.9,0-7.9,0.9-10.8,2.6l-60.4,34.9c-2.8,1.6-4.3,3.7-4.3,6
			c0,2.2,1.5,4.3,4.3,6l60.4,34.9c6,3.5,15.7,3.5,21.7,0l60.4-34.9c2.8-1.6,4.3-3.7,4.3-6c0-2.2-1.5-4.3-4.3-6l-60.4-34.9
			C571.2,464.7,567.3,463.9,563.4,463.9z"/>
		<g id="XMLID_974_">
			<path id="XMLID_417_" class="st6" d="M641.9,493.9v-20.7l-3.8-2.1c-1.1,6.5-8.7,10.7-15,11.6L579.8,508l-18.9,6.8l-60.3-31.1
				l1.4-0.8c-5.1-2.4-7.9-7.9-10.7-12.9l-4.1,2.4l-2.4,0.7v21l0,0c0,2.7,1.8,5.4,5.3,7.4l60.4,34.9c7.1,4.1,18.6,4.1,25.6,0
				l60.4-34.9c3.5-2,5.2-4.6,5.3-7.3C641.9,494.1,641.9,494,641.9,493.9L641.9,493.9z"/>
			<g id="XMLID_975_">
				<g id="XMLID_976_">
					<linearGradient id="XMLID_434_" gradientUnits="userSpaceOnUse" x1="500.507" y1="434.6731" x2="625.0491" y2="506.5775">
						<stop  offset="0" style="stop-color:#BCBEFF"/>
						<stop  offset="0.2271" style="stop-color:#AAADF8"/>
						<stop  offset="0.6802" style="stop-color:#7C83E5"/>
						<stop  offset="1" style="stop-color:#5761D7"/>
					</linearGradient>
					<path id="XMLID_416_" class="st7" d="M641.9,475.5v-13.7l-3.8-2.1c-1.1,6.5-8.7,10.7-15,11.6l-43.3,25.3l-18.9,6.8l-60.3-31.1
						l1.4-0.8c-5.1-2.4-7.9-7.9-10.7-12.9l-4.1,2.4l-2.4,0.7v14l0,0c0,2.7,1.8,5.4,5.3,7.4l60.4,34.9c7.1,4.1,18.6,4.1,25.6,0
						l60.4-34.9c3.5-2,5.2-4.6,5.3-7.3C641.9,475.8,641.9,475.6,641.9,475.5L641.9,475.5z"/>
					<path id="XMLID_415_" class="st2" d="M623.1,471.3l-43.3,25.3l-16.4,5.9v18.5c4.6,0,9.3-1,12.8-3.1l60.4-34.9
						c3.5-2,5.2-4.6,5.3-7.3c0-0.1,0-0.2,0-0.4l0,0v-13.7l-3.5-1.9H638C636.9,466.3,629.4,470.5,623.1,471.3z"/>
					<g id="XMLID_979_">
						<linearGradient id="XMLID_436_" gradientUnits="userSpaceOnUse" x1="484.8907" y1="461.8527" x2="641.8606" y2="461.8527">
							<stop  offset="0" style="stop-color:#E9E9FD"/>
							<stop  offset="0.3601" style="stop-color:#D3D2F9"/>
							<stop  offset="0.7062" style="stop-color:#C5C4F7"/>
							<stop  offset="1" style="stop-color:#C0BFF6"/>
						</linearGradient>
						<path id="XMLID_980_" class="st8" d="M550.6,504.1l-60.4-34.9c-7.1-4.1-7.1-10.7,0-14.8l60.4-34.9c7.1-4.1,18.6-4.1,25.6,0
							l60.4,34.9c7.1,4.1,7.1,10.7,0,14.8l-60.4,34.9C569.1,508.2,557.6,508.2,550.6,504.1z"/>
					</g>
					<g id="XMLID_977_">
						<path id="XMLID_413_" class="st9" d="M636.6,469.3l-60.4,34.9c-7.1,4.1-18.6,4.1-25.6,0l-60.4-34.9c-3.2-1.8-4.9-4.2-5.2-6.5
							c-0.4,3,1.3,6,5.2,8.3l60.4,34.9c7.1,4.1,18.6,4.1,25.6,0l60.4-34.9c3.9-2.3,5.7-5.3,5.2-8.3
							C641.5,465.1,639.7,467.4,636.6,469.3z"/>
					</g>
				</g>
			</g>
		</g>
	</g>
</g>
<g id="XMLID_952_">
	<g id="XMLID_953_">
		<path id="XMLID_969_" class="st5" d="M280.1,759.7c-4.1,0-8.2-0.9-11.4-2.7l-60.4-34.9c-3.1-1.8-4.9-4.2-4.9-6.9
			c0-2.6,1.7-5.1,4.9-6.9l60.4-34.9c6.3-3.6,16.5-3.6,22.8,0l60.4,34.9c3.1,1.8,4.9,4.3,4.9,6.9c0,2.6-1.7,5.1-4.9,6.9L291.5,757
			C288.3,758.8,284.2,759.7,280.1,759.7z M269.3,756.1c6,3.5,15.7,3.5,21.7,0l60.4-34.9c2.8-1.6,4.3-3.7,4.3-6c0-2.2-1.5-4.3-4.3-6
			L291,674.5c-6-3.5-15.7-3.5-21.7,0l-60.4,34.9c-2.8,1.6-4.3,3.7-4.3,6c0,2.2,1.5,4.3,4.3,6L269.3,756.1z"/>
		<g id="XMLID_954_">
			<path id="XMLID_410_" class="st6" d="M358.6,701.9v-20.7l-3.8-2.1c-1.1,6.5-8.7,10.7-15,11.6L296.5,716l-18.9,6.8l-60.3-31.1
				l1.4-0.8c-5.1-2.4-7.9-7.9-10.7-12.9l-4.1,2.4l-2.4,0.7v21l0,0c0,2.7,1.8,5.4,5.3,7.4l60.4,34.9c7.1,4.1,18.6,4.1,25.6,0
				l60.4-34.9c3.5-2,5.2-4.6,5.3-7.3C358.6,702.2,358.6,702,358.6,701.9L358.6,701.9z"/>
			<g id="XMLID_955_">
				<g id="XMLID_956_">
					<linearGradient id="XMLID_438_" gradientUnits="userSpaceOnUse" x1="217.2384" y1="642.6917" x2="341.7802" y2="714.5959">
						<stop  offset="0" style="stop-color:#BCBEFF"/>
						<stop  offset="0.2271" style="stop-color:#AAADF8"/>
						<stop  offset="0.6802" style="stop-color:#7C83E5"/>
						<stop  offset="1" style="stop-color:#5761D7"/>
					</linearGradient>
					<path id="XMLID_409_" class="st10" d="M358.6,683.5v-13.7l-3.8-2.1c-1.1,6.5-8.7,10.7-15,11.6l-43.3,25.3l-18.9,6.8l-60.3-31.1
						l1.4-0.8c-5.1-2.4-7.9-7.9-10.7-12.9l-4.1,2.4l-2.4,0.7v14l0,0c0,2.7,1.8,5.4,5.3,7.4l60.4,34.9c7.1,4.1,18.6,4.1,25.6,0
						l60.4-34.9c3.5-2,5.2-4.6,5.3-7.3C358.6,683.8,358.6,683.7,358.6,683.5L358.6,683.5z"/>
					<path id="XMLID_408_" class="st2" d="M339.8,679.4l-43.3,25.3l-16.4,5.9v18.5c4.6,0,9.3-1,12.8-3.1l60.4-34.9
						c3.5-2,5.2-4.6,5.3-7.3c0-0.1,0-0.2,0-0.4l0,0v-13.7l-3.5-1.9h-0.4C353.6,674.3,346.1,678.5,339.8,679.4z"/>
					<g id="XMLID_963_">
						<linearGradient id="XMLID_443_" gradientUnits="userSpaceOnUse" x1="201.6219" y1="669.8712" x2="358.5918" y2="669.8712">
							<stop  offset="0" style="stop-color:#E9E9FD"/>
							<stop  offset="0.3601" style="stop-color:#D3D2F9"/>
							<stop  offset="0.7062" style="stop-color:#C5C4F7"/>
							<stop  offset="1" style="stop-color:#C0BFF6"/>
						</linearGradient>
						<path id="XMLID_964_" class="st11" d="M267.3,712.1l-60.4-34.9c-7.1-4.1-7.1-10.7,0-14.8l60.4-34.9c7.1-4.1,18.6-4.1,25.6,0
							l60.4,34.9c7.1,4.1,7.1,10.7,0,14.8l-60.4,34.9C285.9,716.2,274.4,716.2,267.3,712.1z"/>
					</g>
					<g id="XMLID_959_">
						<path id="XMLID_960_" class="st12" d="M280.1,705.8c-3.7,0-7.4-0.8-10.3-2.5l-47.2-27.2c-2.8-1.6-4.4-3.9-4.4-6.2
							c0-2.4,1.6-4.6,4.4-6.2l47.2-27.2c5.7-3.3,14.9-3.3,20.6,0l47.2,27.2c2.8,1.6,4.4,3.9,4.4,6.2c0,2.4-1.6,4.6-4.4,6.2
							l-47.2,27.2C287.6,705,283.8,705.8,280.1,705.8z M280.1,635c-3.5,0-7.1,0.8-9.7,2.3l-47.2,27.2c-2.5,1.4-3.9,3.3-3.9,5.3
							c0,2,1.4,3.9,3.9,5.3l47.2,27.2c5.4,3.1,14.1,3.1,19.5,0l47.2-27.2c2.5-1.4,3.9-3.3,3.9-5.3c0-2-1.4-3.9-3.9-5.3l-47.2-27.2
							C287.2,635.8,283.6,635,280.1,635z"/>
					</g>
					<g id="XMLID_957_">
						<path id="XMLID_404_" class="st9" d="M353.3,677.3l-60.4,34.9c-7.1,4.1-18.6,4.1-25.6,0l-60.4-34.9c-3.2-1.8-4.9-4.2-5.2-6.5
							c-0.4,3,1.3,6,5.2,8.3l60.4,34.9c7.1,4.1,18.6,4.1,25.6,0l60.4-34.9c3.9-2.3,5.7-5.3,5.2-8.3
							C358.2,673.1,356.4,675.4,353.3,677.3z"/>
					</g>
				</g>
			</g>
		</g>
	</g>
</g>
<g id="XMLID_943_" class="st0">
	<linearGradient id="XMLID_444_" gradientUnits="userSpaceOnUse" x1="570.9193" y1="500.8262" x2="695.4612" y2="572.7305">
		<stop  offset="0" style="stop-color:#BCBEFF"/>
		<stop  offset="0.2271" style="stop-color:#AAADF8"/>
		<stop  offset="0.6802" style="stop-color:#7C83E5"/>
		<stop  offset="1" style="stop-color:#5761D7"/>
	</linearGradient>
	<path id="XMLID_403_" class="st13" d="M712.3,541.7V528l-3.8-2.1c-1.1,6.5-8.7,10.7-15,11.6l-43.3,25.3l-18.9,6.8l-60.3-31.1
		l1.4-0.8c-5.1-2.4-7.9-7.9-10.7-12.9l-4.1,2.4l-2.4,0.7v14l0,0c0,2.7,1.8,5.4,5.3,7.4l60.4,34.9c7.1,4.1,18.6,4.1,25.6,0l60.4-34.9
		c3.5-2,5.2-4.6,5.3-7.3C712.3,541.9,712.3,541.8,712.3,541.7L712.3,541.7z"/>
	<path id="XMLID_402_" class="st2" d="M693.5,537.5l-43.3,25.3l-16.4,5.9v18.5c4.6,0,9.3-1,12.8-3.1l60.4-34.9
		c3.5-2,5.2-4.6,5.3-7.3c0-0.1,0-0.2,0-0.4l0,0V528l-3.5-1.9h-0.4C707.3,532.4,699.8,536.6,693.5,537.5z"/>
	<g id="XMLID_947_">
		<linearGradient id="XMLID_445_" gradientUnits="userSpaceOnUse" x1="555.3029" y1="528.0057" x2="712.2728" y2="528.0057">
			<stop  offset="0" style="stop-color:#E9E9FD"/>
			<stop  offset="0.3601" style="stop-color:#D3D2F9"/>
			<stop  offset="0.7062" style="stop-color:#C5C4F7"/>
			<stop  offset="1" style="stop-color:#C0BFF6"/>
		</linearGradient>
		<path id="XMLID_948_" class="st14" d="M621,570.3l-60.4-34.9c-7.1-4.1-7.1-10.7,0-14.8l60.4-34.9c7.1-4.1,18.6-4.1,25.6,0
			l60.4,34.9c7.1,4.1,7.1,10.7,0,14.8l-60.4,34.9C639.5,574.3,628,574.3,621,570.3z"/>
	</g>
	<g id="XMLID_944_" class="st0">
		<path id="XMLID_945_" class="st4" d="M621,570.3l-60.4-34.9c-7.1-4.1-7.1-10.7,0-14.8l60.4-34.9c7.1-4.1,18.6-4.1,25.6,0
			l60.4,34.9c7.1,4.1,7.1,10.7,0,14.8l-60.4,34.9C639.5,574.3,628,574.3,621,570.3z"/>
	</g>
</g>
<g id="XMLID_927_">
	<g id="XMLID_928_">
		<path id="XMLID_940_" class="st5" d="M633.8,526.2c-4.1,0-8.2-0.9-11.4-2.7L562,488.6c-3.1-1.8-4.9-4.3-4.9-6.9
			c0-2.6,1.7-5.1,4.9-6.9l60.4-34.9c6.3-3.6,16.5-3.6,22.8,0l60.4,34.9c3.1,1.8,4.9,4.3,4.9,6.9c0,2.6-1.7,5.1-4.9,6.9l-60.4,34.9
			C642,525.3,637.9,526.2,633.8,526.2z M633.8,438.4c-3.9,0-7.9,0.9-10.8,2.6l-60.4,34.9c-2.8,1.6-4.3,3.7-4.3,6
			c0,2.2,1.5,4.3,4.3,6l60.4,34.9c6,3.5,15.7,3.5,21.7,0l60.4-34.9c2.8-1.6,4.3-3.7,4.3-6c0-2.2-1.5-4.3-4.3-6L644.6,441
			C641.6,439.2,637.7,438.4,633.8,438.4z"/>
		<g id="XMLID_929_">
			<path id="XMLID_397_" class="st6" d="M712.3,468.4v-20.7l-3.8-2.1c-1.1,6.5-8.7,10.7-15,11.6l-43.3,25.3l-18.9,6.8l-60.3-31.1
				l1.4-0.8c-5.1-2.4-7.9-7.9-10.7-12.9l-4.1,2.4l-2.4,0.7v21l0,0c0,2.7,1.8,5.4,5.3,7.4l60.4,34.9c7.1,4.1,18.6,4.1,25.6,0L707,476
				c3.5-2,5.2-4.6,5.3-7.3C712.3,468.6,712.3,468.5,712.3,468.4L712.3,468.4z"/>
			<g id="XMLID_930_">
				<g id="XMLID_931_">
					<linearGradient id="XMLID_446_" gradientUnits="userSpaceOnUse" x1="570.9193" y1="409.1564" x2="695.4612" y2="481.0608">
						<stop  offset="0" style="stop-color:#BCBEFF"/>
						<stop  offset="0.2271" style="stop-color:#AAADF8"/>
						<stop  offset="0.6802" style="stop-color:#7C83E5"/>
						<stop  offset="1" style="stop-color:#5761D7"/>
					</linearGradient>
					<path id="XMLID_396_" class="st15" d="M712.3,450v-13.7l-3.8-2.1c-1.1,6.5-8.7,10.7-15,11.6l-43.3,25.3l-18.9,6.8l-60.3-31.1
						l1.4-0.8c-5.1-2.4-7.9-7.9-10.7-12.9l-4.1,2.4l-2.4,0.7v14l0,0c0,2.7,1.8,5.4,5.3,7.4l60.4,34.9c7.1,4.1,18.6,4.1,25.6,0
						l60.4-34.9c3.5-2,5.2-4.6,5.3-7.3C712.3,450.2,712.3,450.1,712.3,450L712.3,450z"/>
					<path id="XMLID_395_" class="st2" d="M693.5,445.8l-43.3,25.3l-16.4,5.9v18.5c4.6,0,9.3-1,12.8-3.1l60.4-34.9
						c3.5-2,5.2-4.6,5.3-7.3c0-0.1,0-0.2,0-0.4l0,0v-13.7l-3.5-1.9h-0.4C707.3,440.8,699.8,444.9,693.5,445.8z"/>
					<g id="XMLID_934_">
						<linearGradient id="XMLID_447_" gradientUnits="userSpaceOnUse" x1="555.3029" y1="436.336" x2="712.2728" y2="436.336">
							<stop  offset="0" style="stop-color:#E9E9FD"/>
							<stop  offset="0.3601" style="stop-color:#D3D2F9"/>
							<stop  offset="0.7062" style="stop-color:#C5C4F7"/>
							<stop  offset="1" style="stop-color:#C0BFF6"/>
						</linearGradient>
						<path id="XMLID_935_" class="st16" d="M621,478.6l-60.4-34.9c-7.1-4.1-7.1-10.7,0-14.8l60.4-34.9c7.1-4.1,18.6-4.1,25.6,0
							l60.4,34.9c7.1,4.1,7.1,10.7,0,14.8l-60.4,34.9C639.5,482.7,628,482.7,621,478.6z"/>
					</g>
					<g id="XMLID_932_">
						<path id="XMLID_393_" class="st9" d="M707,443.7l-60.4,34.9c-7.1,4.1-18.6,4.1-25.6,0l-60.4-34.9c-3.2-1.8-4.9-4.2-5.2-6.5
							c-0.4,3,1.3,6,5.2,8.3l60.4,34.9c7.1,4.1,18.6,4.1,25.6,0l60.4-34.9c3.9-2.3,5.7-5.3,5.2-8.3
							C711.9,439.6,710.1,441.9,707,443.7z"/>
					</g>
				</g>
			</g>
		</g>
	</g>
</g>
<g id="XMLID_918_" class="st0">
	<linearGradient id="XMLID_448_" gradientUnits="userSpaceOnUse" x1="211.6102" y1="706.2978" x2="336.152" y2="778.2021">
		<stop  offset="0" style="stop-color:#BCBEFF"/>
		<stop  offset="0.2271" style="stop-color:#AAADF8"/>
		<stop  offset="0.6802" style="stop-color:#7C83E5"/>
		<stop  offset="1" style="stop-color:#5761D7"/>
	</linearGradient>
	<path id="XMLID_392_" class="st17" d="M353,747.2v-13.7l-3.8-2.1c-1.1,6.5-8.7,10.7-15,11.6l-43.3,25.3l-18.9,6.8L211.8,744
		l1.4-0.8c-5.1-2.4-7.9-7.9-10.7-12.9l-4.1,2.4l-2.4,0.7v14l0,0c0,2.7,1.8,5.4,5.3,7.4l60.4,34.9c7.1,4.1,18.6,4.1,25.6,0l60.4-34.9
		c3.5-2,5.2-4.6,5.3-7.3C353,747.4,353,747.3,353,747.2L353,747.2z"/>
	<path id="XMLID_391_" class="st2" d="M334.2,743l-43.3,25.3l-16.4,5.9v18.5c4.6,0,9.3-1,12.8-3.1l60.4-34.9c3.5-2,5.2-4.6,5.3-7.3
		c0-0.1,0-0.2,0-0.4l0,0v-13.7l-3.5-1.9h-0.4C348,737.9,340.5,742.1,334.2,743z"/>
	<g id="XMLID_922_">
		<linearGradient id="XMLID_449_" gradientUnits="userSpaceOnUse" x1="195.9937" y1="733.4773" x2="352.9634" y2="733.4773">
			<stop  offset="0" style="stop-color:#E9E9FD"/>
			<stop  offset="0.3601" style="stop-color:#D3D2F9"/>
			<stop  offset="0.7062" style="stop-color:#C5C4F7"/>
			<stop  offset="1" style="stop-color:#C0BFF6"/>
		</linearGradient>
		<path id="XMLID_923_" class="st18" d="M261.7,775.7l-60.4-34.9c-7.1-4.1-7.1-10.7,0-14.8l60.4-34.9c7.1-4.1,18.6-4.1,25.6,0
			l60.4,34.9c7.1,4.1,7.1,10.7,0,14.8l-60.4,34.9C280.2,779.8,268.7,779.8,261.7,775.7z"/>
	</g>
	<g id="XMLID_919_" class="st0">
		<path id="XMLID_920_" class="st4" d="M261.7,775.7l-60.4-34.9c-7.1-4.1-7.1-10.7,0-14.8l60.4-34.9c7.1-4.1,18.6-4.1,25.6,0
			l60.4,34.9c7.1,4.1,7.1,10.7,0,14.8l-60.4,34.9C280.2,779.8,268.7,779.8,261.7,775.7z"/>
	</g>
</g>
<g id="XMLID_898_">
	<g id="XMLID_899_">
		<path id="XMLID_915_" class="st5" d="M345.9,734.2c-4.1,0-8.2-0.9-11.4-2.7l-60.4-34.9c-3.1-1.8-4.9-4.2-4.9-6.9
			c0-2.6,1.7-5.1,4.9-6.9l60.4-34.9c6.3-3.6,16.5-3.6,22.8,0l60.4,34.9c3.1,1.8,4.9,4.3,4.9,6.9c0,2.6-1.7,5.1-4.9,6.9l-60.4,34.9
			C354.1,733.3,350,734.2,345.9,734.2z M335,730.6c6,3.5,15.7,3.5,21.7,0l60.4-34.9c2.8-1.6,4.3-3.7,4.3-6c0-2.2-1.5-4.3-4.3-6
			L356.7,649c-6-3.5-15.7-3.5-21.7,0l-60.4,34.9c-2.8,1.6-4.3,3.7-4.3,6c0,2.2,1.5,4.3,4.3,6L335,730.6z"/>
		<g id="XMLID_900_">
			<path id="XMLID_386_" class="st6" d="M424.4,676.4v-20.7l-3.8-2.1c-1.1,6.5-8.7,10.7-15,11.6l-43.3,25.3l-18.9,6.8l-60.3-31.1
				l1.4-0.8c-5.1-2.4-7.9-7.9-10.7-12.9l-4.1,2.4l-2.4,0.7v21l0,0c0,2.7,1.8,5.4,5.3,7.4l60.4,34.9c7.1,4.1,18.6,4.1,25.6,0
				l60.4-34.9c3.5-2,5.2-4.6,5.3-7.3C424.4,676.6,424.4,676.5,424.4,676.4L424.4,676.4z"/>
			<g id="XMLID_901_">
				<g id="XMLID_902_">
					<linearGradient id="XMLID_451_" gradientUnits="userSpaceOnUse" x1="283.0035" y1="617.1852" x2="407.5454" y2="689.0894">
						<stop  offset="0" style="stop-color:#BCBEFF"/>
						<stop  offset="0.2271" style="stop-color:#AAADF8"/>
						<stop  offset="0.6802" style="stop-color:#7C83E5"/>
						<stop  offset="1" style="stop-color:#5761D7"/>
					</linearGradient>
					<path id="XMLID_385_" class="st19" d="M424.4,658v-13.7l-3.8-2.1c-1.1,6.5-8.7,10.7-15,11.6l-43.3,25.3l-18.9,6.8l-60.3-31.1
						l1.4-0.8c-5.1-2.4-7.9-7.9-10.7-12.9l-4.1,2.4l-2.4,0.7v14l0,0c0,2.7,1.8,5.4,5.3,7.4l60.4,34.9c7.1,4.1,18.6,4.1,25.6,0
						l60.4-34.9c3.5-2,5.2-4.6,5.3-7.3C424.4,658.3,424.4,658.2,424.4,658L424.4,658z"/>
					<path id="XMLID_384_" class="st2" d="M405.6,653.9l-43.3,25.3l-16.4,5.9v18.5c4.6,0,9.3-1,12.8-3.1l60.4-34.9
						c3.5-2,5.2-4.6,5.3-7.3c0-0.1,0-0.2,0-0.4l0,0v-13.7l-3.5-1.9h-0.4C419.4,648.8,411.8,653,405.6,653.9z"/>
					<g id="XMLID_909_">
						<linearGradient id="XMLID_452_" gradientUnits="userSpaceOnUse" x1="267.3871" y1="644.3647" x2="424.3569" y2="644.3647">
							<stop  offset="0" style="stop-color:#E9E9FD"/>
							<stop  offset="0.3601" style="stop-color:#D3D2F9"/>
							<stop  offset="0.7062" style="stop-color:#C5C4F7"/>
							<stop  offset="1" style="stop-color:#C0BFF6"/>
						</linearGradient>
						<path id="XMLID_910_" class="st20" d="M333.1,686.6l-60.4-34.9c-7.1-4.1-7.1-10.7,0-14.8l60.4-34.9c7.1-4.1,18.6-4.1,25.6,0
							l60.4,34.9c7.1,4.1,7.1,10.7,0,14.8l-60.4,34.9C351.6,690.7,340.1,690.7,333.1,686.6z"/>
					</g>
					<g id="XMLID_905_">
						<path id="XMLID_906_" class="st12" d="M345.9,680.3c-3.7,0-7.4-0.8-10.3-2.5l-47.2-27.2c-2.8-1.6-4.4-3.9-4.4-6.2
							c0-2.4,1.6-4.6,4.4-6.2l47.2-27.2c5.7-3.3,14.9-3.3,20.6,0l47.2,27.2c2.8,1.6,4.4,3.9,4.4,6.2c0,2.4-1.6,4.6-4.4,6.2
							l-47.2,27.2C353.3,679.5,349.6,680.3,345.9,680.3z M345.9,609.5c-3.5,0-7.1,0.8-9.7,2.3L289,639c-2.5,1.4-3.9,3.3-3.9,5.3
							c0,2,1.4,3.9,3.9,5.3l47.2,27.2c5.4,3.1,14.1,3.1,19.5,0l47.2-27.2c2.5-1.4,3.9-3.3,3.9-5.3c0-2-1.4-3.9-3.9-5.3l-47.2-27.2
							C352.9,610.3,349.4,609.5,345.9,609.5z"/>
					</g>
					<g id="XMLID_903_">
						<path id="XMLID_380_" class="st9" d="M419.1,651.8l-60.4,34.9c-7.1,4.1-18.6,4.1-25.6,0l-60.4-34.9c-3.2-1.8-4.9-4.2-5.2-6.5
							c-0.4,3,1.3,6,5.2,8.3l60.4,34.9c7.1,4.1,18.6,4.1,25.6,0l60.4-34.9c3.9-2.3,5.7-5.3,5.2-8.3
							C424,647.6,422.2,649.9,419.1,651.8z"/>
					</g>
				</g>
			</g>
		</g>
	</g>
</g>
<g id="XMLID_869_">
	<g id="XMLID_881_" class="st21">
		<path id="XMLID_26_" class="st22" d="M422.1,680.5c-6,0-11.4-1.3-15.7-3.8l-47.5-27.4l-47.5-27.4c-5.7-3.3-9-8.6-9-14.4
			c0-6.4,4-12.3,10.9-16.3l34-21.2c5.4-3.1,12.2-4.9,19.1-4.9c6,0,11.4,1.3,15.7,3.8l47.5,27.4l47.5,27.4c5.7,3.3,9,8.6,9,14.4
			c0,6.4-26.2,26.6-33.1,30.6l-11.8,7C435.8,678.8,429,680.5,422.1,680.5z"/>
		<path id="XMLID_36_" class="st23" d="M313.6,591.8l24.1-15.1c0.2-0.1,8.9-5.5,9.1-5.5c5.4-2.9,12-4.5,18.6-4.4
			c2.3,0,4.6,0.3,6.7,0.7c3,0.6,6.2,1.8,8.6,3.2l46.2,26.7l11.3,6.5l34.9,20.2c5.2,3,9.2,8.3,9.2,13.6c0,2.6-3.9,8.1-9.5,13.4
			c-6.8,6.5-15.5,13.9-19.7,16.3l-11.7,7c-2.4,1.4-5.7,2.8-8.5,3.6c-3.3,0.9-6.7,1.4-10.3,1.5c-5.9,0.1-11.3-1.1-15.6-3.5
			c-0.1,0-2.6-1.5-2.6-1.5L360,648.9l-8.5-4.9l-38.5-22.2c-4.9-2.8-8.8-7.9-9.4-12.8c0-0.3-0.1-0.6-0.1-1
			C303,601.8,306.7,595.8,313.6,591.8z"/>
		<path id="XMLID_35_" class="st24" d="M314,592.6l23.4-14.7c0.4-0.2,8.4-5.1,8.9-5.2c5.3-2.8,11.8-4.2,18.2-4
			c2.3,0.1,4.4,0.4,6.5,0.8c2.7,0.6,6.2,2,8.3,3.2l45,26l11,6.4l34,19.6c4.7,2.7,9.4,8.1,9.4,12.9c0,2.3-2.6,7.7-7.4,12.7
			c-5.8,6-13.4,13.6-17.9,16.2l-11.5,6.9c-2.1,1.2-5.8,3-8.4,3.7c-3.2,0.9-6.6,1.6-10.1,1.7c-5.8,0.2-11.2-1-15.5-3.3
			c-0.2-0.1-2.5-1.4-2.6-1.5l-43.9-25.4l-8.4-4.9l-38.1-22c-4.4-2.6-9.1-7.9-9.7-12.3c0-0.3-0.1-0.6-0.2-0.9
			C303.7,602.6,307,596.6,314,592.6z"/>
		<path id="XMLID_34_" class="st25" d="M314.4,593.3l22.7-14.3c0.6-0.3,8-4.8,8.7-5c5.2-2.6,11.5-3.9,17.7-3.6
			c2.2,0.1,4.3,0.5,6.2,0.9c2.4,0.5,6.1,2.1,8,3.2l43.7,25.2l10.7,6.2l33,19.1c4.2,2.4,9.5,7.9,9.5,12.2c0,2.1-1.3,7.3-5.3,12
			c-4.8,5.6-11.3,13.2-16.1,16l-11.4,6.9c-1.9,1.1-6,3.1-8.2,3.8c-3.2,0.9-6.5,1.7-10,1.8c-5.7,0.2-11.1-0.8-15.4-3
			c-0.2-0.1-2.4-1.3-2.6-1.4l-43.5-25.1l-8.4-4.8l-37.7-21.8c-3.9-2.3-9.3-7.9-10.1-11.8c-0.1-0.3-0.2-0.6-0.2-0.9
			C304.4,603.3,307.4,597.3,314.4,593.3z"/>
		<path id="XMLID_33_" class="st26" d="M314.8,594l22-13.9c0.8-0.5,7.6-4.5,8.5-4.7c5.2-2.4,11.3-3.5,17.2-3.1c2.1,0.1,4.1,0.6,6,1
			c2.1,0.5,6.1,2.3,7.7,3.2l42.4,24.5l10.4,6l32.1,18.5c3.7,2.1,9.7,7.7,9.7,11.4c0,1.8,0.8,7.7-3.2,11.4
			c-2.7,5.9-9.2,12.9-14.4,15.9l-11.2,6.9c-1.7,1-6.1,3.3-8.1,3.9c-3.1,1-6.4,1.8-9.8,2c-5.6,0.3-11-0.6-15.2-2.7
			c-0.3-0.1-2.3-1.2-2.6-1.4l-43-24.9l-8.3-4.8l-37.3-21.6c-3.4-2-9.6-7.9-10.4-11.2c-0.1-0.3-0.2-0.5-0.3-0.8
			C305,604.1,307.8,598.1,314.8,594z"/>
		<path id="XMLID_32_" class="st27" d="M315.3,594.7l21.3-13.5c1-0.6,7.2-4.1,8.3-4.4c5.1-2.2,11.1-3.2,16.8-2.7
			c2.1,0.2,4,0.7,5.8,1.1c1.8,0.4,6,2.4,7.4,3.2l41.2,23.8l10.1,5.8l31.1,18c3.1,1.8,9.9,7.5,9.9,10.7c0,1.6,2.3,7.6-1.2,10.7
			c-1.3,5.6-7,12.5-12.6,15.7l-11.1,6.9c-1.4,0.8-6.2,3.5-7.9,4c-3.1,1-6.3,1.9-9.7,2.1c-5.5,0.4-10.9-0.4-15.1-2.5
			c-0.4-0.1-2.2-1.2-2.6-1.4l-42.6-24.6l-8.2-4.7l-36.9-21.3c-2.9-1.7-10.6-7.7-10.8-10.7c-0.1-0.3-0.2-0.5-0.4-0.8
			C305.7,604.8,308.2,598.8,315.3,594.7z"/>
		<path id="XMLID_31_" class="st28" d="M315.7,595.4l20.6-13.2c1.2-0.7,6.7-3.8,8.1-4.1c5-2,10.9-2.9,16.3-2.2
			c2,0.2,3.8,0.8,5.6,1.3c1.5,0.4,6,2.6,7.2,3.3l39.9,23l9.8,5.6l30.1,17.4c2.6,1.5,10,7.3,10,10c0,1.3,3.8,7.4,0.9,10
			c0,5.3-4.9,12.2-10.8,15.6l-10.9,6.8c-1.2,0.7-6.4,3.6-7.8,4.1c-3,1-6.2,2-9.5,2.3c-5.5,0.5-10.8-0.2-15-2.2
			c-0.5-0.2-2.2-1.1-2.6-1.3l-42.1-24.3l-8.1-4.7l-36.6-21.1c-2.5-1.4-11-7.7-11.1-10.2c-0.2-0.2-0.3-0.5-0.4-0.7
			C306.3,605.6,308.6,599.6,315.7,595.4z"/>
		<path id="XMLID_30_" class="st29" d="M316.1,596.2l20-12.8c1.4-0.8,6.3-3.5,7.9-3.9c5-1.8,10.6-2.5,15.8-1.8
			c1.9,0.3,3.7,0.9,5.4,1.4c1.2,0.3,5.9,2.7,6.9,3.3l38.6,22.3l9.5,5.5l29.2,16.9c2.1,1.2,10.2,7.1,10.2,9.2c0,1,5.3,7.2,3,9.3
			c1.3,5-2.8,11.8-9,15.4l-10.8,6.8c-1,0.6-6.5,3.8-7.6,4.2c-3,1-6.1,2.1-9.4,2.5c-5.4,0.6-10.7-0.1-14.9-1.9
			c-0.6-0.2-2.1-1-2.6-1.3L366.6,647l-8-4.6l-36.2-20.9c-2-1.1-11.4-7.6-11.5-9.6c-0.2-0.2-0.3-0.4-0.5-0.7
			C307,606.4,308.9,600.3,316.1,596.2z"/>
		<path id="XMLID_29_" class="st30" d="M316.5,596.9l19.3-12.4c1.6-0.9,5.9-3.2,7.7-3.6c4.9-1.7,10.4-2.2,15.4-1.4
			c1.9,0.3,3.5,1,5.2,1.5c0.9,0.3,5.9,2.9,6.6,3.3l37.3,21.6l9.1,5.3l28.2,16.3c1.6,0.9,10.4,6.9,10.4,8.5c0,0.8,6.8,7.1,5.1,8.6
			c2.6,4.7-0.6,11.5-7.2,15.3l-10.7,6.8c-0.7,0.4-6.6,4-7.5,4.3c-2.9,1.1-6,2.2-9.2,2.6c-5.3,0.7-10.6,0.1-14.8-1.7
			c-0.6-0.2-2-0.9-2.5-1.3l-41.2-23.8l-7.9-4.6l-35.8-20.7c-1.5-0.9-11.7-7.6-11.8-9.1c-0.2-0.2-0.4-0.4-0.6-0.6
			C307.6,607.1,309.3,601,316.5,596.9z"/>
		<path id="XMLID_28_" class="st31" d="M316.9,597.6l18.6-12c1.8-1,5.5-2.8,7.6-3.3c4.8-1.5,10.2-1.8,14.9-0.9
			c1.8,0.3,3.4,1.1,4.9,1.6c0.6,0.2,5.9,3,6.3,3.3l36.1,20.8l8.8,5.1l27.3,15.7c1,0.6,10.5,6.7,10.5,7.7c0,0.5,8.3,6.9,7.2,7.9
			c3.9,4.4,1.5,11.1-5.4,15.1l-10.5,6.7c-0.5,0.3-6.8,4.2-7.3,4.4c-2.9,1.1-5.9,2.3-9.1,2.8c-5.2,0.7-10.5,0.3-14.6-1.4
			c-0.7-0.3-1.9-0.9-2.5-1.2l-40.8-23.6l-7.8-4.5l-35.4-20.4c-1-0.6-12.1-7.5-12.2-8.5c-0.2-0.2-0.4-0.4-0.6-0.6
			C308.2,607.9,309.7,601.8,316.9,597.6z"/>
		<path id="XMLID_27_" class="st32" d="M317.3,598.3l17.9-11.6c2-1.1,5-2.5,7.4-3c4.8-1.3,10-1.5,14.4-0.5c1.7,0.4,3.2,1.2,4.7,1.7
			c0.3,0.1,5.8,3.2,6,3.3l34.8,20.1l8.5,4.9l26.3,15.2c0.5,0.3,10.7,6.5,10.7,7c0,0.3,9.8,6.7,9.2,7.2c5.3,4.1,3.6,10.8-3.6,15
			l-10.4,6.7c-0.2,0.1-6.9,4.4-7.2,4.5c-2.8,1.1-5.7,2.4-8.9,2.9c-5.1,0.8-10.4,0.5-14.5-1.1c-0.8-0.3-1.8-0.8-2.5-1.2L370,646.1
			l-7.7-4.5l-35-20.2c-0.5-0.3-12.5-7.5-12.6-8c-0.2-0.2-0.5-0.3-0.7-0.5C308.8,608.7,310.1,602.5,317.3,598.3z"/>
		<path id="XMLID_25_" d="M410.9,668.8l-47.5-27.4l-47.5-27.4c-6.6-3.8-5.8-10.4,1.8-14.8l17.2-11.3c7.6-4.4,19.1-4.9,25.7-1.1
			l47.5,27.4l47.5,27.4c6.6,3.8,5.8,10.4-1.8,14.8l-17.2,11.3C429,672.1,417.5,672.6,410.9,668.8z"/>
	</g>
	
		<linearGradient id="XMLID_453_" gradientUnits="userSpaceOnUse" x1="-941.8467" y1="318.019" x2="-821.8375" y2="525.881" gradientTransform="matrix(1 0 0 1 1224.6067 0)">
		<stop  offset="5.555560e-002" style="stop-color:#9F79B8"/>
		<stop  offset="0.2575" style="stop-color:#A17BBA"/>
		<stop  offset="0.3569" style="stop-color:#A783BF"/>
		<stop  offset="0.4338" style="stop-color:#B290C9"/>
		<stop  offset="0.4949" style="stop-color:#C1A1D5"/>
		<stop  offset="0.5067" style="stop-color:#C4A5D7"/>
		<stop  offset="0.5196" style="stop-color:#CDB3DD"/>
		<stop  offset="0.5329" style="stop-color:#DBC8E7"/>
		<stop  offset="0.5466" style="stop-color:#EFE7F4"/>
		<stop  offset="0.5556" style="stop-color:#FFFFFF"/>
		<stop  offset="0.5678" style="stop-color:#ECE0F3"/>
		<stop  offset="0.5801" style="stop-color:#DDC8EA"/>
		<stop  offset="0.5915" style="stop-color:#D4B9E5"/>
		<stop  offset="0.601" style="stop-color:#D1B4E3"/>
		<stop  offset="0.658" style="stop-color:#B395D6"/>
		<stop  offset="0.7155" style="stop-color:#9C7DCB"/>
		<stop  offset="0.7687" style="stop-color:#8E6EC5"/>
		<stop  offset="0.8131" style="stop-color:#8969C3"/>
		<stop  offset="1" style="stop-color:#B086CC"/>
	</linearGradient>
	<path id="XMLID_377_" class="st33" d="M423.6,667l-88.7-51.2c-10-5.8-18.1-21.3-18.1-34.6V330.6c0-6.8-5.6-8.3-2.2-10.7
		c0.1-0.1,13.8-6.9,14-7c3.6-1.4,7.5-2,12.3,0.7l88.7,51.2c10,5.8,18.1,21.3,18.1,34.6V650c0,7.1-2.3,12.1-5.9,14.5
		c-0.2,0.1-15.5,7.9-15.8,8C422.7,673.5,428,669.5,423.6,667z"/>
	
		<radialGradient id="XMLID_454_" cx="-793.3925" cy="391.9103" r="128.1292" gradientTransform="matrix(1 0 0 1 1224.6067 0)" gradientUnits="userSpaceOnUse">
		<stop  offset="0" style="stop-color:#AF8AFC"/>
		<stop  offset="1" style="stop-color:#10054D"/>
	</radialGradient>
	<path id="XMLID_376_" class="st34" d="M416.7,655.9L328,604.7c-10-5.8-18.1-21.3-18.1-34.6V333.8c0-13.3,8.1-19.5,18.1-13.7
		l88.7,51.2c10,5.8,18.1,21.3,18.1,34.6v236.3C434.9,655.6,426.8,661.7,416.7,655.9z"/>
	<path id="XMLID_375_" class="st9" d="M415.2,671l-88.7-51.2c-10-5.8-18.1-21.3-18.1-34.6V334.6c0-13.3,8.1-19.5,18.1-13.7
		l88.7,51.2c10,5.8,18.1,21.3,18.1,34.6v250.5C433.3,670.6,425.2,676.7,415.2,671z"/>
	
		<linearGradient id="XMLID_455_" gradientUnits="userSpaceOnUse" x1="-775.6538" y1="661.0818" x2="-962.1899" y2="266.9282" gradientTransform="matrix(1 0 0 1 1224.6067 0)">
		<stop  offset="0" style="stop-color:#9F79C8"/>
		<stop  offset="0.1409" style="stop-color:#A27DCA"/>
		<stop  offset="0.2725" style="stop-color:#AC88CF"/>
		<stop  offset="0.4" style="stop-color:#BC9BD7"/>
		<stop  offset="0.5202" style="stop-color:#D1B4E3"/>
		<stop  offset="0.6493" style="stop-color:#DBC4E9"/>
		<stop  offset="0.8997" style="stop-color:#F4EDF8"/>
		<stop  offset="1" style="stop-color:#FFFFFF"/>
	</linearGradient>
	<path id="XMLID_374_" class="st35" d="M310.8,586.7V335.9c0-11.7,7.1-17.1,15.9-12l88.3,51c8.8,5.1,15.9,18.7,15.9,30.4V656
		c0,11.7-7.1,17.1-15.9,12l-88.3-51C317.9,612,310.8,598.4,310.8,586.7z"/>
	<linearGradient id="XMLID_456_" gradientUnits="userSpaceOnUse" x1="434.1385" y1="745.9677" x2="332.859" y2="334.812">
		<stop  offset="9.595960e-002" style="stop-color:#45108A"/>
		<stop  offset="1" style="stop-color:#7C1DC9"/>
	</linearGradient>
	<path id="XMLID_373_" class="st36" d="M314.3,573.9V338.6c0-9.8,6-14.3,13.3-10.1l86.4,49.9c7.3,4.2,13.3,15.6,13.3,25.4v235.4
		c0,9.8-6,14.3-13.3,10.1l-86.4-49.9C320.3,595.1,314.3,583.7,314.3,573.9z"/>
	<path id="XMLID_372_" class="st37" d="M328.6,331.1c-6.9-4-12.5-0.8-12.5,7.1v238c0,7.9,5.6,17.6,12.5,21.6l84.4,48.7
		c6.9,4,12.5,0.8,12.5-7.1v-238c0-7.9-5.6-17.6-12.5-21.6L328.6,331.1z"/>
	<linearGradient id="XMLID_457_" gradientUnits="userSpaceOnUse" x1="444.7472" y1="466.2155" x2="423.731" y2="409.4271">
		<stop  offset="9.595960e-002" style="stop-color:#45108A"/>
		<stop  offset="1" style="stop-color:#7C1DC9"/>
	</linearGradient>
	<path id="XMLID_371_" class="st38" d="M436.7,471.6v-25.2c0-3.2,2-7,4.4-8.4l0,0c2.4-1.4,4.4,0.1,4.4,3.3v25.2c0,3.2-2,7-4.4,8.4
		l0,0C438.7,476.3,436.7,474.8,436.7,471.6z"/>
	
		<linearGradient id="XMLID_460_" gradientUnits="userSpaceOnUse" x1="-776.6122" y1="456.7173" x2="-798.6649" y2="455.7688" gradientTransform="matrix(1 0 0 1 1224.6067 0)">
		<stop  offset="0" style="stop-color:#9F79C8"/>
		<stop  offset="0.1409" style="stop-color:#A27DCA"/>
		<stop  offset="0.2725" style="stop-color:#AC88CF"/>
		<stop  offset="0.4" style="stop-color:#BC9BD7"/>
		<stop  offset="0.5202" style="stop-color:#D1B4E3"/>
		<stop  offset="0.6493" style="stop-color:#DBC4E9"/>
		<stop  offset="0.8997" style="stop-color:#F4EDF8"/>
		<stop  offset="1" style="stop-color:#FFFFFF"/>
	</linearGradient>
	<path id="XMLID_370_" class="st39" d="M439.4,474.5c-1.3,0-1.7-1.6-1.7-2.9v-25.2c0-2.9,1.8-6.3,3.9-7.6c0.5-0.3,0.9-0.4,1.3-0.4
		c1.3,0,1.7,1.6,1.7,2.9v25.2c0,2.9-1.8,6.3-3.9,7.6C440.2,474.3,439.8,474.5,439.4,474.5z"/>
	
		<radialGradient id="XMLID_461_" cx="-786.3428" cy="447.3671" r="12.9514" gradientTransform="matrix(1 0 0 1 1224.6067 0)" gradientUnits="userSpaceOnUse">
		<stop  offset="0" style="stop-color:#711F56"/>
		<stop  offset="0.1614" style="stop-color:#6C1E52"/>
		<stop  offset="0.3626" style="stop-color:#5C1946"/>
		<stop  offset="0.5849" style="stop-color:#431233"/>
		<stop  offset="0.8208" style="stop-color:#200918"/>
		<stop  offset="1" style="stop-color:#000000"/>
	</radialGradient>
	<path id="XMLID_369_" class="st40" d="M439,472.2V447c0-2.9,1.8-6.3,3.9-7.6c0.4-0.2,0.8-0.3,1.1-0.4c-0.3-0.4-0.6-0.7-1.2-0.7
		c-0.4,0-0.8,0.1-1.3,0.4c-2.1,1.2-3.9,4.7-3.9,7.6v25.2c0,1.3,0.4,2.9,1.7,2.9c0,0,0.1,0,0.1,0C439.1,473.9,439,473,439,472.2z"/>
	<linearGradient id="XMLID_462_" gradientUnits="userSpaceOnUse" x1="424.6995" y1="663.8037" x2="312.0169" y2="298.0323">
		<stop  offset="3.030300e-002" style="stop-color:#7C1DC9"/>
		<stop  offset="0.2138" style="stop-color:#6E41D2"/>
		<stop  offset="0.6184" style="stop-color:#4C9BE8"/>
		<stop  offset="1" style="stop-color:#2AF6FF"/>
	</linearGradient>
	<path id="XMLID_870_" class="st41" d="M424.4,639.5c0,2.5-0.6,4.5-1.7,5.9c-1,1.3-2.4,1.9-4.1,1.9h0c-1.5,0-3.3-0.5-5.1-1.6
		L329.2,597c-6.6-3.8-12-13.1-12-20.7v-238c0-4.8,2.2-7.8,5.8-7.8c1.5,0,3.3,0.5,5.1,1.6l84.4,48.7c6.6,3.8,12,13.1,12,20.7V639.5z"
		/>
</g>
<g id="XMLID_595_">
	<g id="XMLID_852_" class="st21">
		<path id="XMLID_14_" class="st22" d="M632.9,383.3c-6.5,0-12.4-1.4-17.1-4.1L435.2,274.9c-6.2-3.6-9.8-9.3-9.8-15.6
			c0-6.9,4.3-13.4,11.8-17.7l102.5-59.2c5.9-3.4,13.2-5.3,20.7-5.3c6.5,0,12.4,1.4,17.1,4.1l180.6,104.3c6.2,3.6,9.8,9.3,9.8,15.6
			c0,6.9-4.3,13.4-11.8,17.7l-102.5,59.2C647.7,381.4,640.3,383.3,632.9,383.3z"/>
		<path id="XMLID_24_" class="st23" d="M540.1,183.3c5.9-3.4,13.3-5.2,20.7-5.1c3,0,5.8,0.4,8.5,1c2.8,0.7,6.2,2,8.4,3.3
			l179.9,103.9c6.2,3.6,9.4,9.2,9,15.4c-0.1,1.7-0.5,3.4-1.1,5c-1.6,4.4-6,9.1-11.1,12l-101,58.3c-1.3,0.7-3,1.6-4.4,2.2
			c-4.9,2-10.4,3.1-15.9,3.1c-6.4,0-12.2-1.3-16.8-4L435.6,274.1c-6.2-3.6-9.4-9.3-9-15.4c0.1-1.5,0.4-2.9,0.9-4.3
			c1.4-4.7,6.1-9.6,11.4-12.7L540.1,183.3z"/>
		<path id="XMLID_23_" class="st24" d="M540.6,184c5.9-3.4,13.3-5.1,20.6-5c3,0.1,5.8,0.5,8.4,1.2c2.6,0.6,6.3,2.2,8.3,3.4
			l179.2,103.5c6.2,3.6,9.1,9.2,8.3,15.2c-0.2,1.6-0.7,3.2-1.3,4.7c-1.5,3.9-6.7,8.9-11.2,11.5l-99.6,57.5c-1.2,0.7-3.1,1.6-4.3,2.2
			c-4.8,2-10.2,3.2-15.7,3.2c-6.3,0.1-12.1-1.3-16.6-3.9L436.1,273.4c-6.2-3.6-9-9.2-8.2-15.3c0.2-1.4,0.6-2.7,1.1-4.1
			c1.4-4.1,6.8-9.4,11.6-12.2L540.6,184z"/>
		<path id="XMLID_22_" class="st25" d="M541,184.8c5.8-3.4,13.3-5.1,20.5-4.8c3,0.1,5.8,0.7,8.3,1.3c2.3,0.6,6.4,2.5,8.3,3.5
			l178.5,103.1c6.1,3.5,8.7,9.1,7.6,15c-0.3,1.5-0.9,3-1.6,4.5c-1.5,3.4-7.3,8.7-11.3,11l-98.1,56.7c-1,0.6-3.1,1.7-4.3,2.2
			c-4.7,2-10,3.2-15.4,3.3c-6.2,0.1-11.9-1.2-16.4-3.7L436.5,272.6c-6.2-3.6-8.7-9.2-7.5-15.1c0.3-1.3,0.8-2.6,1.3-3.9
			c1.4-3.6,7.5-9.3,11.8-11.7L541,184.8z"/>
		<path id="XMLID_21_" class="st26" d="M541.5,185.6c5.8-3.4,13.3-5,20.5-4.7c3,0.1,5.7,0.8,8.3,1.5c2,0.5,6.6,2.7,8.2,3.6
			l177.9,102.7c6.1,3.5,8.4,9.1,6.8,14.8c-0.4,1.5-1.2,2.8-1.8,4.3c-1.4,3-7.9,8.5-11.5,10.5l-96.7,55.8c-0.9,0.5-3.2,1.7-4.2,2.2
			c-4.6,2-9.8,3.2-15.2,3.4c-6.1,0.1-11.8-1.1-16.1-3.6L437,271.8c-6.2-3.6-8.4-9.2-6.7-14.9c0.4-1.3,1-2.4,1.6-3.7
			c1.3-3.1,8.2-9.1,12-11.2L541.5,185.6z"/>
		<path id="XMLID_20_" class="st27" d="M541.9,186.4c5.8-3.4,13.3-4.9,20.4-4.5c3,0.2,5.7,0.9,8.2,1.6c1.7,0.5,6.7,2.9,8.1,3.7
			l177.2,102.3c6.1,3.5,8,9,6.1,14.6c-0.5,1.4-1.4,2.6-2.1,4.1c-1.3,2.5-8.6,8.3-11.6,10.1l-95.2,55c-0.8,0.4-3.3,1.8-4.1,2.2
			c-4.5,2-9.7,3.3-14.9,3.4c-6,0.2-11.6-1-15.9-3.5L437.4,271c-6.1-3.5-8-9.2-5.9-14.8c0.5-1.2,1.2-2.3,1.8-3.5
			c1.2-2.6,9-8.9,12.2-10.7L541.9,186.4z"/>
		<path id="XMLID_19_" class="st28" d="M542.4,187.2c5.8-3.3,13.4-4.9,20.4-4.4c2.9,0.2,5.6,1,8.1,1.8c1.4,0.4,6.9,3.2,8,3.8
			l176.5,101.9c6,3.5,7.7,9,5.3,14.4c-0.6,1.3-1.3,2.6-2.3,3.8c-0.7,2.2-9.2,8.1-11.7,9.6l-93.8,54.1c-0.6,0.4-3.3,1.8-4,2.1
			c-4.4,2-9.5,3.3-14.6,3.5c-5.9,0.2-11.5-0.9-15.7-3.3L437.9,270.2c-6.1-3.5-7.7-9.1-5.1-14.6c0.5-1.1,1.2-2.2,2-3.3
			c0.7-2.4,9.7-8.7,12.4-10.2L542.4,187.2z"/>
		<path id="XMLID_18_" class="st29" d="M542.8,187.9c5.8-3.3,13.4-4.8,20.3-4.2c2.9,0.3,5.6,1.1,8,1.9c1.1,0.4,7,3.4,7.9,3.9
			l175.8,101.5c6,3.5,7.4,9,4.6,14.2c-0.7,1.2-1.5,2.5-2.6,3.6c-0.6,1.8-9.8,7.9-11.9,9.1l-92.3,53.3c-0.5,0.3-3.4,1.9-4,2.1
			c-4.3,2-9.3,3.4-14.4,3.6c-5.8,0.2-11.3-0.8-15.4-3.2L438.4,269.5c-6.1-3.5-7.4-9.1-4.3-14.4c0.6-1.1,1.3-2.1,2.3-3.1
			c0.5-1.9,10.4-8.5,12.6-9.7L542.8,187.9z"/>
		<path id="XMLID_17_" class="st30" d="M543.3,188.7c5.8-3.3,13.4-4.8,20.2-4.1c2.9,0.3,5.6,1.2,8,2.1c0.8,0.3,7.1,3.7,7.8,4.1
			l175.1,101.1c6,3.5,7.1,8.9,3.8,14c-0.7,1.2-1.7,2.3-2.9,3.4c-0.4,1.3-10.5,7.7-12,8.6l-90.8,52.4c-0.4,0.2-3.5,1.9-3.9,2.1
			c-4.2,2-9.1,3.4-14.1,3.6c-5.7,0.3-11.2-0.8-15.2-3.1L438.8,268.7c-6.1-3.5-7.1-9.1-3.6-14.3c0.7-1,1.5-2,2.5-2.9
			c0.4-1.4,11.2-8.3,12.8-9.2L543.3,188.7z"/>
		<path id="XMLID_16_" class="st31" d="M543.8,189.5c5.7-3.3,13.4-4.7,20.2-3.9c2.9,0.3,5.5,1.4,7.9,2.2c0.6,0.2,7.3,3.9,7.7,4.2
			L754,292.6c6,3.4,6.8,8.9,3.1,13.8c-0.8,1.1-1.8,2.1-3.1,3.1c-0.3,0.9-11.1,7.5-12.1,8.1l-89.4,51.6c-0.3,0.1-3.5,2-3.8,2.1
			c-4.2,2-9,3.4-13.8,3.7c-5.6,0.3-11-0.7-15-3L439.3,267.9c-6.1-3.5-6.9-9.1-2.8-14.1c0.8-0.9,1.7-1.9,2.8-2.7
			c0.3-0.9,11.9-8.1,12.9-8.7L543.8,189.5z"/>
		<path id="XMLID_15_" class="st32" d="M544.2,190.3c5.7-3.3,13.4-4.6,20.1-3.8c2.9,0.4,5.5,1.5,7.8,2.3c0.3,0.1,7.4,4.1,7.6,4.3
			l173.7,100.3c5.9,3.4,6.6,8.9,2.4,13.6c-0.9,1-2,2-3.4,2.9c-0.1,0.4-11.7,7.3-12.2,7.6l-87.9,50.8c-0.1,0.1-3.6,2.1-3.7,2.1
			c-4.1,2-8.8,3.5-13.6,3.8c-5.5,0.3-10.9-0.6-14.7-2.8L439.7,267.1c-6.1-3.5-6.6-9.2-2-13.9c0.8-0.9,1.8-1.7,3-2.5
			c0.1-0.5,12.6-7.9,13.1-8.2L544.2,190.3z"/>
		<path id="XMLID_13_" d="M620.8,370.6L440.2,266.3c-7.1-4.1-6.2-11.3,2-16.1l102.5-59.2c8.2-4.8,20.7-5.3,27.8-1.2l180.6,104.3
			c7.1,4.1,6.2,11.3-2,16.1l-102.5,59.2C640.4,374.2,627.9,374.7,620.8,370.6z"/>
	</g>
	<linearGradient id="XMLID_463_" gradientUnits="userSpaceOnUse" x1="442.4783" y1="280.0953" x2="777.7588" y2="280.0953">
		<stop  offset="5.555560e-002" style="stop-color:#9F79B8"/>
		<stop  offset="0.2575" style="stop-color:#A17BBA"/>
		<stop  offset="0.3569" style="stop-color:#A783BF"/>
		<stop  offset="0.4338" style="stop-color:#B290C9"/>
		<stop  offset="0.4949" style="stop-color:#C1A1D5"/>
		<stop  offset="0.5067" style="stop-color:#C4A5D7"/>
		<stop  offset="0.5196" style="stop-color:#CDB3DD"/>
		<stop  offset="0.5329" style="stop-color:#DBC8E7"/>
		<stop  offset="0.5466" style="stop-color:#EFE7F4"/>
		<stop  offset="0.5556" style="stop-color:#FFFFFF"/>
		<stop  offset="0.5678" style="stop-color:#ECE0F3"/>
		<stop  offset="0.5801" style="stop-color:#DDC8EA"/>
		<stop  offset="0.5915" style="stop-color:#D4B9E5"/>
		<stop  offset="0.601" style="stop-color:#D1B4E3"/>
		<stop  offset="0.658" style="stop-color:#B395D6"/>
		<stop  offset="0.7155" style="stop-color:#9C7DCB"/>
		<stop  offset="0.7687" style="stop-color:#8E6EC5"/>
		<stop  offset="0.8131" style="stop-color:#8969C3"/>
		<stop  offset="1" style="stop-color:#B086CC"/>
	</linearGradient>
	<path id="XMLID_365_" class="st42" d="M620.8,370.4L440.2,266.2c-3.2-1.8-4.8-4.3-4.8-6.8c0-0.1,0-8.9,0-8.9
		c0.1-3.1,2.4,2.3,6.8-0.3l102.5-59.2c8.2-4.8,20.7-5.3,27.8-1.2L753.1,294c2.4,1.4,4.1-4.5,4.7-2.6c0.2,0.6,0.1,8.8,0.1,9.4
		c0.1,3.2-2.2,6.6-6.8,9.2l-102.5,59.2C640.4,374,627.9,374.5,620.8,370.4z"/>
	<linearGradient id="XMLID_464_" gradientUnits="userSpaceOnUse" x1="435.3463" y1="271.3141" x2="757.9027" y2="271.3141">
		<stop  offset="0" style="stop-color:#9F79C8"/>
		<stop  offset="0.1367" style="stop-color:#A580CB"/>
		<stop  offset="0.3288" style="stop-color:#B492D3"/>
		<stop  offset="0.5529" style="stop-color:#CDB0E1"/>
		<stop  offset="0.5808" style="stop-color:#D1B4E3"/>
		<stop  offset="0.7644" style="stop-color:#DBC4E9"/>
		<stop  offset="1" style="stop-color:#EBDEF3"/>
	</linearGradient>
	<path id="XMLID_364_" class="st43" d="M620.8,361.6L440.2,257.4c-7.1-4.1-6.2-11.3,2-16.1l102.5-59.2c8.2-4.8,20.7-5.3,27.8-1.2
		l180.6,104.3c7.1,4.1,6.2,11.3-2,16.1l-102.5,59.2C640.4,365.2,627.9,365.8,620.8,361.6z"/>
	<linearGradient id="XMLID_465_" gradientUnits="userSpaceOnUse" x1="438.9538" y1="271.3144" x2="754.2949" y2="271.3144">
		<stop  offset="0" style="stop-color:#3D065F"/>
		<stop  offset="1" style="stop-color:#5F27BD"/>
	</linearGradient>
	<path id="XMLID_363_" class="st44" d="M632.9,360.8c-4.1,0-7.7-0.8-10.3-2.3L442,254.3c-1.1-0.6-3-2-3-3.9c0-1.9,1.9-4.2,5-6
		l102.5-59.2c3.8-2.2,8.9-3.4,13.9-3.4c4.1,0,7.7,0.8,10.3,2.3l180.6,104.3c1.1,0.6,3,2,3,3.9c0,1.9-1.9,4.2-5,6l-102.5,59.2
		C643,359.6,637.9,360.8,632.9,360.8z"/>
	<path id="XMLID_362_" class="st9" d="M751.1,299.8L648.6,359c-8.2,4.8-20.7,5.3-27.8,1.2L440.2,255.9c-3-1.7-4.5-3.9-4.8-6.3
		c-0.4,2.9,1.2,5.7,4.8,7.8l180.6,104.3c7.1,4.1,19.6,3.6,27.8-1.2l102.5-59.2c4.8-2.8,7.1-6.4,6.8-9.7
		C757.5,294.5,755.2,297.5,751.1,299.8z"/>
	<linearGradient id="XMLID_466_" gradientUnits="userSpaceOnUse" x1="572.3395" y1="197.1958" x2="654.701" y2="326.4491">
		<stop  offset="5.555560e-002" style="stop-color:#9F79B8"/>
		<stop  offset="0.2502" style="stop-color:#A17BBA"/>
		<stop  offset="0.3461" style="stop-color:#A883C0"/>
		<stop  offset="0.4204" style="stop-color:#B490CC"/>
		<stop  offset="0.4836" style="stop-color:#C5A3DC"/>
		<stop  offset="0.5392" style="stop-color:#DBBBF0"/>
		<stop  offset="0.5606" style="stop-color:#E6C6FA"/>
		<stop  offset="0.5967" style="stop-color:#D6B6F1"/>
		<stop  offset="0.6872" style="stop-color:#B595DD"/>
		<stop  offset="0.7735" style="stop-color:#9D7DCF"/>
		<stop  offset="0.8529" style="stop-color:#8E6EC6"/>
		<stop  offset="0.9192" style="stop-color:#8969C3"/>
	</linearGradient>
	<path id="XMLID_777_" class="st45" d="M565.3,206.3l9.4,5.4c1.2,0.7,3.1,0.7,4.3,0s1.2-1.8,0-2.5l-9.4-5.4c-1.2-0.7-3.1-0.7-4.3,0
		S564.1,205.7,565.3,206.3z M581.4,215.6l4.5,2.6c1.2,0.7,3.1,0.7,4.3,0s1.2-1.8,0-2.5l-4.5-2.6c-1.2-0.7-3.1-0.7-4.3,0
		C580.2,213.8,580.2,214.9,581.4,215.6z M592.5,222.1l4.5,2.6c1.2,0.7,3.1,0.7,4.3,0s1.2-1.8,0-2.5l-4.5-2.6c-1.2-0.7-3.1-0.7-4.3,0
		S591.3,221.4,592.5,222.1z M603.7,228.5l4.5,2.6c1.2,0.7,3.1,0.7,4.3,0s1.2-1.8,0-2.5L608,226c-1.2-0.7-3.1-0.7-4.3,0
		C602.5,226.7,602.5,227.8,603.7,228.5z M614.8,234.9l4.5,2.6c1.2,0.7,3.1,0.7,4.3,0c1.2-0.7,1.2-1.8,0-2.5l-4.5-2.6
		c-1.2-0.7-3.1-0.7-4.3,0C613.6,233.1,613.6,234.2,614.8,234.9z M626,241.4l4.5,2.6c1.2,0.7,3.1,0.7,4.3,0s1.2-1.8,0-2.5l-4.5-2.6
		c-1.2-0.7-3.1-0.7-4.3,0S624.8,240.7,626,241.4z M637.1,247.8l4.5,2.6c1.2,0.7,3.1,0.7,4.3,0c1.2-0.7,1.2-1.8,0-2.5l-4.5-2.6
		c-1.2-0.7-3.1-0.7-4.3,0C635.9,246,635.9,247.1,637.1,247.8z M648.3,254.2l4.5,2.6c1.2,0.7,3.1,0.7,4.3,0c1.2-0.7,1.2-1.8,0-2.5
		l-4.5-2.6c-1.2-0.7-3.1-0.7-4.3,0C647.1,252.4,647.1,253.6,648.3,254.2z M659.4,260.7l4.5,2.6c1.2,0.7,3.1,0.7,4.3,0s1.2-1.8,0-2.5
		l-4.5-2.6c-1.2-0.7-3.1-0.7-4.3,0C658.2,258.9,658.2,260,659.4,260.7z M670.5,267.1l4.5,2.6c1.2,0.7,3.1,0.7,4.3,0
		c1.2-0.7,1.2-1.8,0-2.5l-4.5-2.6c-1.2-0.7-3.1-0.7-4.3,0C669.3,265.3,669.4,266.4,670.5,267.1z M681.7,273.5l4.5,2.6
		c1.2,0.7,3.1,0.7,4.3,0c1.2-0.7,1.2-1.8,0-2.5l-4.5-2.6c-1.2-0.7-3.1-0.7-4.3,0S680.5,272.9,681.7,273.5z M692.8,280l4.5,2.6
		c1.2,0.7,3.1,0.7,4.3,0c1.2-0.7,1.2-1.8,0-2.5l-4.5-2.6c-1.2-0.7-3.1-0.7-4.3,0C691.6,278.2,691.6,279.3,692.8,280z M704.2,286.5
		l4.5,2.6c1.2,0.7,3.1,0.7,4.3,0s1.2-1.8,0-2.5l-4.5-2.6c-1.2-0.7-3.1-0.7-4.3,0S703,285.9,704.2,286.5z M555.3,212.5l3.9,2.2
		c1.4,0.8,3.6,0.8,4.9,0l3.8-2.2c1.4-0.8,1.3-2,0-2.8l-3.9-2.2c-1.4-0.8-3.6-0.8-4.9,0l-3.8,2.2
		C553.9,210.4,553.9,211.7,555.3,212.5z M575.2,221.1l3.8-2.2c1.4-0.8,1.3-2,0-2.8l-3.9-2.2c-1.4-0.8-3.6-0.8-4.9,0l-3.8,2.2
		c-1.4,0.8-1.3,2,0,2.8l3.9,2.2C571.6,221.9,573.8,221.9,575.2,221.1z M577.6,225.3l3.9,2.2c1.4,0.8,3.6,0.8,4.9,0l3.8-2.2
		c1.4-0.8,1.3-2,0-2.8l-3.9-2.2c-1.4-0.8-3.6-0.8-4.9,0l-3.8,2.2C576.2,223.3,576.2,224.6,577.6,225.3z M588.7,231.8l3.9,2.2
		c1.4,0.8,3.6,0.8,4.9,0l3.8-2.2c1.4-0.8,1.3-2,0-2.8l-3.9-2.2c-1.4-0.8-3.6-0.8-4.9,0l-3.8,2.2C587.3,229.7,587.3,231,588.7,231.8z
		 M612.4,235.4l-3.9-2.2c-1.4-0.8-3.6-0.8-4.9,0l-3.8,2.2c-1.4,0.8-1.3,2,0,2.8l3.9,2.2c1.4,0.8,3.6,0.8,4.9,0l3.8-2.2
		C613.8,237.5,613.8,236.2,612.4,235.4z M623.6,241.8l-3.9-2.2c-1.4-0.8-3.6-0.8-4.9,0l-3.8,2.2c-1.4,0.8-1.3,2,0,2.8l3.9,2.2
		c1.4,0.8,3.6,0.8,4.9,0l3.8-2.2C624.9,243.9,624.9,242.6,623.6,241.8z M634.7,248.3l-3.9-2.2c-1.4-0.8-3.6-0.8-4.9,0l-3.8,2.2
		c-1.4,0.8-1.3,2,0,2.8l3.9,2.2c1.4,0.8,3.6,0.8,4.9,0l3.8-2.2C636.1,250.3,636.1,249.1,634.7,248.3z M645.9,254.7l-3.9-2.2
		c-1.4-0.8-3.6-0.8-4.9,0l-3.8,2.2c-1.4,0.8-1.3,2,0,2.8l3.9,2.2c1.4,0.8,3.6,0.8,4.9,0l3.8-2.2
		C647.2,256.8,647.2,255.5,645.9,254.7z M657,261.1l-3.9-2.2c-1.4-0.8-3.6-0.8-4.9,0l-3.8,2.2c-1.4,0.8-1.3,2,0,2.8l3.9,2.2
		c1.4,0.8,3.6,0.8,4.9,0l3.8-2.2C658.4,263.2,658.4,261.9,657,261.1z M668.2,267.6l-3.9-2.2c-1.4-0.8-3.6-0.8-4.9,0l-3.8,2.2
		c-1.4,0.8-1.3,2,0,2.8l3.9,2.2c1.4,0.8,3.6,0.8,4.9,0l3.8-2.2C669.5,269.6,669.5,268.4,668.2,267.6z M666.7,276.8l3.9,2.2
		c1.4,0.8,3.6,0.8,4.9,0l3.8-2.2c1.4-0.8,1.3-2,0-2.8l-3.9-2.2c-1.4-0.8-3.6-0.8-4.9,0l-3.8,2.2C665.4,274.8,665.4,276,666.7,276.8z
		 M690.4,280.4l-3.9-2.2c-1.4-0.8-3.6-0.8-4.9,0l-3.8,2.2c-1.4,0.8-1.3,2,0,2.8l3.9,2.2c1.4,0.8,3.6,0.8,4.9,0l3.8-2.2
		C691.8,282.5,691.8,281.2,690.4,280.4z M706.8,289.9l-8.8-5.1c-1.4-0.8-3.6-0.8-4.9,0l-3.8,2.2c-1.4,0.8-1.3,2,0,2.8l8.8,5.1
		c1.4,0.8,3.6,0.8,4.9,0l3.8-2.2C708.1,291.9,708.1,290.7,706.8,289.9z M545,218.4l8.8,5.1c1.4,0.8,3.6,0.8,4.9,0l3.8-2.2
		c1.4-0.8,1.3-2,0-2.8l-8.8-5.1c-1.4-0.8-3.6-0.8-4.9,0l-3.8,2.2C543.6,216.4,543.6,217.7,545,218.4z M561,227.7l3.9,2.2
		c1.4,0.8,3.6,0.8,4.9,0l3.8-2.2c1.4-0.8,1.3-2,0-2.8l-3.9-2.2c-1.4-0.8-3.6-0.8-4.9,0l-3.8,2.2C559.7,225.7,559.7,226.9,561,227.7z
		 M576,236.4c1.4,0.8,3.6,0.8,4.9,0l3.8-2.2c1.4-0.8,1.3-2,0-2.8l-3.9-2.2c-1.4-0.8-3.6-0.8-4.9,0l-3.8,2.2c-1.4,0.8-1.3,2,0,2.8
		L576,236.4z M587.2,242.8c1.4,0.8,3.6,0.8,4.9,0l3.8-2.2c1.4-0.8,1.3-2,0-2.8l-3.9-2.2c-1.4-0.8-3.6-0.8-4.9,0l-3.8,2.2
		c-1.4,0.8-1.3,2,0,2.8L587.2,242.8z M598.3,242l-3.8,2.2c-1.4,0.8-1.3,2,0,2.8l3.9,2.2c1.4,0.8,3.6,0.8,4.9,0l3.8-2.2
		c1.4-0.8,1.3-2,0-2.8l-3.9-2.2C601.8,241.2,599.6,241.2,598.3,242z M609.7,248.3l-4.3,2.5c-1.2,0.7-1.2,1.9,0,2.6l4.3,2.5
		c1.2,0.7,3.2,0.7,4.4,0l4.3-2.5c1.2-0.7,1.2-1.9,0-2.6l-4.3-2.5C612.9,247.6,610.9,247.6,609.7,248.3z M620.8,254.7l-4.3,2.5
		c-1.2,0.7-1.2,1.9,0,2.6l4.3,2.5c1.2,0.7,3.2,0.7,4.4,0l4.3-2.5c1.2-0.7,1.2-1.9,0-2.6l-4.3-2.5C624,254,622,254,620.8,254.7z
		 M632,261.2l-4.3,2.5c-1.2,0.7-1.2,1.9,0,2.6l4.3,2.5c1.2,0.7,3.2,0.7,4.4,0l4.3-2.5c1.2-0.7,1.2-1.9,0-2.6l-4.3-2.5
		C635.2,260.5,633.2,260.4,632,261.2z M643.1,267.6l-4.3,2.5c-1.2,0.7-1.2,1.9,0,2.6l4.3,2.5c1.2,0.7,3.2,0.7,4.4,0l4.3-2.5
		c1.2-0.7,1.2-1.9,0-2.6l-4.3-2.5C646.3,266.9,644.3,266.9,643.1,267.6z M654.3,274l-4.3,2.5c-1.2,0.7-1.2,1.9,0,2.6l4.3,2.5
		c1.2,0.7,3.2,0.7,4.4,0l4.3-2.5c1.2-0.7,1.2-1.9,0-2.6l-4.3-2.5C657.5,273.3,655.5,273.3,654.3,274z M669.9,288l4.3-2.5
		c1.2-0.7,1.2-1.9,0-2.6l-4.3-2.5c-1.2-0.7-3.2-0.7-4.4,0l-4.3,2.5c-1.2,0.7-1.2,1.9,0,2.6l4.3,2.5
		C666.7,288.7,668.7,288.7,669.9,288z M681,294.4l4.3-2.5c1.2-0.7,1.2-1.9,0-2.6l-4.3-2.5c-1.2-0.7-3.2-0.7-4.4,0l-4.3,2.5
		c-1.2,0.7-1.2,1.9,0,2.6l4.3,2.5C677.8,295.1,679.8,295.1,681,294.4z M696.7,296l-4.3-2.5c-1.2-0.7-3.2-0.7-4.4,0l-4.3,2.5
		c-1.2,0.7-1.2,1.9,0,2.6l4.3,2.5c1.2,0.7,3.2,0.7,4.4,0l4.3-2.5C697.9,297.8,697.9,296.7,696.7,296z M534.4,224.3l14,8.1
		c1.2,0.7,3.2,0.7,4.4,0l4.3-2.5c1.2-0.7,1.2-1.9,0-2.6l-14-8.1c-1.2-0.7-3.2-0.7-4.4,0l-4.3,2.5
		C533.2,222.4,533.2,223.6,534.4,224.3z M555.2,236.3l4.3,2.5c1.2,0.7,3.2,0.7,4.4,0l4.3-2.5c1.2-0.7,1.2-1.9,0-2.6l-4.3-2.5
		c-1.2-0.7-3.2-0.7-4.4,0l-4.3,2.5C553.9,234.4,554,235.6,555.2,236.3z M566.3,242.7l4.3,2.5c1.2,0.7,3.2,0.7,4.4,0l4.3-2.5
		c1.2-0.7,1.2-1.9,0-2.6l-4.3-2.5c-1.2-0.7-3.2-0.7-4.4,0l-4.3,2.5C565.1,240.8,565.1,242,566.3,242.7z M577.5,249.1l4.3,2.5
		c1.2,0.7,3.2,0.7,4.4,0l4.3-2.5c1.2-0.7,1.2-1.9,0-2.6l-4.3-2.5c-1.2-0.7-3.2-0.7-4.4,0l-4.3,2.5
		C576.2,247.3,576.2,248.4,577.5,249.1z M597.4,258.1l4.3-2.5c1.2-0.7,1.2-1.9,0-2.6l-4.3-2.5c-1.2-0.7-3.2-0.7-4.4,0l-4.3,2.5
		c-1.2,0.7-1.2,1.9,0,2.6l4.3,2.5C594.2,258.8,596.2,258.8,597.4,258.1z M608.5,264.5l4.3-2.5c1.2-0.7,1.2-1.9,0-2.6l-4.3-2.5
		c-1.2-0.7-3.2-0.7-4.4,0l-4.3,2.5c-1.2,0.7-1.2,1.9,0,2.6l4.3,2.5C605.3,265.2,607.3,265.2,608.5,264.5z M619.7,270.9l4.3-2.5
		c1.2-0.7,1.2-1.9,0-2.6l-4.3-2.5c-1.2-0.7-3.2-0.7-4.4,0l-4.3,2.5c-1.2,0.7-1.2,1.9,0,2.6l4.3,2.5
		C616.5,271.6,618.5,271.6,619.7,270.9z M630.8,277.4l4.3-2.5c1.2-0.7,1.2-1.9,0-2.6l-4.3-2.5c-1.2-0.7-3.2-0.7-4.4,0l-4.3,2.5
		c-1.2,0.7-1.2,1.9,0,2.6l4.3,2.5C627.6,278.1,629.6,278.1,630.8,277.4z M642,283.8l4.3-2.5c1.2-0.7,1.2-1.9,0-2.6l-4.3-2.5
		c-1.2-0.7-3.2-0.7-4.4,0l-4.3,2.5c-1.2,0.7-1.2,1.9,0,2.6l4.3,2.5C638.8,284.5,640.7,284.5,642,283.8z M653.1,290.2l4.3-2.5
		c1.2-0.7,1.2-1.9,0-2.6l-4.3-2.5c-1.2-0.7-3.2-0.7-4.4,0l-4.3,2.5c-1.2,0.7-1.2,1.9,0,2.6l4.3,2.5
		C649.9,290.9,651.9,291,653.1,290.2z M655.5,294.2l4.3,2.5c1.2,0.7,3.2,0.7,4.4,0l4.3-2.5c1.2-0.7,1.2-1.9,0-2.6l-4.3-2.5
		c-1.2-0.7-3.2-0.7-4.4,0l-4.3,2.5C654.3,292.3,654.3,293.5,655.5,294.2z M686.4,301.9l-11-6.4c-1.2-0.7-3.2-0.7-4.4,0l-4.3,2.5
		c-1.2,0.7-1.2,1.9,0,2.6l11,6.4c1.2,0.7,3.2,0.7,4.4,0l4.3-2.5C687.6,303.8,687.6,302.6,686.4,301.9z M524.1,230.5l19.8,11.4
		c1.4,0.8,3.6,0.8,5,0l3.7-2.2c1.4-0.8,1.4-2.1,0-2.9l-19.8-11.4c-1.4-0.8-3.6-0.8-5,0l-3.7,2.2
		C522.7,228.4,522.7,229.7,524.1,230.5z M551.3,246.2l3.8,2.2c1.4,0.8,3.6,0.8,5,0l3.7-2.2c1.4-0.8,1.4-2.1,0-2.9l-3.8-2.2
		c-1.4-0.8-3.6-0.8-5,0l-3.7,2.2C549.9,244.1,549.9,245.4,551.3,246.2z M562.5,252.7l3.8,2.2c1.4,0.8,3.6,0.8,5,0l3.7-2.2
		c1.4-0.8,1.4-2.1,0-2.9l-3.8-2.2c-1.4-0.8-3.6-0.8-5,0l-3.7,2.2C561.1,250.6,561.1,251.9,562.5,252.7z M573.6,259.1l3.8,2.2
		c1.4,0.8,3.6,0.8,5,0l3.7-2.2c1.4-0.8,1.4-2.1,0-2.9l-3.8-2.2c-1.4-0.8-3.6-0.8-5,0l-3.7,2.2C572.2,257,572.2,258.3,573.6,259.1z
		 M584.8,265.5l3.8,2.2c1.4,0.8,3.6,0.8,5,0l3.7-2.2c1.4-0.8,1.4-2.1,0-2.9l-3.8-2.2c-1.4-0.8-3.6-0.8-5,0l-3.7,2.2
		C583.4,263.5,583.4,264.7,584.8,265.5z M595.9,272l3.8,2.2c1.4,0.8,3.6,0.8,5,0l3.7-2.2c1.4-0.8,1.4-2.1,0-2.9l-3.8-2.2
		c-1.4-0.8-3.6-0.8-5,0l-3.7,2.2C594.5,269.9,594.5,271.2,595.9,272z M607.1,278.4l3.8,2.2c1.4,0.8,3.6,0.8,5,0l3.7-2.2
		c1.4-0.8,1.4-2.1,0-2.9l-3.8-2.2c-1.4-0.8-3.6-0.8-5,0l-3.7,2.2C605.7,276.3,605.7,277.6,607.1,278.4z M618.2,284.9l3.8,2.2
		c1.4,0.8,3.6,0.8,5,0l3.7-2.2c1.4-0.8,1.4-2.1,0-2.9l-3.8-2.2c-1.4-0.8-3.6-0.8-5,0l-3.7,2.2C616.8,282.8,616.8,284,618.2,284.9z
		 M629.3,291.3l3.8,2.2c1.4,0.8,3.6,0.8,5,0l3.7-2.2c1.4-0.8,1.4-2.1,0-2.9l-3.8-2.2c-1.4-0.8-3.6-0.8-5,0l-3.7,2.2
		C628,289.2,628,290.5,629.3,291.3z M640.5,297.7l3.8,2.2c1.4,0.8,3.6,0.8,5,0l3.7-2.2c1.4-0.8,1.4-2.1,0-2.9l-3.8-2.2
		c-1.4-0.8-3.6-0.8-5,0l-3.7,2.2C639.1,295.6,639.1,296.9,640.5,297.7z M651.6,304.2l3.8,2.2c1.4,0.8,3.6,0.8,5,0l3.7-2.2
		c1.4-0.8,1.4-2.1,0-2.9l-3.8-2.2c-1.4-0.8-3.6-0.8-5,0l-3.7,2.2C650.2,302.1,650.2,303.4,651.6,304.2z M675.5,307.9l-3.8-2.2
		c-1.4-0.8-3.6-0.8-5,0l-3.7,2.2c-1.4,0.8-1.4,2.1,0,2.9l3.8,2.2c1.4,0.8,3.6,0.8,5,0l3.7-2.2C676.9,310,676.9,308.7,675.5,307.9z
		 M531.2,236.5l-8.7-5c-1.4-0.8-3.6-0.8-5,0l-3.7,2.2c-1.4,0.8-1.4,2.1,0,2.9l8.7,5c1.4,0.8,3.6,0.8,5,0l3.7-2.2
		C532.6,238.6,532.6,237.3,531.2,236.5z M542.4,242.9l-3.8-2.2c-1.4-0.8-3.6-0.8-5,0l-3.7,2.2c-1.4,0.8-1.4,2.1,0,2.9l3.8,2.2
		c1.4,0.8,3.6,0.8,5,0l3.7-2.2C543.8,245,543.7,243.7,542.4,242.9z M553.5,249.3l-3.8-2.2c-1.4-0.8-3.6-0.8-5,0l-3.7,2.2
		c-1.4,0.8-1.4,2.1,0,2.9l3.8,2.2c1.4,0.8,3.6,0.8,5,0l3.7-2.2C554.9,251.4,554.9,250.1,553.5,249.3z M631.5,294.4l-70.6-40.8
		c-1.4-0.8-3.6-0.8-5,0l-3.7,2.2c-1.4,0.8-1.4,2.1,0,2.9l70.6,40.8c1.4,0.8,3.6,0.8,5,0l3.7-2.2
		C632.9,296.5,632.9,295.2,631.5,294.4z M642.7,300.8l-3.8-2.2c-1.4-0.8-3.6-0.8-5,0l-3.7,2.2c-1.4,0.8-1.4,2.1,0,2.9l3.8,2.2
		c1.4,0.8,3.6,0.8,5,0l3.7-2.2C644.1,302.9,644,301.6,642.7,300.8z M653.8,307.3l-3.8-2.2c-1.4-0.8-3.6-0.8-5,0l-3.7,2.2
		c-1.4,0.8-1.4,2.1,0,2.9l3.8,2.2c1.4,0.8,3.6,0.8,5,0l3.7-2.2C655.2,309.3,655.2,308.1,653.8,307.3z M665.2,313.8l-3.8-2.2
		c-1.4-0.8-3.6-0.8-5,0l-3.7,2.2c-1.4,0.8-1.4,2.1,0,2.9l3.8,2.2c1.4,0.8,3.6,0.8,5,0l3.7-2.2C666.6,315.9,666.6,314.6,665.2,313.8z
		"/>
	<g id="XMLID_769_">
		
			<linearGradient id="XMLID_468_" gradientUnits="userSpaceOnUse" x1="5749.1675" y1="-34.2235" x2="5413.6025" y2="257.2494" gradientTransform="matrix(-1 0 0 1 6201.3486 0)">
			<stop  offset="0" style="stop-color:#9F79C8"/>
			<stop  offset="0.1409" style="stop-color:#A27DCA"/>
			<stop  offset="0.2725" style="stop-color:#AC88CF"/>
			<stop  offset="0.4" style="stop-color:#BC9BD7"/>
			<stop  offset="0.5202" style="stop-color:#D1B4E3"/>
			<stop  offset="0.6493" style="stop-color:#DBC4E9"/>
			<stop  offset="0.8997" style="stop-color:#F4EDF8"/>
			<stop  offset="1" style="stop-color:#FFFFFF"/>
		</linearGradient>
		<path id="XMLID_291_" class="st46" d="M750.2,283.9l-174-100.5C569.5,179.5,564,169,564,160V23.5c0-9,5.5-13.1,12.2-9.2l174,100.5
			c6.7,3.9,12.2,14.3,12.2,23.3v136.5C762.4,283.6,757,287.8,750.2,283.9z"/>
		<linearGradient id="XMLID_471_" gradientUnits="userSpaceOnUse" x1="761.8469" y1="279.7072" x2="543.1309" y2="-10.4987">
			<stop  offset="3.030300e-002" style="stop-color:#7C1DC9"/>
			<stop  offset="0.2138" style="stop-color:#6E41D2"/>
			<stop  offset="0.6184" style="stop-color:#4C9BE8"/>
			<stop  offset="1" style="stop-color:#2AF6FF"/>
		</linearGradient>
		<path id="XMLID_290_" class="st47" d="M751.8,276.9l-172.2-99.4c-5.4-3.4-8.8-10.3-8.8-17.4V22.9c0-1.7,1.8-2.7,3.3-1.9
			c0.2,0.1,0.3,0.2,0.4,0.2l172.3,99.5c6.5,3.7,8.8,10.3,8.8,17.4V275c0,1.8-1.9,2.9-3.5,2C752,276.9,751.9,276.9,751.8,276.9z"/>
		<linearGradient id="XMLID_473_" gradientUnits="userSpaceOnUse" x1="540.1558" y1="3.7931" x2="772.7456" y2="278.0109">
			<stop  offset="0" style="stop-color:#7C1DC9"/>
			<stop  offset="3.000182e-002" style="stop-color:#741BBD"/>
			<stop  offset="0.162" style="stop-color:#56148B"/>
			<stop  offset="0.2971" style="stop-color:#3B0E60"/>
			<stop  offset="0.4332" style="stop-color:#26093E"/>
			<stop  offset="0.5704" style="stop-color:#150523"/>
			<stop  offset="0.7095" style="stop-color:#09020F"/>
			<stop  offset="0.8512" style="stop-color:#020104"/>
			<stop  offset="1" style="stop-color:#000000"/>
		</linearGradient>
		<path id="XMLID_772_" class="st48" d="M746.8,120.8L574.5,21.2c-0.1,0-0.2-0.1-0.4-0.2c-1.4-0.8-3.3,0.2-3.3,1.9V160
			c0,7,3.4,13.9,8.8,17.4l172.2,99.4c0.1,0,0.2,0.1,0.3,0.2c1.6,0.9,3.5-0.2,3.5-2V138.1C755.6,131.1,753.3,124.5,746.8,120.8z
			 M754.2,275c0,0.6-0.5,1-1,1c-0.2,0-0.3,0-0.5-0.1l-172.4-99.6c-4.9-3.1-8.1-9.5-8.1-16.2V22.9c0-0.5,0.4-0.8,0.8-0.8
			c0.1,0,0.3,0,0.4,0.1l172.7,99.8c6.7,3.9,8.1,10.9,8.1,16.2V275z"/>
		
			<linearGradient id="XMLID_476_" gradientUnits="userSpaceOnUse" x1="1790.8563" y1="291.4099" x2="1625.906" y2="27.8415" gradientTransform="matrix(1 0 0 1 -985.5782 0)">
			<stop  offset="5.555560e-002" style="stop-color:#9F79B8"/>
			<stop  offset="0.2575" style="stop-color:#A17BBA"/>
			<stop  offset="0.3569" style="stop-color:#A783BF"/>
			<stop  offset="0.4338" style="stop-color:#B290C9"/>
			<stop  offset="0.4949" style="stop-color:#C1A1D5"/>
			<stop  offset="0.5067" style="stop-color:#C4A5D7"/>
			<stop  offset="0.5196" style="stop-color:#CDB3DD"/>
			<stop  offset="0.5329" style="stop-color:#DBC8E7"/>
			<stop  offset="0.5466" style="stop-color:#EFE7F4"/>
			<stop  offset="0.5556" style="stop-color:#FFFFFF"/>
			<stop  offset="0.5678" style="stop-color:#ECE0F3"/>
			<stop  offset="0.5801" style="stop-color:#DDC8EA"/>
			<stop  offset="0.5915" style="stop-color:#D4B9E5"/>
			<stop  offset="0.601" style="stop-color:#D1B4E3"/>
			<stop  offset="0.658" style="stop-color:#B395D6"/>
			<stop  offset="0.7155" style="stop-color:#9C7DCB"/>
			<stop  offset="0.7687" style="stop-color:#8E6EC5"/>
			<stop  offset="0.8131" style="stop-color:#8969C3"/>
			<stop  offset="1" style="stop-color:#B086CC"/>
		</linearGradient>
		<path id="XMLID_287_" class="st49" d="M753.7,113l-174-100.5c-2.7-1.5-5.1-1.8-7.1-1c-0.3,0.1-3.7,1.9-3.9,2l0,0
			c2.1-1,4.7-0.8,7.6,0.8l174,100.5c6.7,3.9,12.2,14.3,12.2,23.3v136.5c0,5.6-2.1,9.3-5.4,10.4c0.3,0,0.6-0.1,1.1-0.4
			c0.2-0.1,3.8-2.2,4-2.3c2.3-1.6,3.8-5,3.8-9.6V136.3C765.9,127.3,760.4,116.9,753.7,113z"/>
		
			<radialGradient id="XMLID_478_" cx="1743.79" cy="129.4807" r="28.0331" gradientTransform="matrix(1 0 0 1 -985.5782 0)" gradientUnits="userSpaceOnUse">
			<stop  offset="0" style="stop-color:#FFFFFF"/>
			<stop  offset="1" style="stop-color:#000000"/>
		</radialGradient>
		<path id="XMLID_286_" class="st50" d="M750.8,114.5L576.8,14c-2.8-1.6-5.3-1.8-7.3-0.9c1.7-0.3,3.7,0.1,5.9,1.4l174,100.5
			c6.7,3.9,12.2,14.3,12.2,23.3v136.5c0,5.3-1.9,8.9-4.9,10.2c3.8-0.6,6.3-4.5,6.3-10.6V137.8C763,128.9,757.5,118.4,750.8,114.5z"
			/>
	</g>
	<g id="XMLID_596_">
		<g id="XMLID_683_">
			<g id="XMLID_752_">
				<g id="XMLID_761_">
					<polygon id="XMLID_285_" class="st51" points="650.3,106 656.2,109.5 656.2,102.7 650.3,99.2 					"/>
					<polygon id="XMLID_284_" class="st52" points="639.2,99.6 645.1,103 645.1,96.2 639.2,92.8 					"/>
					<polygon id="XMLID_283_" class="st53" points="628,93.2 633.9,96.6 633.9,89.8 628,86.3 					"/>
					<polygon id="XMLID_282_" class="st52" points="616.8,86.7 622.8,90.1 622.8,83.3 616.8,79.9 					"/>
					<polygon id="XMLID_281_" class="st52" points="605.7,80.3 611.6,83.7 611.6,76.9 605.7,73.5 					"/>
					<polygon id="XMLID_280_" class="st53" points="594.5,73.8 600.5,77.3 600.5,70.5 594.5,67 					"/>
					<polygon id="XMLID_279_" class="st53" points="583.4,67.4 589.3,70.8 589.3,64 583.4,60.6 					"/>
				</g>
				<g id="XMLID_753_">
					<polygon id="XMLID_278_" class="st53" points="654.5,104.7 660.7,108.3 660.7,101.2 654.5,97.6 					"/>
					<polygon id="XMLID_277_" class="st52" points="639.2,111.7 645.1,115.1 645.1,108.3 639.2,104.9 					"/>
					<polygon id="XMLID_276_" class="st51" points="628,105.3 633.9,108.7 633.9,101.9 628,98.5 					"/>
					<polygon id="XMLID_275_" class="st52" points="616.8,98.8 622.8,102.3 622.8,95.4 616.8,92 					"/>
					<polygon id="XMLID_274_" class="st51" points="605.7,92.4 611.6,95.8 611.6,89 605.7,85.6 					"/>
					<polygon id="XMLID_273_" class="st51" points="594.5,86 600.5,89.4 600.5,82.6 594.5,79.1 					"/>
					<polygon id="XMLID_272_" class="st51" points="583.4,79.5 589.3,82.9 589.3,76.1 583.4,72.7 					"/>
				</g>
			</g>
			<g id="XMLID_735_">
				<g id="XMLID_744_">
					<polygon id="XMLID_271_" class="st51" points="654.5,117.3 660.7,120.9 660.7,113.8 654.5,110.2 					"/>
					<polygon id="XMLID_270_" class="st53" points="642.9,110.6 649.1,114.1 649.1,107 642.9,103.4 					"/>
					<polygon id="XMLID_269_" class="st53" points="631.2,103.8 637.4,107.4 637.4,100.3 631.2,96.7 					"/>
					<polygon id="XMLID_268_" class="st51" points="616.8,110.8 622.8,114.3 622.8,107.5 616.8,104 					"/>
					<polygon id="XMLID_267_" class="st51" points="605.7,104.4 611.6,107.8 611.6,101 605.7,97.6 					"/>
					<polygon id="XMLID_266_" class="st51" points="594.5,98 600.5,101.4 600.5,94.6 594.5,91.2 					"/>
					<polygon id="XMLID_265_" class="st51" points="583.4,91.5 589.3,95 589.3,88.1 583.4,84.7 					"/>
				</g>
				<g id="XMLID_736_">
					<polygon id="XMLID_264_" class="st51" points="654.5,130 660.7,133.6 660.7,126.4 654.5,122.8 					"/>
					<polygon id="XMLID_263_" class="st51" points="642.9,123.2 649.1,126.8 649.1,119.7 642.9,116.1 					"/>
					<polygon id="XMLID_262_" class="st51" points="631.2,116.5 637.4,120.1 637.4,112.9 631.2,109.4 					"/>
					<polygon id="XMLID_261_" class="st53" points="619.5,109.8 625.7,113.3 625.7,106.2 619.5,102.6 					"/>
					<polygon id="XMLID_260_" class="st53" points="605.7,116.5 611.6,119.9 611.6,113.1 605.7,109.7 					"/>
					<polygon id="XMLID_259_" class="st51" points="594.5,110.1 600.5,113.5 600.5,106.7 594.5,103.3 					"/>
					<polygon id="XMLID_258_" class="st52" points="583.4,103.6 589.3,107.1 589.3,100.2 583.4,96.8 					"/>
				</g>
			</g>
			<g id="XMLID_718_">
				<g id="XMLID_727_">
					<polygon id="XMLID_257_" class="st51" points="654.5,142.5 660.7,146 660.7,138.9 654.5,135.3 					"/>
					<polygon id="XMLID_256_" class="st52" points="642.9,135.7 649.1,139.3 649.1,132.2 642.9,128.6 					"/>
					<polygon id="XMLID_255_" class="st53" points="631.2,129 637.4,132.6 637.4,125.4 631.2,121.8 					"/>
					<polygon id="XMLID_254_" class="st53" points="619.5,122.2 625.7,125.8 625.7,118.7 619.5,115.1 					"/>
					<polygon id="XMLID_253_" class="st52" points="607.9,115.5 614.1,119.1 614.1,112 607.9,108.4 					"/>
					<polygon id="XMLID_252_" class="st53" points="596.2,108.8 602.4,112.3 602.4,105.2 596.2,101.6 					"/>
					<polygon id="XMLID_251_" class="st53" points="583.4,115.6 589.3,119 589.3,112.2 583.4,108.8 					"/>
				</g>
				<g id="XMLID_719_">
					<polygon id="XMLID_250_" class="st53" points="654.5,155.1 660.7,158.7 660.7,151.6 654.5,148 					"/>
					<polygon id="XMLID_249_" class="st51" points="642.9,148.4 649.1,152 649.1,144.8 642.9,141.3 					"/>
					<polygon id="XMLID_248_" class="st51" points="631.2,141.6 637.4,145.2 637.4,138.1 631.2,134.5 					"/>
					<polygon id="XMLID_247_" class="st52" points="619.5,134.9 625.7,138.5 625.7,131.4 619.5,127.8 					"/>
					<polygon id="XMLID_246_" class="st51" points="607.9,128.2 614.1,131.8 614.1,124.6 607.9,121 					"/>
					<polygon id="XMLID_245_" class="st51" points="596.2,121.4 602.4,125 602.4,117.9 596.2,114.3 					"/>
					<polygon id="XMLID_244_" class="st51" points="584.5,114.7 590.7,118.3 590.7,111.1 584.5,107.6 					"/>
				</g>
			</g>
			<g id="XMLID_701_">
				<g id="XMLID_710_">
					<polygon id="XMLID_243_" class="st51" points="654.5,167.7 660.7,171.3 660.7,164.2 654.5,160.6 					"/>
					<polygon id="XMLID_242_" class="st53" points="642.9,161 649.1,164.5 649.1,157.4 642.9,153.8 					"/>
					<polygon id="XMLID_241_" class="st53" points="631.2,154.2 637.4,157.8 637.4,150.7 631.2,147.1 					"/>
					<polygon id="XMLID_240_" class="st51" points="619.5,147.5 625.7,151.1 625.7,143.9 619.5,140.3 					"/>
					<polygon id="XMLID_239_" class="st53" points="607.9,140.7 614.1,144.3 614.1,137.2 607.9,133.6 					"/>
					<polygon id="XMLID_238_" class="st53" points="596.2,134 602.4,137.6 602.4,130.5 596.2,126.9 					"/>
					<polygon id="XMLID_237_" class="st52" points="584.5,127.3 590.7,130.9 590.7,123.7 584.5,120.1 					"/>
				</g>
				<g id="XMLID_702_">
					<polygon id="XMLID_236_" class="st51" points="654.5,180.4 660.7,184 660.7,176.8 654.5,173.2 					"/>
					<polygon id="XMLID_235_" class="st51" points="642.9,173.6 649.1,177.2 649.1,170.1 642.9,166.5 					"/>
					<polygon id="XMLID_234_" class="st52" points="631.2,166.9 637.4,170.5 637.4,163.3 631.2,159.8 					"/>
					<polygon id="XMLID_233_" class="st53" points="619.5,160.1 625.7,163.7 625.7,156.6 619.5,153 					"/>
					<polygon id="XMLID_232_" class="st51" points="607.9,153.4 614.1,157 614.1,149.9 607.9,146.3 					"/>
					<polygon id="XMLID_231_" class="st51" points="596.2,146.7 602.4,150.3 602.4,143.1 596.2,139.5 					"/>
					<polygon id="XMLID_230_" class="st51" points="584.5,139.9 590.7,143.5 590.7,136.4 584.5,132.8 					"/>
				</g>
			</g>
			<g id="XMLID_684_">
				<g id="XMLID_693_">
					<polygon id="XMLID_229_" class="st53" points="654.5,193.3 660.7,196.9 660.7,189.7 654.5,186.1 					"/>
					<polygon id="XMLID_228_" class="st53" points="642.9,186.5 649.1,190.1 649.1,183 642.9,179.4 					"/>
					<polygon id="XMLID_227_" class="st53" points="631.2,179.8 637.4,183.4 637.4,176.3 631.2,172.7 					"/>
					<polygon id="XMLID_226_" class="st53" points="619.5,173.1 625.7,176.7 625.7,169.5 619.5,165.9 					"/>
					<polygon id="XMLID_225_" class="st53" points="607.9,166.3 614.1,169.9 614.1,162.8 607.9,159.2 					"/>
					<polygon id="XMLID_224_" class="st53" points="596.2,159.6 602.4,163.2 602.4,156 596.2,152.5 					"/>
					<polygon id="XMLID_223_" class="st53" points="584.5,152.8 590.7,156.4 590.7,149.3 584.5,145.7 					"/>
				</g>
				<g id="XMLID_685_">
					<polygon id="XMLID_222_" class="st53" points="654.5,205.9 660.7,209.5 660.7,202.4 654.5,198.8 					"/>
					<polygon id="XMLID_221_" class="st53" points="642.9,199.2 649.1,202.8 649.1,195.7 642.9,192.1 					"/>
					<polygon id="XMLID_220_" class="st52" points="631.2,192.5 637.4,196.1 637.4,188.9 631.2,185.3 					"/>
					<polygon id="XMLID_219_" class="st53" points="619.5,185.7 625.7,189.3 625.7,182.2 619.5,178.6 					"/>
					<polygon id="XMLID_218_" class="st51" points="607.9,179 614.1,182.6 614.1,175.5 607.9,171.9 					"/>
					<polygon id="XMLID_217_" class="st53" points="596.2,172.3 602.4,175.8 602.4,168.7 596.2,165.1 					"/>
					<polygon id="XMLID_216_" class="st53" points="584.5,165.5 590.7,169.1 590.7,162 584.5,158.4 					"/>
				</g>
			</g>
		</g>
		<g id="XMLID_597_">
			<g id="XMLID_666_">
				<g id="XMLID_675_">
					<polygon id="XMLID_215_" class="st53" points="736,139.4 742.2,142.9 742.2,135.8 736,132.2 					"/>
					<polygon id="XMLID_214_" class="st53" points="724.3,132.6 730.5,136.2 730.5,129.1 724.3,125.5 					"/>
					<polygon id="XMLID_213_" class="st53" points="712.6,125.9 718.8,129.5 718.8,122.3 712.6,118.8 					"/>
					<polygon id="XMLID_212_" class="st52" points="701,119.1 707.2,122.7 707.2,115.6 701,112 					"/>
					<polygon id="XMLID_211_" class="st52" points="689.3,112.4 695.5,116 695.5,108.9 689.3,105.3 					"/>
					<polygon id="XMLID_210_" class="st51" points="677.6,105.7 683.8,109.3 683.8,102.1 677.6,98.5 					"/>
					<polygon id="XMLID_209_" class="st51" points="661.2,112.6 667.1,116 667.1,109.2 661.2,105.8 					"/>
				</g>
				<g id="XMLID_667_">
					<polygon id="XMLID_208_" class="st51" points="736,152 742.2,155.6 742.2,148.5 736,144.9 					"/>
					<polygon id="XMLID_207_" class="st51" points="724.3,145.3 730.5,148.9 730.5,141.7 724.3,138.2 					"/>
					<polygon id="XMLID_206_" class="st53" points="712.6,138.6 718.8,142.1 718.8,135 712.6,131.4 					"/>
					<polygon id="XMLID_205_" class="st53" points="701,131.8 707.2,135.4 707.2,128.3 701,124.7 					"/>
					<polygon id="XMLID_204_" class="st53" points="689.3,125.1 695.5,128.7 695.5,121.5 689.3,117.9 					"/>
					<polygon id="XMLID_203_" class="st53" points="677.6,118.3 683.8,121.9 683.8,114.8 677.6,111.2 					"/>
					<polygon id="XMLID_202_" class="st53" points="665.9,111.6 672.2,115.2 672.2,108.1 665.9,104.5 					"/>
				</g>
			</g>
			<g id="XMLID_649_">
				<g id="XMLID_658_">
					<polygon id="XMLID_201_" class="st53" points="736,164.6 742.2,168.2 742.2,161.1 736,157.5 					"/>
					<polygon id="XMLID_200_" class="st52" points="724.3,157.9 730.5,161.4 730.5,154.3 724.3,150.7 					"/>
					<polygon id="XMLID_199_" class="st51" points="712.6,151.1 718.8,154.7 718.8,147.6 712.6,144 					"/>
					<polygon id="XMLID_198_" class="st53" points="701,144.4 707.2,148 707.2,140.8 701,137.3 					"/>
					<polygon id="XMLID_197_" class="st53" points="689.3,137.6 695.5,141.2 695.5,134.1 689.3,130.5 					"/>
					<polygon id="XMLID_196_" class="st53" points="677.6,130.9 683.8,134.5 683.8,127.4 677.6,123.8 					"/>
					<polygon id="XMLID_195_" class="st51" points="665.9,124.2 672.2,127.8 672.2,120.6 665.9,117 					"/>
				</g>
				<g id="XMLID_650_">
					<polygon id="XMLID_194_" class="st51" points="736,177.3 742.2,180.9 742.2,173.7 736,170.1 					"/>
					<polygon id="XMLID_193_" class="st52" points="724.3,170.5 730.5,174.1 730.5,167 724.3,163.4 					"/>
					<polygon id="XMLID_192_" class="st53" points="712.6,163.8 718.8,167.4 718.8,160.3 712.6,156.7 					"/>
					<polygon id="XMLID_191_" class="st53" points="701,157.1 707.2,160.6 707.2,153.5 701,149.9 					"/>
					<polygon id="XMLID_190_" class="st51" points="689.3,150.3 695.5,153.9 695.5,146.8 689.3,143.2 					"/>
					<polygon id="XMLID_189_" class="st52" points="677.6,143.6 683.8,147.2 683.8,140 677.6,136.5 					"/>
					<polygon id="XMLID_188_" class="st51" points="665.9,136.8 672.2,140.4 672.2,133.3 665.9,129.7 					"/>
				</g>
			</g>
			<g id="XMLID_632_">
				<g id="XMLID_641_">
					<polygon id="XMLID_187_" class="st53" points="736,189.8 742.2,193.3 742.2,186.2 736,182.6 					"/>
					<polygon id="XMLID_186_" class="st53" points="724.3,183 730.5,186.6 730.5,179.5 724.3,175.9 					"/>
					<polygon id="XMLID_185_" class="st53" points="712.6,176.3 718.8,179.9 718.8,172.7 712.6,169.1 					"/>
					<polygon id="XMLID_184_" class="st52" points="701,169.5 707.2,173.1 707.2,166 701,162.4 					"/>
					<polygon id="XMLID_183_" class="st52" points="689.3,162.8 695.5,166.4 695.5,159.3 689.3,155.7 					"/>
					<polygon id="XMLID_182_" class="st51" points="677.6,156.1 683.8,159.6 683.8,152.5 677.6,148.9 					"/>
					<polygon id="XMLID_181_" class="st51" points="665.9,149.3 672.2,152.9 672.2,145.8 665.9,142.2 					"/>
				</g>
				<g id="XMLID_633_">
					<polygon id="XMLID_180_" class="st51" points="736,202.4 742.2,206 742.2,198.9 736,195.3 					"/>
					<polygon id="XMLID_179_" class="st51" points="724.3,195.7 730.5,199.3 730.5,192.1 724.3,188.6 					"/>
					<polygon id="XMLID_178_" class="st53" points="712.6,188.9 718.8,192.5 718.8,185.4 712.6,181.8 					"/>
					<polygon id="XMLID_177_" class="st53" points="701,182.2 707.2,185.8 707.2,178.7 701,175.1 					"/>
					<polygon id="XMLID_176_" class="st53" points="689.3,175.5 695.5,179.1 695.5,171.9 689.3,168.3 					"/>
					<polygon id="XMLID_175_" class="st53" points="677.6,168.7 683.8,172.3 683.8,165.2 677.6,161.6 					"/>
					<polygon id="XMLID_174_" class="st53" points="665.9,162 672.2,165.6 672.2,158.5 665.9,154.9 					"/>
				</g>
			</g>
			<g id="XMLID_615_">
				<g id="XMLID_624_">
					<polygon id="XMLID_173_" class="st53" points="736,215 742.2,218.6 742.2,211.5 736,207.9 					"/>
					<polygon id="XMLID_172_" class="st52" points="724.3,208.3 730.5,211.8 730.5,204.7 724.3,201.1 					"/>
					<polygon id="XMLID_171_" class="st51" points="712.6,201.5 718.8,205.1 718.8,198 712.6,194.4 					"/>
					<polygon id="XMLID_170_" class="st53" points="701,194.8 707.2,198.4 707.2,191.2 701,187.7 					"/>
					<polygon id="XMLID_169_" class="st53" points="689.3,188 695.5,191.6 695.5,184.5 689.3,180.9 					"/>
					<polygon id="XMLID_168_" class="st53" points="677.6,181.3 683.8,184.9 683.8,177.8 677.6,174.2 					"/>
					<polygon id="XMLID_167_" class="st51" points="665.9,174.6 672.2,178.2 672.2,171 665.9,167.4 					"/>
				</g>
				<g id="XMLID_616_">
					<polygon id="XMLID_166_" class="st51" points="736,227.7 742.2,231.3 742.2,224.1 736,220.5 					"/>
					<polygon id="XMLID_165_" class="st52" points="724.3,220.9 730.5,224.5 730.5,217.4 724.3,213.8 					"/>
					<polygon id="XMLID_164_" class="st53" points="712.6,214.2 718.8,217.8 718.8,210.6 712.6,207.1 					"/>
					<polygon id="XMLID_163_" class="st53" points="701,207.5 707.2,211 707.2,203.9 701,200.3 					"/>
					<polygon id="XMLID_162_" class="st51" points="689.3,200.7 695.5,204.3 695.5,197.2 689.3,193.6 					"/>
					<polygon id="XMLID_161_" class="st52" points="677.6,194 683.8,197.6 683.8,190.4 677.6,186.8 					"/>
					<polygon id="XMLID_160_" class="st51" points="665.9,187.2 672.2,190.8 672.2,183.7 665.9,180.1 					"/>
				</g>
			</g>
			<g id="XMLID_598_">
				<g id="XMLID_607_">
					<polygon id="XMLID_159_" class="st53" points="736,240.6 742.2,244.2 742.2,237 736,233.5 					"/>
					<polygon id="XMLID_158_" class="st52" points="724.3,233.8 730.5,237.4 730.5,230.3 724.3,226.7 					"/>
					<polygon id="XMLID_157_" class="st51" points="712.6,227.1 718.8,230.7 718.8,223.6 712.6,220 					"/>
					<polygon id="XMLID_156_" class="st53" points="701,220.4 707.2,224 707.2,216.8 701,213.2 					"/>
					<polygon id="XMLID_155_" class="st53" points="689.3,213.6 695.5,217.2 695.5,210.1 689.3,206.5 					"/>
					<polygon id="XMLID_154_" class="st53" points="677.6,206.9 683.8,210.5 683.8,203.3 677.6,199.8 					"/>
					<polygon id="XMLID_153_" class="st51" points="665.9,200.2 672.2,203.7 672.2,196.6 665.9,193 					"/>
				</g>
				<g id="XMLID_599_">
					<polygon id="XMLID_152_" class="st51" points="736,253.3 742.2,256.8 742.2,249.7 736,246.1 					"/>
					<polygon id="XMLID_151_" class="st52" points="724.3,246.5 730.5,250.1 730.5,243 724.3,239.4 					"/>
					<polygon id="XMLID_150_" class="st53" points="712.6,239.8 718.8,243.4 718.8,236.2 712.6,232.6 					"/>
					<polygon id="XMLID_149_" class="st53" points="701,233 707.2,236.6 707.2,229.5 701,225.9 					"/>
					<polygon id="XMLID_148_" class="st51" points="689.3,226.3 695.5,229.9 695.5,222.8 689.3,219.2 					"/>
					<polygon id="XMLID_147_" class="st52" points="677.6,219.6 683.8,223.1 683.8,216 677.6,212.4 					"/>
					<polygon id="XMLID_146_" class="st53" points="665.9,212.8 672.2,216.4 672.2,209.3 665.9,205.7 					"/>
				</g>
			</g>
		</g>
	</g>
</g>
<g id="XMLID_564_">
	<g id="XMLID_573_">
		<g id="XMLID_578_" class="st21">
			<path id="XMLID_2_" class="st22" d="M862.1,788.3c-4.8,0-9.1-1-12.6-3l-87.3-50.7c-4.6-2.6-7.2-6.8-7.2-11.5
				c0-5.1,3.2-9.9,8.7-13l76.6-29.5c4.3-2.5,9.8-3.9,15.3-3.9c4.8,0,9.1,1,12.6,3l58.7,34.4c4.6,2.6,7.2,6.8,7.2,11.5
				c0,5.1-3.2,9.9-8.7,13l-48,45.8C873,787,867.6,788.3,862.1,788.3z"/>
			<path id="XMLID_12_" class="st23" d="M764,710.6l76.6-29.5c4.3-2.5,9.8-3.8,15.2-3.8c2.3,0,4.6,0.3,6.6,0.8
				c2,0.5,4.2,1.4,5.8,2.3l56.6,33.2c0.1,0,1.7,1,1.7,1c4.5,2.7,6.5,6.9,6.3,11.4c-0.3,4.6-3.7,9.8-8.8,12.7l-47.1,45
				c-4.2,2.4-9.5,3.8-14.9,3.8c-4.7,0-8.9-1-12.3-2.9L762.5,734c-4.4-2.5-6.9-6.5-6.9-11C755.7,718.2,758.7,713.7,764,710.6z"/>
			<path id="XMLID_11_" class="st24" d="M764.4,711.2l76.6-29.5c4.3-2.5,9.7-3.8,15.1-3.7c2.3,0.1,4.5,0.4,6.6,1
				c1.8,0.5,4.3,1.6,5.7,2.4l56.3,33c0.1,0.1,1.6,1,1.7,1c4.4,2.7,5.8,6.9,5.4,11.4c-0.5,4.1-4.3,9.7-8.8,12.3l-46.3,44.1
				c-4.1,2.4-9.3,3.7-14.5,3.7c-4.6,0-8.7-1-12-2.9l-87.3-50.7c-4.2-2.4-6.6-6.2-6.5-10.4C756.4,718.4,759.3,714.2,764.4,711.2z"/>
			<path id="XMLID_10_" class="st25" d="M764.7,711.8l76.6-29.5c4.3-2.5,9.7-3.7,15.1-3.6c2.3,0.1,4.5,0.5,6.5,1.1
				c1.6,0.4,4.4,1.7,5.7,2.5l56,32.8c0.2,0.1,1.6,0.9,1.7,1c4.3,2.8,5.2,6.9,4.4,11.3c-0.6,3.7-4.9,9.6-8.9,12l-45.4,43.3
				c-4,2.3-9.1,3.6-14.2,3.6c-4.4,0-8.5-0.9-11.7-2.8l-87.3-50.7c-4-2.3-6.3-5.9-6.2-9.9C757.1,718.7,759.8,714.6,764.7,711.8z"/>
			<path id="XMLID_9_" class="st26" d="M765,712.4l76.6-29.5c4.3-2.5,9.7-3.7,15-3.5c2.3,0.1,4.5,0.6,6.4,1.2
				c1.4,0.4,4.5,1.9,5.6,2.5l55.7,32.6c0.2,0.1,1.5,0.9,1.7,1c4.2,2.8,5.4,7.1,3.5,11.2c0,3.2-5.5,9.6-9,11.6L876,782.1
				c-3.9,2.3-8.9,3.5-13.8,3.5c-4.3,0-8.3-0.9-11.4-2.7l-87.3-50.7c-3.9-2.2-6-5.6-5.9-9.4C757.8,718.9,760.4,715.1,765,712.4z"/>
			<path id="XMLID_8_" class="st27" d="M765.3,713l76.6-29.5c4.2-2.4,9.7-3.6,14.9-3.4c2.3,0.1,4.4,0.7,6.4,1.3
				c1.2,0.4,4.6,2.1,5.5,2.6l55.4,32.5c0.3,0.2,1.4,0.9,1.6,1.1c4.1,2.9,5,7.2,2.6,11.1c0,2.8-6.1,9.5-9.1,11.2l-43.7,41.7
				c-3.8,2.2-8.6,3.4-13.4,3.4c-4.2,0-8.1-0.9-11.1-2.6l-87.3-50.7c-3.7-2.1-5.6-5.3-5.5-8.8C758.5,719.1,760.9,715.5,765.3,713z"/>
			<path id="XMLID_7_" class="st28" d="M765.7,713.5l76.6-29.5c4.2-2.4,9.7-3.6,14.9-3.2c2.3,0.2,4.4,0.8,6.3,1.4
				c1,0.3,4.7,2.2,5.5,2.7l55.1,32.3c0.3,0.2,1.4,0.8,1.6,1.1c4,2.9,4.6,7.3,1.6,11.1c0,2.3-6.6,9.4-9.1,10.9L875.3,781
				c-3.7,2.2-8.4,3.3-13.1,3.3c-4.1,0-7.9-0.8-10.8-2.5l-87.3-50.7c-3.5-2-5.3-5-5.2-8.3C759.1,719.3,761.5,715.9,765.7,713.5z"/>
			<path id="XMLID_6_" class="st29" d="M766,714.1l76.6-29.5c4.2-2.4,9.7-3.5,14.8-3.1c2.3,0.2,4.4,0.8,6.3,1.5
				c0.8,0.3,4.8,2.4,5.4,2.7l54.8,32.1c0.4,0.2,1.3,0.8,1.6,1.1c3.9,2.9,4.1,7.3,0.7,11c0,1.9-7.2,9.4-9.2,10.5l-41.9,40
				c-3.6,2.1-8.2,3.2-12.7,3.3c-4,0-7.7-0.8-10.5-2.4l-87.3-50.7c-3.3-1.9-5-4.7-4.9-7.8C759.8,719.5,762.1,716.4,766,714.1z"/>
			<path id="XMLID_5_" class="st30" d="M766.3,714.7l76.6-29.5c4.2-2.4,9.7-3.5,14.7-3c2.3,0.2,4.3,0.9,6.2,1.6
				c0.6,0.2,4.9,2.5,5.3,2.8l54.5,31.9c0.4,0.2,1.3,0.8,1.6,1.1c3.8,3,3.7,7.4-0.2,10.9c0,1.4-7.8,9.3-9.3,10.2l-41.1,39.2
				c-3.5,2-8,3.1-12.3,3.2c-3.8,0-7.4-0.7-10.2-2.3L764.9,730c-3.1-1.8-4.7-4.5-4.5-7.3C760.5,719.8,762.6,716.8,766.3,714.7z"/>
			<path id="XMLID_4_" class="st31" d="M766.7,715.3l76.6-29.5c4.2-2.4,9.7-3.4,14.6-2.9c2.3,0.2,4.3,1,6.1,1.7
				c0.4,0.1,4.9,2.7,5.3,2.9l54.2,31.7c0.5,0.3,1.2,0.8,1.6,1.1c3.7,3,3.2,7.5-1.2,10.9c0,0.9-8.4,9.2-9.4,9.8l-40.2,38.4
				c-3.4,2-7.8,3-12,3.1c-3.7,0-7.2-0.7-9.9-2.2l-87.3-50.7c-3-1.7-4.4-4.2-4.2-6.7C761.2,720,763.2,717.3,766.7,715.3z"/>
			<path id="XMLID_3_" class="st32" d="M767,715.8l76.6-29.5c4.2-2.4,9.7-3.4,14.6-2.8c2.3,0.3,4.2,1.1,6.1,1.8
				c0.2,0.1,5,2.8,5.2,2.9l53.9,31.6c0.5,0.3,1.2,0.7,1.6,1.1c3.6,3.1,2.8,7.6-2.1,10.8c0,0.5-9,9.2-9.5,9.5L874,778.7
				c-3.3,1.9-7.5,2.9-11.6,3c-3.6,0-7-0.7-9.6-2.1l-87.3-50.7c-2.8-1.6-4.1-3.9-3.9-6.2C761.9,720.2,763.7,717.7,767,715.8z"/>
			<path id="XMLID_1_" d="M853.2,779l-87.3-50.7c-5.3-3-4.6-8.3,1.5-11.8l76.6-29.5c6.1-3.5,15.3-3.9,20.5-0.9l58.7,34.4
				c5.3,3,4.6,8.3-1.5,11.8l-48,45.8C867.6,781.6,858.4,782,853.2,779z"/>
		</g>
		
			<linearGradient id="XMLID_479_" gradientUnits="userSpaceOnUse" x1="1719.2792" y1="732.4052" x2="1892.6324" y2="732.4052" gradientTransform="matrix(1 0 0 1 -953.3189 0)">
			<stop  offset="5.555560e-002" style="stop-color:#9F79B8"/>
			<stop  offset="0.2575" style="stop-color:#A17BBA"/>
			<stop  offset="0.3569" style="stop-color:#A783BF"/>
			<stop  offset="0.4338" style="stop-color:#B290C9"/>
			<stop  offset="0.4949" style="stop-color:#C1A1D5"/>
			<stop  offset="0.5067" style="stop-color:#C4A5D7"/>
			<stop  offset="0.5196" style="stop-color:#CDB3DD"/>
			<stop  offset="0.5329" style="stop-color:#DBC8E7"/>
			<stop  offset="0.5466" style="stop-color:#EFE7F4"/>
			<stop  offset="0.5556" style="stop-color:#FFFFFF"/>
			<stop  offset="0.5678" style="stop-color:#ECE0F3"/>
			<stop  offset="0.5801" style="stop-color:#DDC8EA"/>
			<stop  offset="0.5915" style="stop-color:#D4B9E5"/>
			<stop  offset="0.601" style="stop-color:#D1B4E3"/>
			<stop  offset="0.658" style="stop-color:#B395D6"/>
			<stop  offset="0.7155" style="stop-color:#9C7DCB"/>
			<stop  offset="0.7687" style="stop-color:#8E6EC5"/>
			<stop  offset="0.8131" style="stop-color:#8969C3"/>
			<stop  offset="1" style="stop-color:#B086CC"/>
		</linearGradient>
		<path id="XMLID_143_" class="st54" d="M853.2,778.8l-87.3-50.7c-2.3-1.4-3.5-3.2-3.5-5c0-0.1,0-6.5,0-6.6c0-2.3,1.7,1.7,5-0.2
			l76.6-29.5c6.1-3.5,15.3-3.9,20.5-0.9l58.7,34.4c1.8,1,3-3.3,3.5-1.9c0.2,0.5,0.1,6.5,0.1,7c0.1,2.4-1.7,4.9-5,6.8l-48,45.8
			C867.6,781.5,858.4,781.9,853.2,778.8z"/>
		<linearGradient id="XMLID_480_" gradientUnits="userSpaceOnUse" x1="895.396" y1="689.6456" x2="759.4661" y2="782.2112">
			<stop  offset="0" style="stop-color:#9F79C8"/>
			<stop  offset="0.1409" style="stop-color:#A27DCA"/>
			<stop  offset="0.2725" style="stop-color:#AC88CF"/>
			<stop  offset="0.4" style="stop-color:#BC9BD7"/>
			<stop  offset="0.5202" style="stop-color:#D1B4E3"/>
			<stop  offset="0.6493" style="stop-color:#DBC4E9"/>
			<stop  offset="0.8997" style="stop-color:#F4EDF8"/>
			<stop  offset="1" style="stop-color:#FFFFFF"/>
		</linearGradient>
		<path id="XMLID_142_" class="st55" d="M853.2,772.4l-87.3-50.7c-5.3-3-4.6-8.3,1.5-11.8l76.6-29.5c6.1-3.5,15.3-3.9,20.5-0.9
			l58.7,34.4c5.3,3,4.6,8.3-1.5,11.8l-48,45.8C867.6,775,858.4,775.4,853.2,772.4z"/>
		
			<linearGradient id="XMLID_481_" gradientUnits="userSpaceOnUse" x1="1810.2944" y1="723.0021" x2="1825.7209" y2="697.1375" gradientTransform="matrix(1 0 0 1 -953.3189 0)">
			<stop  offset="0" style="stop-color:#FFFFFF"/>
			<stop  offset="1" style="stop-color:#8969C3"/>
		</linearGradient>
		<path id="XMLID_141_" class="st56" d="M923.1,713.9l-58.7-34.4c-5.3-3-14.4-2.7-20.5,0.9l-38.6,14.8c0.4,0.3,0.8,0.6,1.2,0.8
			l87.3,50.7c1.2,0.7,2.6,1.2,4.2,1.5l23.6-22.6C927.7,722.2,928.4,716.9,923.1,713.9z"/>
		<path id="XMLID_140_" class="st9" d="M921.7,724.6l-48,45.8c-6.1,3.5-15.3,3.9-20.5,0.9l-87.3-50.7c-2.2-1.3-3.3-2.9-3.5-4.7
			c-0.3,2.1,0.9,4.2,3.5,5.8l87.3,50.7c5.3,3,14.4,2.7,20.5-0.8l48-45.8c3.6-2.1,5.2-4.7,5-7.2C926.4,720.7,924.7,722.9,921.7,724.6
			z"/>
	</g>
	<g id="XMLID_565_">
		
			<linearGradient id="XMLID_482_" gradientUnits="userSpaceOnUse" x1="5640.8286" y1="370.1349" x2="5215.8936" y2="739.2354" gradientTransform="matrix(-1 0 0 1 6233.6079 0)">
			<stop  offset="0" style="stop-color:#9F79C8"/>
			<stop  offset="0.1409" style="stop-color:#A27DCA"/>
			<stop  offset="0.2725" style="stop-color:#AC88CF"/>
			<stop  offset="0.4" style="stop-color:#BC9BD7"/>
			<stop  offset="0.5202" style="stop-color:#D1B4E3"/>
			<stop  offset="0.6493" style="stop-color:#DBC4E9"/>
			<stop  offset="0.8997" style="stop-color:#F4EDF8"/>
			<stop  offset="1" style="stop-color:#FFFFFF"/>
		</linearGradient>
		<path id="XMLID_139_" class="st57" d="M967.2,772.6L752.8,648.8c-11-6.3-19.8-23.3-19.8-37.9v-164c0-14.6,8.9-21.3,19.8-15
			l214.4,123.9c11,6.3,19.8,23.3,19.8,37.9v164C987.1,772.3,978.2,779,967.2,772.6z"/>
		<linearGradient id="XMLID_483_" gradientUnits="userSpaceOnUse" x1="995.8461" y1="774.2834" x2="712.4689" y2="414.612">
			<stop  offset="3.030300e-002" style="stop-color:#7C1DC9"/>
			<stop  offset="0.2138" style="stop-color:#6E41D2"/>
			<stop  offset="0.6184" style="stop-color:#4C9BE8"/>
			<stop  offset="1" style="stop-color:#2AF6FF"/>
		</linearGradient>
		<path id="XMLID_138_" class="st58" d="M969.8,761.2L758.4,639.1c-8.8-5.6-14.3-16.8-14.3-28.3v-165c0-2.7,3-4.4,5.3-3
			c0.3,0.2,0.5,0.3,0.6,0.4l211.6,122.3c10.5,6.1,14.3,16.8,14.3,28.3v164.5c0,2.9-3.1,4.7-5.7,3.3
			C970,761.4,969.9,761.3,969.8,761.2z"/>
		<path id="XMLID_568_" class="st37" d="M961.6,565.4L750,443.1c-0.1-0.1-0.3-0.2-0.6-0.4c-2.3-1.4-5.3,0.3-5.3,3v165
			c0,11.5,5.5,22.7,14.3,28.3l211.4,122.1c0.1,0.1,0.3,0.2,0.5,0.3c2.5,1.4,5.7-0.4,5.7-3.3V593.7
			C975.9,582.2,972.1,571.5,961.6,565.4z M973.7,758.2c0,1-0.8,1.6-1.6,1.6c-0.3,0-0.5-0.1-0.8-0.2L759.5,637.2
			c-8-5.1-13.2-15.4-13.2-26.3v-165c0-0.8,0.7-1.3,1.3-1.3c0.2,0,0.4,0.1,0.6,0.2l212.2,122.6c10.9,6.3,13.2,17.8,13.2,26.3V758.2z"
			/>
		
			<linearGradient id="XMLID_484_" gradientUnits="userSpaceOnUse" x1="1993.8772" y1="782.0557" x2="1785.0695" y2="448.4094" gradientTransform="matrix(1 0 0 1 -953.3189 0)">
			<stop  offset="5.555560e-002" style="stop-color:#9F79B8"/>
			<stop  offset="0.2575" style="stop-color:#A17BBA"/>
			<stop  offset="0.3569" style="stop-color:#A783BF"/>
			<stop  offset="0.4338" style="stop-color:#B290C9"/>
			<stop  offset="0.4949" style="stop-color:#C1A1D5"/>
			<stop  offset="0.5067" style="stop-color:#C4A5D7"/>
			<stop  offset="0.5196" style="stop-color:#CDB3DD"/>
			<stop  offset="0.5329" style="stop-color:#DBC8E7"/>
			<stop  offset="0.5466" style="stop-color:#EFE7F4"/>
			<stop  offset="0.5556" style="stop-color:#FFFFFF"/>
			<stop  offset="0.5678" style="stop-color:#ECE0F3"/>
			<stop  offset="0.5801" style="stop-color:#DDC8EA"/>
			<stop  offset="0.5915" style="stop-color:#D4B9E5"/>
			<stop  offset="0.601" style="stop-color:#D1B4E3"/>
			<stop  offset="0.658" style="stop-color:#B395D6"/>
			<stop  offset="0.7155" style="stop-color:#9C7DCB"/>
			<stop  offset="0.7687" style="stop-color:#8E6EC5"/>
			<stop  offset="0.8131" style="stop-color:#8969C3"/>
			<stop  offset="1" style="stop-color:#B086CC"/>
		</linearGradient>
		<path id="XMLID_135_" class="st59" d="M972.8,552.8L758.5,428.9c-4.3-2.5-8.3-3-11.6-1.7c-0.4,0.2-5.9,3.1-6.3,3.3l0,0
			c3.4-1.6,7.7-1.3,12.3,1.4l214.4,123.9c11,6.3,19.8,23.3,19.8,37.9v164c0,9.1-3.5,15.2-8.7,16.9c0.4,0,1-0.1,1.7-0.6
			c0.3-0.1,6.3-3.5,6.5-3.7c3.8-2.6,6.1-8.1,6.1-15.6v-164C992.7,576.1,983.8,559.1,972.8,552.8z"/>
		
			<radialGradient id="XMLID_487_" cx="1687.631" cy="483.6938" r="38.0825" gradientTransform="matrix(0.9333 0 0 0.9333 -593.1553 125.8584)" gradientUnits="userSpaceOnUse">
			<stop  offset="0" style="stop-color:#FFFFFF"/>
			<stop  offset="1" style="stop-color:#000000"/>
		</radialGradient>
		<path id="XMLID_134_" class="st60" d="M968.2,555.3L753.8,431.4c-4.5-2.6-8.6-3-12-1.5c2.8-0.5,6.1,0.2,9.6,2.2L965.8,556
			c11,6.3,19.8,23.3,19.8,37.9v164c0,8.6-3.1,14.5-7.9,16.5c6.1-1,10.3-7.3,10.3-17.2v-164C988,578.6,979.1,561.6,968.2,555.3z"/>
	</g>
</g>
<g id="XMLID_439_">
	<g id="XMLID_502_">
		<g id="XMLID_547_">
			<g id="XMLID_556_">
				<polygon id="XMLID_133_" class="st51" points="849.5,526.2 857.8,531 857.8,521.5 849.5,516.7 				"/>
				<polygon id="XMLID_132_" class="st52" points="833.9,517.2 842.2,522 842.2,512.5 833.9,507.7 				"/>
				<polygon id="XMLID_131_" class="st53" points="818.3,508.2 826.6,513 826.6,503.5 818.3,498.7 				"/>
				<polygon id="XMLID_130_" class="st52" points="802.7,499.2 811,504 811,494.5 802.7,489.7 				"/>
				<polygon id="XMLID_129_" class="st52" points="787.1,490.2 795.4,495 795.4,485.5 787.1,480.7 				"/>
				<polygon id="XMLID_128_" class="st53" points="771.6,481.2 779.9,486 779.9,476.5 771.6,471.7 				"/>
				<polygon id="XMLID_127_" class="st53" points="756,472.2 764.3,477 764.3,467.5 756,462.7 				"/>
			</g>
			<g id="XMLID_548_">
				<polygon id="XMLID_126_" class="st53" points="849.5,543.1 857.8,547.9 857.8,538.4 849.5,533.6 				"/>
				<polygon id="XMLID_125_" class="st52" points="833.9,534.1 842.2,538.9 842.2,529.4 833.9,524.6 				"/>
				<polygon id="XMLID_124_" class="st51" points="818.3,525.1 826.6,529.9 826.6,520.4 818.3,515.6 				"/>
				<polygon id="XMLID_123_" class="st52" points="802.7,516.1 811,520.9 811,511.4 802.7,506.6 				"/>
				<polygon id="XMLID_122_" class="st51" points="787.1,507.1 795.4,511.9 795.4,502.4 787.1,497.6 				"/>
				<polygon id="XMLID_121_" class="st51" points="771.6,498.1 779.9,502.9 779.9,493.4 771.6,488.6 				"/>
				<polygon id="XMLID_120_" class="st51" points="756,489.1 764.3,493.9 764.3,484.4 756,479.6 				"/>
			</g>
		</g>
		<g id="XMLID_536_">
			<g id="XMLID_539_">
				<polygon id="XMLID_119_" class="st51" points="849.5,559.9 857.8,564.7 857.8,555.2 849.5,550.4 				"/>
				<polygon id="XMLID_118_" class="st53" points="833.9,550.9 842.2,555.7 842.2,546.2 833.9,541.4 				"/>
				<polygon id="XMLID_117_" class="st53" points="818.3,541.9 826.6,546.7 826.6,537.2 818.3,532.4 				"/>
				<polygon id="XMLID_116_" class="st51" points="802.7,532.9 811,537.7 811,528.2 802.7,523.4 				"/>
				<polygon id="XMLID_115_" class="st51" points="787.1,523.9 795.4,528.7 795.4,519.2 787.1,514.4 				"/>
				<polygon id="XMLID_114_" class="st51" points="771.6,514.9 779.9,519.7 779.9,510.2 771.6,505.4 				"/>
				<polygon id="XMLID_113_" class="st51" points="756,505.9 764.3,510.7 764.3,501.2 756,496.4 				"/>
			</g>
			<g id="XMLID_537_">
				<polygon id="XMLID_112_" class="st52" points="756,522.8 764.3,527.6 764.3,518.1 756,513.3 				"/>
			</g>
		</g>
		<g id="XMLID_531_">
			<g id="XMLID_534_">
				<polygon id="XMLID_111_" class="st53" points="756,539.5 764.3,544.3 764.3,534.8 756,530 				"/>
			</g>
			<g id="XMLID_532_">
				<polygon id="XMLID_110_" class="st51" points="756,556.4 764.3,561.2 764.3,551.7 756,546.9 				"/>
			</g>
		</g>
		<g id="XMLID_520_">
			<g id="XMLID_529_">
				<polygon id="XMLID_109_" class="st53" points="756,573.2 764.3,578 764.3,568.5 756,563.7 				"/>
			</g>
			<g id="XMLID_521_">
				<polygon id="XMLID_108_" class="st51" points="849.5,644.1 857.8,648.9 857.8,639.4 849.5,634.6 				"/>
				<polygon id="XMLID_107_" class="st51" points="833.9,635.1 842.2,639.9 842.2,630.4 833.9,625.6 				"/>
				<polygon id="XMLID_106_" class="st52" points="818.3,626.1 826.6,630.9 826.6,621.4 818.3,616.6 				"/>
				<polygon id="XMLID_105_" class="st53" points="802.7,617.1 811,621.9 811,612.4 802.7,607.6 				"/>
				<polygon id="XMLID_104_" class="st51" points="787.1,608.1 795.4,612.9 795.4,603.4 787.1,598.6 				"/>
				<polygon id="XMLID_103_" class="st51" points="771.6,599.1 779.9,603.9 779.9,594.4 771.6,589.6 				"/>
				<polygon id="XMLID_102_" class="st51" points="756,590.1 764.3,594.9 764.3,585.4 756,580.6 				"/>
			</g>
		</g>
		<g id="XMLID_503_">
			<g id="XMLID_512_">
				<polygon id="XMLID_101_" class="st53" points="849.5,661.3 857.8,666.1 857.8,656.6 849.5,651.8 				"/>
				<polygon id="XMLID_100_" class="st53" points="833.9,652.3 842.2,657.1 842.2,647.6 833.9,642.8 				"/>
				<polygon id="XMLID_99_" class="st53" points="818.3,643.4 826.6,648.1 826.6,638.6 818.3,633.8 				"/>
				<polygon id="XMLID_98_" class="st53" points="802.7,634.4 811,639.1 811,629.6 802.7,624.8 				"/>
				<polygon id="XMLID_97_" class="st53" points="787.1,625.4 795.4,630.1 795.4,620.6 787.1,615.8 				"/>
				<polygon id="XMLID_96_" class="st53" points="771.6,616.4 779.9,621.1 779.9,611.6 771.6,606.8 				"/>
				<polygon id="XMLID_95_" class="st53" points="756,607.4 764.3,612.2 764.3,602.6 756,597.8 				"/>
			</g>
			<g id="XMLID_504_">
				<polygon id="XMLID_94_" class="st53" points="849.5,678.3 857.8,683.1 857.8,673.5 849.5,668.7 				"/>
				<polygon id="XMLID_93_" class="st53" points="833.9,669.3 842.2,674.1 842.2,664.5 833.9,659.7 				"/>
				<polygon id="XMLID_92_" class="st52" points="818.3,660.3 826.6,665.1 826.6,655.5 818.3,650.8 				"/>
				<polygon id="XMLID_91_" class="st53" points="802.7,651.3 811,656.1 811,646.5 802.7,641.8 				"/>
				<polygon id="XMLID_90_" class="st51" points="787.1,642.3 795.4,647.1 795.4,637.5 787.1,632.8 				"/>
				<polygon id="XMLID_89_" class="st53" points="771.6,633.3 779.9,638.1 779.9,628.5 771.6,623.8 				"/>
				<polygon id="XMLID_88_" class="st53" points="756,624.3 764.3,629.1 764.3,619.6 756,614.8 				"/>
			</g>
		</g>
	</g>
	<g id="XMLID_440_">
		<g id="XMLID_485_">
			<g id="XMLID_494_">
				<polygon id="XMLID_87_" class="st53" points="958.2,589.3 966.5,594.1 966.5,584.6 958.2,579.8 				"/>
				<polygon id="XMLID_86_" class="st53" points="942.6,580.3 950.9,585.1 950.9,575.6 942.6,570.8 				"/>
				<polygon id="XMLID_85_" class="st53" points="927,571.4 935.3,576.1 935.3,566.6 927,561.8 				"/>
				<polygon id="XMLID_84_" class="st52" points="911.5,562.4 919.8,567.1 919.8,557.6 911.5,552.8 				"/>
				<polygon id="XMLID_83_" class="st52" points="895.9,553.4 904.2,558.1 904.2,548.6 895.9,543.8 				"/>
				<polygon id="XMLID_82_" class="st51" points="880.3,544.4 888.6,549.1 888.6,539.6 880.3,534.8 				"/>
				<polygon id="XMLID_81_" class="st51" points="864.7,535.4 873,540.2 873,530.6 864.7,525.8 				"/>
			</g>
			<g id="XMLID_486_">
				<polygon id="XMLID_80_" class="st51" points="958.2,606.3 966.5,611.1 966.5,601.5 958.2,596.7 				"/>
				<polygon id="XMLID_79_" class="st51" points="942.6,597.3 950.9,602.1 950.9,592.5 942.6,587.7 				"/>
				<polygon id="XMLID_78_" class="st53" points="927,588.3 935.3,593.1 935.3,583.5 927,578.8 				"/>
				<polygon id="XMLID_77_" class="st53" points="911.5,579.3 919.8,584.1 919.8,574.5 911.5,569.8 				"/>
				<polygon id="XMLID_76_" class="st53" points="895.9,570.3 904.2,575.1 904.2,565.5 895.9,560.8 				"/>
				<polygon id="XMLID_75_" class="st53" points="880.3,561.3 888.6,566.1 888.6,556.5 880.3,551.8 				"/>
				<polygon id="XMLID_74_" class="st53" points="864.7,552.3 873,557.1 873,547.6 864.7,542.8 				"/>
			</g>
		</g>
		<g id="XMLID_474_">
			<g id="XMLID_477_">
				<polygon id="XMLID_73_" class="st53" points="958.2,623.1 966.5,627.8 966.5,618.3 958.2,613.5 				"/>
				<polygon id="XMLID_72_" class="st52" points="942.6,614.1 950.9,618.8 950.9,609.3 942.6,604.5 				"/>
				<polygon id="XMLID_71_" class="st51" points="927,605.1 935.3,609.8 935.3,600.3 927,595.5 				"/>
				<polygon id="XMLID_70_" class="st53" points="911.5,596.1 919.8,600.9 919.8,591.3 911.5,586.5 				"/>
				<polygon id="XMLID_69_" class="st53" points="895.9,587.1 904.2,591.9 904.2,582.3 895.9,577.5 				"/>
				<polygon id="XMLID_68_" class="st53" points="880.3,578.1 888.6,582.9 888.6,573.3 880.3,568.5 				"/>
				<polygon id="XMLID_67_" class="st51" points="864.7,569.1 873,573.9 873,564.3 864.7,559.5 				"/>
			</g>
			<g id="XMLID_475_">
				<polygon id="XMLID_66_" class="st51" points="958.2,640 966.5,644.8 966.5,635.2 958.2,630.5 				"/>
			</g>
		</g>
		<g id="XMLID_469_">
			<g id="XMLID_472_">
				<polygon id="XMLID_65_" class="st53" points="958.2,656.6 966.5,661.4 966.5,651.9 958.2,647.1 				"/>
			</g>
			<g id="XMLID_470_">
				<polygon id="XMLID_64_" class="st51" points="958.2,673.6 966.5,678.3 966.5,668.8 958.2,664 				"/>
			</g>
		</g>
		<g id="XMLID_458_">
			<g id="XMLID_467_">
				<polygon id="XMLID_63_" class="st53" points="958.2,690.3 966.5,695.1 966.5,685.6 958.2,680.8 				"/>
			</g>
			<g id="XMLID_459_">
				<polygon id="XMLID_62_" class="st51" points="958.2,707.3 966.5,712.1 966.5,702.5 958.2,697.7 				"/>
				<polygon id="XMLID_61_" class="st53" points="942.6,698.3 950.9,703.1 950.9,693.5 942.6,688.7 				"/>
				<polygon id="XMLID_60_" class="st53" points="927,689.3 935.3,694.1 935.3,684.5 927,679.8 				"/>
				<polygon id="XMLID_59_" class="st53" points="911.5,680.3 919.8,685.1 919.8,675.5 911.5,670.8 				"/>
				<polygon id="XMLID_58_" class="st51" points="895.9,671.3 904.2,676.1 904.2,666.5 895.9,661.8 				"/>
				<polygon id="XMLID_57_" class="st52" points="880.3,662.3 888.6,667.1 888.6,657.5 880.3,652.8 				"/>
				<polygon id="XMLID_56_" class="st51" points="864.7,653.3 873,658.1 873,648.6 864.7,643.8 				"/>
			</g>
		</g>
		<g id="XMLID_441_">
			<g id="XMLID_450_">
				<polygon id="XMLID_55_" class="st53" points="958.2,724.5 966.5,729.3 966.5,719.8 958.2,715 				"/>
				<polygon id="XMLID_54_" class="st52" points="942.6,715.5 950.9,720.3 950.9,710.8 942.6,706 				"/>
				<polygon id="XMLID_53_" class="st51" points="927,706.5 935.3,711.3 935.3,701.8 927,697 				"/>
				<polygon id="XMLID_52_" class="st53" points="911.5,697.5 919.8,702.3 919.8,692.8 911.5,688 				"/>
				<polygon id="XMLID_51_" class="st53" points="895.9,688.5 904.2,693.3 904.2,683.8 895.9,679 				"/>
				<polygon id="XMLID_50_" class="st53" points="880.3,679.5 888.6,684.3 888.6,674.8 880.3,670 				"/>
				<polygon id="XMLID_49_" class="st51" points="864.7,670.5 873,675.3 873,665.8 864.7,661 				"/>
			</g>
			<g id="XMLID_442_">
				<polygon id="XMLID_48_" class="st51" points="958.2,741.4 966.5,746.2 966.5,736.7 958.2,731.9 				"/>
				<polygon id="XMLID_47_" class="st52" points="942.6,732.4 950.9,737.2 950.9,727.7 942.6,722.9 				"/>
				<polygon id="XMLID_46_" class="st53" points="927,723.4 935.3,728.2 935.3,718.7 927,713.9 				"/>
				<polygon id="XMLID_45_" class="st53" points="911.5,714.4 919.8,719.2 919.8,709.7 911.5,704.9 				"/>
				<polygon id="XMLID_44_" class="st51" points="895.9,705.4 904.2,710.2 904.2,700.7 895.9,695.9 				"/>
				<polygon id="XMLID_43_" class="st52" points="880.3,696.4 888.6,701.2 888.6,691.7 880.3,686.9 				"/>
				<polygon id="XMLID_42_" class="st53" points="864.7,687.4 873,692.2 873,682.7 864.7,677.9 				"/>
			</g>
		</g>
	</g>
</g>
<g id="XMLID_428_">
	
		<linearGradient id="XMLID_488_" gradientUnits="userSpaceOnUse" x1="777.5755" y1="654.5313" x2="755.1743" y2="454.3214" gradientTransform="matrix(1 0 0 1 19.9447 0)">
		<stop  offset="9.595960e-002" style="stop-color:#45108A"/>
		<stop  offset="1" style="stop-color:#7C1DC9"/>
	</linearGradient>
	<path id="XMLID_437_" class="st61" d="M797.8,551l-8.5,7.9v0.2l13.5,5.8v7l-13.5-9.7v0.2l8.6,17.3l-5.6,0.4l-5.4-17.5l-0.2-0.1
		l-5.8,11.1l-5.1-6.7l8.5-7.6v-0.2l-13.3-5.7v-7l13.2,9.6v-0.2l-8.4-17.4l5.5-0.4l5.6,17.5l0.2,0.1l5.5-11.2L797.8,551z"/>
	
		<linearGradient id="XMLID_489_" gradientUnits="userSpaceOnUse" x1="811.9601" y1="650.6842" x2="789.5588" y2="450.4742" gradientTransform="matrix(1 0 0 1 19.9447 0)">
		<stop  offset="9.595960e-002" style="stop-color:#45108A"/>
		<stop  offset="1" style="stop-color:#7C1DC9"/>
	</linearGradient>
	<path id="XMLID_435_" class="st62" d="M835,572.5l-8.5,7.9v0.2l13.5,5.8v7l-13.5-9.7v0.2l8.6,17.3l-5.6,0.4l-5.4-17.5l-0.2-0.1
		l-5.8,11.1l-5.1-6.7l8.5-7.6v-0.2l-13.3-5.7v-7l13.2,9.6v-0.2l-8.4-17.4l5.5-0.4l5.6,17.5l0.2,0.1l5.5-11.2L835,572.5z"/>
	
		<linearGradient id="XMLID_490_" gradientUnits="userSpaceOnUse" x1="846.3469" y1="646.8366" x2="823.9457" y2="446.6266" gradientTransform="matrix(1 0 0 1 19.9447 0)">
		<stop  offset="9.595960e-002" style="stop-color:#45108A"/>
		<stop  offset="1" style="stop-color:#7C1DC9"/>
	</linearGradient>
	<path id="XMLID_433_" class="st63" d="M872.2,594l-8.5,7.9v0.2l13.5,5.8v7l-13.5-9.7v0.2l8.6,17.3l-5.6,0.4l-5.4-17.5l-0.2-0.1
		l-5.8,11.1l-5.1-6.7l8.5-7.6v-0.2l-13.3-5.7v-7l13.2,9.6v-0.2l-8.4-17.4l5.5-0.4l5.6,17.5l0.2,0.1l5.5-11.2L872.2,594z"/>
	
		<linearGradient id="XMLID_491_" gradientUnits="userSpaceOnUse" x1="880.7315" y1="642.9894" x2="858.3303" y2="442.7794" gradientTransform="matrix(1 0 0 1 19.9447 0)">
		<stop  offset="9.595960e-002" style="stop-color:#45108A"/>
		<stop  offset="1" style="stop-color:#7C1DC9"/>
	</linearGradient>
	<path id="XMLID_431_" class="st64" d="M909.4,615.5l-8.5,7.9v0.2l13.5,5.8v7l-13.5-9.7v0.2l8.6,17.3l-5.6,0.4l-5.4-17.5l-0.2-0.1
		l-5.8,11.1l-5.1-6.7l8.5-7.6v-0.2l-13.3-5.7v-7l13.2,9.6v-0.2l-8.4-17.4l5.5-0.4l5.6,17.5l0.2,0.1l5.5-11.2L909.4,615.5z"/>
	
		<linearGradient id="XMLID_492_" gradientUnits="userSpaceOnUse" x1="915.1163" y1="639.1423" x2="892.715" y2="438.9323" gradientTransform="matrix(1 0 0 1 19.9447 0)">
		<stop  offset="9.595960e-002" style="stop-color:#45108A"/>
		<stop  offset="1" style="stop-color:#7C1DC9"/>
	</linearGradient>
	<path id="XMLID_429_" class="st65" d="M946.6,637l-8.5,7.9v0.2l13.5,5.8v7l-13.5-9.7v0.2l8.6,17.3l-5.6,0.4l-5.4-17.5l-0.2-0.1
		l-5.8,11.1l-5.1-6.7l8.5-7.6v-0.2l-13.3-5.7v-7l13.2,9.6v-0.2l-8.4-17.4l5.5-0.4l5.6,17.5l0.2,0.1l5.5-11.2L946.6,637z"/>
</g>
</svg>
