<?xml version="1.0" encoding="utf-8"?>
<!-- Generator: Adobe Illustrator 19.0.0, SVG Export Plug-In . SVG Version: 6.00 Build 0)  -->
<svg version="1.1" id="Layer_1" xmlns="http://www.w3.org/2000/svg" xmlns:xlink="http://www.w3.org/1999/xlink" x="0px" y="0px"
	 viewBox="0 0 640 480" style="enable-background:new 0 0 640 480;" xml:space="preserve">
<style type="text/css">
	.st0{fill:#111827;}
	.st1{fill:#111827;stroke:#1B2646;stroke-miterlimit:10;}
	.st2{fill:#1B2646;stroke:#1B2646;stroke-miterlimit:10;}
	.st3{fill:none;}
	.st4{fill:#537142;}
	.st5{font-family:'MyriadPro-Regular';}
	.st6{font-size:13.5283px;}
	.st7{fill:#EC6066;}
	.st8{letter-spacing:37;}
	.st9{fill:#A295C6;}
	.st10{fill:#609575;}
	.st11{fill:#61A494;}
	.st12{fill:#D8CBA9;}
	.st13{font-size:18px;}
	.st14{letter-spacing:36;}
	.st15{fill:#1B263D;stroke:#1B2646;stroke-miterlimit:10;}
	.st16{font-size:9.0189px;}
	.st17{fill:#EAECEF;}
	.st18{font-size:11.2736px;}
	.st19{fill:url(#XMLID_29_);}
	.st20{opacity:0.57;}
	.st21{fill:url(#XMLID_30_);}
	.st22{fill:url(#XMLID_31_);}
	.st23{opacity:0.65;}
	.st24{fill:url(#XMLID_32_);}
	.st25{opacity:0.31;fill:url(#XMLID_33_);stroke:#FFFFFF;stroke-width:2;stroke-miterlimit:10;}
	.st26{opacity:0.31;fill:none;stroke:#FFFFFF;stroke-width:2;stroke-miterlimit:10;}
	.st27{fill:none;stroke:#FFFFFF;stroke-miterlimit:10;}
	.st28{fill:none;stroke:#FFFFFF;stroke-width:2;stroke-miterlimit:10;}
</style>
<rect id="XMLID_1_" class="st0" width="640" height="480"/>
<path id="XMLID_2_" class="st1" d="M625.3,440.7H12c-6.6,0-12-5.4-12-12V55.9c0-6.6,5.4-12,12-12h613.3c6.6,0,12,5.4,12,12v372.8
	C637.3,435.3,631.9,440.7,625.3,440.7z"/>
<line id="XMLID_3_" class="st2" x1="0" y1="79.5" x2="637" y2="79.5"/>
<g id="XMLID_10_">
	<line id="XMLID_7_" class="st2" x1="36.5" y1="440" x2="36.5" y2="78"/>
	<rect id="XMLID_4_" x="82.7" y="98" class="st3" width="458.5" height="311.9"/>
	<text id="XMLID_5_" transform="matrix(1 0 0 1 82.6728 123.8696)"><tspan x="0" y="0" class="st4 st5 st6">&lt;</tspan><tspan x="8.1" y="0" class="st7 st5 st6">html</tspan><tspan x="34.5" y="0" class="st4 st5 st6">&gt;</tspan><tspan x="0" y="16.2" class="st4 st5 st6">&lt;</tspan><tspan x="8.1" y="16.2" class="st7 st5 st6">head</tspan><tspan x="36.5" y="16.2" class="st4 st5 st6">&gt;</tspan><tspan x="44.6" y="16.2" class="st5 st6">    </tspan><tspan x="0" y="32.5" class="st5 st6 st8">	</tspan><tspan x="40.6" y="32.5" class="st4 st5 st6">&lt;</tspan><tspan x="48.6" y="32.5" class="st7 st5 st6">meta</tspan><tspan x="77.7" y="32.5" class="st5 st6"> </tspan><tspan x="80.6" y="32.5" class="st9 st5 st6">charset</tspan><tspan x="121.7" y="32.5" class="st10 st5 st6">=&quot;</tspan><tspan x="134.3" y="32.5" class="st11 st5 st6">utf-8</tspan><tspan x="161.3" y="32.5" class="st10 st5 st6">&quot;</tspan><tspan x="165.9" y="32.5" class="st4 st5 st6">&gt;</tspan><tspan x="0" y="48.7" class="st5 st6 st8">	</tspan><tspan x="40.6" y="48.7" class="st4 st5 st6">&lt;</tspan><tspan x="48.6" y="48.7" class="st7 st5 st6">meta </tspan><tspan x="80.6" y="48.7" class="st9 st5 st6">name</tspan><tspan x="112.7" y="48.7" class="st10 st5 st6">=&quot;</tspan><tspan x="125.3" y="48.7" class="st11 st5 st6">viewport</tspan><tspan x="175.7" y="48.7" class="st10 st5 st6">&quot;</tspan><tspan x="180.3" y="48.7" class="st5 st6"> </tspan><tspan x="183.1" y="48.7" class="st9 st5 st6">content</tspan><tspan x="227.4" y="48.7" class="st10 st5 st6">=&quot;</tspan><tspan x="240" y="48.7" class="st11 st5 st6">width=device-width, initial-scale=1</tspan><tspan x="438.5" y="48.7" class="st10 st5 st6">&quot;</tspan><tspan x="443.1" y="48.7" class="st4 st5 st6">&gt;</tspan><tspan x="0" y="64.9" class="st5 st6 st8">	</tspan><tspan x="40.6" y="64.9" class="st4 st5 st6">&lt;</tspan><tspan x="48.6" y="64.9" class="st7 st5 st6">title</tspan><tspan x="70.7" y="64.9" class="st4 st5 st6">&gt;</tspan><tspan x="78.8" y="64.9" class="st12 st5 st6">WebAiid - Web Design &amp; Digital Agency</tspan><tspan x="301.5" y="64.9" class="st5 st6"> </tspan><tspan x="304.3" y="64.9" class="st4 st5 st6">&lt;/</tspan><tspan x="317" y="64.9" class="st7 st5 st6">title</tspan><tspan x="339.1" y="64.9" class="st4 st5 st6">&gt;</tspan><tspan x="0" y="81.2" class="st4 st5 st6">&lt;/</tspan><tspan x="12.7" y="81.2" class="st7 st5 st6">head</tspan><tspan x="41.1" y="81.2" class="st4 st5 st6">&gt;</tspan><tspan x="0" y="97.4" class="st4 st5 st6">&lt;</tspan><tspan x="8.1" y="97.4" class="st7 st5 st6">body</tspan><tspan x="37.2" y="97.4" class="st4 st5 st6">&gt;</tspan><tspan x="0" y="121.4" class="st5 st13 st14">	</tspan><tspan x="40.6" y="121.4" class="st4 st5 st13">&lt;</tspan><tspan x="51.3" y="121.4" class="st7 st5 st13">h2</tspan><tspan x="70.5" y="121.4" class="st4 st5 st13">&gt;</tspan><tspan x="81.3" y="121.4" class="st12 st5 st13"> Services </tspan><tspan x="149.8" y="121.4" class="st4 st5 st13">&lt;/</tspan><tspan x="166.7" y="121.4" class="st7 st5 st13">h2</tspan><tspan x="185.9" y="121.4" class="st4 st5 st13">&gt;</tspan><tspan x="0" y="145.4" class="st5 st13 st14">	</tspan><tspan x="40.6" y="145.4" class="st4 st5 st13">&lt;</tspan><tspan x="51.3" y="145.4" class="st7 st5 st13">span</tspan><tspan x="87.3" y="145.4" class="st4 st5 st13">&gt;</tspan><tspan x="98.1" y="145.4" class="st12 st5 st13">Custom Web Apps</tspan><tspan x="237.2" y="145.4" class="st4 st5 st13">&lt;/</tspan><tspan x="254.1" y="145.4" class="st7 st5 st13">span</tspan><tspan x="290.1" y="145.4" class="st4 st5 st13">&gt;</tspan><tspan x="0" y="169.4" class="st5 st13 st14">	</tspan><tspan x="40.6" y="169.4" class="st4 st5 st13">&lt;</tspan><tspan x="51.3" y="169.4" class="st7 st5 st13">span</tspan><tspan x="87.3" y="169.4" class="st4 st5 st13">&gt;</tspan><tspan x="98.1" y="169.4" class="st12 st5 st13">Search Engine Optimization</tspan><tspan x="306.8" y="169.4" class="st4 st5 st13">&lt;/</tspan><tspan x="323.7" y="169.4" class="st7 st5 st13">span</tspan><tspan x="359.7" y="169.4" class="st4 st5 st13">&gt;</tspan><tspan x="0" y="193.4" class="st5 st13 st14">	</tspan><tspan x="40.6" y="193.4" class="st4 st5 st13">&lt;</tspan><tspan x="51.3" y="193.4" class="st7 st5 st13">span</tspan><tspan x="87.3" y="193.4" class="st4 st5 st13">&gt;</tspan><tspan x="98.1" y="193.4" class="st12 st5 st13">WP Development</tspan><tspan x="229.7" y="193.4" class="st4 st5 st13">&lt;/</tspan><tspan x="246.6" y="193.4" class="st7 st5 st13">span</tspan><tspan x="282.7" y="193.4" class="st4 st5 st13">&gt;</tspan><tspan x="0" y="217.4" class="st5 st13 st14">	</tspan><tspan x="40.6" y="217.4" class="st4 st5 st13">&lt;</tspan><tspan x="51.3" y="217.4" class="st7 st5 st13">span</tspan><tspan x="87.3" y="217.4" class="st4 st5 st13">&gt;</tspan><tspan x="98.1" y="217.4" class="st12 st5 st13">Shopify Development</tspan><tspan x="261.9" y="217.4" class="st4 st5 st13">&lt;/</tspan><tspan x="278.8" y="217.4" class="st7 st5 st13">span</tspan><tspan x="314.8" y="217.4" class="st4 st5 st13">&gt;</tspan><tspan x="0" y="257.6" class="st4 st5 st6">&lt;/</tspan><tspan x="12.7" y="257.6" class="st7 st5 st6">body</tspan><tspan x="41.8" y="257.6" class="st4 st5 st6">&gt;</tspan><tspan x="0" y="273.9" class="st4 st5 st6">&lt;/</tspan><tspan x="12.7" y="273.9" class="st7 st5 st6">html</tspan><tspan x="39.2" y="273.9" class="st4 st5 st6">&gt;</tspan></text>
	<rect id="XMLID_6_" x="36.6" y="78.5" class="st15" width="19.7" height="362.3"/>
	<text id="XMLID_8_" transform="matrix(1 0 0 1 42.8398 93.5214)" class="st9 st5 st16">1</text>
	<text id="XMLID_41_" transform="matrix(1 0 0 1 42.8393 122.457)" class="st9 st5 st16">3</text>
	<text id="XMLID_42_" transform="matrix(1 0 0 1 42.8398 138.8036)" class="st9 st5 st16">4</text>
	<text id="XMLID_44_" transform="matrix(1 0 0 1 42.8393 156.2773)" class="st9 st5 st16">5</text>
	<text id="XMLID_45_" transform="matrix(1 0 0 1 42.8393 171.7788)" class="st9 st5 st16">6</text>
	<text id="XMLID_46_" transform="matrix(1 0 0 1 42.8393 186.1523)" class="st9 st5 st16">7</text>
	<text id="XMLID_47_" transform="matrix(1 0 0 1 42.8398 203.6264)" class="st9 st5 st16">8</text>
	<text id="XMLID_48_" transform="matrix(1 0 0 1 42.8398 220.8188)" class="st9 st5 st16">9</text>
	<text id="XMLID_49_" transform="matrix(1 0 0 1 41.7119 242.3203)" class="st9 st5 st16">10</text>
	<text id="XMLID_50_" transform="matrix(1 0 0 1 41.8392 266.2031)" class="st9 st5 st16">11</text>
	<text id="XMLID_51_" transform="matrix(1 0 0 1 41.7118 290.9348)" class="st9 st5 st16">12</text>
	<text id="XMLID_52_" transform="matrix(1 0 0 1 41.8393 315.8206)" class="st9 st5 st16">13</text>
	<text id="XMLID_53_" transform="matrix(1 0 0 1 41.8398 338.5253)" class="st9 st5 st16">14</text>
	<text id="XMLID_54_" transform="matrix(1 0 0 1 41.8393 360.4892)" class="st9 st5 st16">15</text>
	<text id="XMLID_55_" transform="matrix(1 0 0 1 41.7119 379.5546)" class="st9 st5 st16">16</text>
	<text id="XMLID_14_" transform="matrix(1 0 0 1 42 397.2213)" class="st9 st5 st16">17</text>
	<text id="XMLID_11_" transform="matrix(1 0 0 1 42.8393 106.6738)" class="st9 st5 st16">2</text>
	<text id="XMLID_9_" transform="matrix(1 0 0 1 56.3672 71.163)" class="st17 st5 st18">WebAiid Code</text>
</g>
<g id="XMLID_12_">
	
		<linearGradient id="XMLID_29_" gradientUnits="userSpaceOnUse" x1="7.266" y1="479.2404" x2="8.4153" y2="480.3897" gradientTransform="matrix(82.458 -19.2577 -17.0777 -73.1234 8140.1211 35670.832)">
		<stop  offset="0" style="stop-color:#4154F1"/>
		<stop  offset="1" style="stop-color:#FF498A"/>
	</linearGradient>
	<path id="XMLID_13_" class="st19" d="M607.4,398.4c10,5.6,19.9,10.5,25.1,18.7c5.1,8.4,5.5,20,1.1,28.8
		c-4.5,8.7-13.6,14.6-22.5,19.8c-9.1,5.2-17.9,9.6-28.3,10.6c-10.4,1.1-22.3-1.2-30.6-8.3c-8.1-7.1-12.7-19-10.4-28.8
		c2.3-10,11.4-17.8,18.5-27.3c7-9.4,11.9-20.6,19.4-22.9C587.2,386.3,597.3,392.7,607.4,398.4z"/>
</g>
<g id="XMLID_20_" class="st20">
	
		<linearGradient id="XMLID_30_" gradientUnits="userSpaceOnUse" x1="6.9336" y1="479.4113" x2="8.0829" y2="480.5605" gradientTransform="matrix(-29.5829 79.3413 70.3595 26.234 -32993.1875 -12749.9199)">
		<stop  offset="0" style="stop-color:#4154F1"/>
		<stop  offset="1" style="stop-color:#FF498A"/>
	</linearGradient>
	<path id="XMLID_21_" class="st21" d="M577.8,469.9c-10.2,5.3-19.7,10.8-29.5,10.6c-9.8-0.3-19.7-6.5-24.6-15
		c-4.8-8.5-4.7-19.4-4-29.7c0.7-10.4,1.9-20.3,6.8-29.5c4.8-9.3,13.3-18,23.9-20.9c10.4-2.9,22.8-0.1,29.8,7.3
		c7,7.4,8.5,19.4,12.5,30.6c4,11,10.6,21.4,8.4,28.9C599,459.8,588.1,464.7,577.8,469.9z"/>
</g>
<g id="XMLID_16_">
	
		<linearGradient id="XMLID_31_" gradientUnits="userSpaceOnUse" x1="4.1174" y1="487.0245" x2="4.6388" y2="487.5459" gradientTransform="matrix(-24.0879 81.1786 71.9888 21.3611 -34925.1211 -10738.8369)">
		<stop  offset="0" style="stop-color:#4154F1"/>
		<stop  offset="1" style="stop-color:#FF498A"/>
	</linearGradient>
	<path id="XMLID_17_" class="st22" d="M59.3,39.4c-4.4,2.7-8.6,5.5-13,5.7c-4.4,0.1-9.1-2.3-11.6-6c-2.4-3.7-2.7-8.6-2.7-13.3
		c0-4.7,0.2-9.2,2.2-13.6C36,7.9,39.6,3.7,44.2,2C48.9,0.4,54.6,1.3,58,4.4c3.4,3.1,4.4,8.5,6.6,13.4c2.1,4.9,5.4,9.3,4.7,12.8
		C68.5,34.2,63.7,36.7,59.3,39.4z"/>
</g>
<g id="XMLID_18_" class="st23">
	
		<linearGradient id="XMLID_32_" gradientUnits="userSpaceOnUse" x1="1.5687" y1="486.491" x2="3.2301" y2="488.1523" gradientTransform="matrix(5.7139 -24.4505 -36.2915 -8.4812 17751.5371 4212.4751)">
		<stop  offset="0" style="stop-color:#4154F1"/>
		<stop  offset="1" style="stop-color:#FF498A"/>
	</linearGradient>
	<path id="XMLID_19_" class="st24" d="M59.9,6.2c6.2-2.3,11.9-4.7,18.7-4.5c6.8,0.2,14.5,3,19.2,6.9c4.6,3.9,6.2,8.7,7.3,13.3
		c1.1,4.7,1.8,9.1-0.2,13.2c-1.9,4.1-6.4,8-13.2,9.2c-6.7,1.2-15.7-0.1-21.6-3.5C64,37.4,61.2,32,56.7,27c-4.4-5-10.5-9.6-10.2-13
		C46.8,10.6,53.6,8.5,59.9,6.2z"/>
</g>
<linearGradient id="XMLID_33_" gradientUnits="userSpaceOnUse" x1="571.4698" y1="32.06" x2="583.4534" y2="63.0868">
	<stop  offset="0" style="stop-color:#4154F1"/>
	<stop  offset="1" style="stop-color:#FF498A"/>
</linearGradient>
<ellipse id="XMLID_15_" class="st25" cx="577" cy="46.3" rx="12" ry="11.3"/>
<ellipse id="XMLID_23_" class="st26" cx="595" cy="57.3" rx="22.1" ry="20.9"/>
<polygon id="XMLID_22_" class="st27" points="580.3,186.2 577.4,185.3 575,187.2 574.9,184.1 572.4,182.4 575.3,181.4 576.1,178.5 
	577.9,180.9 581,180.8 579.2,183.3 "/>
<polygon id="XMLID_24_" class="st27" points="519.4,274.3 516,273.1 513,275.2 513.2,271.5 510.3,269.3 513.8,268.3 515,264.9 
	517,267.9 520.6,268 518.4,270.8 "/>
<polygon id="XMLID_25_" class="st27" points="577,314 572.6,312.2 568.7,314.7 569.1,310 565.5,307 570.1,306 571.8,301.7 
	574.2,305.7 578.9,305.9 575.8,309.5 "/>
<polygon id="XMLID_26_" class="st28" points="404.3,419 401,417.2 397.6,418.9 398.3,415.2 395.6,412.5 399.3,412 401,408.6 
	402.7,412 406.5,412.6 403.7,415.2 "/>
<polygon id="XMLID_27_" class="st27" points="301.7,424.3 294.6,420 287,423.4 289,415.3 283.4,409.2 291.7,408.5 295.8,401.4 
	299,409 307.1,410.7 300.8,416.1 "/>
</svg>
